<?xml version="1.0" encoding="utf-8"?>
<!-- Generator: Adobe Illustrator 28.2.0, SVG Export Plug-In . SVG Version: 6.00 Build 0)  -->
<svg version="1.1" id="Layer_1" xmlns="http://www.w3.org/2000/svg" xmlns:xlink="http://www.w3.org/1999/xlink" x="0px" y="0px"
	 viewBox="0 0 512 512" style="enable-background:new 0 0 512 512;" xml:space="preserve">
<style type="text/css">
	.st0{fill:#CE2327;}
	.st1{fill:#FFC30C;}
	.st2{fill:#FFE7A4;}
	.st3{fill:#DBA305;}
</style>
<g id="symbol_x5F_full">
	<polygon id="spiral_00000067216684902810076300000008612856845505986992_" class="st0" points="366.1,186.6 315.9,148.6 
		265.3,124.7 261,125.2 204.2,144.5 155.3,159.3 152.6,161.2 133.1,204.1 106.8,249.2 108.4,255.9 134.5,267.6 143.1,264.9 
		188,189.5 189.8,187.9 256.8,166.3 260.3,166.7 294.6,184.6 331.3,207.3 333.8,212 340.6,242.2 343.7,278.4 343.2,282 314.7,329.5 
		313.6,330.4 287.2,340.2 251.3,346.7 247.5,346.8 225.9,332.8 202.9,311.3 201.8,309 198.7,283.6 198.9,263 199.9,260.5 
		219.1,235.5 221.9,234 255.4,224 260.1,224.9 289.1,238.9 294.2,257 295.1,270.1 285.7,291.2 262.5,299.7 249.6,287.3 256,273 
		275.1,266.9 277.5,262.7 269,243 264.5,242.5 223.4,256.3 222.2,258.4 217.9,276.5 214.9,295.8 214.7,302.8 252.3,331.4 254.6,332 
		303.3,320.1 304.9,319 329,278.4 329.3,276.5 324.4,244.8 316.9,221.8 314.8,216.3 261.2,188.1 259.3,187.8 205.1,200.6 
		201.5,203.4 169.1,248.5 168.2,253.2 166.5,296.3 169.7,329.8 171.5,334.5 201.7,358.8 234.6,382.9 240.4,384.9 291.2,379.3 
		340.1,363.5 341.8,362.4 360.2,324.3 384.7,287.9 385,286.2 380.6,265.6 375.7,220.1 367.3,188.4 	"/>
	<g id="rays_00000093174816209404295400000011211676190400238257_">
		<g>
			<polygon class="st0" points="361.2,160.6 363,126.8 359.9,89.3 356.5,87 327.6,95.5 288.4,115.3 288.2,119.9 317.7,136.1 
				356.9,162.8 			"/>
			<polygon class="st0" points="168.9,141.5 170.7,143.1 213.5,129.4 247,118.7 247.7,114.2 216.3,90.2 197,67.2 193,68.5 
				177.8,108.6 			"/>
			<polygon class="st0" points="396.4,280.8 400.3,282.2 428.2,260.8 452.7,233.7 451.9,229.4 418,216.3 389.1,197.8 385.4,200.3 
				392.5,255.3 			"/>
			<polygon class="st0" points="358,360.5 360.5,364.4 394.3,366 423.2,361 424.8,356.9 408.6,332.2 394,302.7 389.4,302.2 
				370.9,330.8 			"/>
			<polygon class="st0" points="330.1,426.1 348.3,382.2 345,378.6 298.1,392.2 254.5,397.3 252.9,402.1 299.1,439.4 309,453.1 
				313.7,452.8 			"/>
			<polygon class="st0" points="195.3,371 162.5,356.1 158.2,359 158.4,393.8 156.3,424.2 159.6,426.6 175.5,422 225.5,400.3 
				226.7,395.6 			"/>
			<polygon class="st0" points="140.2,156.4 136.9,152.6 106.3,158.4 69.2,162.1 67.2,166 77.2,203.5 97.9,237.2 102.6,237.2 
				122.5,198.7 			"/>
			<path class="st0" d="M151.3,277.3l-2.4-2.3c-2.3-0.1-4.5,0.3-6.7,0.8c-1.8,0.4-3.6,0.7-5,0.6l-1.8,0.5l-9.8,6.4l-0.7,0.7
				L103,310.9l0.4,3.9l27,19.3l23.2,9.6l4.1-3.1l-3.6-35.5L151.3,277.3z"/>
		</g>
		<g>
			<polygon class="st0" points="361.2,160.6 363,126.8 359.9,89.3 356.5,87 327.6,95.5 288.4,115.3 288.2,119.9 317.7,136.1 
				356.9,162.8 			"/>
			<polygon class="st0" points="168.9,141.5 170.7,143.1 213.5,129.4 247,118.7 247.7,114.2 216.3,90.2 197,67.2 193,68.5 
				177.8,108.6 			"/>
			<polygon class="st0" points="396.4,280.8 400.3,282.2 428.2,260.8 452.7,233.7 451.9,229.4 418,216.3 389.1,197.8 385.4,200.3 
				392.5,255.3 			"/>
			<polygon class="st0" points="358,360.5 360.5,364.4 394.3,366 423.2,361 424.8,356.9 408.6,332.2 394,302.7 389.4,302.2 
				370.9,330.8 			"/>
			<polygon class="st0" points="330.1,426.1 348.3,382.2 345,378.6 298.1,392.2 254.5,397.3 252.9,402.1 299.1,439.4 309,453.1 
				313.7,452.8 			"/>
			<polygon class="st0" points="195.3,371 162.5,356.1 158.2,359 158.4,393.8 156.3,424.2 159.6,426.6 175.5,422 225.5,400.3 
				226.7,395.6 			"/>
			<polygon class="st0" points="140.2,156.4 136.9,152.6 106.3,158.4 69.2,162.1 67.2,166 77.2,203.5 97.9,237.2 102.6,237.2 
				122.5,198.7 			"/>
			<path class="st0" d="M151.3,277.3l-2.4-2.3c-2.3-0.1-4.5,0.3-6.7,0.8c-1.8,0.4-3.6,0.7-5,0.6l-1.8,0.5l-9.8,6.4l-0.7,0.7
				L103,310.9l0.4,3.9l27,19.3l23.2,9.6l4.1-3.1l-3.6-35.5L151.3,277.3z"/>
		</g>
	</g>
	<path id="frame_00000101808625596335077140000003457689846665206196_" class="st0" d="M508.9,176.5V9.5l-5.2-6.8l-246,2.6L7.5,8
		L0,13.3l2.6,102l3.9,273.4L4.4,499.2l8.1,6.3l62.5,1.7l372.5,2.7l62.1-5.2l2.4-2.7L508.9,176.5z M467.4,46.3l5.5,7.7l-3.7,162.7
		l3.7,246.2l-8.4,5.8l-137.9,4.2l-272.2-4.2l-7.3-4.6l2-69.7V146.8l-3.5-99.8l7-3.5l218.2,7.3L467.4,46.3z"/>
	<g id="stones_00000049919200668985139120000006075954559439495859_">
		<polygon class="st1" points="373.6,89.2 395.6,76.4 397.7,75.5 418.2,70.7 419.4,69.1 421.6,59.6 420.1,58.6 392.8,56.8 
			366.1,64.8 365.1,68.1 371.8,88.4 		"/>
		<path class="st1" d="M373.8,103.7l0.5,1l25,14.9l1.2-0.6l5.7-18.6l-0.1-1l-7.9-13l-1-0.4c-8.4,3.7-21.3,9.2-22.2,9.4l0,0.1
			l-0.8,0.8L373.8,103.7z"/>
		<path class="st2" d="M321,61.2l-47.5,1.2l-1.1,1.4c2.3,12.6,5.9,33.4,5.7,35.2l0.2,0l0,1c0.2,0.2,0.3,0.4,0.8,0.4
			c1.3,0,5-1.4,18.3-7.3l0.4-0.3l24-29.8L321,61.2z"/>
		<polygon class="st2" points="318.5,84.7 322.9,86 323.8,86 354.2,73.3 355,72.1 355,60.8 353.7,59.6 339.6,59.6 338.7,60 
			317.9,82.6 		"/>
		<polygon class="st1" points="235.8,90.6 264.4,105.5 266,104.4 263.5,69.1 263.1,68.3 255.2,61.5 254.5,61.2 216.9,61.2 216,63 
			224,75.3 		"/>
		<polygon class="st1" points="374.6,154 381.2,184.2 382.5,185.2 394.2,186.6 394.6,186.5 399.9,184.6 400.8,183.3 404.3,147.2 
			402.9,145.9 377.9,148.4 376.8,149.1 374.7,153.2 		"/>
		<polygon class="st1" points="401.5,136.3 394.9,126.6 394.5,126.3 372.3,116.5 370.9,117.4 370.9,136.9 371.9,137.9 400.7,137.9 
					"/>
		<polygon class="st1" points="460.9,94.5 462.1,94.1 459.9,57.3 458.6,56.2 434,56.8 433.3,58.2 442.9,79.4 		"/>
		<polygon class="st3" points="445.5,91.9 443.9,92.4 437.8,133.9 438,135 453.6,151.1 455.4,151 461.9,140.9 462.1,140.3 
			462.1,104.2 461.7,103.4 		"/>
		<polygon class="st1" points="434.2,93.3 429.1,80.9 428.5,80.5 419.6,75.8 418.3,76.1 410.5,84.5 410.2,85.6 414.1,96.7 415,97.4 
			426.1,98.2 434,94.6 		"/>
		<polygon class="st2" points="451.5,172.7 440.1,183.7 431.8,191 431.1,191.8 427.4,205.5 428.3,207 445.1,213.8 459.5,215.1 
			460.9,213.8 460.9,192.9 460.8,192.4 453.6,173.2 		"/>
		<polygon class="st2" points="455.3,269.1 460.3,256.2 459.2,254.3 452.7,253.2 451.7,253.4 436.1,267 436.1,267 417.9,282.3 
			417.8,283.8 428.3,294.2 428.9,294.5 451.9,297.3 453.1,296.4 454.1,285.4 		"/>
		<polygon class="st3" points="454.5,334.8 452.4,307.6 451.4,306.6 419.2,301.4 418.4,301.7 410.1,306.6 409.9,308 431.1,340 
			432.3,340.5 453.6,336 		"/>
		<polygon class="st1" points="446.1,380.8 452.3,383.9 453.7,383.5 455.6,370.1 455.7,369.2 454.5,356 455,346.8 453.8,345.3 
			436.9,349.5 436.2,350.4 435,355.2 435,356 445.8,380.1 		"/>
		<polygon class="st3" points="436.9,413.1 448.6,398.9 448.7,397.6 441.6,385.7 431,376.2 430.1,375.9 402.3,379.9 401.4,381.1 
			403.4,398.4 403.7,399.1 420.7,416 421.7,416.3 436.3,413.5 		"/>
		<polygon class="st1" points="395.3,400.8 396.4,398.6 396.2,397.3 390,390.9 388.2,377.2 387.2,376.3 376.9,375.1 365.3,376.3 
			364.5,376.8 356.8,388.1 354.7,397.4 355.2,398.5 366.5,405 367.1,405.1 394.5,401.4 		"/>
		<polygon class="st1" points="446,420.9 425.5,430.6 424.8,431.6 422.2,457 423.5,458.4 457.2,456.4 458.3,455.3 461.2,433.3 
			458.9,401.5 456.7,401 		"/>
		<polygon class="st1" points="384.9,445.9 383.3,444.1 382.4,443.8 364.9,446.7 346.9,441.1 345.8,441.5 333.2,459.6 333.9,460.9 
			361.3,462.9 381.3,459 381.9,458.4 385,446.7 		"/>
		<polygon class="st2" points="271.6,437.7 270.8,437.5 235.5,441.1 234.9,441.3 217.6,453.2 217.2,453.7 215,459.7 216.1,461.2 
			259.1,463.5 298.7,463.9 299.7,462.1 291.1,450 		"/>
		<polygon class="st1" points="219.2,432.1 209.2,424.7 208.3,424.5 182.6,429.5 180.7,430.5 175.1,440.2 174.7,442.4 194.7,457.7 
			195.9,457.8 200.5,455.5 201.4,454.1 205.2,448.9 219.4,433.8 		"/>
		<polygon class="st1" points="249,414.3 235.8,414.3 235.2,414.4 223.4,421.6 223.1,423.2 227.5,428.8 228.1,429.2 238.1,432.4 
			238.6,432.5 262.6,430.2 263.5,429.7 266,426.6 265.7,425 249.6,414.5 		"/>
		<polygon class="st2" points="403.8,421 396,412.3 393.2,411.6 369.6,417.4 366,416.2 355.7,410.5 354.9,410.3 351.5,411.3 
			350.7,412.7 350.9,427.2 351.5,428.4 365,436.1 367.2,436.5 384.4,433.1 396,436.3 406,433.8 407.1,432.2 		"/>
		<polygon class="st1" points="409.6,458.9 410.4,458.3 417.6,446 416.3,444.3 395.1,445.1 394.1,446 391.4,458.3 392.6,459.6 		"/>
		<polygon class="st1" points="59.4,94.5 66.5,100.1 67.3,100.3 74.4,98.8 75.1,98.2 82,85 96.8,69.5 97.1,69 99,59.3 98.2,58 
			83.7,54.6 83.4,54.6 59.9,56.8 59.1,57.4 55.4,64.6 55.3,65.2 59,93.8 		"/>
		<polygon class="st2" points="131.2,91.4 132.1,91.7 135.7,91.5 136.6,90.9 152.7,62.7 152,61.2 135.7,55.8 114.7,55.7 113.6,56.7 
			112.3,71 112.6,71.9 		"/>
		<polygon class="st3" points="144.2,100.4 149.4,107.8 162,115.2 163.4,114.5 168.3,97.9 183,68.1 183,67.1 181.4,61.9 180.3,61.1 
			163.7,62 162.9,62.6 144.2,99.1 		"/>
		<polygon class="st3" points="101,78.3 94.5,85.5 88.7,93.7 88.5,94.1 87.3,105.1 87.9,106.1 110.4,115.1 111.5,114.6 119.4,98.9 
			119.5,98 116.4,90.9 104.8,77.9 104,77.6 101.6,78 		"/>
		<polygon class="st2" points="124.6,135 131.9,132.3 139.5,135.4 140.4,135.3 149.1,129.2 149.5,128.7 152.7,119.2 152.2,118 
			140.1,111.1 136.4,104.6 135.4,104.1 132.3,104.5 131.5,105.1 120.4,130.9 120.6,132.1 123.6,134.8 		"/>
		<polygon class="st3" points="58.5,145.3 58.7,146.5 60.4,150.4 61.8,151.2 76.3,146.5 90.3,143.6 91.3,141.2 85.5,118.6 
			84.5,117.5 73.9,115.6 64,109.9 62.9,110 62,110.7 61.4,112 		"/>
		<polygon class="st1" points="115.4,131.5 114.8,130.4 99.4,122.2 98.5,122.2 95.7,123.8 95,125.4 99.9,147.4 101.5,148.3 
			109.8,142.9 115.5,141.7 116.4,140.2 		"/>
		<polygon class="st3" points="91.9,440.1 90.2,438.5 84,407.6 83.2,407 79.1,403.8 78.2,403.9 65.7,411.9 64.1,413.4 59.9,439.9 
			63.1,453 63.9,453.7 79,457.2 105.5,458 114.2,458 115.3,456.9 115.2,453.7 114.7,452.9 		"/>
		<polygon class="st1" points="162,445.6 161.4,445.3 134,442.1 133,442.5 126.2,449.8 126.6,451.6 131.2,458.2 133,459.2 
			169.4,458.4 170.3,457.7 171.7,454.4 171.3,453.2 		"/>
		<polygon class="st1" points="406.2,187.6 419.9,195.6 420.9,195.4 429.4,179.4 439.7,168 446.2,163.9 446.9,163.1 447.6,159.7 
			447.3,158.7 438,147.7 437.4,147.5 416.5,150.1 415.6,151 405.8,186.6 		"/>
		<polygon class="st3" points="430.7,106 417,106.3 415.8,107.1 407.1,128.3 407.3,129.4 415.9,139.9 417.1,140.3 427.6,136.9 
			428.7,135 432.2,107.3 		"/>
		<polygon class="st2" points="112.7,392.7 111.3,393.1 96.6,405.9 96.1,407.5 102.9,431 103.9,432 114.4,435.7 115.1,435.8 
			143.7,432.1 145.6,429.9 141.6,402.7 138.5,399.2 		"/>
		<polygon class="st1" points="96.5,384.5 98.2,361.1 97.2,359.2 68,352.6 66.5,353.8 62.8,366.6 63.2,369.9 71.4,394.8 73.2,395.8 
			95.8,385.6 		"/>
		<polygon class="st1" points="141.9,367.8 137.6,351.6 136.7,350.7 115.6,345.3 114.1,346.4 107.6,369.1 107.7,371 108.3,378.3 
			109.3,379.8 137,389.8 138.5,388.7 141.9,368.5 		"/>
		<polygon class="st2" points="67.9,293.3 69.4,308.8 69.3,317.4 66.7,340.3 67.9,342.1 96.4,348.7 97.8,348.4 106.6,337.6 
			106.8,335.6 93.1,321 92.3,318.1 89.3,295.8 86.9,294.7 69.8,292 		"/>
		<polygon class="st1" points="89.7,258.8 90.5,255.1 74.4,220.8 71.8,218.8 63.5,216.3 60.5,221 67.4,272.9 71,273.4 		"/>
		<polygon class="st2" points="83.6,279.5 105.7,288.9 107.8,287.7 114,278.2 114.4,276 105.7,263.9 103.4,262.9 83.2,277.2 		"/>
	</g>
</g>
</svg>
