<?xml version="1.0" encoding="utf-8"?>
<!-- Generator: Adobe Illustrator 28.2.0, SVG Export Plug-In . SVG Version: 6.00 Build 0)  -->
<svg version="1.1" id="Layer_1" xmlns="http://www.w3.org/2000/svg" xmlns:xlink="http://www.w3.org/1999/xlink" x="0px" y="0px"
	 viewBox="0 0 512 512" style="enable-background:new 0 0 512 512;" xml:space="preserve">
<style type="text/css">
	.st0{fill:#CE2327;}
	.st1{fill:#FFC30C;}
	.st2{fill:#FFE7A4;}
	.st3{fill:#DBA305;}
</style>
<g>
	<path id="frame_00000173144080129865609070000000718860157688942254_" class="st0" d="M176.1,3.8H9.3L2.6,8.9l2.6,245.7l2.7,249.9
		l5.3,7.5l101.9-2.6l273.1-3.9l110.3,2.1l6.3-8.1l1.7-62.5l2.7-372l-5.1-62l-2.7-2.4L176.1,3.8z M46.1,45.2l7.7-5.5l162.5,3.7
		l245.9-3.7l5.8,8.4l4.2,137.7l-4.2,271.9l-4.6,7.3l-69.6-2H146.5l-99.6,3.5l-3.5-7l7.3-217.9L46.1,45.2z"/>
	<polygon class="st1" points="88.9,138.8 76.1,116.9 75.2,114.8 70.5,94.3 68.8,93.1 59.4,90.9 58.3,92.4 56.6,119.6 64.5,146.4 
		67.9,147.3 88.1,140.6 	"/>
	<path class="st2" d="M103.4,138.7l1-0.5l14.9-25l-0.6-1.2l-18.6-5.7l-1,0.1l-13,7.9l-0.4,1c3.7,8.4,9.2,21.2,9.4,22.1l0.1,0
		l0.8,0.8L103.4,138.7z"/>
	<path class="st1" d="M60.7,191.4l0.9,47.4l1.1,1.1c9.7-2.3,25.6-5.9,27-5.7c0.3-0.4,0.6-0.8,0.9-1.2c0.4-6.1,0.9-12.2,1.3-18.3
		c-0.2-0.6-0.3-1.2-0.5-1.8c-9.8-7.5-19.5-14.9-29.3-22.4L60.7,191.4z"/>
	<path class="st2" d="M94.4,201.6c0.9-2,1.7-3.9,2.6-5.9c0-0.7,0-1.4,0-2c-8.1-12.4-16.2-24.9-24.3-37.3l-1-0.8h-10l-1.1,1.3v14.1
		l0.4,0.9c10.7,10.1,21.3,20.1,32,30.2C93.4,201.9,93.9,201.8,94.4,201.6z"/>
	<path class="st2" d="M393.9,286.4c2.8-1.3,5.5-2.5,8.3-3.8c0.6-0.7,1.3-1.4,1.9-2.1c3.1-20.6,6.3-41.2,9.4-61.8l-0.4-1.8l-10.4-9.3
		l-2.4,0.3l-13.2,14.7l-0.5,1.3c1.7,20.5,3.5,41,5.2,61.6C392.5,285.8,393.2,286.1,393.9,286.4z"/>
	<path class="st3" d="M118.3,282.6c-0.6-0.4-1.1-0.8-1.7-1.1c-5.3,0.4-10.7,0.8-16,1.1c-0.4,0.5-0.8,1-1.2,1.6
		c-1.4,4.5-2.7,9-4.1,13.6c-0.2,0.8-0.4,1.7-0.6,2.5c2.5,8.6,5,17.2,7.5,25.7c-0.6,2.4-1.2,4.7-1.8,7.1c0.1,0.4,0.1,0.8,0.2,1.3
		l6.9,5.6l1.7-0.5l10-12.3l0.4-1c-0.2-13.8-0.5-27.7-0.7-41.5C118.6,284,118.4,283.3,118.3,282.6z"/>
	<path class="st2" d="M303.4,354.4c0.7,1.8,1.3,3.5,2,5.3c0.4,0.4,0.8,0.8,1.2,1.2c12.7,2.5,25.5,5,38.2,7.5l1.1-0.2l6.3-6.3
		l-0.1-1.5l-8.6-8.6l-0.8-0.3c-12.9,0.6-25.8,1.1-38.7,1.7C303.8,353.5,303.6,354,303.4,354.4z"/>
	<polygon class="st1" points="82.4,269 92.7,246.8 91.9,245.5 67.6,247.4 67,247.8 62.4,253.9 62.2,254.5 62.2,283.7 63.5,284.4 
		71.9,278.1 	"/>
	<path class="st1" d="M411.4,183.5c-0.3,4.4-0.5,8.8-0.8,13.2c0.1,0.2,0.3,0.4,0.4,0.7c0.9,0.9,1.8,1.8,2.7,2.7
		c0.2-0.1,0.4-0.1,0.6-0.2c4.3-3.7,8.5-7.5,12.8-11.2c0.1-0.1,0.1-0.3,0.2-0.4l0.6-4.9l-0.1-0.3l-9.9-14.6l-1,0.1l-2.7,6.4
		L411.4,183.5z"/>
	<path class="st2" d="M102.5,220.2c0,5.3-0.1,10.6-0.1,15.9c0.2,0.3,0.4,0.5,0.5,0.8c1.1,1,2.3,2,3.4,3c0.2-0.1,0.4-0.2,0.7-0.3
		c4.9-4.7,9.8-9.5,14.6-14.2c0.1-0.2,0.2-0.3,0.2-0.5l0.4-5.9l-0.1-0.4l-12.7-16.9l-1.1,0.2l-2.8,7.8L102.5,220.2z"/>
	<path class="st3" d="M133.2,156c15-3,30-6.1,45.1-9.1l1.4-1.7l2.4-15l-0.1-0.5l-2.2-6.9l-1.6-1.2l-46.5-6.4l-1.7,1.8
		c-3.2,6.9-6.4,13.8-9.5,20.7c-0.1,0.5-0.1,1-0.2,1.5c0.2,0.5,0.3,1,0.5,1.5c3.2,4.7,6.3,9.4,9.5,14c0.3,0.4,0.6,0.8,0.9,1.2
		C131.8,155.8,132.5,155.9,133.2,156z"/>
	<polygon class="st1" points="94.2,51.6 93.8,50.4 57.1,52.7 55.9,53.9 56.6,78.5 57.9,79.2 79.2,69.6 	"/>
	<polygon class="st2" points="91.6,67 92.1,68.6 133.6,74.8 134.6,74.6 150.7,58.9 150.6,57.2 140.5,50.6 140,50.4 103.9,50.4 
		103.1,50.9 	"/>
	<polygon class="st1" points="93,78.3 80.6,83.5 80.2,84 75.6,92.9 75.8,94.2 84.3,102 85.3,102.3 96.4,98.4 97.1,97.5 97.9,86.4 
		94.3,78.5 	"/>
	<polygon class="st1" points="381,121.7 383.5,138.9 384,139.6 393.6,148.3 395.3,148.4 407.8,140.4 408.6,139.2 407.3,124 
		406.5,122.8 392.8,118.2 381.7,120.1 	"/>
	<polygon class="st1" points="172.4,61 183.3,72.4 190.6,80.8 191.4,81.4 205,85.1 206.6,84.2 213.4,67.4 214.6,53 213.4,51.7 
		192.5,51.6 192,51.7 172.8,58.9 	"/>
	<path class="st2" d="M268,55.4l-12.8-5.1l-1.9,1.1l-1.1,6.5l0.2,1l13.5,15.6l0,0c-0.4,6.3-0.8,12.5-1.2,18.8
		c0.9,0.8,1.8,1.6,2.7,2.3c8.6-4.5,17.1-8.9,25.7-13.4l0.3-0.6l2.9-23l-0.9-1.1l-11-1L268,55.4z"/>
	<polygon class="st1" points="334.2,53.1 307.1,55.1 306,56.2 300.9,88.3 301.2,89.1 306.1,97.4 307.5,97.6 339.4,76.4 339.9,75.2 
		335.4,53.9 	"/>
	<path class="st2" d="M113,454.2l20.8-2.2l0.8-0.8l3.2-24.9l-0.2-0.6c-0.7-4.4-1.5-8.7-2.2-13.1c-1.4-2.6-2.8-5.1-4.2-7.7
		c-0.6,0.2-1.1,0.4-1.7,0.6c-2.2,6.5-4.4,13-6.6,19.5c-0.2,0.5-0.5,1-0.7,1.6c-4.6,3.3-9.2,6.5-13.8,9.8c-0.1,0.3-0.3,0.6-0.4,0.9
		C109.7,442.9,111.4,448.5,113,454.2z"/>
	<polygon class="st1" points="381.3,58.9 384.4,52.7 384,51.2 370.6,49.3 369.8,49.2 356.5,50.5 347.4,50 345.9,51.2 350.1,68.1 
		351,68.7 355.7,69.9 356.6,69.9 380.6,59.2 	"/>
	<polygon class="st1" points="412.4,75.6 398.2,64 397,63.9 385.1,71 375.6,81.5 375.3,82.4 379.3,110.2 380.5,111.1 397.8,109.1 
		398.4,108.8 415.3,91.8 415.6,90.8 412.8,76.3 	"/>
	<path class="st1" d="M150.6,72.6c-2.2,2.9-4.3,5.9-6.5,8.8c-0.1,0.7-0.1,1.4-0.2,2.2c1.6,7.3,3.3,14.5,4.9,21.8
		c0.7,0.6,1.4,1.2,2.2,1.8c2.7,1.5,5.4,3,8,4.5c0.8,0.1,1.7,0.3,2.5,0.4c8,0,15.9,0,23.9,0c0.5-0.5,0.9-0.9,1.4-1.4
		c0.5-0.7,0.9-1.3,1.4-2c1.2-4.4,2.5-8.9,3.7-13.3c-0.2-0.8-0.4-1.6-0.6-2.4c-2.7-3.1-5.4-6.1-8.1-9.2c-0.1-0.2-0.2-0.4-0.4-0.6
		l-17.3-14.6l-1-0.2C159.9,69.8,155.3,71.2,150.6,72.6z"/>
	<polygon class="st2" points="420.2,66.5 429.9,87 430.9,87.7 456.3,90.3 457.7,89 455.7,55.4 454.6,54.2 432.6,51.4 400.9,53.6 
		400.3,55.9 	"/>
	<polygon class="st3" points="445.2,127.6 443.4,129.2 443.1,130 446,147.5 440.4,165.6 440.8,166.6 458.8,179.2 460.2,178.5 
		462.1,151.2 458.3,131.2 457.6,130.5 446,127.4 	"/>
	<polygon class="st1" points="433.1,291.5 425.7,301.4 425.5,302.4 430.5,328.1 431.5,329.9 441.2,335.5 443.3,335.9 458.7,316 
		458.8,314.8 456.5,310.2 455,309.3 449.8,305.5 434.7,291.3 	"/>
	<polygon class="st3" points="385,174.7 384.9,189.1 385,189.8 392.8,202.7 394.5,203.1 400.7,198.4 401.2,197.8 404.8,186.8 
		404.8,186.2 402.5,159.9 402.1,159 398.7,156.2 396.9,156.5 385.2,174 	"/>
	<polygon class="st2" points="420,105.6 411.4,113.3 410.6,116.1 416.5,139.7 415.3,143.3 409.5,153.6 409.3,154.4 410.4,157.8 
		411.8,158.6 426.2,158.4 427.5,157.8 435.1,144.4 435.5,142.2 432.1,125 435.3,113.4 432.8,103.3 431.2,102.2 	"/>
	<polygon class="st1" points="101.9,247.4 100.9,248.4 92.6,270.8 94.1,273.7 118.9,272.2 120.1,270.6 123.1,248.3 121.7,246 	"/>
	<polygon class="st3" points="94.2,452.7 99.8,445.6 100,444.7 98.5,437.7 97.9,437 84.7,430.1 69.3,415.3 68.7,415.1 59,413.1 
		57.8,413.9 54.4,428.4 54.3,428.7 56.6,452.1 57.1,453 64.4,456.7 65,456.8 93.5,453.1 	"/>
	<polygon class="st1" points="247,127.6 245.8,140.9 246.2,142.1 253.7,149.6 254.9,150 276.9,148 307.9,153.9 308.7,153.8 
		322.4,148.4 323.3,146.5 315.9,125.8 315.6,125.3 294.1,98.1 292.8,97.5 280.8,98.8 280,99.1 247.6,126.6 	"/>
	<polygon class="st2" points="80.7,326.2 87.9,325.5 88.5,325.2 91.8,320.5 91.9,319.8 88.8,308.3 88.9,291.1 88.8,290.7 
		84.6,283.9 83.5,283.6 73.1,289.5 72.9,289.7 60.4,303.8 60.2,304.6 62,310.9 62.3,311.3 80.1,326 	"/>
	<path class="st2" d="M232.4,424l3.3-11.8l-0.2-1.2l-5.3-8.4l-1-0.7c-8.2-3.5-16.5-7-24.7-10.5c-7.3-1.1-14.7-2.2-22-3.3
		c-0.3,0.1-0.6,0.1-0.9,0.2c-3.3,0.6-6.5,1.1-9.8,1.7c-0.5,0.3-1.1,0.6-1.6,0.8c-0.3,0.6-0.6,1.3-0.9,1.9c0.8,6.1,1.6,12.2,2.4,18.3
		l0.1,0.4l14.3,29.4l1.1,0.8l10.7,1.4l0.8-0.1C210,436.6,221.2,430.3,232.4,424z"/>
	<polygon class="st1" points="91.1,380.9 91.4,380.1 91.2,376.4 90.6,375.6 62.5,359.5 60.9,360.1 55.5,376.5 55.5,397.4 
		56.5,398.5 70.7,399.8 71.6,399.5 	"/>
	<path class="st2" d="M328.8,112.8l0,1l1.8,3.5l1,0.6l37.6,2.6l1.5-1.4l-1.1-18.7l-8.9-20.8L359,79c-4.6,1.9-9.3,3.9-13.9,5.8
		c-0.2,0.3-0.5,0.5-0.7,0.8c-7.4,4.4-14.9,8.8-22.3,13.2c-0.1,0.5-0.3,1.1-0.4,1.6c0.1,0.5,0.1,1.1,0.2,1.6
		C324.1,105.6,326.4,109.2,328.8,112.8z"/>
	<path class="st2" d="M292.8,355.3l-0.4-1l-3-2.8l-1.1-0.3l-35.4,9.2l-0.8,1.7c-1.6,6.4-3.3,12.9-4.9,19.3c0,0.9-0.1,1.8-0.1,2.6
		c2.5,6.5,4.9,12.9,7.4,19.4c0.2,0.2,0.4,0.5,0.6,0.7c0.3,0,0.6,0.1,0.9,0.1c7.1-2.5,14.2-5.1,21.3-7.6c0.5,0,1-0.1,1.5-0.1
		c4.2-3.4,8.4-6.8,12.6-10.2l0.5-0.9L292.8,355.3z"/>
	<polygon class="st1" points="100.1,367.9 107.5,362.8 114.9,350.2 114.2,348.7 97.6,343.9 67.8,329.3 66.9,329.2 61.6,330.9 
		60.9,331.9 61.8,348.5 62.3,349.3 98.8,368 	"/>
	<polygon class="st1" points="417.8,303.9 408.8,297.4 390.4,293.6 388.9,294.9 388.9,316.2 381.6,356.8 381.9,357.9 385.9,363.4 
		387.4,363.9 407.7,356.4 408.5,355.4 418.4,305.4 	"/>
	<polygon class="st1" points="150.9,447.3 159.6,449.3 174,446.5 174.6,445.1 167.2,429.4 158.4,397.4 157.8,396.7 153.1,393.9 
		151.8,394 140,405.6 139.8,406.6 150,446.3 	"/>
	<polygon class="st1" points="80.4,410.1 88.2,417.2 97.1,423.5 97.6,423.7 109.4,425 110.5,424.3 120.2,400 119.7,398.7 
		102.7,390.2 101.8,390.2 94,393.4 80,406 79.7,406.9 80,409.5 	"/>
	<path class="st2" d="M197.3,150.3c4.4,1.2,8.8,2.4,13.2,3.6c4.3-2.2,8.7-4.4,13-6.7l1.6-0.4l13.7-12.9l0.5-1l3.1-17.4l-1.1-2.1
		l-23-9.1L210.3,94l-1.8-0.6l-5.4,1.4l-1.2,1.3l-13,48l0.8,2.1C192.2,147.6,194.7,148.9,197.3,150.3z"/>
	<path class="st1" d="M215.6,354.8c-0.5,0.4-0.9,0.7-1.4,1.1c-6,6.7-12,13.4-17.9,20.1c-0.2,0.9-0.4,1.8-0.6,2.7
		c0.2,0.8,0.4,1.6,0.6,2.4l2.1,2.5l40.2,12.7l2.8-1.7l-0.9-18.6l3.3-10.2l-1.7-2.9c-3.1-2.3-6.1-4.6-9.2-7
		c-5.2-0.6-10.5-1.1-15.7-1.7C216.7,354.4,216.2,354.6,215.6,354.8z"/>
	<polygon class="st3" points="439.4,420.2 437.8,422 406.9,428.1 406.3,428.9 403.2,433 403.3,433.9 411.3,446.4 412.8,447.9 
		439.2,452.2 452.3,449 452.9,448.2 456.4,433.1 457.3,406.6 457.3,398 456.2,396.9 453,397 452.2,397.4 	"/>
	<polygon class="st1" points="444.9,350.2 444.6,350.8 441.4,378.1 441.8,379.1 449.1,385.9 450.8,385.6 457.5,380.9 458.4,379.1 
		457.7,342.8 457,341.9 453.7,340.5 452.5,340.9 	"/>
	<polygon class="st1" points="102.1,149.1 90.2,157.2 90,158.1 99.8,171.4 105.1,184.4 106,191.3 106.4,192.1 108.9,194.1 
		109.8,194.2 122.6,190.9 123,190.4 129,172.2 128.6,171.1 103.1,149.1 	"/>
	<polygon class="st1" points="336,131.5 334.3,145 334.8,145.8 350.3,147.2 362.8,151.5 368.2,155.3 369.1,155.5 372.1,154.9 
		372.7,154.4 378.4,143.3 378.3,142.8 369.3,127.1 368.2,126.7 336.7,130.8 	"/>
	<polygon class="st1" points="103.3,81.8 103.7,95.5 104.5,96.7 125.6,105.4 126.7,105.2 137.2,96.6 137.6,95.4 134.3,85 
		132.3,83.8 104.7,80.3 	"/>
	<polygon class="st2" points="392.1,399.4 392.4,400.8 405.2,415.5 406.8,416 430.3,409.2 431.3,408.2 435,397.8 435.1,397.1 
		431.4,368.5 429.2,366.6 402,370.6 398.5,373.7 	"/>
	<polygon class="st1" points="383.9,415.6 360.4,413.9 358.6,414.9 352,444.1 353.2,445.6 366,449.3 369.2,448.9 394.2,440.6 
		395.1,438.9 385,416.3 	"/>
	<polygon class="st3" points="215.6,82.8 231.5,100.1 233.5,100.6 258.3,83.9 258.4,82 251.7,70.5 249,68.6 225.2,57.5 223.3,58.2 
		215.3,81.6 	"/>
	<polygon class="st1" points="366.6,368.9 348.8,373.7 347.7,374.7 341.9,398 343,399.6 368.1,406.7 370.2,406.7 378.2,406 
		379.9,404.9 390.9,374.4 389.6,372.7 367.4,368.9 	"/>
	<polygon class="st2" points="292.8,444.1 308.3,442.7 316.8,442.8 339.7,445.3 341.5,444.2 348.1,415.7 347.8,414.3 337.1,405.5 
		335,405.4 320.4,419 317.6,419.8 295.3,422.8 294.2,425.2 291.5,442.3 	"/>
	<polygon class="st1" points="265.4,427.9 261.9,426.5 225.4,435.8 223,437.9 219.2,445.1 223.3,448.6 275.5,450.8 276.6,447.6 	"/>
	<polygon class="st3" points="282.5,436.6 292,414.5 290.7,412.4 281.3,406.2 279,405.8 266.9,414.4 265.9,416.8 280.3,436.9 	"/>
	<polygon class="st1" points="169.8,51.2 159.7,50.6 159,51.4 157.9,56 158.1,57 163.2,60.6 164.3,60.6 170.3,52 	"/>
	<path class="st1" d="M172,383.7c7.2-4.2,14.4-8.3,21.7-12.5c0.8-1.3,1.7-2.5,2.5-3.8c0.7-3.1,1.4-6.1,2.1-9.2l-1.4-2.3l-17.4-3.9
		l-2.9,1l-6.5,28.9L172,383.7z"/>
	<path class="st1" d="M231.6,153.9c3.2,0,6.4,0,9.7,0.1c0.5-0.3,1-0.5,1.6-0.8c0.8-0.9,1.7-1.8,2.5-2.7l0-1.1l-5-4.7l-1.2-0.2
		l-7.8,8.4L231.6,153.9z"/>
	<path class="st1" d="M118.7,342.3c3.2,0,6.4,0,9.7,0.1c0.5-0.3,1-0.5,1.6-0.8c0.8-0.9,1.7-1.8,2.5-2.7l0-1.1l-5-4.7l-1.2-0.2
		l-7.8,8.4L118.7,342.3z"/>
	<path class="st1" d="M317.8,407.1l-5.4,1.3l-14.8-0.7l-1.2-1.2c-2.3-1.9-4.5-3.8-6.8-5.8c-0.1-0.6-0.2-1.2-0.3-1.8
		c2-1.7,4-3.4,6-5.1c0.5-0.7,1-1.4,1.5-2.1c0.1-0.7,0.1-1.5,0.2-2.2c1.7-5.8,3.4-11.6,5.1-17.4c0.3-0.5,0.6-0.9,0.9-1.4
		c0.5-0.3,1-0.5,1.5-0.8c10.9,2.4,21.8,4.8,32.8,7.1c0.3,0.6,0.5,1.1,0.8,1.7l-4.8,18.7l-6.3,5.9L317.8,407.1z"/>
	<path class="st2" d="M143.2,390l-6.5,1.6l-17.8-0.8l-1.5-1.4c-3.8-1.5-7.6-3-11.3-4.6c-0.5-0.6-1-1.1-1.5-1.7
		c-0.1-0.7-0.1-1.4-0.2-2.1c1.5-3.5,2.9-6.9,4.4-10.4c2.3-2.2,4.5-4.3,6.8-6.5c4.5-5,9-10,13.5-14.9h2.5l35.1,4.5l0.9,2l-5.8,22.6
		l-7.6,7.1L143.2,390z"/>
	<polygon class="st1" points="255.3,419.4 253.5,421 244.9,422.7 243.7,421.6 241.2,408.4 242.3,406.5 253.8,416.1 	"/>
	<path class="st2" d="M435.1,222.4l11.4-9.7l12.4-6.1l3.2-3.2v-12.5l-2-6.9H459l-4.2,1.1l-1-0.4l-7.8-6.9l-6.1-2.1l-0.7,0.3
		c-2.4,4.5-4.9,9.1-7.3,13.6c0,0.3,0,0.7,0,1c0.1,3.2,0.2,6.4,0.2,9.6c-0.3,0.5-0.5,1-0.8,1.5l-2.3,5.2l-6.9,8.8v1l5.4,5.6l0.9,0.8
		L435.1,222.4z"/>
	<path class="st1" d="M419.2,353c1.1-3.7,2.2-7.4,3.3-11.1c0.4-0.5,0.8-0.9,1.1-1.4c1.6-0.8,3.2-1.6,4.9-2.4l11.4,5.3l0.5,1.7
		l-1.7,10.2l-1,1.2l-10.2,4h-1.5l-6.9-6.6V353z"/>
	<path class="st1" d="M245.5,103.4c-0.1,0.4-0.1,0.8-0.2,1.2c0.8,2.5,1.6,4.9,2.4,7.4l0.7,0.5l3.9,0.5l0.8-0.5
		c2.5-2.2,5.1-4.5,7.6-6.7c0.1-0.2,0.1-0.5,0.2-0.7c-0.4-1.1-0.8-2.3-1.2-3.4c-1.1-0.9-2.3-1.9-3.4-2.8c-1-0.7-2-1.5-3-2.2
		c-0.1,0-0.3,0-0.4,0s-0.3,0-0.4,0C250.1,98.9,247.8,101.2,245.5,103.4z"/>
	<path class="st0" d="M300.3,254.3l0.5-2.8l6.5-7l38.1-37.1l8-9l13.8-13.5l2.8-1.5l3.2,0.2l1.8,2.3v23.8l0.6,56.2
		c0,17.2,0.1,34.5,0.1,51.7l-0.3,4l-3.5,4.5l-1.8,0.3l-41.6-40.1L300.3,254.3z"/>
	<path class="st0" d="M218.7,263.5c4.8,4.9,9.5,9.8,14.3,14.6c5.1,3.4,10.1,6.7,15.2,10.1c0.9,0.9,1.9,1.8,2.8,2.7
		c0.4,0.9,0.7,1.8,1.1,2.8c7.6,13.5,15.2,27,22.8,40.4l0.5,2.7l-0.8,2.2l-2.5,1.2l-32.3,4.1l-56.9-3.1l-25.4-1.2l-8.9-1.7l-3-1.2
		l-0.7-2l1.7-3.7l63.9-62.1C213.2,267.4,216,265.4,218.7,263.5z"/>
	<path class="st0" d="M264,285.8l-0.7,1.3l7,13l13.5,19.7l10.2,15l0.8,1.5l1.7,0.8l2.7,0.3l54.8,0.3l5.2-1l2.8-1.7l1.2-1.8v-1.8
		l-5.3-6.3l-20.4-16.5l-39.9-44.1l-2.7-1.8l-2.2-1.3h-1.7l-2.3,1C280.5,270.3,272.3,278,264,285.8z"/>
	<path class="st0" d="M136.5,181.9h0.9l3.3,4l26.5,26.8l22.5,23.8l16.5,14.3l0.9,0.9l0.3,1.5l-0.1,2.6l-2.2,2.3l-36,36.6l-24.4,24.7
		l-6.7,5.2H136l-2.5-2.8l-2.7-49.4l3.5-67.1C135,197.5,135.8,189.7,136.5,181.9z"/>
	<path class="st0" d="M354.6,166.3l-2.9-1l-11.6,0.2l-30.5,3.2l0,0l-31.2-2.9l-125.7,0.3l-3.9,1.3l-3.4,4.5l1,2.5l22.9,24.6l30,26.2
		l16.1,15.7c11,11.6,22,23.2,33,34.8l2.4,0.9l4-0.2l1.7-1l53.8-51.5l45.6-47.8l1.8-2.4l0.3-1.7L354.6,166.3z"/>
	<path class="st1" d="M412.3,277v2.9l3.8,5.9c4.1,0.2,8.2,0.4,12.4,0.6l2.6-1.5l5.9-3.2h2.9l14.1,12.7l2.6,1.2l3.8-0.9l1.2-2.6
		l-2.6-20.9l-0.6-4.1l2.4-10.6c-0.7-8.7-1.3-17.5-2-26.2c0.1-0.5,0.2-1,0.2-1.4c0.6-1.5,1.2-3.1,1.8-4.6c0-0.5,0.1-1,0.1-1.6
		c-1.2-1.2-2.5-2.4-3.7-3.6c-0.4-0.2-0.8-0.3-1.1-0.5c-0.4,0-0.8,0-1.3,0c-3.3,2.1-6.6,4.1-9.9,6.2l-9.4,8.8
		c-3.8,1.5-7.7,2.9-11.5,4.4c-0.5,0.5-1,1-1.5,1.6C419.2,252,415.8,264.5,412.3,277z"/>
</g>
</svg>
