<?xml version="1.0" encoding="utf-8"?>
<!-- Generator: Adobe Illustrator 28.2.0, SVG Export Plug-In . SVG Version: 6.00 Build 0)  -->
<svg version="1.1" id="Layer_1" xmlns="http://www.w3.org/2000/svg" xmlns:xlink="http://www.w3.org/1999/xlink" x="0px" y="0px"
	 viewBox="0 0 512 512" style="enable-background:new 0 0 512 512;" xml:space="preserve">
<style type="text/css">
	.st0{fill:#CE2327;}
	.st1{fill:#DBA305;}
	.st2{fill:#FFE7A4;}
	.st3{fill:#FFC30C;}
</style>
<g>
	<path id="frame_00000005226043997436234240000017102095238830148021_" class="st0" d="M508.9,176.1V9.2l-5.2-6.8L257.7,5L7.5,7.7
		L0,13l2.6,102l3.9,273.4L4.4,498.9l8.1,6.3l62.5,1.7l372.5,2.7l62.1-5.2l2.4-2.7L508.9,176.1z M467.4,46l5.5,7.7l-3.7,162.7
		l3.7,246.2l-8.4,5.8l-137.9,4.2l-272.2-4.2l-7.3-4.6l2-69.7V146.5l-3.5-99.8l7-3.5l218.2,7.3L467.4,46z"/>
	<polygon class="st1" points="373.6,88.9 395.6,76 397.7,75.2 418.2,70.4 419.4,68.8 421.6,59.3 420.1,58.3 392.8,56.5 366.1,64.5 
		365.1,67.8 371.8,88.1 	"/>
	<path class="st2" d="M373.8,103.4l0.5,1l25,14.9l1.2-0.6l5.7-18.6l-0.1-1l-7.9-13l-1-0.4c-8.4,3.7-21.3,9.2-22.2,9.4l0,0.1
		l-0.8,0.8L373.8,103.4z"/>
	<path class="st3" d="M336.9,279.1l0.4,1.2l25.2,20.2l1.5-0.5l9.1-19.6l0-1.1l-6.6-15.5l-1.1-0.6c-9.8,2.7-24.7,6.8-25.8,6.9l0,0.1
		l-1,0.8L336.9,279.1z"/>
	<path class="st2" d="M321,60.9l-47.5,1.2l-1.1,1.4c2.3,12.6,5.9,33.4,5.7,35.2c0.4,0.4,0.8,0.8,1.2,1.2c6.1,0.6,12.2,1.1,18.3,1.7
		c0.6-0.2,1.2-0.4,1.8-0.6c7.5-12.7,14.9-25.4,22.4-38.2L321,60.9z"/>
	<path class="st3" d="M308.9,97.6c2,1,4,2,5.9,3c0.7,0,1.4,0,2,0c12.4-9.2,24.9-18.4,37.3-27.6l0.8-1.2V60.5l-1.3-1.3h-14.1
		l-0.9,0.4c-10.1,12.1-20.2,24.2-30.2,36.3C308.6,96.5,308.7,97.1,308.9,97.6z"/>
	<polygon class="st3" points="235.8,90.2 264.4,105.2 266,104.1 263.5,68.8 263.1,68 255.2,61.1 254.5,60.9 216.9,60.9 216,62.7 
		224,75 	"/>
	<path class="st3" d="M180.3,155.6c3.6-6.8,7.2-13.7,10.8-20.5l-0.9-1l-24.9,4.4l-0.6,0.3l-4.2,6.1l-0.1,0.5l2.8,26.7l1.4,0.5
		c4.8-5.4,9.5-10.7,14.3-16.1C179.3,156.3,179.8,156,180.3,155.6z"/>
	<path class="st2" d="M325.8,400.5c6.9-0.4,13.8-0.8,20.7-1.2c0.3-0.3,0.6-0.5,0.9-0.8c1.2-1.6,2.4-3.1,3.7-4.7
		c-0.1-0.3-0.3-0.6-0.4-0.8c-6.6-5.9-13.2-11.9-19.8-17.8c-0.2-0.1-0.4-0.2-0.6-0.3l-7.7,0l-0.5,0.2l-20.9,18.1l0.4,1.5l10.4,3
		L325.8,400.5z"/>
	<path class="st3" d="M184.9,298.8c-3-6.2-6-12.5-9-18.7c-0.4-0.2-0.7-0.4-1.1-0.6c-1.9-0.5-3.8-1.1-5.7-1.6
		c-0.2,0.2-0.4,0.5-0.6,0.7c-3,8.4-6,16.7-8.9,25.1c0,0.2,0,0.5,0,0.7l3,7.1l0.4,0.4l24.7,12.4l1.2-0.9l-1.2-10.7L184.9,298.8z"/>
	<polygon class="st3" points="374.6,153.7 381.2,183.9 382.5,184.9 394.2,186.3 394.6,186.2 399.9,184.3 400.8,183 404.3,146.9 
		402.9,145.6 377.9,148 376.8,148.8 374.7,152.9 	"/>
	<polygon class="st3" points="401.5,136 394.9,126.3 394.5,126 372.3,116.2 370.9,117.1 370.9,136.6 371.9,137.6 400.7,137.6 	"/>
	<polygon class="st2" points="460.9,94.1 462.1,93.8 459.9,57 458.6,55.9 434,56.5 433.3,57.9 442.9,79.1 	"/>
	<polygon class="st3" points="445.5,91.6 443.9,92.1 437.8,133.6 438,134.7 453.6,150.8 455.4,150.7 461.9,140.6 462.1,140 
		462.1,103.9 461.7,103.1 	"/>
	<polygon class="st3" points="434.2,93 429.1,80.6 428.5,80.2 419.6,75.5 418.3,75.8 410.5,84.2 410.2,85.3 414.1,96.4 415,97.1 
		426.1,97.9 434,94.3 	"/>
	<polygon class="st3" points="451.5,172.4 440.1,183.4 431.8,190.7 431.1,191.5 427.4,205.2 428.3,206.7 445.1,213.5 459.5,214.8 
		460.9,213.5 460.9,192.6 460.8,192.1 453.6,172.9 	"/>
	<path class="st2" d="M455.3,268.8l5.1-12.8l-1.1-1.9l-6.5-1.1l-1,0.2l-15.6,13.6l0,0c-6.3-0.4-12.5-0.8-18.8-1.2
		c-0.8,0.9-1.6,1.8-2.3,2.7c4.5,8.6,8.9,17.2,13.4,25.7l0.6,0.3l23,2.9l1.2-0.9l1-11.1L455.3,268.8z"/>
	<polygon class="st3" points="454.5,334.5 452.4,307.3 451.4,306.3 419.2,301.1 418.4,301.4 410.1,306.3 409.9,307.7 431.1,339.7 
		432.3,340.2 453.6,335.6 	"/>
	<path class="st3" d="M57.9,113l2.2,20.9l0.8,0.8l24.9,3.2l0.6-0.2c4.4-0.7,8.7-1.5,13.1-2.2c2.6-1.4,5.1-2.8,7.7-4.2
		c-0.2-0.6-0.4-1.1-0.6-1.7c-6.5-2.2-13-4.4-19.5-6.6c-0.5-0.2-1-0.5-1.6-0.7c-3.3-4.6-6.5-9.2-9.8-13.8c-0.3-0.1-0.6-0.3-0.9-0.4
		C69.2,109.8,63.6,111.4,57.9,113z"/>
	<path class="st3" d="M149,388c-0.1,0.2-0.1,0.3-0.2,0.5c1,7.6,2,15.3,3,22.9c0.3,0.3,0.6,0.6,0.9,0.8c8.8,2.9,17.6,5.7,26.4,8.6
		c0.7-0.2,1.4-0.5,2.2-0.7c6.1-1.7,12.1-3.4,18.2-5c0-0.9,0-1.8,0-2.7c-4-8.1-7.9-16.3-11.9-24.4c-0.4-0.3-0.9-0.5-1.3-0.8
		c-3.1-2.8-6.2-5.5-9.3-8.3c-0.5-0.2-1-0.4-1.4-0.6C166.7,381.5,157.8,384.7,149,388z"/>
	<polygon class="st3" points="446.1,380.5 452.3,383.6 453.7,383.2 455.6,369.8 455.7,368.9 454.5,355.7 455,346.5 453.8,345 
		436.9,349.2 436.2,350.1 435,354.9 435,355.7 445.8,379.8 	"/>
	<polygon class="st3" points="289.9,404.6 284.6,409 284.4,410.5 295.9,417.7 296.6,418.1 309.2,422.4 317.4,426.5 319.2,426 
		322.3,408.9 321.7,407.9 317.8,404.9 317.1,404.6 290.7,404.6 	"/>
	<polygon class="st2" points="436.9,412.8 448.6,398.6 448.7,397.3 441.6,385.4 431,375.9 430.1,375.6 402.3,379.6 401.4,380.8 
		403.4,398.1 403.7,398.8 420.7,415.7 421.7,416 436.3,413.2 	"/>
	<polygon class="st3" points="395.3,400.5 396.4,398.2 396.2,397 390,390.6 388.2,376.9 387.2,376 376.9,374.8 365.3,376 
		364.5,376.4 356.8,387.8 354.7,397.1 355.2,398.2 366.5,404.7 367.1,404.8 394.5,401.1 	"/>
	<polygon class="st1" points="446,420.6 425.5,430.3 424.8,431.3 422.2,456.7 423.5,458.1 457.2,456.1 458.3,455 461.2,433 
		458.9,401.2 456.7,400.7 	"/>
	<polygon class="st2" points="384.9,445.6 383.3,443.8 382.4,443.5 364.9,446.4 346.9,440.8 345.8,441.2 333.2,459.3 333.9,460.6 
		361.3,462.5 381.3,458.7 381.9,458 385,446.4 	"/>
	<polygon class="st2" points="271.6,437.4 270.8,437.2 235.5,440.8 234.9,441 217.6,452.8 217.2,453.4 215,459.4 216.1,460.9 
		259.1,463.2 298.7,463.5 299.7,461.8 291.1,449.7 	"/>
	<polygon class="st3" points="220.8,433.5 210.8,426.1 209.8,425.9 184.1,430.9 182.3,431.9 176.7,441.6 176.3,443.7 196.2,459.1 
		197.4,459.2 202.1,456.9 203,455.4 206.7,450.2 221,435.1 	"/>
	<polygon class="st3" points="249,414 235.8,414 235.2,414.1 223.4,421.3 223.1,422.9 227.5,428.5 228.1,428.9 238.1,432.1 
		238.6,432.2 262.6,429.9 263.5,429.4 266,426.3 265.7,424.7 249.6,414.2 	"/>
	<polygon class="st3" points="406.9,420.4 399.2,411.8 396.3,411 372.7,416.9 369.1,415.7 358.8,409.9 358,409.7 354.6,410.7 
		353.8,412.1 354,426.6 354.6,427.9 368.1,435.5 370.3,435.9 387.5,432.5 399.1,435.7 409.2,433.2 410.3,431.6 	"/>
	<polygon class="st3" points="409.6,458.6 410.4,458 417.6,445.6 416.3,444 395.1,444.8 394.1,445.7 391.4,458 392.6,459.3 	"/>
	<polygon class="st3" points="404.3,257.2 404.9,257.5 414.4,257.9 415,256.7 408,244.4 407.1,244.1 399,246.3 398.6,247.4 	"/>
	<polygon class="st3" points="145.5,155.1 146.4,154.5 152.2,140.6 150.7,139.1 128.6,142.7 127.7,143.7 126.5,156.9 127.9,158.2 	
		"/>
	<polygon class="st1" points="59.4,94.2 66.5,99.8 67.3,100 74.4,98.5 75.1,97.9 82,84.7 96.8,69.2 97.1,68.7 99,58.9 98.2,57.7 
		83.7,54.3 83.4,54.3 59.9,56.5 59.1,57.1 55.4,64.3 55.3,64.9 59,93.5 	"/>
	<polygon class="st1" points="393.6,258.6 384.7,257.5 383.8,257.8 378.6,262.8 378.3,263.6 379.2,278.5 374.7,299.4 374.8,300 
		378.2,309.3 379.5,309.9 393.7,305.3 393.9,305.2 412.8,291.1 413.2,290.1 412.6,282 412.4,281.4 394.3,259 	"/>
	<path class="st3" d="M343.7,135.4l9.2,0.6l0.9-0.3l5.4-5.2l0.3-0.8c1.3-6.6,2.6-13.2,3.9-19.9c-0.1-5.4-0.1-10.8-0.2-16.2l0-0.6
		l-3.5-9.2l-1.3-0.6l-14.6,5.4l-0.3,0.2L324,104l-0.4,0.9l0.6,8.1l0.2,0.6C330.9,120.9,337.3,128.1,343.7,135.4z"/>
	<path class="st2" d="M89.8,229.9l12.1,3.4l1.2-0.2l8.6-5.5l0.7-1c3.6-8.5,7.2-16.9,10.8-25.4c1.5-7.2,2.9-14.5,4.4-21.7l0.1-0.8
		l-2.1-13.2l-1.6-1.1l-21,3.1l-0.5,0.1l-30.2,14.7l-0.8,1.1l-1.4,11l0.1,0.8C76.9,206.8,83.3,218.3,89.8,229.9z"/>
	<polygon class="st3" points="131.2,91 132.1,91.4 135.7,91.2 136.6,90.6 152.7,62.4 152,60.8 135.7,55.5 114.7,55.4 113.6,56.4 
		112.3,70.7 112.6,71.5 	"/>
	<path class="st2" d="M349.4,210.2l-1.3,0.1l-4.6,2.4l-0.8,1.2l-4.3,45l1.7,1.6l24.2-3.1l27.2-12.5l0.8-1.9
		c-2.4-5.4-4.8-10.7-7.2-16.1c-0.3-0.3-0.6-0.5-1-0.8C372.6,220.9,361,215.6,349.4,210.2z"/>
	<path class="st3" d="M150.6,372.4l0.7,1.1l4.4,2.6l1.5,0.1l40.9-20.4l0.5-2.3l-14.9-19.1l-24.5-16.5l-2.1,0.3
		c-3.4,4.9-6.8,9.8-10.2,14.8c-0.1,0.4-0.1,0.8-0.2,1.2C148,346.8,149.3,359.6,150.6,372.4z"/>
	<polygon class="st3" points="159.2,228 158.4,226.7 153.3,223.3 151.5,223.1 101.3,244.7 100.5,247.5 117,271.3 145.2,292.7 
		147.7,292.5 164,274.6 164.4,273.2 	"/>
	<path class="st2" d="M365.3,317.7l0.5-0.9l0.2-3.9l-0.5-1l-28.7-20.3L335,292c-4.8,4.3-9.5,8.7-14.3,13c-0.4,0.6-0.8,1.1-1.3,1.7
		c-2.2,5.7-4.3,11.3-6.5,17c0,0.4,0.1,0.9,0.1,1.3c0.3,0.2,0.5,0.4,0.8,0.6c3.8,2.1,7.5,4.1,11.3,6.2c0.3,0.4,0.7,0.7,1,1.1
		c5.1,1,10.2,2,15.2,2.9l1-0.2L365.3,317.7z"/>
	<polygon class="st1" points="144.2,100.1 149.4,107.5 162,114.9 163.4,114.2 168.3,97.6 183,67.8 183,66.8 181.4,61.6 180.3,60.8 
		163.7,61.7 162.9,62.3 144.2,98.8 	"/>
	<polygon class="st3" points="64.8,151 62.8,159.7 65.6,174.1 67,174.7 82.7,167.3 114.7,158.4 115.5,157.9 118.3,153.1 
		118.2,151.9 106.5,140.1 105.5,139.8 65.7,150 	"/>
	<path class="st2" d="M211.8,361.1c-7.7,2.6-15.4,5.2-23.1,7.9c-0.6,0.4-1.2,0.8-1.8,1.2c-0.1,0.6-0.3,1.3-0.4,1.9
		c3.5,3.2,7.1,6.4,10.6,9.7l13.3,32.1l0.7,0.7l5.3,2.3l1.3-0.3l10.8-13.7l0.1-1.1l-15.7-40L211.8,361.1z"/>
	<polygon class="st2" points="102,80.3 94.9,88.2 88.6,97 88.4,97.5 87.1,109.4 87.8,110.5 112.1,120.3 113.4,119.8 122,102.7 
		122,101.8 118.7,94 106.1,80 105.2,79.7 102.6,80 	"/>
	<path class="st3" d="M123.1,134.7l7.3-2.7l7.6,3.1l0.9-0.1c5.4-0.9,10.8-1.9,16.3-2.8c0.9-0.4,1.8-0.7,2.7-1.1
		c0.6-0.5,1.1-0.9,1.7-1.4c0.1-2.9,0.2-5.8,0.2-8.7c-0.6-0.4-1.1-0.8-1.7-1.3c-6.5-3-13.1-6-19.6-9l-3.7-6.4l-1-0.5l-3.1,0.4
		l-0.8,0.6l-11.1,25.7l0.3,1.2C120.5,132.8,121.8,133.7,123.1,134.7z"/>
	<path class="st3" d="M381.8,197.2c-0.9,3.1-1.7,6.3-2.6,9.4c1.6,3.1,3.2,6.2,4.7,9.3l0.3,1.1l9.2,9.8l0.7,0.4l12.4,2.2l1.5-0.8
		l6.5-16.4l7.4-5.8l0.5-1.3l-1-3.8l-0.9-0.9l-34.2-9.3l-1.5,0.5C383.7,193.5,382.7,195.3,381.8,197.2z"/>
	<path class="st3" d="M162.2,184.7c-0.3-0.9-0.5-1.9-0.8-2.8c-3.1-5.9-6.2-11.8-9.3-17.7c-0.9-0.6-1.8-1.2-2.7-1.9
		c-0.9-0.1-1.7-0.1-2.6-0.2c-4.3,1.5-8.5,3.1-12.8,4.6c-0.2,0.6-0.3,1.1-0.5,1.7c1.2,7.1,2.5,14.2,3.7,21.4l1,1.2L149,193
		c2.9,4.1,5.7,8.2,8.6,12.3c1,0.2,2.1,0.4,3.1,0.6c0.5-0.6,0.9-1.2,1.4-1.9C162.1,197.6,162.1,191.1,162.2,184.7z"/>
	<polygon class="st3" points="131.1,202.2 130.2,203.1 125.1,219.8 125.3,220.6 127.4,223.1 129.1,223.4 149.8,214.4 150.3,212.7 
		143.4,205.5 141.2,200.2 139.5,199.6 	"/>
	<polygon class="st3" points="91.9,439.8 90.2,438.2 84,407.3 83.2,406.6 79.1,403.5 78.2,403.6 65.7,411.6 64.1,413.1 59.9,439.6 
		63.1,452.7 63.9,453.4 79,456.8 105.5,457.7 114.2,457.7 115.3,456.6 115.2,453.4 114.7,452.6 	"/>
	<polygon class="st3" points="162,445.3 161.4,445 134,441.8 133,442.2 126.2,449.5 126.6,451.3 131.2,457.9 133,458.9 169.4,458.1 
		170.3,457.4 171.7,454.1 171.3,452.9 	"/>
	<polygon class="st2" points="409,185.2 421.8,192.7 422.8,192.5 430.7,177.5 440.4,166.8 446.5,162.9 447.1,162.2 447.8,158.9 
		447.5,158 438.8,147.7 438.2,147.5 418.6,149.9 417.7,150.8 408.6,184.2 	"/>
	<polygon class="st3" points="430.7,105.7 417,106 415.8,106.8 407.1,128 407.3,129.1 415.9,139.6 417.1,140 427.6,136.6 
		428.7,134.7 432.2,107 	"/>
	<polygon class="st3" points="345.9,376.5 354.5,365.8 354.7,364.4 344.1,344.1 343.1,343.5 329.5,343.3 328.4,344 324.3,354.1 
		325,356.3 343.9,376.8 	"/>
	<polygon class="st1" points="112.7,392.4 111.3,392.7 96.6,405.6 96.1,407.2 102.9,430.7 103.9,431.7 114.4,435.4 115.1,435.5 
		143.7,431.8 145.6,429.6 141.6,402.4 138.5,398.9 	"/>
	<polygon class="st2" points="96.5,384.2 98.2,360.7 97.2,358.9 68,352.2 66.5,353.5 62.8,366.3 63.2,369.6 71.4,394.5 73.2,395.5 
		95.8,385.3 	"/>
	<polygon class="st3" points="428.5,216.3 411.1,232.3 410.6,234.3 427.4,259.1 429.3,259.2 440.8,252.5 442.7,249.8 453.8,225.9 
		453.1,224.1 429.7,216 	"/>
	<polygon class="st3" points="143.2,366.9 138.4,349.1 137.4,348 114.2,342.2 112.5,343.3 105.5,368.4 105.5,370.5 106.2,378.5 
		107.2,380.2 137.8,391.2 139.5,389.9 143.3,367.7 	"/>
	<polygon class="st1" points="67.9,293 69.4,308.5 69.3,317.1 66.7,340 67.9,341.8 96.4,348.4 97.8,348 106.6,337.3 106.8,335.3 
		93.1,320.7 92.3,317.8 89.3,295.5 86.9,294.4 69.8,291.7 	"/>
	<path class="st3" d="M344.2,148.5l1.6,15.4l-0.1,8.6l-2.4,23l1.2,1.8c7.7,4,15.4,8,23,12c0.9,0.1,1.7,0.3,2.6,0.4
		c2-4.1,4-8.3,6-12.4c0-0.6,0-1.3,0.1-1.9c-0.3-0.7-0.6-1.5-0.8-2.2c-1.9-5.7-3.9-11.5-5.8-17.2l-0.8-2.8l-3.2-22.3l-2.4-1.1
		l-17.1-2.6L344.2,148.5z"/>
	<polygon class="st3" points="89.7,258.5 90.5,254.8 74.4,220.5 71.8,218.5 63.5,216 60.5,220.7 67.4,272.6 71,273.1 	"/>
	<path class="st3" d="M307.7,111.3l3.6,0.9l23.4,29l0.6,3.1l-1.4,8.4l-5.4,0.6c-19.1-11.2-38.2-22.4-57.3-33.6c0.3-1,0.7-1.9,1-2.9
		c2-3.3,4.1-6.5,6.1-9.8c0.4,0,0.8,0,1.1,0C288.9,108.5,298.3,109.9,307.7,111.3z"/>
	<path class="st3" d="M314,369.5l-1,3.5l-29.8,22.3l-3.2,0.5l-8.3-1.6l-0.5-5.4c11.9-18.7,23.7-37.4,35.6-56c1,0.4,1.9,0.8,2.9,1.1
		c3.2,2.2,6.4,4.3,9.5,6.5c0,0.4,0,0.8,0,1.1C317.5,350.9,315.7,360.2,314,369.5z"/>
	<polygon class="st3" points="77.4,282.1 99.5,291.6 101.6,290.3 107.8,280.9 108.2,278.6 99.6,266.5 97.2,265.5 77.1,279.9 	"/>
	<polygon class="st3" points="461.4,169.9 462,159.7 461.2,159.1 456.5,158 455.6,158.1 452,163.3 451.9,164.4 460.5,170.4 	"/>
	<polygon class="st3" points="59.5,197.6 59.3,207.8 60.1,208.4 64.8,209.4 65.8,209.2 69.1,203.8 69.2,202.7 60.3,197.1 	"/>
	<polygon class="st2" points="274.7,416.3 273.2,403.9 272.1,403.3 266.2,403 265.1,403.4 261.9,410.4 262.1,411.7 273.7,417 	"/>
	<path class="st0" d="M328.6,172.1c-20.2-13.8-40.5-27.7-60.7-41.5c-0.9-0.3-1.8-0.6-2.7-0.9c-0.9,0-1.7,0-2.6,0
		c-18.9,3.6-37.8,7.2-56.7,10.7c-11,16.2-22,32.5-32.9,48.7c-0.7,10.5-1.3,21.1-2,31.6c0.4,1.8,0.8,3.6,1.2,5.5
		c2.9,8.9,5.8,17.8,8.7,26.6c0.3,1.3,0.6,2.6,0.9,3.9c7.4,19.9,14.9,39.8,22.3,59.7c0.6,2.7,1.1,5.5,1.7,8.2
		c11.4,22.8,22.9,45.6,34.3,68.4c1.4,1.6,2.7,3.1,4.1,4.7c0.9-0.6,1.7-1.1,2.6-1.7c5.1-6.6,10.1-13.3,15.2-19.9
		c21-32.9,41.9-65.7,62.9-98.6c0.6-1,1.2-1.9,1.8-2.9c0.3-1.2,0.6-2.4,0.9-3.7c0.8-17.8,1.5-35.6,2.3-53.5
		c1.1-12.6,2.2-25.2,3.3-37.8c-0.2-1-0.4-2-0.6-3.1C331.2,175.2,329.9,173.6,328.6,172.1z M302.4,197.7l-7.4,44l-2.9,6.3
		c-12.6,4.3-25.3,8.7-37.9,13c-1.2,0.3-2.4,0.6-3.5,0.8c-1-0.2-2.1-0.5-3.1-0.7c-12.8-10.6-25.7-21.3-38.5-31.9
		c-0.6-0.9-1.2-1.8-1.9-2.7c0-1-0.1-2-0.1-3l9.1-36.5l2.3-5.7c0.7-0.5,1.3-1.1,2-1.6c10.4-3.8,20.7-7.7,31.1-11.5c3.2,0,6.5,0,9.7,0
		c13,6.9,26.1,13.8,39.1,20.7c0.7,0.7,1.3,1.4,2,2.2c0.1,0.7,0.2,1.3,0.3,2C302.6,194.5,302.5,196.1,302.4,197.7z"/>
	<polygon class="st2" points="104.4,316.6 103.1,311 103.7,295.7 104.9,294.4 125.6,287.9 127.8,287.9 139.4,304.4 139.4,306.6 
		135.5,336.7 133.8,337.5 114.4,332.5 108.3,326 	"/>
	<polygon class="st2" points="171.7,119.3 174.3,102.5 193.1,67.1 198.1,64.6 206.3,64.6 210.2,65.9 226.5,94.3 223.7,109.6 
		217.4,119.3 214,120.1 185.9,123.3 176.2,124.9 	"/>
	<path class="st3" d="M419.6,365.9c-5.7,1.1-11.5,2.2-17.2,3.3c-0.6,0.1-1.2,0.3-1.8,0.4c-12.5-3-25-6-37.6-9.1
		c-0.4-0.3-0.7-0.5-1.1-0.8c-1.6-5.7-3.2-11.4-4.9-17.1l0.3-4.1l24-22.2l15.5-0.7l10.9,3.9c0.3,0.2,0.7,0.5,1,0.7
		c4.8,8.4,9.6,16.8,14.4,25.1c0.8,4.8,1.7,9.5,2.5,14.3c-1.8,1.7-3.5,3.4-5.3,5.2C420.2,365.2,419.9,365.5,419.6,365.9z"/>
	<polygon class="st2" points="232.2,114.9 232.2,111.9 237.6,102 239.7,101.7 254.7,110.2 255.7,112.8 236.7,116.2 	"/>
	<path class="st3" d="M290,435.5l9.7,11.4l6.1,12.4l3.2,3.2h12.5l6.9-2v-1.1l-1.1-4.2l0.4-1l6.9-7.8l2.1-6.1l-0.3-0.7
		c-4.5-2.4-9.1-4.9-13.6-7.3c-0.3,0-0.7,0-1,0c-3.2,0.1-6.4,0.2-9.6,0.2c-0.5-0.3-1-0.5-1.5-0.8l-5.2-2.3l-8.8-6.9h-1l-5.6,5.4
		l-0.8,0.9L290,435.5z"/>
	<path class="st2" d="M159.2,419.6c3.7,1.1,7.4,2.2,11.1,3.3c0.5,0.4,0.9,0.8,1.4,1.1c0.8,1.6,1.6,3.2,2.4,4.9l-5.3,11.4l-1.7,0.5
		l-10.2-1.7l-1.2-1l-4-10.2v-1.5l6.6-6.9H159.2z"/>
	<path class="st1" d="M328.6,421.7l0.8,1.2l11,5.9h1.3l5.2-2.9l0.5-1.4c-0.2-5.7-0.5-11.5-0.7-17.2c-0.3-0.3-0.6-0.5-0.9-0.8
		c-4.2-0.5-8.3-0.9-12.5-1.4c-0.3,0.2-0.6,0.5-1,0.7C331.1,411.1,329.9,416.4,328.6,421.7z"/>
</g>
</svg>
