<?xml version="1.0" encoding="utf-8"?>
<!-- Generator: Adobe Illustrator 28.2.0, SVG Export Plug-In . SVG Version: 6.00 Build 0)  -->
<svg version="1.1" id="Layer_1" xmlns="http://www.w3.org/2000/svg" xmlns:xlink="http://www.w3.org/1999/xlink" x="0px" y="0px"
	 viewBox="0 0 512 512" style="enable-background:new 0 0 512 512;" xml:space="preserve">
<style type="text/css">
	.st0{fill:#CE2327;}
	.st1{fill:#FFC30C;}
	.st2{fill:#FFE7A4;}
	.st3{fill:#DBA305;}
</style>
<g>
	<path id="frame_00000129180693324908792570000017721052813323895951_" class="st0" d="M335.6,508.9h166.7l6.7-5.2L506.5,258
		L503.8,8.1l-5.3-7.5L396.6,3.2L123.5,7.1L13.3,5L7,13L5.3,75.5l-2.7,372l5.1,62l2.7,2.4L335.6,508.9z M465.6,467.4l-7.7,5.5
		l-162.5-3.7L49.5,473l-5.8-8.4l-4.2-137.7L43.7,55l4.6-7.3l69.6,2h247.2l99.6-3.5l3.5,7L461,271.1L465.6,467.4z"/>
	<polygon class="st1" points="422.7,373.8 435.6,395.8 436.4,397.8 441.2,418.3 442.8,419.5 452.3,421.7 453.3,420.2 455,393 
		447.1,366.2 443.8,365.3 423.5,372 	"/>
	<path class="st2" d="M400.8,365.8l-1.3,0.6l-18.7,31.4l0.7,1.6l23.4,7.1l1.2-0.1l16.4-9.9l0.5-1.3c-4.6-10.6-11.5-26.7-11.8-27.8
		l-0.2,0l-1-1L400.8,365.8z"/>
	<path class="st1" d="M450.9,321.2l-0.9-47.4l-1.1-1.1c-9.7,2.3-25.6,5.9-27,5.7c-0.3,0.4-0.6,0.8-0.9,1.2
		c-0.4,6.1-0.9,12.2-1.3,18.3c0.2,0.6,0.3,1.2,0.5,1.8c9.8,7.5,19.5,14.9,29.3,22.4L450.9,321.2z"/>
	<path class="st2" d="M417.3,311c-0.9,2-1.7,3.9-2.6,5.9c0,0.7,0,1.4,0,2c8.1,12.4,16.2,24.9,24.3,37.3l1,0.8h10l1.1-1.3v-14.1
		l-0.4-0.9c-10.7-10.1-21.3-20.1-32-30.2C418.3,310.7,417.8,310.9,417.3,311z"/>
	<polygon class="st1" points="429.3,243.6 419,265.9 419.7,267.1 444,265.2 444.6,264.9 449.3,258.7 449.4,258.1 449.4,228.9 
		448.2,228.2 439.8,234.5 	"/>
	<path class="st1" d="M100.2,329.1c0.3-4.4,0.5-8.8,0.8-13.2c-0.1-0.2-0.3-0.4-0.4-0.7c-0.9-0.9-1.8-1.8-2.7-2.7
		c-0.2,0.1-0.4,0.1-0.6,0.2c-4.3,3.7-8.5,7.5-12.8,11.2c-0.1,0.1-0.1,0.3-0.2,0.4l-0.6,4.9l0.1,0.3l9.9,14.6l1-0.1l2.7-6.4
		L100.2,329.1z"/>
	<path class="st3" d="M147.8,161.9c1.7-2.6,3.3-5.2,5-7.8c0-0.2,0-0.4,0-0.5c-0.2-0.8-0.5-1.7-0.7-2.5c-0.1,0-0.3,0-0.4-0.1
		c-3.9,0.8-7.7,1.7-11.6,2.5c-0.1,0.1-0.2,0.1-0.3,0.2l-2,2.8l-0.1,0.2l1.1,12.3l0.6,0.2l3.8-3L147.8,161.9z"/>
	<path class="st1" d="M395.7,186.5c3,0.8,6,1.6,8.9,2.4c0.2-0.1,0.3-0.1,0.5-0.2c0.7-0.5,1.5-1,2.2-1.5c0-0.1,0-0.3-0.1-0.4
		c-2-3.4-3.9-6.9-5.9-10.3c-0.1-0.1-0.2-0.1-0.2-0.2l-3.3-1.1l-0.2,0l-11.4,4.7l0,0.7l4,2.7L395.7,186.5z"/>
	<path class="st2" d="M381.9,226.7c4.5,8.6,8.9,17.2,13.4,25.9c0.5,0.3,1,0.5,1.5,0.8c2.7,0.7,5.4,1.4,8.1,2c0.3-0.3,0.6-0.7,0.8-1
		c3.8-11.9,7.7-23.7,11.5-35.6c0-0.3,0-0.6,0-0.9l-4.4-9.9l-0.5-0.5l-35.2-16.5l-1.7,1.3l2.1,15L381.9,226.7z"/>
	<path class="st3" d="M371.6,348.3c-3-0.5-5.9-0.9-8.9-1.4c-0.8,0.9-1.7,1.8-2.5,2.7c0,0-2.4,1.5-2.4,1.5
		c-2.3,1.5-32.1,21.1-34.4,22.6c-0.2,0.3-0.4,0.7-0.6,1l2.2,6.9l1.6,1.2l46.5,6.4l1.7-1.8c3.2-6.9,6.4-13.8,9.5-20.7
		c0.1-0.5,0.1-1,0.2-1.5c-0.2-0.5-0.3-1-0.5-1.5c-3.2-4.7-6.3-9.4-9.5-14c-0.3-0.4-0.6-0.8-0.9-1.2
		C373,348.5,372.3,348.4,371.6,348.3z"/>
	<polygon class="st1" points="417.5,461 417.8,462.2 454.6,459.9 455.7,458.7 455.1,434.1 453.7,433.4 432.5,443 	"/>
	<polygon class="st2" points="420,445.6 419.5,444 378.1,437.9 377,438 360.9,453.7 361,455.4 371.1,462 371.7,462.2 407.7,462.2 
		408.6,461.7 	"/>
	<polygon class="st1" points="418.6,434.3 431,429.2 431.4,428.6 436.1,419.7 435.8,418.5 427.4,410.6 426.3,410.3 415.3,414.2 
		414.5,415.1 413.7,426.2 417.3,434.1 	"/>
	<polygon class="st1" points="130.9,390.8 128.4,373.5 127.9,372.8 118.2,364 116.4,363.9 103.8,372 103,373.2 104.3,388.5 
		105.2,389.7 119,394.4 130.2,392.4 	"/>
	<polygon class="st1" points="339.3,451.6 328.4,440.2 321.1,431.9 320.3,431.2 306.6,427.5 305,428.4 298.2,445.2 297,459.6 
		298.2,460.9 319.1,461 319.6,460.9 338.8,453.7 	"/>
	<path class="st2" d="M243.7,457.2l12.8,5.1l1.9-1.1l1.1-6.5l-0.2-1l-13.5-15.6l0,0c0.4-6.3,0.8-12.5,1.2-18.8
		c-0.9-0.8-1.8-1.6-2.7-2.3c-8.6,4.5-17.1,8.9-25.7,13.4l-0.3,0.6l-2.9,23l0.9,1.1l11,1L243.7,457.2z"/>
	<polygon class="st1" points="177.4,459.6 204.6,457.5 205.6,456.5 210.7,424.3 210.4,423.5 205.6,415.2 204.2,415 172.2,436.2 
		171.7,437.4 176.3,458.7 	"/>
	<path class="st2" d="M398.6,58.5l-20.8,2.2l-0.8,0.8l-3.2,24.9L374,87c0.7,4.4,1.5,8.7,2.2,13.1c1.4,2.6,2.8,5.1,4.2,7.7
		c0.6-0.2,1.1-0.4,1.7-0.6c2.2-6.5,4.4-13,6.6-19.5c0.2-0.5,0.5-1,0.7-1.6c4.6-3.3,9.2-6.5,13.8-9.8c0.1-0.3,0.3-0.6,0.4-0.9
		C401.9,69.7,400.2,64.1,398.6,58.5z"/>
	<polygon class="st1" points="130.3,453.8 127.2,459.9 127.6,461.4 141,463.3 141.9,463.4 155.1,462.1 164.3,462.6 165.7,461.4 
		161.5,444.6 160.6,443.9 155.9,442.7 155,442.7 131,453.4 	"/>
	<polygon class="st1" points="99.2,437 113.4,448.6 114.7,448.7 126.5,441.6 136.1,431.1 136.3,430.2 132.3,402.5 131.1,401.5 
		113.8,403.5 113.2,403.8 96.3,420.8 96,421.8 98.9,436.4 	"/>
	<path class="st1" d="M362.1,434.5c2.2-2.9,4.3-5.9,6.5-8.8c0.1-0.7,0.1-1.4,0.2-2.2c-1.6-7.3-3.3-14.5-4.9-21.8
		c-0.7-0.6-1.4-1.2-2.2-1.8c-2.7-1.5-5.4-3-8-4.5c-0.8-0.1-1.7-0.3-2.5-0.4c-8,0-15.9,0-23.9,0c-0.5,0.5-0.9,0.9-1.4,1.4
		c-0.5,0.7-0.9,1.3-1.4,2c-1.2,4.4-2.5,8.9-3.7,13.3c0.2,0.8,0.4,1.6,0.6,2.4c2.7,3.1,5.4,6.1,8.1,9.2c0.1,0.2,0.2,0.4,0.4,0.6
		l17.3,14.6l1,0.2C352.8,437.3,357.5,435.9,362.1,434.5z"/>
	<polygon class="st2" points="91.4,446.1 81.7,425.6 80.7,424.9 55.3,422.3 53.9,423.6 55.9,457.2 57,458.4 79,461.2 110.8,459 
		111.3,456.7 	"/>
	<polygon class="st3" points="66.4,385 68.3,383.4 68.6,382.6 65.6,365.1 71.2,347.1 70.9,346 52.8,333.5 51.5,334.1 49.5,361.4 
		53.4,381.4 54,382.1 65.7,385.2 	"/>
	<polygon class="st1" points="78.5,221.2 86,211.2 86.2,210.2 81.2,184.5 80.1,182.7 70.4,177.1 68.3,176.7 52.9,196.6 52.9,197.8 
		55.2,202.4 56.6,203.3 61.8,207.1 76.9,221.3 	"/>
	<polygon class="st3" points="126.6,337.9 126.8,323.5 126.6,322.8 118.9,309.9 117.1,309.5 110.9,314.2 110.5,314.9 106.9,325.9 
		106.8,326.4 109.1,352.7 109.6,353.6 113,356.4 114.7,356.2 126.4,338.6 	"/>
	<polygon class="st2" points="88.6,410.1 97.2,402.3 98,399.5 92.1,376 93.3,372.3 99.1,362 99.3,361.3 98.2,357.9 96.8,357.1 
		82.4,357.2 81.1,357.8 73.4,371.3 73.1,373.5 76.5,390.7 73.3,402.3 75.8,412.3 77.4,413.4 	"/>
	<polygon class="st3" points="417.5,59.9 411.9,67 411.7,67.9 413.2,74.9 413.7,75.6 426.9,82.5 442.4,97.3 442.9,97.5 452.6,99.5 
		453.8,98.7 457.3,84.2 457.3,83.9 455.1,60.5 454.5,59.7 447.3,56 446.7,55.9 418.1,59.6 	"/>
	<polygon class="st3" points="431,186.5 423.7,187.1 423.1,187.4 419.9,192.1 419.7,192.8 422.9,204.4 422.7,221.5 422.8,221.9 
		427,228.7 428.1,229 438.5,223.1 438.7,222.9 451.2,208.8 451.4,208 449.6,201.8 449.3,201.3 431.6,186.6 	"/>
	<path class="st2" d="M279.2,88.6l-3.3,11.8l0.2,1.2l5.3,8.4l1,0.7c8.2,3.5,16.5,7,24.7,10.5c7.3,1.1,14.7,2.2,22,3.3
		c0.3-0.1,0.6-0.1,0.9-0.2c3.3-0.6,6.5-1.1,9.8-1.7c0.5-0.3,1.1-0.6,1.6-0.8c0.3-0.6,0.6-1.3,0.9-1.9c-0.8-6.1-1.6-12.2-2.4-18.3
		l-0.1-0.4l-14.3-29.4l-1.1-0.8l-10.7-1.4l-0.8,0.1C301.7,76,290.4,82.3,279.2,88.6z"/>
	<polygon class="st1" points="420.6,131.7 420.2,132.5 420.4,136.2 421,137.1 449.2,153.1 450.7,152.5 456.1,136.1 456.2,115.2 
		455.2,114.1 440.9,112.8 440,113.1 	"/>
	<path class="st2" d="M181,403.6l0-0.9l-1.5-3l-0.9-0.5l-34.3-1.4l-1.4,1.2l0.6,16.3l7.7,17.9l1.4,0.5c4.3-1.8,8.6-3.6,12.9-5.4
		c0.2-0.2,0.5-0.4,0.7-0.7c6.9-4,13.8-8,20.7-12c0.1-0.5,0.3-0.9,0.4-1.4c0-0.5-0.1-0.9-0.1-1.4C185.1,409.7,183,406.7,181,403.6z"
		/>
	<polygon class="st1" points="408,143 400.6,148.1 393.2,160.7 393.9,162.1 410.5,167 440.3,181.6 441.3,181.7 446.5,180 447.2,179 
		446.3,162.4 445.8,161.6 409.3,142.9 	"/>
	<polygon class="st1" points="94.5,206.5 102.1,214.1 118.1,220 119.6,218.9 120.9,197.8 129.8,158.6 129.7,157.5 126.5,151.6 
		125.1,150.9 106.7,155.9 105.9,156.8 94,205 	"/>
	<polygon class="st1" points="360.7,65.4 352,63.3 337.7,66.1 337,67.6 344.4,83.2 353.3,115.2 353.8,116 358.6,118.8 359.8,118.7 
		371.6,107 371.9,106 361.6,66.3 	"/>
	<polygon class="st1" points="431.3,102.5 423.4,95.4 414.6,89.1 414.1,88.9 402.2,87.6 401.2,88.3 391.4,112.6 391.9,113.9 
		409,122.4 409.9,122.4 417.6,119.2 431.6,106.6 431.9,105.7 431.6,103.1 	"/>
	<polygon class="st3" points="72.3,92.4 73.8,90.7 104.7,84.5 105.4,83.8 108.5,79.6 108.4,78.8 100.4,66.2 98.9,64.7 72.5,60.4 
		59.4,63.6 58.7,64.4 55.2,79.5 54.3,106 54.4,114.7 55.5,115.7 58.6,115.6 59.5,115.2 	"/>
	<polygon class="st1" points="66.8,162.4 67,161.8 70.2,134.5 69.9,133.5 62.5,126.7 60.8,127 54.1,131.7 53.2,133.5 54,169.8 
		54.6,170.7 57.9,172.1 59.2,171.7 	"/>
	<polygon class="st1" points="400.6,352.4 412.5,344.3 412.8,343.3 403,330 397.6,317.1 396.8,310.1 396.3,309.3 393.8,307.4 
		392.9,307.2 380.2,310.5 379.8,311 373.7,329.2 374.1,330.3 399.6,352.3 	"/>
	<polygon class="st1" points="207.7,386.7 202.9,399.4 203.1,400.9 219.3,417 220.4,417.2 233.4,413.3 234.2,412.3 235.2,401.4 
		233.8,399.6 209.6,385.8 	"/>
	<polygon class="st1" points="137,348.9 128.5,359.6 128.3,361 139,381.3 140,381.8 153.5,381.9 154.6,381.2 158.8,371.1 158,369 
		139,348.6 	"/>
	<polygon class="st1" points="216,118 208.6,106.6 207.3,105.9 184.7,109.6 183.9,110.4 179.4,123.2 179.8,124.4 188.1,131.6 
		190.3,131.6 215.7,120 	"/>
	<polygon class="st2" points="119.6,113.2 119.2,111.8 106.4,97.1 104.8,96.6 81.3,103.4 80.3,104.4 76.6,114.8 76.5,115.5 
		80.2,144.1 82.4,146 109.6,142.1 113.1,138.9 	"/>
	<polygon class="st1" points="127.8,97 151.2,98.7 153,97.7 159.7,68.5 158.4,67.1 145.7,63.3 142.4,63.7 117.5,72 116.5,73.7 
		126.7,96.3 	"/>
	<polygon class="st3" points="296,429.8 280.2,412.5 278.1,412 253.3,428.7 253.2,430.7 259.9,442.1 262.6,444 286.5,455.1 
		288.3,454.5 296.4,431 	"/>
	<polygon class="st1" points="145.1,143.7 162.8,138.9 163.9,137.9 169.8,114.6 168.6,113 143.6,105.9 141.5,105.9 133.5,106.7 
		131.8,107.7 120.7,138.2 122.1,139.9 144.2,143.7 	"/>
	<polygon class="st2" points="218.8,68.5 203.4,69.9 194.8,69.8 171.9,67.3 170.1,68.5 163.5,96.9 163.9,98.3 174.6,107.1 
		176.6,107.3 191.2,93.7 194.1,92.9 216.4,89.8 217.5,87.4 220.2,70.3 	"/>
	<polygon class="st1" points="246.2,84.7 249.7,86.1 286.2,76.8 288.6,74.7 292.4,67.5 288.4,64 236.1,61.8 235,65 	"/>
	<polygon class="st3" points="229.1,76 219.7,98.1 220.9,100.2 230.4,106.4 232.6,106.8 244.7,98.2 245.7,95.8 231.4,75.7 	"/>
	<polygon class="st1" points="341.8,461.4 352,462 352.6,461.2 353.7,456.6 353.6,455.6 348.4,452.1 347.3,452 341.3,460.6 	"/>
	<path class="st2" d="M317.1,389.6c-7.4,2.7-14.8,5.4-22.1,8.1c-1,1-2,2.1-3,3.1c-1.3,2.7-2.5,5.5-3.8,8.2l0.8,2.4l14.9,6.4l2.9-0.5
		l11.9-25.8L317.1,389.6z"/>
	<path class="st1" d="M280.1,358.7c-3.2,0-6.4,0-9.7-0.1c-0.5,0.3-1,0.5-1.6,0.8c-0.8,0.9-1.7,1.8-2.5,2.7l0,1.1l5,4.7l1.2,0.2
		l7.8-8.4L280.1,358.7z"/>
	<path class="st3" d="M186.7,387.9c-4.9,1-9.8,2-14.8,2.9c-1-0.2-1.9-0.3-2.9-0.5c-1.8-0.9-3.6-1.8-5.4-2.7l-0.6-1.4l5-7.5l1.7-0.7
		l16.9,8.4L186.7,387.9z"/>
	<path class="st2" d="M360.1,123.3l6.5-1.6l17.8,0.8l1.5,1.4c3.8,1.5,7.6,3,11.3,4.6c0.5,0.6,1,1.1,1.5,1.7c0.1,0.7,0.1,1.4,0.2,2.1
		c-1.5,3.5-2.9,6.9-4.4,10.4c-2.3,2.2-4.5,4.3-6.8,6.5c-4.5,5-9,10-13.5,14.9h-2.5c-4.4-0.6-8.8-1.1-13.2-1.7
		c-0.8-0.4-1.7-0.8-2.5-1.1c-3.7-9-7.4-18-11.1-27c0.4-1.1,0.8-2.3,1.2-3.4c1-0.9,2-1.9,3.1-2.8L360.1,123.3z"/>
	<polygon class="st1" points="244.8,112.8 247.5,107.8 262.8,95.1 265.5,95.9 275.3,119.6 274,124.5 248.9,117.8 	"/>
	<polygon class="st1" points="126.1,299.9 120.5,302.1 98.3,299 96.3,295.5 101.5,261.6 105.7,257.9 125.3,290.8 	"/>
	<path class="st2" d="M76.5,290.2l-11.4,9.7L52.7,306l-3.2,3.2v12.5l2,6.9h1.1l4.2-1.1l1,0.4l7.8,6.9l6.1,2.1l0.7-0.3
		c2.4-4.5,4.9-9.1,7.3-13.6c0-0.3,0-0.7,0-1c-0.1-3.2-0.2-6.4-0.2-9.6c0.3-0.5,0.5-1,0.8-1.5l2.3-5.2l6.9-8.8v-1l-5.4-5.6l-0.9-0.8
		L76.5,290.2z"/>
	<path class="st1" d="M92.4,159.7c-1.1,3.7-2.2,7.4-3.3,11.1c-0.4,0.5-0.8,0.9-1.1,1.4c-1.6,0.8-3.2,1.6-4.9,2.4l-11.4-5.3l-0.5-1.7
		l1.7-10.2l1-1.2l10.2-4h1.5l6.9,6.6V159.7z"/>
	<path class="st1" d="M278.4,403.8c0.8-0.6,1.5-1.3,2.3-1.9c2.5-4.1,4.9-8.2,7.4-12.3l-0.5-0.9l-6.5-1.5l-2.4,0.7
		c-8.3,3.1-16.6,6.2-24.9,9.4c-0.5,0.4-1.1,0.8-1.6,1.2c-1,1.9-2.1,3.8-3.1,5.6c0.6,1.7,1.2,3.4,1.8,5.1c0.7,1.4,1.4,2.7,2,4.1
		c0.2,0,0.5,0,0.7,0.1s0.5,0,0.7,0.1C262.5,410.2,270.4,407,278.4,403.8z"/>
	<path class="st1" d="M413,276c-0.4-0.8-0.8-1.5-1.2-2.3c-4.5-3.2-9-6.3-13.5-9.5l-1.8,0l-7.3,4.1l-0.7,2c-1.5,7-2.9,14-4.4,21
		c0.2,0.5,0.4,1,0.6,1.5c2.1,1.4,4.3,2.8,6.4,4.2c3.1,0.2,6.2,0.3,9.3,0.5c2.7,0,5.3,0,8,0c0.2-0.2,0.5-0.3,0.7-0.5s0.5-0.3,0.7-0.5
		C410.8,289.5,411.9,282.8,413,276z"/>
	<path class="st3" d="M393.2,432.5c0.6-0.3,1.2-0.7,1.8-1c2.3-3.4,4.6-6.9,6.9-10.3l-0.1-1.3l-3.6-5.1l-1.6-0.4
		c-5.6-0.7-11.2-1.4-16.8-2.1c-0.4,0.2-0.8,0.3-1.2,0.5c-1,1.6-2,3.3-3,4.9c0,2.3,0,4.5,0.1,6.8c0.1,1.9,0.3,3.9,0.4,5.8
		c0.1,0.2,0.3,0.3,0.4,0.5s0.3,0.3,0.4,0.5C382.4,431.6,387.8,432.1,393.2,432.5z"/>
	<path class="st1" d="M99.3,235.6v-2.9l-3.8-5.9c-4.1-0.2-8.2-0.4-12.4-0.6l-2.6,1.5l-5.9,3.2h-2.9l-14.1-12.7l-2.6-1.2l-3.8,0.9
		l-1.2,2.6l2.6,20.9l0.6,4.1l-2.4,10.6c0.7,8.7,1.3,17.5,2,26.2c-0.1,0.5-0.2,1-0.2,1.4c-0.6,1.5-1.2,3.1-1.8,4.6
		c0,0.5-0.1,1-0.1,1.6c1.2,1.2,2.5,2.4,3.7,3.6c0.4,0.2,0.8,0.3,1.1,0.5c0.4,0,0.8,0,1.3,0c3.3-2.1,6.6-4.1,9.9-6.2l9.4-8.8
		c3.8-1.5,7.7-2.9,11.5-4.4c0.5-0.5,1-1,1.5-1.6C92.5,260.6,95.9,248.1,99.3,235.6z"/>
	<g>
		<g>
			<polygon class="st0" points="332.1,345.3 333.1,342.7 332.6,339.8 322.1,334.3 319.4,334.3 316.3,336.2 308,351.7 298.5,363 
				294.9,366 294.4,367.1 294.7,368.4 296.1,368.6 313.5,359.2 			"/>
			<polygon class="st0" points="316.5,269.5 316.5,266.8 314.4,263.4 313.5,262.2 276.1,259.9 259.6,261.5 257.9,262.9 256.5,291.3 
				258.3,306.8 259.9,307.5 284.3,309.7 293.9,311.6 306,314.4 307.5,314 308.1,313.4 315.3,287.2 			"/>
			<polygon class="st0" points="371,274 371,271.1 366.4,263.9 364.9,263.1 350.1,263.1 335.1,262.6 333.6,263.1 332.5,265.4 
				328.6,300.1 323.7,319 323.7,321.1 325,322.4 337.2,328 345,331.2 346.5,331.2 348.2,330 363.5,306.2 			"/>
			<polygon class="st0" points="336.1,164.5 336.1,165.4 332,170 317.9,174.2 317.1,174.2 316.2,173.6 310.8,164 303.1,148.8 
				294.4,139.3 294.4,138.4 295.2,137.6 305,140.9 322.6,150.4 			"/>
			<polygon class="st0" points="346.3,178.5 345.5,178 343.7,178 338,180 323.9,186.6 323.7,187.5 324.2,190.6 330.1,216.5 
				333.3,245.1 334.1,246.2 335,246.8 359.5,247.8 371.1,246.6 371.9,245.8 371.9,243.5 364.7,221.2 363.8,217.5 			"/>
			<polygon class="st0" points="319,242.5 318.5,244.3 317.6,245.6 314.4,246.8 289.6,247.3 269.9,245.7 260.6,245.8 259.6,245.2 
				258.8,243.3 257.9,241.9 256.8,239.4 256.3,219.5 257.2,200.1 258.3,199 267.9,197.9 293,196.6 301.9,195 303.8,194.5 
				307.4,195.4 317.7,225 			"/>
			<polygon class="st0" points="303.5,334.5 305.3,330 305.3,328.7 304.4,327.1 282.5,322.1 255.8,322.1 254.2,324 255,368.1 
				255.6,375.4 257.1,375.7 268.9,373.1 295.5,351.2 			"/>
			<path class="st0" d="M300.9,172.2l1.8,4.2v1.3l-0.9,1.5c-4.3-0.1-8.7-0.2-13-0.3c-11,1.6-22,3.3-33,4.9l-1.5-1.8l0.8-41.7
				l0.6-6.9l1.4-0.3l11.2,2.6l25.1,20.7L300.9,172.2z"/>
			<polygon class="st0" points="161.2,162.3 160.1,165 160.7,168.1 171.6,173.8 174.5,173.8 177.8,171.8 186.4,155.6 196.3,143.7 
				200.1,140.7 200.7,139.4 200.3,138.1 198.9,137.9 180.7,147.7 			"/>
			<polygon class="st0" points="179.1,235.4 179.1,238.1 181.3,241.7 182.2,242.8 220.6,245.2 237.4,243.6 239.1,242.1 240.6,213.1 
				238.8,197.2 237.1,196.4 212.2,194.2 202.3,192.2 189.9,189.3 188.4,189.8 187.8,190.4 180.4,217.3 			"/>
			<polygon class="st0" points="127.7,231.9 127.7,234.8 132.2,241.7 133.6,242.5 148,242.5 162.5,243 163.9,242.5 164.9,240.3 
				168.8,206.6 173.4,188.4 173.4,186.3 172.2,185.1 160.4,179.7 152.8,176.6 151.4,176.6 149.8,177.7 135,200.7 			"/>
			<polygon class="st0" points="164.3,339.7 164.3,338.9 167.9,334.8 180.3,331.1 181,331.1 181.8,331.7 186.5,340.1 193.3,353.4 
				201,361.8 201,362.6 200.3,363.3 191.6,360.4 176.2,352 			"/>
			<path class="st0" d="M151.5,322.9l0.7,0.5h1.7l5.2-1.8l12.9-6l0.2-0.9l-0.5-2.8l-5.4-23.6l-2.9-26.1l-0.7-1.1l-0.8-0.6l-22.4-0.9
				c-3,0.3-5.9,0.6-8.9,1c-0.3,0.4-0.7,0.8-1,1.2c-0.1,0.5-0.2,1-0.4,1.5c3.8,9.6,7.6,19.2,11.4,28.7
				C144.3,302.3,147.9,312.6,151.5,322.9z"/>
			<path class="st0" d="M177.1,261.7l0.4-1.8l1-1.3l3.2-1.2l25-0.4c8.7,1.2,17.5,2.4,26.2,3.6c0.8,0.6,1.5,1.2,2.3,1.8
				c0.5,0.6,1,1.2,1.5,1.8c-0.4,6.5-0.7,13.1-1.1,19.6c1.3,6.9,2.5,13.9,3.8,20.8l-1.1,1.2l-9.7,1.1l-25.4,1.3l-8.9,1.6l-2,0.5
				l-3.7-0.9l-10.3-29.9L177.1,261.7z"/>
			<polygon class="st0" points="194.5,171.9 192.8,176 192.8,177.2 193.7,178.7 213.9,183.3 238.6,183.3 240.1,181.5 239.3,140.8 
				238.7,134 237.4,133.7 226.4,136.2 201.9,156.4 			"/>
			<path class="st0" d="M192.9,332.8l-1.9-4.5V327l0.9-1.6c4.6,0.1,9.2,0.2,13.7,0.3c11.6-1.7,23.3-3.5,34.9-5.2l1.6,1.9l-0.8,44.1
				l-0.7,7.3l-1.5,0.3l-11.8-2.7l-26.5-21.9L192.9,332.8z"/>
		</g>
		<g>
			<polygon class="st0" points="332.1,345.3 333.1,342.7 332.6,339.8 322.1,334.3 319.4,334.3 316.3,336.2 308,351.7 298.5,363 
				294.9,366 294.4,367.1 294.7,368.4 296.1,368.6 313.5,359.2 			"/>
			<polygon class="st0" points="316.5,269.5 316.5,266.8 314.4,263.4 313.5,262.2 276.1,259.9 259.6,261.5 257.9,262.9 256.5,291.3 
				258.3,306.8 259.9,307.5 284.3,309.7 293.9,311.6 306,314.4 307.5,314 308.1,313.4 315.3,287.2 			"/>
			<polygon class="st0" points="371,274 371,271.1 366.4,263.9 364.9,263.1 350.1,263.1 335.1,262.6 333.6,263.1 332.5,265.4 
				328.6,300.1 323.7,319 323.7,321.1 325,322.4 337.2,328 345,331.2 346.5,331.2 348.2,330 363.5,306.2 			"/>
			<polygon class="st0" points="336.1,164.5 336.1,165.4 332,170 317.9,174.2 317.1,174.2 316.2,173.6 310.8,164 303.1,148.8 
				294.4,139.3 294.4,138.4 295.2,137.6 305,140.9 322.6,150.4 			"/>
			<polygon class="st0" points="346.3,178.5 345.5,178 343.7,178 338,180 323.9,186.6 323.7,187.5 324.2,190.6 330.1,216.5 
				333.3,245.1 334.1,246.2 335,246.8 359.5,247.8 371.1,246.6 371.9,245.8 371.9,243.5 364.7,221.2 363.8,217.5 			"/>
			<polygon class="st0" points="319,242.5 318.5,244.3 317.6,245.6 314.4,246.8 289.6,247.3 269.9,245.7 260.6,245.8 259.6,245.2 
				258.8,243.3 257.9,241.9 256.8,239.4 256.3,219.5 257.2,200.1 258.3,199 267.9,197.9 293,196.6 301.9,195 303.8,194.5 
				307.4,195.4 317.7,225 			"/>
			<polygon class="st0" points="303.5,334.5 305.3,330 305.3,328.7 304.4,327.1 282.5,322.1 255.8,322.1 254.2,324 255,368.1 
				255.6,375.4 257.1,375.7 268.9,373.1 295.5,351.2 			"/>
			<path class="st0" d="M300.9,172.2l1.8,4.2v1.3l-0.9,1.5c-4.3-0.1-8.7-0.2-13-0.3c-11,1.6-22,3.3-33,4.9l-1.5-1.8l0.8-41.7
				l0.6-6.9l1.4-0.3l11.2,2.6l25.1,20.7L300.9,172.2z"/>
			<polygon class="st0" points="161.2,162.3 160.1,165 160.7,168.1 171.6,173.8 174.5,173.8 177.8,171.8 186.4,155.6 196.3,143.7 
				200.1,140.7 200.7,139.4 200.3,138.1 198.9,137.9 180.7,147.7 			"/>
			<polygon class="st0" points="179.1,235.4 179.1,238.1 181.3,241.7 182.2,242.8 220.6,245.2 237.4,243.6 239.1,242.1 240.6,213.1 
				238.8,197.2 237.1,196.4 212.2,194.2 202.3,192.2 189.9,189.3 188.4,189.8 187.8,190.4 180.4,217.3 			"/>
			<polygon class="st0" points="127.7,231.9 127.7,234.8 132.2,241.7 133.6,242.5 148,242.5 162.5,243 163.9,242.5 164.9,240.3 
				168.8,206.6 173.4,188.4 173.4,186.3 172.2,185.1 160.4,179.7 152.8,176.6 151.4,176.6 149.8,177.7 135,200.7 			"/>
			<polygon class="st0" points="164.3,339.7 164.3,338.9 167.9,334.8 180.3,331.1 181,331.1 181.8,331.7 186.5,340.1 193.3,353.4 
				201,361.8 201,362.6 200.3,363.3 191.6,360.4 176.2,352 			"/>
			<path class="st0" d="M151.5,322.9l0.7,0.5h1.7l5.2-1.8l12.9-6l0.2-0.9l-0.5-2.8l-5.4-23.6l-2.9-26.1l-0.7-1.1l-0.8-0.6l-22.4-0.9
				c-3,0.3-5.9,0.6-8.9,1c-0.3,0.4-0.7,0.8-1,1.2c-0.1,0.5-0.2,1-0.4,1.5c3.8,9.6,7.6,19.2,11.4,28.7
				C144.3,302.3,147.9,312.6,151.5,322.9z"/>
			<path class="st0" d="M177.1,261.7l0.4-1.8l1-1.3l3.2-1.2l25-0.4c8.7,1.2,17.5,2.4,26.2,3.6c0.8,0.6,1.5,1.2,2.3,1.8
				c0.5,0.6,1,1.2,1.5,1.8c-0.4,6.5-0.7,13.1-1.1,19.6c1.3,6.9,2.5,13.9,3.8,20.8l-1.1,1.2l-9.7,1.1l-25.4,1.3l-8.9,1.6l-2,0.5
				l-3.7-0.9l-10.3-29.9L177.1,261.7z"/>
			<polygon class="st0" points="194.5,171.9 192.8,176 192.8,177.2 193.7,178.7 213.9,183.3 238.6,183.3 240.1,181.5 239.3,140.8 
				238.7,134 237.4,133.7 226.4,136.2 201.9,156.4 			"/>
			<path class="st0" d="M192.9,332.8l-1.9-4.5V327l0.9-1.6c4.6,0.1,9.2,0.2,13.7,0.3c11.6-1.7,23.3-3.5,34.9-5.2l1.6,1.9l-0.8,44.1
				l-0.7,7.3l-1.5,0.3l-11.8-2.7l-26.5-21.9L192.9,332.8z"/>
		</g>
	</g>
</g>
</svg>
