<?xml version="1.0" encoding="utf-8"?>
<!-- Generator: Adobe Illustrator 28.2.0, SVG Export Plug-In . SVG Version: 6.00 Build 0)  -->
<svg version="1.1" id="Layer_1" xmlns="http://www.w3.org/2000/svg" xmlns:xlink="http://www.w3.org/1999/xlink" x="0px" y="0px"
	 viewBox="0 0 512 512" style="enable-background:new 0 0 512 512;" xml:space="preserve">
<style type="text/css">
	.st0{fill:#267A2C;}
	.st1{fill:#FFE7A4;}
	.st2{fill:#DBA305;}
	.st3{fill:#FFC30C;}
</style>
<g>
	<path id="frame_00000041270053833975559590000016436558676847350709_" class="st0" d="M3.1,335.9v166.9l5.2,6.8l246-2.6l250.2-2.7
		l7.5-5.3l-2.6-102l-3.9-273.4l2.1-110.4l-8.1-6.3L437,5.1L64.5,2.5L2.4,7.6L0,10.3L3.1,335.9z M44.6,466l-5.5-7.7l3.7-162.7
		L39.1,49.4l8.4-5.8l137.9-4.2l272.2,4.2l7.3,4.6l-2,69.7v247.5l3.5,99.8l-7,3.5l-218.2-7.3L44.6,466z"/>
	<polygon class="st1" points="138.4,423.1 116.4,436 114.3,436.8 93.8,441.6 92.6,443.2 90.4,452.7 91.9,453.7 119.2,455.5 
		145.9,447.5 146.9,444.2 140.2,423.9 	"/>
	<polygon class="st2" points="288.5,421.5 309.8,408.2 311.4,406.8 323.3,391.5 325.5,391.1 336.7,393.2 337.4,394.9 330.6,418.8 
		313.2,438.1 309.2,437.5 288.8,423.3 	"/>
	<path class="st3" d="M191,451.1l47.5-1.2l1.1-1.4c-2.3-12.6-5.9-33.4-5.7-35.2c-0.4-0.4-0.8-0.8-1.2-1.2
		c-6.1-0.6-12.2-1.1-18.3-1.7c-0.6,0.2-1.2,0.4-1.8,0.6c-7.5,12.7-14.9,25.4-22.4,38.2L191,451.1z"/>
	<path class="st3" d="M277.7,294.2l0.1,53.1l0.8,1.2c7.2-2.5,18.9-6.4,20-6.2c0.2-0.4,0.5-0.9,0.7-1.3c0.4-6.8,0.8-13.7,1.2-20.5
		c-0.1-0.7-0.2-1.3-0.3-2c-7.1-8.4-14.2-16.9-21.3-25.3L277.7,294.2z"/>
	<path class="st2" d="M203.1,414.4c-2-1-4-2-5.9-3c-0.7,0-1.4,0-2,0c-12.4,9.2-24.9,18.4-37.3,27.6l-0.8,1.2v11.3l1.3,1.3h14.1
		l0.9-0.4c10.1-12.1,20.2-24.2,30.2-36.3C203.4,415.5,203.3,414.9,203.1,414.4z"/>
	<path class="st1" d="M149.2,426.4c1,0.4,1.9,0.8,2.9,1.2c0.3,0,0.7,0,1,0c6-3.9,12-7.7,17.9-11.6l0.4-0.5v-4.7l-0.6-0.5h-6.8
		l-0.5,0.2c-4.8,5.1-9.7,10.1-14.5,15.2C149,426,149.1,426.2,149.2,426.4z"/>
	<path class="st2" d="M167.3,266.6c1.5-0.8,3.1-1.6,4.6-2.3c0.3-0.4,0.6-0.9,0.9-1.3c0.5-13.2,0.9-26.4,1.4-39.7
		c-0.2-0.3-0.5-0.7-0.7-1c-2.7-0.7-5.4-1.3-8.1-2l-1.4,0.2c-3.6,1-7.2,2-10.8,3c-0.3,0.5-0.7,0.9-1,1.4c4.6,13.7,9.2,27.5,13.8,41.2
		C166.4,266.3,166.9,266.4,167.3,266.6z"/>
	<path class="st2" d="M408.8,337.2c1.4,1,2.8,2.1,4.2,3.1c0.5,0.1,1,0.2,1.6,0.3c12-5.5,24.1-11,36.1-16.5c0.2-0.4,0.4-0.7,0.6-1.1
		c-0.6-2.7-1.2-5.4-1.9-8.1l-0.8-1.2c-2.5-2.8-5-5.5-7.5-8.3c-0.6-0.1-1.1-0.2-1.7-0.3c-10.2,10.3-20.5,20.5-30.7,30.8
		C408.7,336.3,408.7,336.7,408.8,337.2z"/>
	<polygon class="st3" points="276.2,421.8 247.6,406.8 246,407.9 248.5,443.2 248.9,444 256.8,450.9 257.5,451.1 295.1,451.1 
		296,449.3 288,437 	"/>
	<polygon class="st1" points="51.1,417.9 49.9,418.2 52.1,455 53.4,456.1 78,455.5 78.7,454.1 69.1,432.9 	"/>
	<polygon class="st3" points="66.5,420.4 68.1,419.9 74.2,378.4 74,377.3 58.4,361.2 56.6,361.3 50.1,371.4 49.9,372 49.9,408.1 
		50.3,408.9 	"/>
	<polygon class="st3" points="77.8,419 82.9,431.4 83.5,431.8 92.4,436.5 93.7,436.2 101.5,427.8 101.8,426.7 97.9,415.6 97,414.9 
		85.9,414.1 78,417.7 	"/>
	<polygon class="st1" points="308.2,387.3 287.1,375.9 286,375.9 268.4,379.5 266.9,381.3 265.5,401.8 266.3,403.6 284.2,414.6 
		286.2,414.6 302.5,403.3 309.5,389.3 	"/>
	<polygon class="st3" points="60.5,339.6 71.9,328.6 80.2,321.3 80.9,320.5 84.6,306.8 83.7,305.3 66.9,298.5 52.5,297.2 
		51.1,298.5 51.1,319.4 51.2,319.9 58.4,339.1 	"/>
	<path class="st3" d="M56.7,243.2l-5.1,12.8l1.1,1.9l6.5,1.1l1-0.2l15.6-13.6l0,0c6.3,0.4,12.5,0.8,18.8,1.2
		c0.8-0.9,1.6-1.8,2.3-2.7c-4.5-8.6-8.9-17.2-13.4-25.7l-0.6-0.3l-23-2.9l-1.2,0.9l-1,11.1L56.7,243.2z"/>
	<path class="st3" d="M240.5,102.6l-11.1-3.9l-1.6,1L227,105l0.2,0.8l11.9,12.6l0,0c-0.2,5.1-0.5,10.3-0.7,15.4
		c0.8,0.6,1.5,1.3,2.3,1.9c7.3-3.8,14.6-7.6,21.9-11.4l0.2-0.5l2.1-18.9L264,104l-9.5-0.7L240.5,102.6z"/>
	<polygon class="st2" points="57.5,177.5 59.6,204.7 60.6,205.7 92.8,210.9 93.6,210.6 101.9,205.7 102.1,204.3 80.9,172.3 
		79.7,171.8 58.4,176.4 	"/>
	<path class="st3" d="M454.1,399l-2.2-20.9l-0.8-0.8l-24.9-3.2l-0.6,0.2c-4.4,0.7-8.7,1.5-13.1,2.2c-2.6,1.4-5.1,2.8-7.7,4.2
		c0.2,0.6,0.4,1.1,0.6,1.7c6.5,2.2,13,4.4,19.5,6.6c0.5,0.2,1,0.5,1.6,0.7c3.3,4.6,6.5,9.2,9.8,13.8c0.3,0.1,0.6,0.3,0.9,0.4
		C442.8,402.2,448.4,400.6,454.1,399z"/>
	<path class="st1" d="M305,306.4c7.5,1,15,1.9,22.5,2.9l0.9-1.1l3-31.4l-0.3-0.8c-1.1-5.4-2.2-10.9-3.3-16.3
		c-1.9-3.2-3.7-6.3-5.6-9.5c-0.7,0.3-1.4,0.6-2.1,0.9c-2.5,8.3-5,16.5-7.5,24.8c-0.3,0.7-0.6,1.3-0.8,2c-5.6,4.3-11.2,8.6-16.9,12.8
		c-0.1,0.4-0.3,0.8-0.4,1.2C298,296.8,301.5,301.6,305,306.4z"/>
	<polygon class="st1" points="65.9,131.5 59.7,128.4 58.3,128.8 56.4,142.2 56.3,143.1 57.5,156.3 57,165.5 58.2,167 75.1,162.8 
		75.8,161.9 77,157.1 77,156.3 66.2,132.2 	"/>
	<polygon class="st3" points="213.5,110.7 220.4,104.7 220.5,102.7 202.9,93.9 201.8,93.4 183.1,88.5 170.8,83.4 168.2,84.2 
		166.7,106.8 167.7,108 173.7,111.7 174.8,112.2 212.4,110.8 	"/>
	<polygon class="st1" points="208.6,161.7 214.7,167.5 216.5,167.5 223.3,152.6 223.8,151.6 226.9,135.8 230.7,125.3 229.7,123.1 
		208.6,122.2 207.6,123 204.6,128.1 204.3,129.1 208.4,160.8 	"/>
	<polygon class="st3" points="75.1,99.2 63.4,113.4 63.3,114.7 70.4,126.6 81,136.1 81.9,136.4 109.7,132.4 110.6,131.2 
		108.6,113.9 108.3,113.2 91.3,96.3 90.3,96 75.7,98.8 	"/>
	<polygon class="st3" points="195.7,133.9 190.4,119.9 189.6,119.3 178.3,119.5 167.4,123 166.8,123.5 158.3,144.7 158.8,145.9 
		171.7,151.5 172.3,151.6 191.2,146.4 191.8,145.9 195.7,134.5 	"/>
	<polygon class="st2" points="372.7,164.8 392.4,162.1 393.4,161.2 396.5,146.6 395.2,131.3 394.6,130.4 369.6,113.1 368,113.4 
		356.8,128.6 356.6,129.4 357.7,155.3 358.3,156.3 372,164.7 	"/>
	<polygon class="st1" points="66,91.4 86.5,81.7 87.2,80.7 89.8,55.3 88.5,53.9 54.8,55.9 53.7,57 50.8,79 53.1,110.8 55.3,111.3 	
		"/>
	<polygon class="st2" points="127.1,66.4 128.7,68.2 129.6,68.5 147.1,65.6 165.1,71.2 166.2,70.8 178.8,52.7 178.1,51.4 
		150.7,49.5 130.7,53.3 130.1,54 127,65.6 	"/>
	<polygon class="st1" points="240.4,74.6 241.2,74.8 276.5,71.2 277.1,71 294.4,59.2 294.8,58.6 297,52.6 295.9,51.1 252.9,48.8 
		213.3,48.5 212.3,50.2 220.9,62.3 	"/>
	<polygon class="st3" points="291.2,78.5 301.2,85.9 302.2,86.1 327.9,81.1 329.7,80.1 335.3,70.4 335.7,68.3 315.8,52.9 
		314.6,52.8 309.9,55.1 309,56.6 305.3,61.8 291,76.9 	"/>
	<polygon class="st3" points="256.8,98 272.6,98 273.4,97.9 287.4,90.7 287.8,89.1 282.6,83.5 281.9,83.1 269.8,79.9 269.2,79.8 
		240.4,82.1 239.4,82.6 236.4,85.7 236.7,87.3 256,97.8 	"/>
	<polygon class="st1" points="362.2,189.4 377.6,192.6 378.3,192.6 393.5,188.5 394.2,187 390.3,180.4 389.7,179.9 378.6,174.3 
		378,174.1 349.5,170.5 348.5,170.7 344.9,173.2 344.8,174.8 361.5,189.1 	"/>
	<polygon class="st1" points="105.1,91.6 112.8,100.2 115.7,101 139.3,95.1 142.9,96.3 153.2,102.1 154,102.3 157.4,101.3 
		158.2,99.9 158,85.4 157.4,84.1 143.9,76.5 141.7,76.1 124.5,79.5 112.9,76.3 102.8,78.8 101.7,80.4 	"/>
	<polygon class="st3" points="102.4,53.4 101.6,54 94.4,66.4 95.7,68 116.9,67.2 117.9,66.3 120.6,54 119.4,52.7 	"/>
	<polygon class="st1" points="452.6,417.8 445.5,412.2 444.7,412 437.6,413.5 436.9,414.1 430,427.3 415.2,442.8 414.9,443.3 
		413,453.1 413.8,454.3 428.3,457.7 428.6,457.7 452.1,455.5 452.9,454.9 456.6,447.7 456.7,447.1 453,418.5 	"/>
	<polygon class="st3" points="380.8,421 379.9,420.6 376.3,420.8 375.4,421.4 359.3,449.6 360,451.2 376.3,456.5 397.3,456.6 
		398.4,455.6 399.7,441.3 399.4,440.5 	"/>
	<polygon class="st1" points="447.2,361 449.2,352.3 446.4,337.9 445,337.3 429.3,344.7 397.3,353.6 396.5,354.1 393.7,358.9 
		393.8,360.1 405.5,371.9 406.5,372.2 446.3,362 	"/>
	<polygon class="st3" points="410,431.7 417.1,423.8 423.4,415 423.6,414.5 424.9,402.6 424.2,401.5 399.9,391.7 398.6,392.2 
		390,409.3 390,410.2 393.3,418 405.9,432 406.8,432.3 409.4,432 	"/>
	<polygon class="st3" points="420.1,72.2 421.8,73.8 428,104.7 428.8,105.4 432.9,108.5 433.8,108.4 446.3,100.4 447.9,98.9 
		452.1,72.4 448.9,59.3 448.1,58.6 433,55.2 406.5,54.3 397.8,54.3 396.7,55.4 396.8,58.6 397.3,59.4 	"/>
	<polygon class="st1" points="350,66.7 350.6,67 378,70.2 379,69.8 385.8,62.5 385.4,60.7 380.8,54.1 379,53.1 342.6,53.9 
		341.7,54.6 340.3,57.9 340.7,59.1 	"/>
	<polygon class="st2" points="103,326.8 90.2,319.3 89.2,319.5 81.3,334.5 71.6,345.2 65.5,349.1 64.9,349.8 64.2,353.1 64.5,354 
		73.2,364.3 73.8,364.5 93.4,362.1 94.3,361.2 103.4,327.8 	"/>
	<polygon class="st1" points="81.3,406.3 95,406 96.2,405.2 104.9,384 104.7,382.9 96.1,372.4 94.9,372 84.4,375.4 83.3,377.3 
		79.8,405 	"/>
	<polygon class="st1" points="415.5,126 413.8,149.5 414.8,151.3 444,158 445.5,156.7 449.2,144 448.8,140.7 440.6,115.7 
		438.8,114.8 416.2,124.9 	"/>
	<polygon class="st2" points="374.1,209.5 372.3,233 373.3,234.8 402.5,241.5 404,240.2 407.8,227.5 407.3,224.2 399.1,199.2 
		397.4,198.3 374.7,208.5 	"/>
	<polygon class="st1" points="309.4,339.7 306.9,372.1 308.4,374.6 348.6,383.8 350.7,382 355.8,364.5 355.2,359.9 343.9,325.5 
		341.5,324.3 310.3,338.3 	"/>
	<polygon class="st3" points="83.5,295.7 100.9,279.7 101.4,277.7 84.6,252.9 82.7,252.8 71.2,259.5 69.3,262.2 58.2,286.1 
		58.9,287.9 82.3,296 	"/>
	<polygon class="st3" points="374.6,87.9 384.9,111.3 386.8,112.5 418.1,104 418.9,102.1 416,88 413.9,85 393.3,65.3 391.2,65.3 
		374.7,86.6 	"/>
	<polygon class="st3" points="441.8,221.4 440,204.2 440.2,194.7 443.2,169.1 441.8,167.1 407.2,159.7 405.4,160.2 394.7,172.1 
		394.5,174.4 411.1,190.7 412.1,193.8 415.8,218.7 418.7,219.9 439.6,222.9 	"/>
	<polygon class="st2" points="279.2,214 296.7,212.5 306.4,212.8 332.4,215.8 334.4,214.6 342.3,183.9 341.9,182.3 329.8,172.7 
		327.5,172.5 310.8,187 307.6,187.9 282.3,190.9 281,193.5 277.7,212 	"/>
	<polygon class="st3" points="346.7,162.2 345.2,146.7 345.4,138.2 347.9,115.2 346.7,113.4 318.3,106.8 316.8,107.2 308,117.9 
		307.9,119.9 321.5,134.5 322.3,137.4 325.4,159.7 327.8,160.8 344.9,163.5 	"/>
	<polygon class="st3" points="423,247.1 421.9,250.6 433.4,286.5 435.7,288.8 443.1,292.1 446.4,287.8 445.2,235.5 442,234.6 	"/>
	<polygon class="st3" points="50.6,342.1 50,352.3 50.8,352.9 55.5,354 56.4,353.9 60,348.7 60.1,347.6 51.5,341.6 	"/>
	<polygon class="st3" points="151.3,375 156.4,383.8 157.4,383.9 161.9,382.3 162.6,381.7 162.8,375.4 162.2,374.4 151.8,374.2 	"/>
	<polygon class="st3" points="326.2,319.3 312.4,314.8 311.2,315.6 307.8,321.5 307.6,322.9 313.3,329.6 314.8,330.1 326.5,320.6 	
		"/>
	<polygon class="st2" points="381.7,399.9 399.8,382 399.4,379.4 392.9,369.3 390.9,368 375.8,371.4 373.9,373.3 379.4,399.3 	"/>
	<polygon class="st3" points="199.5,313.6 207.5,314 208,313.4 208.8,309.8 208.7,309 204.7,306.2 203.8,306.2 199.1,312.9 	"/>
	<polygon class="st3" points="407.5,135.4 409.2,122.1 408.4,120.7 403.3,116.4 402.2,116 397.7,120.8 397.5,122.2 406.5,135.4 	"/>
	<polygon class="st3" points="287.1,127.3 277.4,118.1 275.9,117.9 269.3,119.4 268.4,120.1 269.5,126.5 270.6,127.5 286.5,128.2 	
		"/>
	<path class="st3" d="M222,76.5l-9.7-11.4l-6.1-12.4l-3.2-3.2h-12.5l-6.9,2v1.1l1.1,4.2l-0.4,1l-6.9,7.8l-2.1,6.1l0.3,0.7
		c4.5,2.4,9.1,4.9,13.6,7.3c0.3,0,0.7,0,1,0c3.2-0.1,6.4-0.2,9.6-0.2c0.5,0.3,1,0.5,1.5,0.8l5.2,2.3l8.8,6.9h1l5.6-5.4l0.8-0.9
		L222,76.5z"/>
	<path class="st3" d="M356.5,110.6c-6.2-1.9-12.5-3.7-18.7-5.6c-0.8-0.6-1.6-1.3-2.4-1.9c-1.3-2.7-2.7-5.5-4-8.2l8.9-19.2l2.8-0.9
		l17.2,2.8l2.1,1.6l6.7,17.3v2.5L358,110.6H356.5z"/>
	<path class="st3" d="M397.3,328.7c-13.7-4.1-27.4-8.2-41.1-12.3c-1.7-1.4-3.5-2.8-5.2-4.2c-2.9-6-5.8-12-8.8-18l19.6-42.1l6.2-2
		l37.8,6.2l4.6,3.6l14.7,37.9v5.5l-24.5,25.3H397.3z"/>
	<path class="st0" d="M217.5,205.9c1.4,1.6,2.8,3.2,4.3,4.8c3.7,0.9,7.5,1.9,11.2,2.8h20.3l8.8-4.8l2.3-2.7l3.2-3.2
		c1-5.5,2-11,2.9-16.6c0.5-0.9,1.1-1.9,1.6-2.8c1.3-1.1,2.6-2.2,3.9-3.3c0.8-0.4,1.7-0.9,2.7-1.3c0.5-0.2,0.9-0.4,1.3-0.5
		c7.3-0.1,14.6-0.3,21.9-0.4c1.8-1.1,3.6-2.1,5.4-3.2c1.5-8.4,2.9-16.7,4.4-25.1c-0.6-3.5-1.2-7.1-1.9-10.6c-1.9-0.5-3.7-1-5.6-1.5
		c-11.2-0.8-22.3-1.5-33.5-2.3c-5.6,0.8-11.2,1.5-16.9,2.3c-5.2,2.6-10.4,5.3-15.6,7.9c-4.4,5.5-8.7,11-13.1,16.4
		c-2.1,7.8-4.2,15.5-6.2,23.3C218.5,192.1,218,199,217.5,205.9C217.5,205.9,217.5,205.9,217.5,205.9z"/>
	<g>
		<path class="st0" d="M266.7,289.8l-1.6-1.7l-2.3-0.7l-43.2-2.4L218,286l-2.8,4.8c0.7,16.2,1.5,32.5,2.2,48.7
			c0.5,2.2,1,4.4,1.5,6.6c1.1,2,2.2,4,3.3,6c6.4,5,12.9,9.9,19.3,14.9l18.2,4.6l2.7,0l3.4-8.4l1.1-3.7L266.7,289.8L266.7,289.8z"/>
		<path class="st0" d="M308.4,226.1l-2-1.2l-39.7-1.1c-16.8-0.3-33.7-0.6-50.5-0.9l-28.8,1.3l-3.7,1.5l-3.2,29.1l4,15.9l3.7,0.8
			l26.9,1.1c17.2,1,34.5,2,51.7,3c9.4-0.5,18.8-0.9,28.2-1.4c1.2-0.5,2.4-0.9,3.6-1.4c1.1-1.1,2.2-2.1,3.3-3.2
			c2.8-6.3,5.6-12.7,8.3-19l2.7-18.1v-2.7L308.4,226.1z"/>
	</g>
	<path class="st3" d="M161.4,394.1l-19.1-7.6c-4.4-1.6-8.8-3.2-13.1-4.8c-0.6-0.1-1.2-0.1-1.9-0.2c-5,1.2-10,2.5-15,3.7
		c-0.7,0.6-1.5,1.2-2.2,1.8c-1.6,7.7-3.2,15.4-4.7,23.1c3.4,5.4,6.8,10.8,10.2,16.3l2.2,0.9l24.7-11.2l0.5-0.4l18.9-18.9
		L161.4,394.1z"/>
	<path class="st3" d="M152.8,294.4l11.7,8.2c2.8,1.8,5.5,3.6,8.3,5.4c0.5,0.2,0.9,0.3,1.4,0.5c4.5,0.2,9,0.4,13.5,0.6
		c0.8-0.2,1.7-0.4,2.5-0.6c4.6-4.3,9.2-8.6,13.9-12.9c-0.3-3.9-0.6-7.8-0.9-11.7l-1.3-1l-24.5,2l-0.6,0.1l-23.2,7.7L152.8,294.4z"/>
	<path class="st3" d="M312.6,95.2l-4.8,10.7c-1.2,2.4-2.4,4.8-3.6,7.2c-0.2,0.3-0.5,0.6-0.7,0.9c-2.8,1.7-5.7,3.4-8.5,5.2
		c-0.6,0.1-1.2,0.2-1.8,0.3c-4.4-1.9-8.9-3.8-13.3-5.7c-1.1-3.3-2.2-6.5-3.3-9.8l0.5-1.3l16.5-6.9l0.4-0.1l17.6-1.8L312.6,95.2z"/>
	<path class="st3" d="M142.1,251l-1.2,0.5l-18.5,26.5l0.5,1.4l20.1,7.8l1.1,0l15.1-7.6l0.5-1.1c-3.4-9.6-8.4-24.2-8.6-25.3l-0.1,0
		l-0.9-0.9L142.1,251z"/>
	<path class="st3" d="M356,332.9l-0.3,1.2l10.2,30.7l1.5,0.4l18.2-11.5l0.6-0.9l2.9-16.6l-0.6-1.1c-9.7-3-24.5-7.7-25.4-8.2
		l-0.1,0.1l-1.2,0.1L356,332.9z"/>
	<path class="st3" d="M322.2,232.5l0,1.3l18.6,26.4l1.5,0l14.1-16.3l0.3-1l-2.1-16.8l-0.9-0.9c-10.2-0.1-25.7-0.3-26.7-0.5l0,0.1
		l-1.1,0.5L322.2,232.5z"/>
	<polygon class="st3" points="137.4,358.3 130.8,328.1 129.5,327.1 117.8,325.7 117.4,325.8 112.1,327.7 111.2,329 107.7,365.1 
		109.1,366.4 134.1,364 135.2,363.2 137.3,359.1 	"/>
	<polygon class="st3" points="75.1,99.2 63.4,113.4 63.3,114.7 70.4,126.6 81,136.1 81.9,136.4 109.7,132.4 110.6,131.2 
		108.6,113.9 108.3,113.2 91.3,96.3 90.3,96 75.7,98.8 	"/>
	<polygon class="st3" points="116.7,111.5 115.6,113.8 115.8,115 122,121.4 123.8,135.1 124.8,136 135.1,137.2 146.7,136 
		147.5,135.6 155.2,124.2 157.3,114.9 156.8,113.8 145.5,107.3 144.9,107.2 117.5,110.9 	"/>
	<polygon class="st1" points="105.1,91.6 112.8,100.2 115.7,101 139.3,95.1 142.9,96.3 153.2,102.1 154,102.3 157.4,101.3 
		158.2,99.9 158,85.4 157.4,84.1 143.9,76.5 141.7,76.1 124.5,79.5 112.9,76.3 102.8,78.8 101.7,80.4 	"/>
	<polygon class="st3" points="112.2,256.3 111.5,255.8 99.2,255.3 98.5,256.9 107.6,272.7 108.6,273.1 119,270.3 119.6,268.9 	"/>
	<polygon class="st3" points="365.4,204.2 365.1,203.4 353.5,194.2 351.5,194.7 347.8,211.2 348.5,212.2 361,218 362.6,217.5 	"/>
	<polygon class="st3" points="279.6,357.1 280.3,356.4 297.6,350.8 299.8,351.8 298.6,368.8 297.4,369.5 280.2,371.5 278.4,370.6 	
		"/>
	<polygon class="st3" points="206,328.6 205.2,327.6 185.5,317.4 182.6,318.2 180.7,339 182,340.2 202.3,346 204.7,345.3 	"/>
	<polygon class="st1" points="258.1,382.6 257.3,381.6 237.6,371.4 234.7,372.2 232.8,393 234.1,394.2 254.4,400 256.8,399.2 	"/>
	<path class="st1" d="M118.4,253.4l9,1.1l0.8-0.3l5.2-4.9l0.3-0.8c0.9-3.1,1.7-6.1,2.6-9.2c0.3-0.5,0.6-0.9,0.9-1.4
		c2.9-0.4,5.8-0.8,8.7-1.2c0.3-0.3,0.6-0.7,0.8-1c0.1-0.4,0.2-0.9,0.3-1.3c-3.3-7.2-6.6-14.4-9.9-21.7c0-0.2,0-0.4,0-0.6l-3.4-9.3
		l-1.3-0.6l-14.2,4.6l-0.3,0.2l-18.9,14.1l-0.4,0.9l0.6,8.1l0.2,0.6C105.9,238.2,112.1,245.8,118.4,253.4z"/>
	<path class="st3" d="M132.2,192.8l1.3,0l4.7-2.2l0.9-1.2l7-44.7l-1.6-1.7l-24.4,1.6l-27.9,10.9l-0.9,1.9c2.1,5.5,4.2,11,6.2,16.5
		c0.3,0.3,0.6,0.6,0.9,0.8c5,8.8,10,17.5,15,26.3c0.7,0.2,1.4,0.3,2,0.5c0.7-0.1,1.4-0.2,2.1-0.2
		C122.4,198.5,127.3,195.7,132.2,192.8z"/>
	<path class="st3" d="M222.2,375.1l0.4-1.2l-0.5-5.1l-0.8-1.2l-39.8-21.4l-2.2,1l-6.5,23.5l1.1,29.9l1.4,1.5
		c5.9-0.1,11.7-0.3,17.6-0.4c0.4-0.2,0.7-0.4,1.1-0.6c9.9-1.8,19.9-3.6,29.8-5.5c0.4-0.6,0.7-1.2,1.1-1.8c0.2-0.7,0.3-1.4,0.5-2
		C224.3,386.3,223.3,380.7,222.2,375.1z"/>
	<path class="st2" d="M174.9,161.2l-1.5-0.4l-6.3,0.7l-1.5,0.9c-7.3,13.6-14.5,27.2-21.8,40.8c0.7,0.8,1.3,1.6,2,2.4
		c8.3,2.4,16.6,4.9,24.9,7.3l36.7-2.4l1.8-1.6c-0.3-6.1-0.6-12.2-0.9-18.3c-0.2-0.4-0.5-0.7-0.7-1.1c-2.5-10.3-4.9-20.6-7.4-30.8
		c-0.7-0.4-1.5-0.7-2.2-1.1c-0.8-0.1-1.7-0.3-2.5-0.4C188.5,158.5,181.7,159.8,174.9,161.2z"/>
	<path class="st1" d="M130.2,314.8c0.9-3.1,1.7-6.3,2.6-9.4c-1.6-3.1-3.2-6.2-4.7-9.3l-0.3-1.1l-9.2-9.8l-0.7-0.4l-12.4-2.2
		l-1.5,0.8l-6.5,16.4l-7.4,5.8l-0.5,1.3l1,3.8l0.9,0.9l34.2,9.3l1.5-0.5C128.3,318.5,129.3,316.7,130.2,314.8z"/>
	<path class="st2" d="M167.8,363.5l-1.6-15.4l0.1-8.6l2.4-23l-1.2-1.8c-7.7-4-15.4-8-23-12c-0.9-0.1-1.7-0.3-2.6-0.4
		c-2,4.1-4,8.3-6,12.4c0,0.6,0,1.3-0.1,1.9c0.3,0.7,0.6,1.5,0.8,2.2c1.9,5.7,3.9,11.5,5.8,17.2l0.8,2.8l3.2,22.3l2.4,1.1l17.1,2.6
		L167.8,363.5z"/>
	<path class="st3" d="M344.5,450l8.1-13.2l5.3-6.7l15.9-16.8l0.1-2.1c-3.7-7.9-7.3-15.7-11-23.6c-0.6-0.6-1.2-1.3-1.8-1.9
		c-4.1,2-8.2,4.1-12.3,6.1c-0.4,0.5-0.8,1-1.2,1.5c-0.2,0.8-0.4,1.5-0.7,2.3c-2,5.7-3.9,11.5-5.9,17.2l-1.1,2.7l-11,19.7l1.3,2.3
		l12,12.5L344.5,450z"/>
</g>
</svg>
