<?xml version="1.0" encoding="utf-8"?>
<!-- Generator: Adobe Illustrator 28.2.0, SVG Export Plug-In . SVG Version: 6.00 Build 0)  -->
<svg version="1.1" id="Layer_1" xmlns="http://www.w3.org/2000/svg" xmlns:xlink="http://www.w3.org/1999/xlink" x="0px" y="0px"
	 viewBox="0 0 512 512" style="enable-background:new 0 0 512 512;" xml:space="preserve">
<style type="text/css">
	.st0{fill:#CE2327;}
	.st1{fill:#FFC30C;}
	.st2{fill:#FFE7A4;}
	.st3{fill:#DBA305;}
</style>
<g>
	<path id="frame_00000168822986121733099230000008832508050937921180_" class="st0" d="M335.9,508.9h166.9l6.8-5.2l-2.6-246
		L504.3,7.5L499,0L397,2.6L123.5,6.5L13.1,4.4l-6.3,8.1L5.1,75L2.5,447.5l5.2,62.1l2.7,2.4L335.9,508.9z M466,467.4l-7.7,5.5
		l-162.7-3.7l-246.2,3.7l-5.8-8.4l-4.2-137.9l4.2-272.2l4.6-7.3l69.7,2h247.5l99.8-3.5l3.5,7l-7.3,218.2L466,467.4z"/>
	<polygon class="st1" points="81.9,442 71.3,418.9 70.6,416.8 67.9,395.9 66.4,394.5 57.2,391.4 56,392.8 51.6,419.8 56.9,447.2 
		60.1,448.5 81,443.8 	"/>
	<path class="st1" d="M451.3,321l-0.9-47.5l-1.1-1.1c-9.7,2.3-25.6,5.9-27.1,5.7c-0.3,0.4-0.6,0.8-0.9,1.2
		c-0.4,6.1-0.9,12.2-1.3,18.3c0.2,0.6,0.3,1.2,0.5,1.8c9.8,7.5,19.6,14.9,29.3,22.4L451.3,321z"/>
	<path class="st2" d="M408.1,304.4c-1.1,2.5-2.2,5.1-3.4,7.6c0,0.9,0,1.7,0,2.6c10.4,15.9,20.8,31.9,31.2,47.8l1.3,1h12.8l1.4-1.6
		v-18l-0.5-1.2c-13.7-12.9-27.3-25.8-41-38.7C409.4,304,408.8,304.2,408.1,304.4z"/>
	<polygon class="st1" points="427.8,242.8 417.5,265.1 418.2,266.3 442.6,264.4 443.1,264.1 447.8,257.9 448,257.4 448,228.1 
		446.7,227.4 438.3,233.7 	"/>
	<path class="st1" d="M374.9,289c2-9.5,4.1-19,6.1-28.5c-0.2-0.5-0.5-1-0.7-1.6c-0.4-0.8-0.8-1.6-1.2-2.4c-0.5,0-1,0-1.6,0
		c-11.5,3.9-22.9,7.7-34.4,11.6c-0.4,0.2-0.7,0.5-1.1,0.7c-1,5-2,10-3,15l0.1,0.8c7.1,8.2,14.2,16.4,21.3,24.6
		c0.8-0.1,1.6-0.1,2.3-0.2c0.6-0.2,1.1-0.3,1.7-0.5C367.9,302,371.4,295.5,374.9,289z"/>
	<path class="st2" d="M146,298.3c2-3.2,4-6.3,6-9.5c0-0.2,0-0.4,0-0.7c-0.3-1-0.6-2.1-0.9-3.1c-0.2,0-0.3-0.1-0.5-0.1
		c-4.7,1-9.4,2-14.1,3c-0.1,0.1-0.2,0.1-0.3,0.2l-2.4,3.4l-0.1,0.3l1.3,14.9l0.8,0.3l4.6-3.6L146,298.3z"/>
	<path class="st3" d="M116.6,346c0.8-2.4,1.6-4.9,2.4-7.3c0-0.1-0.1-0.3-0.1-0.4c-0.4-0.6-0.7-1.3-1.1-1.9c-0.1,0-0.2,0-0.3,0
		c-2.9,1.5-5.9,2.9-8.8,4.4c-0.1,0.1-0.1,0.1-0.2,0.2l-1,2.7l0,0.2l3.4,9.7l0.6,0.1l2.4-3.2L116.6,346z"/>
	<path class="st1" d="M391.8,187.5c4.1,1.1,8.2,2.2,12.4,3.3c0.2-0.1,0.5-0.2,0.7-0.3c1-0.7,2-1.4,3.1-2c0-0.2,0-0.4-0.1-0.6
		c-2.7-4.8-5.4-9.5-8.2-14.3c-0.1-0.1-0.2-0.2-0.3-0.3l-4.5-1.5l-0.3,0l-15.8,6.6l-0.1,0.9l5.5,3.7L391.8,187.5z"/>
	<path class="st2" d="M379.9,226.8c4.5,8.6,9,17.3,13.4,25.9c0.5,0.3,1,0.5,1.5,0.8c2.7,0.7,5.4,1.4,8.1,2c0.3-0.3,0.6-0.7,0.8-1
		c3.9-11.9,7.7-23.8,11.6-35.6c0-0.3,0-0.6,0-1l-4.5-9.9l-0.5-0.5L375.1,191l-1.7,1.3l2.1,15L379.9,226.8z"/>
	<polygon class="st1" points="177,220.2 178.1,219.6 165.9,184.8 164.4,184.1 140.9,191.4 140.6,192.9 155.6,210.7 	"/>
	<polygon class="st1" points="408.6,355.2 413.9,360.5 414.3,360.6 419.9,361.1 420.5,360.7 422.8,354.7 422.7,354.1 418.3,349.1 
		417.7,348.9 411.8,350.9 408.4,354.4 	"/>
	<path class="st2" d="M399,57.9l-20.9,2.2l-0.8,0.8l-3.2,24.9l0.2,0.6c0.7,4.4,1.5,8.7,2.2,13.1c1.4,2.6,2.8,5.1,4.2,7.7
		c0.6-0.2,1.1-0.4,1.7-0.6c2.2-6.5,4.4-13,6.6-19.5c0.2-0.5,0.5-1,0.7-1.6c4.6-3.3,9.2-6.5,13.8-9.8c0.1-0.3,0.3-0.6,0.4-0.9
		C402.2,69.2,400.6,63.6,399,57.9z"/>
	<polygon class="st2" points="414.2,446 423.9,425.5 424.9,424.8 450.3,422.2 451.7,423.5 449.7,457.2 448.6,458.3 426.6,461.2 
		394.8,458.9 394.3,456.7 	"/>
	<polygon class="st3" points="66.4,384.9 68.2,383.3 68.5,382.4 65.6,364.9 71.2,346.9 70.8,345.8 52.7,333.2 51.4,333.9 
		49.5,361.3 53.3,381.3 54,381.9 65.6,385 	"/>
	<polygon class="st1" points="78.5,220.8 85.9,210.8 86.1,209.8 81.1,184.1 80.1,182.3 70.4,176.7 68.3,176.3 52.9,196.2 
		52.8,197.4 55.1,202.1 56.6,203 61.8,206.7 76.9,221 	"/>
	<path class="st3" d="M181.5,168.5c2.7-4.2,5.4-8.5,8.2-12.7c0-0.6,0-1.2,0-1.9c-2.5-3.2-5.1-6.5-7.6-9.7c-0.8-0.4-1.6-0.7-2.3-1.1
		c-0.8-0.1-1.6-0.1-2.3-0.2c-12.7,3.4-25.3,6.8-38,10.1c-0.5,0.5-0.9,1.1-1.4,1.6c-1.6,8-3.3,16.1-4.9,24.1c0.2,0.7,0.4,1.4,0.6,2
		c0.5,0.6,1,1.1,1.6,1.7c6.6-1.4,13.2-2.9,19.8-4.3l5.9-2.6l19.9-5.8L181.5,168.5z"/>
	<polygon class="st2" points="90.1,409 98.7,400 99.5,396.7 93.6,369.3 94.9,365.1 100.6,353.2 100.8,352.3 99.8,348.3 98.4,347.4 
		83.9,347.6 82.6,348.3 75,364 74.6,366.5 78,386.5 74.8,399.9 77.3,411.6 78.9,412.9 	"/>
	<polygon class="st3" points="417.8,59.4 412.2,66.5 412,67.3 413.5,74.4 414.1,75.1 427.3,82 442.8,96.8 443.3,97.1 453.1,99 
		454.3,98.2 457.7,83.7 457.7,83.4 455.5,59.9 454.9,59.1 447.7,55.4 447.1,55.3 418.5,59 	"/>
	<polygon class="st1" points="163.1,222.3 153.3,223.3 152.5,223.8 148.2,230.3 148.1,231.2 152.6,246.7 152.9,269.9 153.1,270.5 
		158.9,279.6 160.4,279.9 174.3,271.6 174.6,271.4 191.1,252 191.3,250.9 188.7,242.5 188.3,241.9 163.9,222.5 	"/>
	<path class="st3" d="M431.3,186.1l-7.2,0.6l-0.6,0.4l-3.3,4.7l-0.1,0.7l3.1,11.5l-0.2,17.2l0.1,0.4c-1.2,4.8-2.4,9.6-3.7,14.4
		c0.4,0.5,0.8,0.9,1.2,1.4c6-4.9,12.1-9.8,18.1-14.6l0.2-0.2l12.5-14.1l0.2-0.8l-1.8-6.3l-0.3-0.4C443.6,196,437.5,191,431.3,186.1z
		"/>
	<path class="st2" d="M279.4,88.1l-3.3,11.8l0.2,1.2l5.3,8.4l1,0.7c8.2,3.5,16.5,7,24.7,10.5c7.3,1.1,14.7,2.2,22,3.3
		c0.3-0.1,0.6-0.1,0.9-0.2c3.3-0.6,6.6-1.1,9.8-1.7c0.5-0.3,1.1-0.6,1.6-0.8c0.3-0.6,0.6-1.3,0.9-1.9c-0.8-6.1-1.6-12.2-2.4-18.3
		l-0.1-0.4l-14.3-29.4l-1.1-0.8L313.9,69l-0.8,0.1C301.9,75.5,290.7,81.8,279.4,88.1z"/>
	<polygon class="st1" points="421,131.2 420.6,132.1 420.8,135.7 421.4,136.6 449.6,152.7 451.2,152 456.5,135.7 456.6,114.7 
		455.6,113.6 441.3,112.3 440.5,112.6 	"/>
	<path class="st2" d="M178.2,409.3l0-0.9l-1.6-3.1l-0.9-0.5l-35.9-1.5l-1.4,1.3l0.6,17l8,18.7l1.5,0.5c4.5-1.9,9-3.8,13.5-5.6
		c0.2-0.2,0.5-0.5,0.7-0.7c7.2-4.2,14.4-8.4,21.7-12.6c0.1-0.5,0.3-1,0.4-1.5c0-0.5-0.1-1-0.1-1.4
		C182.5,415.8,180.4,412.5,178.2,409.3z"/>
	<polygon class="st1" points="408.3,142.5 401,147.7 393.6,160.3 394.2,161.7 410.9,166.6 440.7,181.2 441.7,181.3 446.9,179.6 
		447.7,178.6 446.7,162 446.2,161.2 409.6,142.4 	"/>
	<polygon class="st1" points="94.5,206.2 102.1,213.8 118.2,219.7 119.6,218.6 120.9,197.5 129.9,158.2 129.7,157 126.5,151.1 
		125.2,150.5 106.7,155.5 105.9,156.4 94,204.6 	"/>
	<polygon class="st3" points="446.8,374.8 440.4,371.2 428.8,370.2 428.1,371.2 431,385.3 432.2,412.7 432.6,413.4 435.7,416.7 
		436.7,416.9 447.9,410.3 448.3,409.6 447.4,375.7 	"/>
	<polygon class="st1" points="361,64.8 352.3,62.8 337.9,65.6 337.3,67 344.7,82.7 353.6,114.7 354.1,115.5 358.9,118.3 
		360.1,118.2 371.9,106.5 372.2,105.5 362,65.7 	"/>
	<polygon class="st1" points="288.5,120.9 285,122.3 281.4,126 281.6,126.5 289.1,128.6 302.4,134.2 302.8,134.2 305.3,133.9 
		305.6,133.6 305.6,128.4 305.4,128.1 289.1,121 	"/>
	<polygon class="st1" points="431.7,102 423.8,94.9 415,88.6 414.5,88.4 402.6,87.1 401.5,87.8 391.7,112.1 392.2,113.4 409.3,122 
		410.2,122 418,118.7 432,106.1 432.3,105.2 432,102.6 	"/>
	<polygon class="st3" points="72.2,91.9 73.8,90.2 104.7,84 105.4,83.2 108.5,79.1 108.4,78.2 100.4,65.7 98.9,64.1 72.4,59.9 
		59.3,63.1 58.6,63.9 55.2,79 54.3,105.5 54.3,114.2 55.4,115.3 58.6,115.2 59.4,114.7 	"/>
	<polygon class="st1" points="66.7,162 67,161.4 70.2,134 69.8,133 62.5,126.2 60.7,126.6 54.1,131.2 53.1,133 53.9,169.4 
		54.6,170.3 57.9,171.7 59.1,171.3 	"/>
	<polygon class="st1" points="421.5,415.5 421.7,414.5 416,370.4 415.1,369 400.9,361.2 398.3,362.5 389.7,372.4 388.9,375.5 
		404.3,432.2 405.8,433.4 411.5,434.2 413.3,433.2 	"/>
	<polygon class="st1" points="396.7,349.8 408.7,341.7 408.9,340.8 399.1,327.5 393.7,314.5 392.9,307.6 392.5,306.7 389.9,304.8 
		389,304.6 376.3,308 375.9,308.4 369.8,326.6 370.2,327.7 395.7,349.8 	"/>
	<polygon class="st1" points="132.3,352.2 123.4,363.4 123.2,364.9 134.4,386 135.4,386.6 149.6,386.7 150.7,386 155,375.4 
		154.3,373.2 134.4,351.9 	"/>
	<path class="st1" d="M226.8,117.9c-4.8-5.6-9.7-11.3-14.5-16.9c-0.7-0.3-1.4-0.6-2-0.9c-0.7,0.1-1.5,0.2-2.2,0.3
		c-8.8,4.1-17.7,8.1-26.5,12.2l-1,1.2l-3.6,18.7l0.7,1.7l12.9,8.3l3.1-0.5l33-21.2L226.8,117.9z"/>
	<polygon class="st2" points="119.6,112.7 119.3,111.3 106.4,96.6 104.8,96.1 81.3,102.9 80.3,103.9 76.6,114.4 76.5,115.1 
		80.2,143.7 82.4,145.6 109.6,141.6 113.1,138.5 	"/>
	<polygon class="st1" points="127.8,96.5 151.3,98.2 153.1,97.2 159.8,68 158.5,66.5 145.7,62.8 142.4,63.2 117.5,71.4 116.5,73.2 
		126.7,95.8 	"/>
	<polygon class="st1" points="145.1,143.2 162.9,138.4 164,137.4 169.8,114.2 168.7,112.5 143.6,105.5 141.5,105.5 133.5,106.2 
		131.8,107.2 120.8,137.8 122.1,139.5 144.3,143.3 	"/>
	<polygon class="st2" points="219,67.9 203.5,69.4 194.9,69.3 172,66.7 170.2,67.9 163.6,96.4 164,97.8 174.7,106.6 176.7,106.8 
		191.3,93.1 194.2,92.3 216.5,89.3 217.6,86.9 220.3,69.8 	"/>
	<polygon class="st1" points="246.4,84.2 249.9,85.6 286.4,76.3 288.8,74.2 292.7,67 288.6,63.5 236.3,61.3 235.2,64.5 	"/>
	<polygon class="st3" points="229.2,75.5 219.8,97.7 221.1,99.7 230.5,105.9 232.8,106.3 244.9,97.7 245.9,95.3 231.5,75.2 	"/>
	<polygon class="st3" points="314.4,133.1 323.7,153.7 325.9,154.2 336.2,151.6 337.9,150.3 339.6,136.4 338.6,134.2 315.6,131.4 	
		"/>
	<path class="st2" d="M320.4,394.7c-7.7,2.8-15.4,5.7-23.1,8.5c-1.1,1.1-2.1,2.2-3.2,3.2c-1.3,2.9-2.6,5.7-3.9,8.6l0.9,2.5l15.5,6.7
		l3-0.5l12.4-26.9L320.4,394.7z"/>
	<path class="st3" d="M184.2,393c-5.1,1-10.3,2-15.4,3.1c-1-0.2-2-0.4-3-0.5c-1.9-0.9-3.7-1.9-5.6-2.8l-0.6-1.4l5.2-7.8l1.7-0.7
		l17.6,8.8L184.2,393z"/>
	<path class="st2" d="M360.4,122.8l6.6-1.6l17.8,0.8l1.5,1.4c3.8,1.5,7.6,3,11.4,4.6c0.5,0.6,1,1.1,1.5,1.7c0.1,0.7,0.1,1.4,0.2,2.1
		c-1.5,3.5-2.9,6.9-4.4,10.4c-2.3,2.2-4.5,4.3-6.8,6.5c-4.5,5-9,10-13.5,14.9H372c-4.4-0.6-8.8-1.1-13.2-1.7
		c-0.8-0.4-1.7-0.8-2.5-1.1c-3.7-9-7.4-18.1-11.1-27.1c0.4-1.2,0.8-2.3,1.2-3.5c1-0.9,2-1.9,3.1-2.8L360.4,122.8z"/>
	<polygon class="st1" points="244.9,112.4 247.7,107.4 263,94.6 265.7,95.4 275.5,119.1 274.2,124 249,117.3 	"/>
	<polygon class="st1" points="126.1,299.7 120.5,301.8 98.3,298.8 96.3,295.2 101.5,261.3 105.7,257.6 125.3,290.5 	"/>
	<path class="st2" d="M76.5,290l-11.4,9.7l-12.4,6.1l-3.2,3.2v12.5l2,6.9h1.1l4.2-1.1l1,0.4l7.8,6.9l6.1,2.1l0.7-0.3
		c2.4-4.5,4.9-9.1,7.3-13.6c0-0.3,0-0.7,0-1c-0.1-3.2-0.2-6.4-0.2-9.6c0.3-0.5,0.5-1,0.8-1.5l2.3-5.2l6.9-8.8v-1l-5.4-5.6l-0.9-0.8
		L76.5,290z"/>
	<path class="st2" d="M145.5,271.4c0.4-7.1,0.8-14.3,1.2-21.4c-1.2-3.8-2.4-7.5-3.7-11.3l-1.6-4.9l-12.7-6.4l-8-1.5
		c-3.9-0.8-7.9-1.6-11.8-2.4c-0.8,0.3-1.5,0.7-2.3,1c-0.3,0.6-0.6,1.2-0.9,1.9c0.2,3.7,0.4,7.5,0.6,11.2c-1,1.5-1.9,3-2.9,4.5
		c-0.1,0.4-0.2,0.8-0.3,1.1c3,4.7,5.9,9.4,8.9,14.1c0.3,0.2,0.7,0.3,1,0.5c3.3,1.6,6.6,3.1,9.8,4.7c0.4,0.5,0.7,1,1.1,1.6l4.1,5
		l5.5,11.5l1.1,0.5l8.5-2.6c0.5-0.9,1.1-1.9,1.6-2.8C145,274.3,145.2,272.8,145.5,271.4z"/>
	<path class="st1" d="M92.4,159.2c-1.1,3.7-2.2,7.4-3.3,11.1c-0.4,0.5-0.8,0.9-1.1,1.4c-1.6,0.8-3.2,1.6-4.9,2.4l-11.4-5.3l-0.5-1.7
		l1.7-10.2l1-1.2l10.2-4h1.5l6.9,6.6V159.2z"/>
	<path class="st1" d="M412.4,272.9c-0.4-0.8-0.8-1.5-1.2-2.3c-4.5-3.2-9-6.3-13.5-9.5l-1.8,0l-7.3,4.1l-0.7,2c-1.5,7-2.9,14-4.4,21
		c0.2,0.5,0.4,1,0.6,1.5c2.1,1.4,4.3,2.8,6.4,4.2c3.1,0.2,6.2,0.3,9.3,0.5c2.7,0,5.3,0,8,0c0.2-0.2,0.5-0.3,0.7-0.5
		c0.2-0.2,0.5-0.3,0.7-0.5C410.3,286.5,411.3,279.7,412.4,272.9z"/>
	<path class="st1" d="M99.3,235.2v-2.9l-3.8-5.9c-4.1-0.2-8.3-0.4-12.4-0.6l-2.7,1.5l-5.9,3.2h-2.9l-14.1-12.7l-2.7-1.2l-3.8,0.9
		l-1.2,2.7l2.7,20.9l0.6,4.1l-2.4,10.6c0.7,8.8,1.3,17.5,2,26.3c-0.1,0.5-0.2,1-0.3,1.4c-0.6,1.5-1.2,3.1-1.8,4.6
		c0,0.5-0.1,1-0.1,1.6c1.2,1.2,2.5,2.4,3.7,3.6c0.4,0.2,0.8,0.3,1.1,0.5c0.4,0,0.8,0,1.3,0c3.3-2.1,6.6-4.1,9.9-6.2l9.4-8.8
		c3.8-1.5,7.7-3,11.5-4.4c0.5-0.5,1-1,1.5-1.6C92.4,260.3,95.9,247.8,99.3,235.2z"/>
	<polygon class="st0" points="206.4,247.9 202.6,243.7 186.7,213.3 183.9,208.1 183,198.3 185.3,191.3 198.9,150 202.2,146.3 
		242,125.2 248.5,125.2 258.8,127.1 306.1,142.5 310.4,145.4 312.2,149.6 322.5,194.5 323.5,199.2 320.2,205.8 299.6,253.5 
		296.3,256.8 287.9,257.8 212.5,250.3 	"/>
	<path class="st0" d="M392.1,442.3c-1.5,2-2.9,3.9-4.4,5.9c-1.9,0.3-3.9,0.7-5.9,1c-14,2.1-27.3,2.7-39.5,2.4l-11.5,0.8
		c-10.4-1.3-20.7-2.6-31.1-3.9l-22.7,0.1l-16.1,1.7l-19.7,2.1l-17.9,1.5l-22.5,2l-4.9,1.5l-44,1l-44.5-6.3l-4.4-2l-1.5-3.4l1-25.9
		l21-76.2l2-5.4l1-3.4l12.7-17.1l52.3-47.9l4.4-2l12.2-1h24.7l17.2,0.8l19.2,3l19.5,2.2c2.9-0.2,5.9-0.3,8.8-0.5
		c2.2,0.8,4.3,1.6,6.5,2.4c17.6,14.2,35.1,28.3,52.7,42.5l5.9,11.6l4.3,5.8l1,3.4l2,5.4c5.6,20.4,11.2,40.8,16.8,61.2
		C388.5,417.9,390.3,430.1,392.1,442.3z"/>
	<path class="st1" d="M309.6,265.1c6,0,12.1,0.1,18.1,0.1c15.4-6.2,30.9-12.5,46.3-18.7c0.3-0.5,0.7-1,1-1.5
		c-0.1-0.8-0.1-1.6-0.2-2.4c-4.3-9-8.5-18.1-12.8-27.1c-0.4-0.3-0.8-0.5-1.3-0.8c-4.9-0.7-9.8-1.4-14.7-2.1c-0.6,0-1.2,0-1.7-0.1
		c-6.1,3.5-12.3,6.9-18.4,10.4c-0.6,0.6-1.2,1.3-1.9,1.9c-0.5,0.8-1,1.7-1.5,2.5c-4.6,11.4-9.2,22.7-13.9,34.1
		c-0.1,0.7-0.2,1.4-0.2,2.1C308.9,264,309.2,264.5,309.6,265.1z"/>
	<path class="st1" d="M340.8,158.9c-5.2,4.2-10.4,8.3-15.6,12.5l-0.8,2.3l9.3,31l1.3,0.8l20.8-1.2l1.9-1.3l9.9-16.5l-0.4-3.3
		c-7.9-8-15.7-15.9-23.6-23.9C342.7,159.1,341.8,159,340.8,158.9z"/>
	<path class="st1" d="M120,328.1c2.2-4.9,4.4-9.9,6.6-14.8l-1.1-1.2l-24.8-5.1l-1.1,0.5l-9.6,11.5l-0.1,1.5l5.7,10.7l2.3,0.9
		c6.9-0.9,13.8-1.7,20.7-2.6C119,328.8,119.5,328.5,120,328.1z"/>
	<path class="st1" d="M143.9,203.4c-0.5-0.3-1-0.7-1.4-1c-3.7-0.6-7.5-1.1-11.2-1.7l-1.1,0.6l-3.2,4.8l0.2,1.4
		c1.3,4.7,2.5,9.5,3.8,14.2c0.3,0.3,0.6,0.5,0.8,0.8c1.7,0.2,3.5,0.4,5.2,0.6c2-0.9,3.9-1.7,5.9-2.6c1.6-0.8,3.3-1.7,4.9-2.5
		c0.1-0.2,0.2-0.3,0.3-0.5c0.1-0.2,0.2-0.3,0.3-0.5C146.8,212.5,145.4,207.9,143.9,203.4z"/>
</g>
</svg>
