<?xml version="1.0" encoding="utf-8"?>
<!-- Generator: Adobe Illustrator 28.2.0, SVG Export Plug-In . SVG Version: 6.00 Build 0)  -->
<svg version="1.1" id="Layer_1" xmlns="http://www.w3.org/2000/svg" xmlns:xlink="http://www.w3.org/1999/xlink" x="0px" y="0px"
	 viewBox="0 0 512 512" style="enable-background:new 0 0 512 512;" xml:space="preserve">
<style type="text/css">
	.st0{fill:#CE2327;}
	.st1{fill:#FFE7A4;}
	.st2{fill:#FFC30C;}
	.st3{fill:#DBA305;}
</style>
<g>
	<path id="frame_00000029741351903440126150000015350158100039290285_" class="st0" d="M3.2,336.1v166.8l5.2,6.7l245.7-2.6l250-2.7
		l7.5-5.3L509,397.2L505.1,124l2.1-110.3l-8.1-6.3l-62.5-1.7L64.5,3L2.5,8.2L0,10.8L3.2,336.1z M44.6,466.1l-5.5-7.7l3.7-162.6
		l-3.7-246l8.4-5.8l137.8-4.2l272,4.2l7.3,4.6l-2,69.7v247.3l3.5,99.7l-7,3.5l-218-7.3L44.6,466.1z"/>
	<polygon class="st1" points="138.3,423.3 116.3,436.1 114.3,437 93.8,441.7 92.6,443.4 90.3,452.8 91.8,453.9 119.1,455.6 
		145.9,447.7 146.8,444.3 140.1,424 	"/>
	<path class="st2" d="M138.1,408.8l-0.5-1l-25-14.9l-1.2,0.6l-5.7,18.6l0.1,1l7.9,13l1,0.4c8.4-3.7,21.2-9.2,22.1-9.4l0-0.1l0.8-0.8
		L138.1,408.8z"/>
	<path class="st2" d="M316.5,286.2l0.5,1l25.2,14.6l1.2-0.6c1.7-4.2,3.4-8.5,5.1-12.7c0-0.2,0-0.3,0-0.5c0-0.2-0.1-0.4-0.1-0.6
		c-0.6-6-1.1-12.1-1.7-18.1c-0.2-0.1-0.4-0.3-0.6-0.4c-6.5-1.8-13-3.6-19.5-5.4c-0.5,0.1-0.9,0.2-1.4,0.3c-2.5,4.7-5,9.4-7.4,14.1
		l0,0.1l-0.8,0.8L316.5,286.2z"/>
	<path class="st2" d="M142.1,251.3l-1.2,0.5l-18.5,26.4l0.5,1.4l20.1,7.8l1.1,0l15-7.6l0.5-1.1c-3.4-9.6-8.4-24.2-8.6-25.2l-0.1,0
		l-0.9-0.9L142.1,251.3z"/>
	<path class="st2" d="M190.9,451.2l47.4-1.2l1.1-1.4c-2.3-12.6-5.9-33.3-5.7-35.2c-0.4-0.4-0.8-0.8-1.2-1.2
		c-6.1-0.6-12.2-1.1-18.3-1.7c-0.6,0.2-1.2,0.4-1.8,0.6c-7.5,12.7-14.9,25.4-22.4,38.1L190.9,451.2z"/>
	<path class="st3" d="M203,414.5c-2-1-4-2-5.9-3c-0.7,0-1.4,0-2,0c-12.4,9.2-24.9,18.4-37.3,27.6l-0.8,1.2v11.3l1.3,1.3h14.1
		l0.9-0.4c10.1-12.1,20.1-24.2,30.2-36.2C203.3,415.7,203.1,415.1,203,414.5z"/>
	<polygon class="st2" points="276,421.9 247.4,406.9 245.8,408.1 248.3,443.4 248.7,444.2 256.6,451 257.3,451.2 294.8,451.2 
		295.7,449.4 287.7,437.2 	"/>
	<path class="st2" d="M326.9,213.6c3,6.2,6,12.4,9,18.7c0.4,0.2,0.7,0.4,1.1,0.6c1.9,0.5,3.8,1.1,5.7,1.6c0.2-0.2,0.4-0.5,0.6-0.7
		c3-8.4,5.9-16.7,8.9-25.1c0-0.2,0-0.5,0-0.7l-3-7.1l-0.4-0.4L324.2,188l-1.2,0.9l1.2,10.7L326.9,213.6z"/>
	<polygon class="st2" points="137.3,358.5 130.8,328.4 129.4,327.4 117.7,326 117.3,326 112,328 111.1,329.2 107.6,365.3 
		109.1,366.6 134,364.2 135.1,363.4 137.2,359.3 	"/>
	<polygon class="st2" points="110.4,376.2 117,385.9 117.4,386.2 139.6,396 141,395 141,375.6 140,374.6 111.3,374.6 	"/>
	<polygon class="st1" points="51.1,418 49.9,418.4 52.1,455.1 53.4,456.2 78,455.6 78.6,454.2 69.1,433 	"/>
	<polygon class="st2" points="66.4,420.6 68.1,420 74.2,378.6 74,377.5 58.4,361.4 56.6,361.5 50.1,371.6 49.9,372.2 49.9,408.2 
		50.4,409.1 	"/>
	<polygon class="st2" points="77.8,419.2 82.9,431.5 83.4,432 92.3,436.6 93.6,436.3 101.5,427.9 101.8,426.9 97.9,415.8 97,415 
		85.9,414.2 78,417.8 	"/>
	<polygon class="st2" points="60.5,339.8 71.9,328.9 80.2,321.6 80.8,320.8 84.6,307.1 83.7,305.5 66.9,298.7 52.5,297.5 
		51.1,298.7 51.1,319.6 51.2,320.1 58.4,339.3 	"/>
	<path class="st2" d="M56.7,243.5l-5.1,12.8l1.1,1.9l6.5,1.1l1-0.2l15.6-13.6l0,0c6.3,0.4,12.5,0.8,18.8,1.2
		c0.8-0.9,1.6-1.8,2.3-2.7c-4.5-8.6-8.9-17.1-13.4-25.7l-0.6-0.3l-23-2.9l-1.1,0.9l-1,11L56.7,243.5z"/>
	<polygon class="st3" points="57.5,177.9 59.6,205 60.6,206.1 92.8,211.2 93.6,210.9 101.9,206 102.1,204.6 80.8,172.7 79.6,172.2 
		58.4,176.7 	"/>
	<path class="st2" d="M453.7,399.1l-2.2-20.9l-0.8-0.8l-24.9-3.2l-0.6,0.2c-4.4,0.7-8.7,1.5-13.1,2.2c-2.6,1.4-5.1,2.8-7.7,4.2
		c0.2,0.6,0.4,1.1,0.6,1.7c6.5,2.2,13,4.4,19.5,6.6c0.5,0.2,1,0.5,1.6,0.7c3.3,4.6,6.5,9.2,9.8,13.8c0.3,0.1,0.6,0.3,0.9,0.4
		C442.5,402.4,448.1,400.8,453.7,399.1z"/>
	<path class="st1" d="M362.7,124.4c0.1-0.2,0.1-0.3,0.2-0.5c-1-7.6-2-15.2-3-22.9c-0.3-0.3-0.6-0.6-0.9-0.8
		c-8.8-2.9-17.6-5.7-26.4-8.6c-0.7,0.2-1.4,0.5-2.2,0.7c-6,1.7-12.1,3.4-18.1,5c0,0.9,0,1.8,0,2.7c4,8.1,7.9,16.3,11.9,24.4
		c0.4,0.3,0.9,0.5,1.3,0.8c3.1,2.8,6.2,5.5,9.2,8.3c0.5,0.2,1,0.4,1.4,0.6C345,130.9,353.9,127.7,362.7,124.4z"/>
	<polygon class="st1" points="65.9,131.9 59.7,128.8 58.3,129.2 56.4,142.6 56.3,143.5 57.5,156.7 57,165.9 58.2,167.3 75.1,163.2 
		75.8,162.3 76.9,157.5 77,156.7 66.2,132.6 	"/>
	<polygon class="st2" points="75.1,99.7 63.4,113.8 63.3,115.1 70.4,127 80.9,136.5 81.8,136.8 109.6,132.8 110.6,131.6 
		108.6,114.3 108.3,113.6 91.2,96.7 90.2,96.4 75.7,99.3 	"/>
	<polygon class="st2" points="116.6,112 115.6,114.2 115.8,115.4 122,121.9 123.7,135.5 124.7,136.4 135.1,137.6 146.7,136.4 
		147.4,136 155.1,124.7 157.3,115.4 156.7,114.2 145.5,107.8 144.8,107.7 117.5,111.4 	"/>
	<polygon class="st1" points="66,91.8 86.5,82.2 87.2,81.1 89.8,55.8 88.5,54.3 54.8,56.4 53.7,57.4 50.8,79.5 53.1,111.2 
		55.3,111.7 	"/>
	<polygon class="st3" points="127.1,66.9 128.6,68.7 129.5,69 147,66 165,71.6 166.1,71.3 178.6,53.2 178,51.9 150.6,49.9 
		130.7,53.8 130,54.4 126.9,66.1 	"/>
	<path class="st1" d="M223.3,110l-0.4,2.4l0.3,0.8l13.6,11.4c2.7,6.6,5.5,13.2,8.2,19.9c0.7,0.4,1.4,0.7,2,1.1
		c7.3,0.4,14.6,0.7,21.8,1.1c0.5-0.7,0.9-1.4,1.4-2c-5-11.5-9.8-23.3-14.4-35.2c-0.3-0.7-0.5-1.4-0.8-2c-3.2-2.8-6.4-5.6-9.7-8.4
		c-4.8-1.5-9.6-2.9-14.3-4.4c-0.8,0.4-1.6,0.8-2.3,1.2C226.9,100.5,225.1,105.3,223.3,110z"/>
	<polygon class="st1" points="240.3,75.1 241.1,75.3 276.3,71.7 276.9,71.5 294.2,59.6 294.6,59.1 296.8,53.1 295.7,51.6 
		252.8,49.3 213.2,48.9 212.2,50.7 220.7,62.8 	"/>
	<polygon class="st2" points="291,79 301,86.4 301.9,86.6 327.6,81.6 329.5,80.6 335.1,70.9 335.5,68.7 315.5,53.4 314.3,53.3 
		309.7,55.6 308.8,57.1 305,62.2 290.8,77.3 	"/>
	<polygon class="st2" points="262.8,98.5 276,98.5 276.6,98.3 288.4,91.2 288.7,89.5 284.3,83.9 283.7,83.5 273.7,80.3 273.2,80.3 
		249.2,82.6 248.4,83 245.8,86.2 246.1,87.8 262.2,98.3 	"/>
	<polygon class="st1" points="105,92.1 112.8,100.7 115.6,101.5 139.2,95.6 142.8,96.8 153.1,102.6 153.9,102.7 157.3,101.7 
		158.1,100.3 157.9,85.8 157.3,84.6 143.8,76.9 141.6,76.6 124.4,80 112.8,76.8 102.8,79.3 101.7,80.8 	"/>
	<polygon class="st2" points="102.4,53.9 101.5,54.4 94.4,66.8 95.6,68.4 116.9,67.6 117.9,66.8 120.5,54.5 119.4,53.1 	"/>
	<polygon class="st1" points="375,306.7 375.4,307.9 372.8,325.1 370.4,325.7 350.7,308.8 350.4,307.2 357.3,293.4 359.4,293 	"/>
	<polygon class="st2" points="112.2,256.6 111.4,256.1 99.2,255.6 98.5,257.2 107.5,273 108.5,273.4 119,270.5 119.5,269.2 	"/>
	<polygon class="st2" points="366.2,357.1 365.4,357.8 359.5,371.6 361.1,373.1 383.1,369.5 384,368.5 385.2,355.3 383.8,354.1 	"/>
	<path class="st2" d="M282.1,226.2c-0.4,0-0.8,0-1.2,0c-2.7-0.4-5.4-0.8-8-1.1c-0.1,0.3-0.3,0.5-0.4,0.8c0.1,3.3,0.3,6.5,0.4,9.8
		c0.1,0.1,0.2,0.2,0.3,0.3c2.7,1.3,5.5,2.6,8.2,3.9c2.6-0.1,5.3-0.2,7.9-0.3c0.3-0.3,0.5-0.6,0.8-0.8c0.4-2.8,0.9-5.7,1.3-8.5
		c0-0.3,0-0.6,0-0.8C288.3,228.3,285.2,227.3,282.1,226.2z"/>
	<path class="st1" d="M344.8,252.4c0-0.3,0-0.6,0-0.9c0.3-1.9,0.7-3.8,1-5.6c-0.2-0.2-0.5-0.3-0.7-0.5c-3-0.8-5.9-1.7-8.9-2.5
		c-0.1,0-0.2,0.1-0.3,0.1c-1.2,1.7-2.4,3.3-3.6,5c0.1,2,0.2,4,0.3,6c0.3,0.3,0.5,0.5,0.8,0.8c2.6,1.1,5.1,2.2,7.7,3.4
		c0.3,0.1,0.5,0.2,0.8,0.2C342.9,256.4,343.9,254.4,344.8,252.4z"/>
	<path class="st2" d="M271.6,386.8c-0.6-0.1-1.2-0.2-1.9-0.4c-3.9-1.4-7.9-2.7-11.8-4.1c-0.3,0.3-0.5,0.7-0.8,1
		c-0.8,5-1.6,10-2.4,15c0.1,0.2,0.2,0.4,0.3,0.6c3.8,2.8,7.5,5.6,11.3,8.4c4,0.6,8.1,1.3,12.1,1.9c0.5-0.4,0.9-0.7,1.4-1.1
		c1.5-4.2,3-8.3,4.6-12.5c0.1-0.4,0.2-0.9,0.3-1.3C280.3,391.8,276,389.3,271.6,386.8z"/>
	<polygon class="st1" points="452.2,418 445.2,412.4 444.3,412.2 437.3,413.7 436.6,414.2 429.6,427.4 414.9,442.9 414.6,443.4 
		412.7,453.2 413.4,454.4 428,457.8 428.3,457.8 451.7,455.6 452.5,455.1 456.2,447.8 456.3,447.2 452.6,418.7 	"/>
	<path class="st1" d="M118.3,253.7l9,1.1l0.8-0.3l5.2-4.9l0.3-0.8c0.9-3.1,1.7-6.1,2.6-9.2c0.3-0.5,0.6-0.9,0.9-1.4
		c2.9-0.4,5.8-0.8,8.7-1.2c0.3-0.3,0.6-0.7,0.8-1c0.1-0.4,0.2-0.9,0.3-1.3c-3.3-7.2-6.6-14.4-9.9-21.6c0-0.2,0-0.4,0-0.6l-3.4-9.3
		l-1.3-0.6l-14.2,4.6l-0.3,0.2l-18.8,14.1l-0.4,0.9l0.6,8.1l0.2,0.6C105.8,238.5,112.1,246.1,118.3,253.7z"/>
	<polygon class="st2" points="164.5,116.4 168.2,124.2 168.8,124.7 175.3,126.4 176.2,126.2 187.6,118 206.6,111.2 207.1,110.9 
		212.9,103.5 212.7,102.1 201.9,93.1 201.6,92.9 180.9,84.9 180,85 173.8,89.6 173.5,90 164.5,115.7 	"/>
	<path class="st2" d="M168.2,376.8l-9.2-0.6l-0.9,0.3l-5.3,5.2l-0.3,0.8c-1.3,6.6-2.6,13.2-3.9,19.8c0.1,5.4,0.1,10.8,0.2,16.2
		l0,0.6l3.5,9.2l1.3,0.6l14.6-5.4l0.3-0.2l19.4-15.2l0.4-0.9l-0.6-8.1l-0.2-0.6C181,391.3,174.6,384,168.2,376.8z"/>
	<path class="st3" d="M423.6,279.7l-11.8-3.3l-1.2,0.2l-8.4,5.3l-0.7,1c-3.5,8.2-7,16.5-10.5,24.7c-1.1,7.3-2.2,14.7-3.3,22
		c0.1,0.3,0.1,0.6,0.2,0.9c0.6,3.3,1.1,6.6,1.7,9.8c0.3,0.5,0.6,1.1,0.8,1.6c0.6,0.3,1.3,0.6,1.9,0.9c6.1-0.8,12.2-1.6,18.3-2.4
		l0.4-0.1l29.4-14.3l0.8-1.1l1.4-10.7l-0.1-0.8C436.2,302.2,429.9,290.9,423.6,279.7z"/>
	<polygon class="st2" points="380.5,421.1 379.6,420.8 376,421 375.1,421.5 359.1,449.7 359.7,451.3 376,456.7 397,456.7 
		398.1,455.7 399.4,441.5 399.1,440.6 	"/>
	<path class="st2" d="M132.1,193.2l1.3,0l4.7-2.2l0.9-1.2l7-44.6l-1.6-1.7l-24.4,1.6L92.1,156l-0.9,1.9c2.1,5.5,4.1,11,6.2,16.4
		c0.3,0.3,0.6,0.6,0.9,0.8c5,8.8,10,17.5,15,26.3c0.7,0.2,1.4,0.3,2,0.5c0.7-0.1,1.4-0.2,2.1-0.2C122.3,198.9,127.2,196,132.1,193.2
		z"/>
	<path class="st2" d="M361.1,140l-0.7-1.1l-4.4-2.6l-1.5-0.1l-40.8,20.4l-0.5,2.3l14.9,19.1l24.5,16.5l2.1-0.3
		c3.4-4.9,6.8-9.8,10.2-14.8c0.1-0.4,0.1-0.8,0.2-1.2C363.7,165.6,362.4,152.8,361.1,140z"/>
	<polygon class="st2" points="358,269.3 358.6,270.3 362.5,272.9 363.9,273 402.5,256.4 403.1,254.3 390.4,236 368.8,219.5 
		366.8,219.7 354.3,233.4 354,234.6 	"/>
	<path class="st2" d="M267.2,108.7l-0.8,0.6l-2,3.4l0,1.1l15.7,31.4l1.8,0.4c6.4,0.2,12.8,0.5,19.1,0.7c0.8-0.1,1.7-0.3,2.5-0.4
		c5.6-3.6,11.1-7.2,16.7-10.8c0.2-0.2,0.4-0.4,0.5-0.7c0-0.3,0-0.6,0-0.9c-3.8-6.2-7.6-12.3-11.4-18.5c-0.1-0.5-0.3-1-0.4-1.4
		c-4-3.3-8-6.5-12.1-9.8l-1-0.2L267.2,108.7z"/>
	<path class="st1" d="M248.8,207.6l-0.8-0.5l-3.6-0.5l-1,0.4c-7.1,4.6-14.2,9.3-21.3,13.9c-0.4,0.5-0.7,0.9-1.1,1.4
		c2.6,9.4,5.2,18.8,7.8,28.1c0.4,0.7,0.8,1.3,1.3,2c4.3,5.8,8.5,11.7,12.8,17.5c0.2,0.1,0.4,0.1,0.6,0.2c0.3,0,0.6,0.1,0.8,0.1
		c4.8-8,9.6-16,14.4-24.1c0.4-0.3,0.7-0.6,1.1-0.9c1.3-4.6,2.7-9.3,4-13.9l-0.1-0.9L248.8,207.6z"/>
	<polygon class="st3" points="367.5,412 362.3,404.7 349.7,397.3 348.3,398 343.4,414.6 328.8,444.4 328.7,445.3 330.4,450.6 
		331.4,451.3 348,450.4 348.8,449.8 367.6,413.3 	"/>
	<polygon class="st1" points="446.8,361.2 448.9,352.5 446.1,338.2 444.6,337.5 429,344.9 397,353.8 396.2,354.4 393.4,359.1 
		393.5,360.4 405.2,372.2 406.2,372.4 445.9,362.2 	"/>
	<polygon class="st2" points="409.7,431.8 416.8,423.9 423.1,415.1 423.3,414.6 424.5,402.8 423.9,401.7 399.6,391.9 398.3,392.4 
		389.7,409.5 389.7,410.4 393,418.1 405.6,432.2 406.4,432.5 409,432.1 	"/>
	<path class="st1" d="M388.6,377.5l-7.3,2.7l-7.6-3.1l-0.9,0.1c-5.4,0.9-10.8,1.9-16.3,2.8c-0.9,0.4-1.8,0.7-2.7,1.1
		c-0.6,0.5-1.1,0.9-1.7,1.4c-0.1,2.9-0.2,5.8-0.2,8.7c0.6,0.4,1.1,0.8,1.7,1.3c6.5,3,13.1,6,19.6,8.9l3.7,6.4l1,0.5l3.1-0.4l0.8-0.6
		l11.1-25.7l-0.3-1.2C391.2,379.4,389.9,378.5,388.6,377.5z"/>
	<path class="st1" d="M130.2,315.1c0.9-3.1,1.7-6.3,2.6-9.4c-1.6-3.1-3.2-6.2-4.7-9.2l-0.3-1.1l-9.2-9.8l-0.7-0.4l-12.4-2.2
		l-1.5,0.8l-6.5,16.4l-7.4,5.8l-0.4,1.3l1,3.8l0.9,0.9l34.1,9.2l1.5-0.5C128.2,318.8,129.2,316.9,130.2,315.1z"/>
	<polygon class="st2" points="389,293.1 389.9,292.3 395,275.6 394.8,274.8 392.7,272.3 391,272 370.3,281 369.8,282.7 376.7,289.9 
		378.9,295.2 380.6,295.8 	"/>
	<polygon class="st2" points="419.7,72.7 421.5,74.3 427.7,105.1 428.4,105.8 432.6,108.9 433.4,108.8 445.9,100.8 447.5,99.3 
		451.7,72.9 448.6,59.8 447.8,59.1 432.7,55.6 406.2,54.8 397.5,54.8 396.4,55.9 396.5,59.1 397,59.9 	"/>
	<polygon class="st1" points="349.8,67.2 350.4,67.4 377.7,70.7 378.7,70.3 385.5,63 385.1,61.2 380.5,54.6 378.7,53.6 342.4,54.4 
		341.4,55.1 340.1,58.4 340.4,59.6 	"/>
	<polygon class="st3" points="103,327.1 90.2,319.6 89.2,319.8 81.2,334.7 71.6,345.5 65.5,349.3 64.9,350.1 64.2,353.3 64.5,354.2 
		73.2,364.5 73.8,364.7 93.4,362.3 94.2,361.4 103.4,328 	"/>
	<polygon class="st1" points="81.3,406.5 94.9,406.2 96.2,405.4 104.9,384.2 104.7,383.1 96.1,372.6 94.8,372.2 84.4,375.6 
		83.2,377.5 79.8,405.2 	"/>
	<polygon class="st3" points="399,120 400.4,119.7 415.1,106.9 415.5,105.3 408.7,81.7 407.8,80.7 397.3,77 396.6,77 368,80.7 
		366.1,82.8 370.1,110.1 373.2,113.6 	"/>
	<polygon class="st1" points="415.2,128.2 413.4,151.7 414.5,153.5 443.7,160.1 445.1,158.9 448.9,146.1 448.4,142.8 440.2,117.9 
		438.5,117 415.9,127.1 	"/>
	<polygon class="st2" points="83.5,295.9 100.9,280 101.3,278 84.6,253.2 82.7,253.1 71.2,259.8 69.3,262.5 58.2,286.3 58.8,288.2 
		82.3,296.2 	"/>
	<polygon class="st2" points="368.5,145.5 373.3,163.3 374.3,164.4 397.5,170.2 399.2,169.1 406.2,144 406.2,141.9 405.5,133.9 
		404.5,132.2 373.9,121.2 372.3,122.5 368.4,144.7 	"/>
	<polygon class="st2" points="443.7,219.3 442.2,203.9 442.4,195.3 444.9,172.4 443.7,170.6 415.3,164 413.9,164.3 405.1,175 
		404.9,177.1 418.5,191.7 419.3,194.5 422.4,216.8 424.8,217.9 441.9,220.6 	"/>
	<path class="st3" d="M167.7,363.7l-1.6-15.4l0.1-8.6l2.3-23l-1.2-1.8c-7.7-4-15.3-8-23-12c-0.9-0.1-1.7-0.3-2.6-0.4
		c-2,4.1-4,8.2-6,12.4c0,0.6,0,1.3-0.1,1.9c0.3,0.7,0.6,1.5,0.8,2.2c1.9,5.7,3.9,11.5,5.8,17.2l0.8,2.8l3.2,22.3l2.4,1.1l17.1,2.6
		L167.7,363.7z"/>
	<path class="st2" d="M269.2,245l-3.9,13.5l-3,7.1l-9.8,18.5l0.4,1.9c5.1,6,10.1,12,15.2,17.9c0.7,0.4,1.4,0.8,2,1.2
		c3.1-2.8,6.2-5.5,9.3-8.3c0.2-0.5,0.5-1.1,0.7-1.6c0-0.7,0-1.4,0-2.1c0.3-5.5,0.7-11,1-16.4l0.3-2.6l4.9-19.8l-1.7-1.7l-13.5-8
		L269.2,245z"/>
	<polygon class="st2" points="427.4,246.7 426.1,250.2 435.3,286.7 437.4,289.1 444.6,292.9 448.2,288.9 450.3,236.6 447.2,235.5 	
		"/>
	<path class="st1" d="M324.1,244.9l0.4,3.7l-19.2,31.9l-2.7,1.6l-8.3,1.6l-2.5-4.8c3.9-21.8,7.9-43.5,11.8-65.3c1,0,2.1,0,3.1,0
		c3.8,0.8,7.5,1.6,11.3,2.4c0.1,0.4,0.3,0.7,0.4,1.1C320.3,226.4,322.2,235.6,324.1,244.9z"/>
	<polygon class="st2" points="434.3,230.2 412.2,220.8 410.1,222 403.9,231.5 403.5,233.7 412.1,245.8 414.5,246.8 434.6,232.5 	"/>
	<polygon class="st2" points="50.6,342.3 50,352.5 50.8,353.1 55.5,354.2 56.4,354.1 60,348.9 60.1,347.8 51.5,341.9 	"/>
	<path class="st3" d="M379.5,326.8c-3.2,3.9-6.4,7.8-9.6,11.7c-0.2,0.9-0.4,1.8-0.6,2.7c0.3,1.9,0.5,3.8,0.8,5.7l1.3,1l10.7-1.5
		l1.5-1.2l-2.5-17.8L379.5,326.8z"/>
	<path class="st1" d="M407.3,195.8l1.4,5.6l-0.7,15.3l-1.2,1.2c-6.6,0.7-13.2,1.4-19.7,2.1c-0.6-0.2-1.2-0.3-1.9-0.5
		c-4.3-3.9-8.5-7.7-12.8-11.6v-2.2l3.9-30.1l1.7-0.8l19.4,5l6.1,6.6L407.3,195.8z"/>
	<path class="st1" d="M337.7,397.3l-2.4,14.7l-16.4,31.1l-4.4,2.2h-7.3l-3.4-1.1l-14.2-24.9l2.5-13.4c1.7-1.9,3.4-3.8,5.1-5.7
		c1.1-0.2,2.2-0.4,3.3-0.5c8-0.8,16.1-1.6,24.1-2.5c3-1.6,6.1-3.1,9.1-4.7L337.7,397.3z"/>
	<path class="st2" d="M287.8,220.2c-1.3-0.1-2.6-0.3-3.9-0.4c-11.6-8.1-23.2-16.2-34.8-24.3c-0.1-1-0.2-2-0.3-3.1
		c0.1-5.9,0.1-11.7,0.2-17.6c-0.1-0.5-0.2-0.9-0.3-1.4c2.9-5.5,5.9-11,8.8-16.4l3.2-2.8l34.4,0.7l12.3,10.8l5.4,10.9
		c0.1,0.4,0.2,0.9,0.3,1.3c-3.6,9.2-7.2,18.4-10.8,27.6c-2.1,3.6-4.1,7.2-6.2,10.7C293.3,217.5,290.6,218.9,287.8,220.2z"/>
	<polygon class="st2" points="419,256.8 420.5,258.6 422.3,267.3 421.2,268.5 407.9,270.9 406.1,269.8 415.7,258.3 	"/>
	<path class="st2" d="M221.9,77l-9.7-11.4l-6.1-12.4l-3.2-3.2h-12.5l-6.9,2V53l1.1,4.2l-0.4,1l-6.9,7.8l-2.1,6.1l0.3,0.7
		c4.5,2.4,9.1,4.9,13.6,7.3c0.3,0,0.7,0,1,0c3.2-0.1,6.4-0.2,9.6-0.2c0.5,0.3,1,0.5,1.5,0.8l5.2,2.3l8.8,6.9h1l5.6-5.4l0.8-0.9
		L221.9,77z"/>
	<path class="st2" d="M352.5,92.9c-3.7-1.1-7.4-2.2-11.1-3.3c-0.5-0.4-0.9-0.8-1.4-1.1c-0.8-1.6-1.6-3.2-2.4-4.9l5.3-11.4l1.7-0.5
		l10.2,1.7l1.2,1l4,10.2V86l-6.6,6.9H352.5z"/>
	<path class="st2" d="M161.9,304.6c0.5,0.1,1,0.2,1.5,0.3c3.1-1,6.2-2,9.3-3l0.6-0.9l0.6-4.9l-0.7-1c-2.8-3.2-5.6-6.4-8.4-9.6
		c-0.3-0.1-0.6-0.2-0.9-0.3c-1.4,0.5-2.8,1-4.3,1.6c-1.2,1.4-2.4,2.8-3.5,4.3c-0.9,1.3-1.9,2.5-2.8,3.8c0,0.2,0,0.3,0,0.5
		c0,0.2,0,0.3,0,0.5C156.2,298.7,159.1,301.6,161.9,304.6z"/>
	<g>
		<polygon class="st0" points="189.7,127.1 198.2,124.2 225.9,127.2 228,129.4 239.1,165.1 238.5,194.5 236.9,197.7 218.1,210.3 
			211.6,212.5 209.3,212.3 168.9,195.2 153.2,180.6 153.5,177.5 160.1,151.5 162.5,149.2 		"/>
		<path class="st0" d="M152.6,195.8c0.5,0.1,1,0.2,1.5,0.3c1.4,2.1,2.9,4.1,4.3,6.2c1.3,0.8,2.6,1.6,3.9,2.4
			c9.2,5.7,18.4,11.4,27.6,17.1c4.2,0.5,8.4,0.9,12.5,1.4l3,2.7l16.9,42.7c9.9,11.9,19.8,23.7,29.8,35.6c2.7,2.2,5.4,4.5,8.2,6.7
			c0.3,0.4,0.5,0.8,0.8,1.1c0.1,0.5,0.2,1,0.2,1.6c-5,3-10,5.9-15,8.9c-3.4,4.5-6.9,9-10.3,13.5c-1,3.2-2.1,6.4-3.1,9.6
			c-0.7-0.2-1.3-0.3-2-0.5c-1.8-1.4-3.5-2.7-5.3-4.1c-12.4-15.1-24.9-30.2-37.3-45.3c-7.6-13.8-15.3-27.6-22.9-41.4
			c-0.5-1.3-1-2.5-1.5-3.8c-2.2-4.8-4.3-9.6-6.5-14.4c-2.3-8.7-4.7-17.5-7-26.2C151.1,205.3,151.9,200.5,152.6,195.8z"/>
		<polygon class="st0" points="280.3,317.6 294.6,298.6 297.7,296.4 306.8,296.2 311.6,297.9 350.5,321.4 360.2,331.8 361.3,335.1 
			355.5,360.5 353.6,363.1 332.1,382.6 303.7,388.4 299.8,388 263.5,372.1 242.7,355.4 243.1,352 258.4,328.6 		"/>
	</g>
	<polygon class="st1" points="178.3,322.7 178.8,320.9 188.8,317.9 190.8,317.9 205.4,340.6 224.2,355.6 225.3,357.9 248.1,376.5 
		248.7,379.3 245.9,390.6 244.7,392.2 233.1,401 231.9,401.4 201,399.4 199.5,398.6 179.6,370.8 179.4,369.4 178.1,353.6 
		179.8,339.6 	"/>
</g>
</svg>
