<?xml version="1.0" encoding="utf-8"?>
<!-- Generator: Adobe Illustrator 28.2.0, SVG Export Plug-In . SVG Version: 6.00 Build 0)  -->
<svg version="1.1" id="Layer_1" xmlns="http://www.w3.org/2000/svg" xmlns:xlink="http://www.w3.org/1999/xlink" x="0px" y="0px"
	 viewBox="0 0 24 24" style="enable-background:new 0 0 24 24;" xml:space="preserve">
<style type="text/css">
	.st0{fill:#FFFFFF;}
</style>
<path class="st0" d="M3,21v-6h2v2.6l3.1-3.1l1.4,1.4L6.4,19H9v2H3z M15,21v-2h2.6l-3.1-3.1l1.4-1.4l3.1,3.1V15h2v6H15z M8.1,9.5
	L5,6.4V9H3V3h6v2H6.4l3.1,3.1L8.1,9.5z M15.9,9.5l-1.4-1.4L17.6,5H15V3h6v6h-2V6.4L15.9,9.5z M12,14c-0.6,0-1-0.2-1.4-0.6
	S10,12.6,10,12s0.2-1,0.6-1.4S11.4,10,12,10s1,0.2,1.4,0.6S14,11.4,14,12s-0.2,1-0.6,1.4S12.6,14,12,14z"/>
</svg>
