<?xml version="1.0" encoding="utf-8"?>
<!-- Generator: Adobe Illustrator 28.2.0, SVG Export Plug-In . SVG Version: 6.00 Build 0)  -->
<svg version="1.1" id="Layer_1" xmlns="http://www.w3.org/2000/svg" xmlns:xlink="http://www.w3.org/1999/xlink" x="0px" y="0px"
	 viewBox="0 0 385.5 385.9" style="enable-background:new 0 0 385.5 385.9;" xml:space="preserve">
<style type="text/css">
	.st0{fill:#CE2327;}
</style>
<g>
	<polygon id="spiral_00000067216684902810076300000008612856845505986992_" class="st0" points="298.9,119.4 248.7,81.4 198.1,57.5 
		193.8,58 137,77.3 88.1,92.1 85.4,94 65.9,136.9 39.6,182 41.2,188.7 67.3,200.4 75.9,197.7 120.8,122.3 122.6,120.7 189.6,99.1 
		193.1,99.5 227.4,117.4 264.1,140 266.6,144.8 273.4,175 276.5,211.2 276,214.8 247.5,262.3 246.4,263.2 220,273 184.1,279.5 
		180.3,279.6 158.7,265.6 135.7,244.1 134.6,241.8 131.5,216.4 131.7,195.8 132.7,193.3 151.9,168.3 154.7,166.8 188.2,156.8 
		192.9,157.7 221.9,171.7 227,189.8 227.9,202.9 218.5,224 195.3,232.5 182.4,220.1 188.8,205.8 207.9,199.7 210.3,195.5 
		201.8,175.8 197.3,175.3 156.2,189.1 155,191.2 150.7,209.3 147.7,228.6 147.5,235.6 185.1,264.2 187.4,264.8 236.1,252.9 
		237.7,251.8 261.8,211.2 262.1,209.3 257.2,177.6 249.7,154.6 247.6,149.1 194,120.9 192.1,120.6 137.9,133.4 134.3,136.2 
		101.9,181.3 101,186 99.3,229.1 102.5,262.6 104.3,267.3 134.5,291.6 167.4,315.7 173.2,317.7 224,312.1 272.9,296.3 274.6,295.2 
		293,257.1 317.5,220.7 317.8,219 313.4,198.4 308.5,152.9 300.1,121.2 	"/>
	<g id="rays_00000093174816209404295400000011211676190400238257_">
		<polygon class="st0" points="294,93.4 295.8,59.6 292.7,22.1 289.3,19.8 260.4,28.3 221.2,48.1 221,52.7 250.5,68.9 289.7,95.6 		
			"/>
		<polygon class="st0" points="101.7,74.3 103.5,75.9 146.3,62.2 179.8,51.5 180.5,47 149.1,23 129.8,0 125.8,1.3 110.6,41.4 		"/>
		<polygon class="st0" points="329.2,213.6 333.1,215 361,193.6 385.5,166.5 384.7,162.2 350.8,149.1 321.9,130.6 318.2,133.1 
			325.3,188.1 		"/>
		<polygon class="st0" points="290.8,293.3 293.3,297.2 327.1,298.8 356,293.8 357.6,289.7 341.4,265 326.8,235.5 322.2,235 
			303.7,263.6 		"/>
		<polygon class="st0" points="262.9,358.9 281.1,315 277.8,311.4 230.9,325 187.3,330.1 185.7,334.9 231.9,372.2 241.8,385.9 
			246.5,385.6 		"/>
		<polygon class="st0" points="128.1,303.8 95.3,288.9 91,291.8 91.2,326.6 89.1,357 92.4,359.4 108.3,354.8 158.3,333.1 
			159.5,328.4 		"/>
		<polygon class="st0" points="73,89.2 69.7,85.4 39.1,91.2 2,94.9 0,98.8 10,136.3 30.7,170 35.4,170 55.3,131.5 		"/>
		<path class="st0" d="M84.1,210.1l-2.4-2.3c-2.3-0.1-4.5,0.3-6.7,0.8c-1.8,0.4-3.6,0.7-5,0.6l-1.8,0.5l-9.8,6.4l-0.7,0.7
			l-21.9,26.9l0.4,3.9l27,19.3l23.2,9.6l4.1-3.1l-3.6-35.5L84.1,210.1z"/>
	</g>
</g>
</svg>
