<?xml version="1.0" encoding="utf-8"?>
<!-- Generator: Adobe Illustrator 28.2.0, SVG Export Plug-In . SVG Version: 6.00 Build 0)  -->
<svg version="1.1" id="Layer_1" xmlns="http://www.w3.org/2000/svg" xmlns:xlink="http://www.w3.org/1999/xlink" x="0px" y="0px"
	 viewBox="0 0 512 512" style="enable-background:new 0 0 512 512;" xml:space="preserve">
<style type="text/css">
	.st0{fill:#2159AA;}
	.st1{fill:#FFE7A4;}
	.st2{fill:#FFC30C;}
	.st3{fill:#DBA305;}
</style>
<g>
	<path id="frame_00000049209052861349293430000017860125380605304749_" class="st0" d="M3.1,335.9v166.9l5.2,6.8l246-2.6l250.2-2.7
		l7.5-5.3l-2.6-102l-3.9-273.4l2.1-110.4l-8.1-6.3L437,5.1L64.5,2.5L2.4,7.6L0,10.3L3.1,335.9z M44.6,466l-5.5-7.7l3.7-162.7
		L39.1,49.4l8.4-5.8l137.9-4.2l272.2,4.2l7.3,4.6l-2,69.7v247.5l3.5,99.8l-7,3.5l-218.2-7.3L44.6,466z"/>
	<polygon class="st1" points="298.3,151.1 298,149.9 261.1,150.8 260,152 259.7,176.6 261.1,177.3 282.6,168.5 	"/>
	<polygon class="st2" points="66.5,420.4 68.1,419.9 74.2,378.4 74,377.3 58.4,361.2 56.6,361.3 50.1,371.4 49.9,372 49.9,408.1 
		50.3,408.9 	"/>
	<polygon class="st2" points="60.5,339.6 71.9,328.6 80.2,321.3 80.9,320.5 84.6,306.8 83.7,305.3 66.9,298.5 52.5,297.2 
		51.1,298.5 51.1,319.4 51.2,319.9 58.4,339.1 	"/>
	<path class="st2" d="M56.7,243.2l-5.1,12.8l1.1,1.9l6.5,1.1l1-0.2l15.6-13.6l0,0c6.3,0.4,12.5,0.8,18.8,1.2
		c0.8-0.9,1.6-1.8,2.3-2.7c-4.5-8.6-8.9-17.2-13.4-25.7l-0.6-0.3l-23-2.9l-1.2,0.9l-1,11.1L56.7,243.2z"/>
	<polygon class="st3" points="57.5,177.5 59.6,204.7 60.6,205.7 92.8,210.9 93.6,210.6 101.9,205.7 102.1,204.3 80.9,172.3 
		79.7,171.8 58.4,176.4 	"/>
	<path class="st2" d="M454.1,399l-2.2-20.9l-0.8-0.8l-24.9-3.2l-0.6,0.2c-4.4,0.7-8.7,1.5-13.1,2.2c-2.6,1.4-5.1,2.8-7.7,4.2
		c0.2,0.6,0.4,1.1,0.6,1.7c6.5,2.2,13,4.4,19.5,6.6c0.5,0.2,1,0.5,1.6,0.7c3.3,4.6,6.5,9.2,9.8,13.8c0.3,0.1,0.6,0.3,0.9,0.4
		C442.8,402.2,448.4,400.6,454.1,399z"/>
	<polygon class="st1" points="65.9,131.5 59.7,128.4 58.3,128.8 56.4,142.2 56.3,143.1 57.5,156.3 57,165.5 58.2,167 75.1,162.8 
		75.8,161.9 77,157.1 77,156.3 66.2,132.2 	"/>
	<polygon class="st2" points="299.6,162.8 298.1,168 298.7,169.1 309.3,168.5 309.9,168.5 319.9,165.5 327,164.5 328,163.3 
		322.2,151 321.4,150.6 317.6,150.5 316.9,150.6 300.1,162.4 	"/>
	<polygon class="st2" points="243,101.2 246.4,99.4 246.7,98.6 241.1,93.3 240.7,93 234.2,89.3 230.1,86.1 229,86.2 225.5,95.4 
		225.7,96 227.5,98 227.9,98.3 242.6,101.2 	"/>
	<polygon class="st2" points="120.9,367.1 123.5,362.8 123.6,361.6 117.1,358.6 116.7,358.4 109.8,357.8 105.2,356.4 104.3,357.1 
		103.4,370.5 103.8,371.1 106,372.5 106.4,372.7 120.5,367.3 	"/>
	<polygon class="st2" points="103.6,294.7 100.8,290.9 99.9,290.5 94.9,295.5 94.5,295.8 91.4,302 88.4,305.8 88.7,306.9 
		99.8,311.8 100.5,311.7 102.5,310.1 102.8,309.8 103.5,295.2 	"/>
	<polygon class="st3" points="204.9,156.1 199.1,163.6 199.3,165.7 216.8,171.7 217.9,172 236,173.8 248.1,176.8 250.4,175.5 
		249.1,151.8 248.1,150.7 242,147.9 240.9,147.7 205.9,155.9 	"/>
	<polygon class="st3" points="335,125.2 327.7,124.1 326.3,125.1 328.9,139.4 329.1,140.3 334.9,153.5 337.5,163 339.3,164.1 
		355.1,154.1 355.5,152.9 355.1,147.7 354.8,146.8 335.6,125.8 	"/>
	<polygon class="st2" points="75.1,99.2 63.4,113.4 63.3,114.7 70.4,126.6 81,136.1 81.9,136.4 109.7,132.4 110.6,131.2 
		108.6,113.9 108.3,113.2 91.3,96.3 90.3,96 75.7,98.8 	"/>
	<polygon class="st2" points="117.1,179.8 129.4,166.2 129.5,164.9 123,152.7 113,142.7 112.1,142.3 84.1,145 83.1,146.2 
		84.3,163.5 84.5,164.2 100.8,181.9 101.7,182.3 116.4,180.1 	"/>
	<polygon class="st1" points="66,91.4 86.5,81.7 87.2,80.7 89.8,55.3 88.5,53.9 54.8,55.9 53.7,57 50.8,79 53.1,110.8 55.3,111.3 	
		"/>
	<polygon class="st3" points="127.1,66.4 128.7,68.2 129.6,68.5 147.1,65.6 165.1,71.2 166.2,70.8 178.8,52.7 178.1,51.4 
		150.7,49.5 130.7,53.3 130.1,54 127,65.6 	"/>
	<polygon class="st1" points="361.4,114.2 359.5,116.4 358.4,116.8 336.5,113.2 314,120 312.7,119.6 297,97.6 297.8,96 332,93.7 
		356.9,98.4 357.8,99.1 361.6,113.3 	"/>
	<polygon class="st1" points="240.4,74.6 241.2,74.8 276.5,71.2 277.1,71 294.4,59.2 294.8,58.6 297,52.6 295.9,51.1 252.9,48.8 
		213.3,48.5 212.3,50.2 220.9,62.3 	"/>
	<polygon class="st2" points="291.2,78.5 301.2,85.9 302.2,86.1 327.9,81.1 329.7,80.1 335.3,70.4 335.7,68.3 315.8,52.9 
		314.6,52.8 309.9,55.1 309,56.6 305.3,61.8 291,76.9 	"/>
	<polygon class="st2" points="263,98 276.2,98 276.8,97.9 288.6,90.7 288.9,89.1 284.5,83.5 283.9,83.1 273.9,79.9 273.4,79.8 
		249.4,82.1 248.5,82.6 246,85.7 246.3,87.3 262.4,97.8 	"/>
	<polygon class="st1" points="105.1,91.6 112.8,100.2 115.7,101 139.3,95.1 142.9,96.3 153.2,102.1 154,102.3 157.4,101.3 
		158.2,99.9 158,85.4 157.4,84.1 143.9,76.5 141.7,76.1 124.5,79.5 112.9,76.3 102.8,78.8 101.7,80.4 	"/>
	<polygon class="st2" points="102.4,53.4 101.6,54 94.4,66.4 95.7,68 116.9,67.2 117.9,66.3 120.6,54 119.4,52.7 	"/>
	<polygon class="st1" points="265.5,397 272.7,402.5 273.5,402.7 280.5,401.1 281.2,400.6 288.1,387.3 302.7,371.6 303,371.1 
		304.8,361.4 304,360.2 289.5,356.9 289.1,356.8 265.7,359.3 264.9,359.8 261.3,367.1 261.2,367.8 265.1,396.3 	"/>
	<polygon class="st1" points="447.2,361 449.2,352.3 446.4,337.9 445,337.3 429.3,344.7 397.3,353.6 396.5,354.1 393.7,358.9 
		393.8,360.1 405.5,371.9 406.5,372.2 446.3,362 	"/>
	<polygon class="st2" points="420.1,72.2 421.8,73.8 428,104.7 428.8,105.4 432.9,108.5 433.8,108.4 446.3,100.4 447.9,98.9 
		452.1,72.4 448.9,59.3 448.1,58.6 433,55.2 406.5,54.3 397.8,54.3 396.7,55.4 396.8,58.6 397.3,59.4 	"/>
	<polygon class="st2" points="382.9,160.7 383.7,161.5 386.5,175.3 386.8,175.6 388.7,177 389.1,176.9 394.7,173.3 395.4,172.7 
		397.3,160.8 395.9,155 395.5,154.7 388.7,153.1 376.9,152.7 373,152.7 372.5,153.2 372.5,154.6 372.7,155 	"/>
	<polygon class="st1" points="194.8,371.8 195.5,371 209.1,367.2 209.3,366.9 210.6,364.9 210.5,364.5 206.5,359.2 205.8,358.5 
		193.9,357.5 188.1,359.4 187.8,359.7 186.8,366.6 187.3,378.5 187.6,382.3 188.1,382.8 189.5,382.6 189.9,382.4 	"/>
	<polygon class="st1" points="350,66.7 350.6,67 378,70.2 379,69.8 385.8,62.5 385.4,60.7 380.8,54.1 379,53.1 342.6,53.9 
		341.7,54.6 340.3,57.9 340.7,59.1 	"/>
	<polygon class="st3" points="103,326.8 90.2,319.3 89.2,319.5 81.3,334.5 71.6,345.2 65.5,349.1 64.9,349.8 64.2,353.1 64.5,354 
		73.2,364.3 73.8,364.5 93.4,362.1 94.3,361.2 103.4,327.8 	"/>
	<polygon class="st1" points="81.3,406.3 95,406 96.2,405.2 104.9,384 104.7,382.9 96.1,372.4 94.9,372 84.4,375.4 83.3,377.3 
		79.8,405 	"/>
	<polygon class="st1" points="407.3,129.2 404,152.9 405.2,154.7 441.9,160.1 443.9,158.7 449.2,145.7 448.8,142.4 439.5,117.6 
		437.3,116.8 408.2,128 	"/>
	<polygon class="st2" points="83.5,295.7 100.9,279.7 101.4,277.7 84.6,252.9 82.7,252.8 71.2,259.5 69.3,262.2 58.2,286.1 
		58.9,287.9 82.3,296 	"/>
	<polygon class="st2" points="445.3,217.7 443.8,202.6 443.9,194.2 446.5,171.8 445.3,170.1 416,163.6 414.5,163.9 405.4,174.4 
		405.2,176.4 419.3,190.7 420.1,193.5 423.3,215.3 425.8,216.3 443.4,219 	"/>
	<polygon class="st2" points="429.9,241.8 428.7,245.3 436.2,281.7 437.9,284.1 444,287.8 447,283.7 449.3,231.5 446.7,230.4 	"/>
	<polygon class="st2" points="169.8,359.2 165.8,357.5 123.7,371.1 121,373.9 116.6,383.7 121.4,388.3 181.8,389.4 183,385.2 	"/>
	<polygon class="st2" points="373.6,360.9 370.6,357.8 326.8,356.5 323.2,358.5 315.1,366.9 317.5,373.3 371.6,396.3 374.5,392.4 	
		"/>
	<polygon class="st2" points="438.1,330.6 439.6,327.4 430.3,293.1 428.1,290.8 420.5,287 416.6,290.6 413.3,339.1 416.7,340.2 	"/>
	<polygon class="st2" points="50.6,342.1 50,352.3 50.8,352.9 55.5,354 56.4,353.9 60,348.7 60.1,347.6 51.5,341.6 	"/>
	<polygon class="st2" points="382.5,365.7 381.7,380.6 382.8,381.6 389.7,383.2 391.1,383 396.4,375.4 396.5,373.8 383.8,365 	"/>
	<polygon class="st2" points="390.3,405.7 387.3,396.3 386.4,396 381.8,396.5 381,397 379.5,402.9 379.8,403.9 389.6,406.4 	"/>
	<polygon class="st2" points="303.9,384.8 313.6,386.6 314.3,385.9 316,381.6 315.9,380.7 311.5,376.6 310.4,376.4 303.6,383.9 	"/>
	<polygon class="st3" points="429.7,225 419.7,223.4 419,224.2 417.4,228.7 417.5,229.7 422.3,233.7 423.4,233.9 430.1,225.9 	"/>
	<path class="st2" d="M222,76.5l-9.7-11.4l-6.1-12.4l-3.2-3.2h-12.5l-6.9,2v1.1l1.1,4.2l-0.4,1l-6.9,7.8l-2.1,6.1l0.3,0.7
		c4.5,2.4,9.1,4.9,13.6,7.3c0.3,0,0.7,0,1,0c3.2-0.1,6.4-0.2,9.6-0.2c0.5,0.3,1,0.5,1.5,0.8l5.2,2.3l8.8,6.9h1l5.6-5.4l0.8-0.9
		L222,76.5z"/>
	<path class="st2" d="M352.8,92.4c-3.7-1.1-7.4-2.2-11.1-3.3c-0.5-0.4-0.9-0.8-1.4-1.1c-0.8-1.6-1.6-3.2-2.4-4.9l5.3-11.4l1.7-0.5
		l10.2,1.7l1.2,1l4,10.2v1.5l-6.6,6.9H352.8z"/>
	<path class="st2" d="M173.1,165.5c-5.5-1.2-11-2.5-16.5-3.7c-0.7-0.5-1.5-1-2.2-1.5c-1.3-2.3-2.6-4.6-4-6.8l6.6-17.2l2.4-0.9
		l15.1,1.4l1.9,1.3l6.8,14.5l0.2,2.2l-9,10.7L173.1,165.5z"/>
	<polygon class="st0" points="135,173.7 137.2,170 143.5,168.2 220.5,178.5 250.1,190.9 251.4,193.5 247,285.9 250.3,329.1 
		249.9,332.1 247,334.2 243.9,334.2 177.1,319.6 147.3,316.1 139.6,315.5 137.6,314.1 136,311.5 138,216.1 	"/>
	<path class="st0" d="M373.5,215.6l2,94.5l-1.6,2.6l-2,1.4l-7.6,0.6l-29.5,3.5l-66.2,14.5h-3l-2.9-2.1c0-2.9,0-5.8,0-8.8l-0.1-26.7
		l-0.1-19.2c-0.4-27.5-0.9-55-1.3-82.6l1.4-2.5l29.3-12.3l76.2-10.2l6.3,1.8l2.1,3.7l-1.3,18.1L373.5,215.6z"/>
	<polygon class="st0" points="279.9,342.9 276.9,344.1 275.5,346.2 277.7,347.6 333.3,347.6 396.2,346.2 398.1,345.2 400.7,342.9 
		400.7,340.1 399.8,317.4 399.1,315.7 397.2,314.9 392.3,314.2 384.9,316.7 382.9,321.1 382.2,323.5 381.5,325.7 380.2,328.6 
		378.7,329.7 376.2,330.3 333.7,333 	"/>
	<polygon class="st0" points="164.3,333.3 160.6,333.3 158.3,336 157,340.4 157,346.9 158.1,349.1 160.7,350.4 237.4,350.4 
		240.3,349.3 240.3,347.4 205.1,337.9 	"/>
	<polygon class="st0" points="111.3,191 112.1,189.2 113.5,188.2 123.8,188.2 126.4,189.6 126.4,191.7 124.9,211.1 125.8,263.1 
		127.4,288.5 127.4,299 126.6,301.2 124.9,302.4 117.9,303 112.4,303 110.6,302.1 109.8,297.7 110.7,275.1 109.8,213.1 	"/>
	<path class="st0" d="M387.4,191l0.8-1.7l1.4-1.1h10.3l2.7,1.4v2.2c0.7,6.7,1.4,13.4,2.1,20.1c0.2,16.7,0.4,33.3,0.6,50
		c-0.6,8.9-1.2,17.8-1.8,26.7V299l-0.7,2.2l-1.7,1.2l-7,0.6h-5.5l-1.9-0.9l-0.8-4.4l0.9-22.6c0.5-19.4,1-38.9,1.6-58.3
		C388,208.2,387.7,199.6,387.4,191z"/>
	<polygon class="st0" points="112.3,316.3 113.3,314.7 115.1,314.7 126.5,314.7 127.9,315.5 128.7,318.4 129.9,330.2 136.2,333.3 
		145.7,334.8 146.5,336.2 146.5,339.6 145.3,347.8 144,349.5 137.9,350.4 116.1,349.5 112.3,348.9 110.6,347.8 112.3,326.1 	"/>
	<polygon class="st2" points="417.9,460.9 418.2,462.1 455,459.9 456.1,458.6 455.5,434 454.1,433.3 432.9,442.9 	"/>
	<polygon class="st1" points="420.4,445.5 419.9,443.9 378.4,437.8 377.3,438 361.2,453.6 361.3,455.4 371.4,461.9 372,462.1 
		408.1,462.1 408.9,461.7 	"/>
	<path class="st2" d="M409.3,432.2l15.9,2.8l0.8-0.2l10.5-6l0.5-1.5c-2.2-8.3-4.4-16.5-6.6-24.8c-0.6-0.2-1.1-0.4-1.7-0.6
		c-3.3,2.6-6.6,5.2-9.8,7.8l-1.3,0.4l-8,10.8l-1.4,10.4L409.3,432.2z"/>
	<polygon class="st2" points="339.6,451.5 328.6,440.1 321.3,431.8 320.5,431.1 306.8,427.4 305.3,428.3 298.5,445.1 297.2,459.5 
		298.5,460.9 319.4,460.9 319.9,460.8 339.1,453.6 	"/>
	<path class="st1" d="M243.9,457.2l12.8,5.1l1.9-1.1l1.1-6.5l-0.2-1L246,438l0,0c0.4-6.3,0.8-12.5,1.2-18.8
		c-0.9-0.8-1.8-1.6-2.7-2.3c-8.6,4.5-17.2,8.9-25.7,13.4l-0.3,0.6l-2.9,23l0.9,1.2l11.1,1L243.9,457.2z"/>
	<polygon class="st2" points="177.5,459.5 204.7,457.4 205.7,456.4 210.9,424.2 210.6,423.4 205.7,415.1 204.3,414.9 172.3,436.1 
		171.8,437.3 176.4,458.6 	"/>
	<polygon class="st2" points="130.3,453.7 127.2,459.9 127.6,461.3 141,463.2 141.9,463.3 155.2,462.1 164.3,462.6 165.8,461.4 
		161.6,444.5 160.7,443.8 156,442.6 155.1,442.6 131,453.4 	"/>
	<polygon class="st2" points="99.2,436.9 113.4,448.6 114.7,448.7 126.6,441.6 136.1,431 136.4,430.1 132.4,402.3 131.2,401.4 
		113.9,403.4 113.2,403.7 96.3,420.7 96,421.7 98.8,436.3 	"/>
	<path class="st2" d="M362.3,435.9c2.3-3.1,4.5-6.1,6.8-9.2c0.1-0.7,0.1-1.5,0.2-2.2c-1.7-7.5-3.4-15-5.1-22.6
		c-0.7-0.6-1.5-1.2-2.2-1.8c-2.8-1.6-5.6-3.1-8.3-4.7c-0.9-0.1-1.8-0.3-2.6-0.4c-8.3,0-16.5,0-24.8,0c-0.5,0.5-0.9,0.9-1.4,1.4
		c-0.5,0.7-0.9,1.4-1.4,2c-1.3,4.6-2.6,9.2-3.9,13.8c0.2,0.8,0.4,1.6,0.6,2.4c2.8,3.2,5.6,6.4,8.4,9.5c0.1,0.2,0.2,0.4,0.4,0.6
		l17.9,15.1l1,0.2C352.6,438.8,357.5,437.4,362.3,435.9z"/>
	<polygon class="st1" points="91.4,446 81.7,425.5 80.7,424.8 55.3,422.2 53.9,423.5 55.9,457.2 57,458.3 79,461.2 110.8,458.9 
		111.3,456.7 	"/>
	<path class="st1" d="M181.1,403.4l0-0.9l-1.5-3l-0.9-0.5l-34.4-1.4l-1.4,1.2l0.6,16.3l7.7,18l1.4,0.5c4.3-1.8,8.6-3.6,12.9-5.4
		c0.2-0.2,0.5-0.4,0.7-0.7c6.9-4,13.8-8,20.8-12c0.1-0.5,0.3-0.9,0.4-1.4c0-0.5-0.1-0.9-0.1-1.4
		C185.2,409.6,183.1,406.5,181.1,403.4z"/>
	<polygon class="st2" points="202,379.7 196.1,395.1 196.4,396.9 216,416.3 217.3,416.6 233,411.9 234,410.6 235.1,397.5 
		233.5,395.3 204.2,378.7 	"/>
	<polygon class="st3" points="296.3,429.7 280.4,412.4 278.3,411.9 253.5,428.6 253.4,430.6 260.1,442 262.8,444 286.7,455 
		288.5,454.4 296.6,431 	"/>
	<polygon class="st2" points="342.1,461.4 352.3,462 352.9,461.2 354,456.5 353.9,455.6 348.7,452 347.6,451.9 341.6,460.5 	"/>
	<polygon class="st2" points="446.9,322.3 451.2,307.7 450.6,305.9 446.3,299.5 445.3,298.8 439.8,302.9 439.3,304.4 445.8,322.1 	
		"/>
	<polygon class="st2" points="101.1,236.8 105.4,222.2 104.8,220.4 100.5,214 99.5,213.3 94,217.4 93.5,218.9 100,236.6 	"/>
	<path class="st1" d="M317.3,389.4c-7.4,2.7-14.8,5.4-22.2,8.2c-1,1-2,2.1-3,3.1c-1.3,2.7-2.5,5.5-3.8,8.2l0.8,2.4l14.9,6.4l2.9-0.5
		l11.9-25.8L317.3,389.4z"/>
	<path class="st1" d="M416.1,397.2c-5.3-2.3-10.5-4.6-15.8-6.8c-0.8,0.2-1.7,0.4-2.5,0.6c-1.3,1.3-2.7,2.6-4,3.9l0.1,2.3l8.3,13.5
		l1.9,1.3l12.5-12.4L416.1,397.2z"/>
	<path class="st3" d="M393.5,432.4c0.6-0.3,1.2-0.7,1.8-1c2.3-3.4,4.6-6.9,6.9-10.3l-0.1-1.3l-3.6-5.1l-1.6-0.4
		c-5.6-0.7-11.2-1.4-16.8-2.1c-0.4,0.2-0.8,0.3-1.2,0.5c-1,1.6-2,3.3-3,4.9c0,2.3,0,4.5,0.1,6.8c0.1,1.9,0.3,3.9,0.4,5.8
		c0.1,0.2,0.3,0.3,0.4,0.5c0.1,0.2,0.3,0.3,0.4,0.5C382.7,431.5,388.1,432,393.5,432.4z"/>
	<polygon class="st2" points="419.7,88.2 410.7,80 400.6,72.8 400,72.6 386.4,71.1 385.1,71.9 373.9,99.8 374.5,101.3 394.1,111.1 
		395.1,111.1 404,107.4 420.1,92.9 420.5,91.9 420.1,88.9 	"/>
	<path class="st2" d="M362.8,143l0.6,0.3l27.6,0.4l0.9-0.7l4.8-11.9l-0.8-2.5l-6.2-9.1l-2-1.1c-2.8-1.7-5.5-3.5-8.3-5.2
		c-0.9,0.1-1.8,0.2-2.7,0.3c-4.3,3.3-8.5,6.6-12.8,9.8c-3.9,0.6-7.8,1.3-11.7,1.9c-0.3,0.4-0.5,0.8-0.8,1.2l-0.5,5.1l0.6,1.8
		L362.8,143z"/>
	<path class="st2" d="M251.7,135.9c-0.2-8.2-0.3-16.3-0.5-24.5l-2.2-2.4L200,99l-2.3,0.9l-19.1,22.7l-0.3,2.9l11.3,21l4.6,1.7
		c18-3.2,36.1-6.3,54.1-9.5C249.5,137.8,250.6,136.9,251.7,135.9z"/>
	<polygon class="st2" points="139.3,139.5 153.5,132.1 154.3,131.1 155,109.7 153.7,108.5 131.2,106.8 129.4,107.2 122.8,109.3 
		121.5,110.5 117.8,139.2 119.2,140.4 138.7,139.7 	"/>
	<polygon class="st2" points="261.2,135.8 263.9,138.5 302.3,140.7 305.5,139.2 312.2,132.4 310,127.1 261.8,106.6 259.4,109.8 	"/>
	<polygon class="st3" points="279,105.6 288.7,111.1 289.7,110.6 293,106.6 293.3,105.6 290,99.6 288.9,99 279,104.6 	"/>
	<polygon class="st3" points="138.8,158.8 143.1,148.6 142.5,147.7 138.2,144.8 137.1,144.6 131.6,148.6 131.1,149.7 137.8,159 	"/>
	<path class="st3" d="M104.3,268.6c0.2-4.8,0.3-9.7,0.5-14.5l-0.9-0.7l-5.1-0.9l-1,0.2l-3.6,5.8l0,1.2c3.1,3.2,6.2,6.3,9.3,9.5
		C103.7,269,104,268.8,104.3,268.6z"/>
	<path class="st3" d="M170.1,118.1c6.9-8.3,13.8-16.6,20.8-24.9c-0.5-0.7-0.9-1.5-1.4-2.2c-2.4-1.4-4.8-2.7-7.2-4.1
		c-0.9-0.7-1.8-1.4-2.7-2c-2.8-1-5.6-2.1-8.4-3.1c-1.5,0-2.9,0-4.4,0c0.4,11.9,0.9,23.8,1.3,35.6L170.1,118.1z"/>
	<path class="st3" d="M252.2,400.3c-1-13.2-2.1-26.5-3.1-39.7c-1-0.3-2-0.6-3-0.9c-3.2,0.6-6.4,1.3-9.6,1.9c-1.3,0.1-2.7,0.1-4,0.2
		c-3.3,1.2-6.6,2.5-9.9,3.7c-1.3,1.2-2.5,2.3-3.8,3.5c10.4,10.8,20.7,21.5,31.1,32.3L252.2,400.3z"/>
	<path class="st3" d="M416,251.2c-1,7.4-2.1,14.9-3.1,22.3c0.4,0.4,0.9,0.8,1.3,1.2c1.6,0.4,3.1,0.9,4.7,1.3
		c0.6,0.3,1.3,0.6,1.9,0.9c1.7,0.1,3.3,0.2,5,0.3c0.7-0.3,1.4-0.6,2.1-1c-3.6-8.3-7.2-16.7-10.7-25L416,251.2z"/>
</g>
</svg>
