<?xml version="1.0" encoding="utf-8"?>
<!-- Generator: Adobe Illustrator 28.2.0, SVG Export Plug-In . SVG Version: 6.00 Build 0)  -->
<svg version="1.1" id="Layer_1" xmlns="http://www.w3.org/2000/svg" xmlns:xlink="http://www.w3.org/1999/xlink" x="0px" y="0px"
	 viewBox="0 0 512 512" style="enable-background:new 0 0 512 512;" xml:space="preserve">
<style type="text/css">
	.st0{fill:#2159AA;}
	.st1{fill:#FFE7A4;}
	.st2{fill:#FFC30C;}
	.st3{fill:#DBA305;}
</style>
<g>
	<path id="frame_00000079467414639376867630000013240284042554313122_" class="st0" d="M3.1,335.9v166.9l5.2,6.8l246-2.6l250.2-2.7
		l7.5-5.3l-2.6-102l-3.9-273.4l2.1-110.4l-8.1-6.3L437,5.1L64.5,2.5L2.4,7.6L0,10.3L3.1,335.9z M44.6,466l-5.5-7.7l3.7-162.7
		L39.1,49.4l8.4-5.8l137.9-4.2l272.2,4.2l7.3,4.6l-2,69.7v247.5l3.5,99.8l-7,3.5l-218.2-7.3L44.6,466z"/>
	<polygon class="st1" points="138.4,423.1 116.4,436 114.3,436.8 93.8,441.6 92.6,443.2 90.4,452.7 91.9,453.7 119.2,455.5 
		145.9,447.5 146.9,444.2 140.2,423.9 	"/>
	<path class="st2" d="M138.2,408.6l-0.5-1l-25-14.9l-1.2,0.6l-5.7,18.6l0.1,1l7.9,13l1,0.4c8.4-3.7,21.3-9.2,22.2-9.4l0-0.1l0.8-0.8
		L138.2,408.6z"/>
	<path class="st2" d="M142.1,251l-1.2,0.5l-18.5,26.5l0.5,1.4l20.1,7.8l1.1,0l15.1-7.6l0.5-1.1c-3.4-9.6-8.4-24.2-8.6-25.3l-0.1,0
		l-0.9-0.9L142.1,251z"/>
	<path class="st2" d="M191,451.1l47.5-1.2l1.1-1.4c-2.3-12.6-5.9-33.4-5.7-35.2c-0.4-0.4-0.8-0.8-1.2-1.2
		c-6.1-0.6-12.2-1.1-18.3-1.7c-0.6,0.2-1.2,0.4-1.8,0.6c-7.5,12.7-14.9,25.4-22.4,38.2L191,451.1z"/>
	<path class="st3" d="M203.1,414.4c-2-1-4-2-5.9-3c-0.7,0-1.4,0-2,0c-12.4,9.2-24.9,18.4-37.3,27.6l-0.8,1.2v11.3l1.3,1.3h14.1
		l0.9-0.4c10.1-12.1,20.2-24.2,30.2-36.3C203.4,415.5,203.3,414.9,203.1,414.4z"/>
	<polygon class="st2" points="276.2,421.8 247.6,406.8 246,407.9 248.5,443.2 248.9,444 256.8,450.9 257.5,451.1 295.1,451.1 
		296,449.3 288,437 	"/>
	<polygon class="st2" points="137.4,358.3 130.8,328.1 129.5,327.1 117.8,325.7 117.4,325.8 112.1,327.7 111.2,329 107.7,365.1 
		109.1,366.4 134.1,364 135.2,363.2 137.3,359.1 	"/>
	<polygon class="st2" points="110.5,376 117.1,385.7 117.5,386 139.7,395.8 141.1,394.9 141.1,375.4 140.1,374.4 111.3,374.4 	"/>
	<polygon class="st1" points="51.1,417.9 49.9,418.2 52.1,455 53.4,456.1 78,455.5 78.7,454.1 69.1,432.9 	"/>
	<polygon class="st2" points="66.5,420.4 68.1,419.9 74.2,378.4 74,377.3 58.4,361.2 56.6,361.3 50.1,371.4 49.9,372 49.9,408.1 
		50.3,408.9 	"/>
	<polygon class="st2" points="252.9,161.8 251.7,162.3 249.6,195.5 249.8,196.3 262.4,208.2 263.7,208.1 268,199.7 268.1,199.2 
		266,170.6 265.6,169.9 	"/>
	<polygon class="st2" points="77.8,419 82.9,431.4 83.5,431.8 92.4,436.5 93.7,436.2 101.5,427.8 101.8,426.7 97.9,415.6 97,414.9 
		85.9,414.1 78,417.7 	"/>
	<polygon class="st2" points="60.5,339.6 71.9,328.6 80.2,321.3 80.9,320.5 84.6,306.8 83.7,305.3 66.9,298.5 52.5,297.2 
		51.1,298.5 51.1,319.4 51.2,319.9 58.4,339.1 	"/>
	<path class="st2" d="M56.7,243.2l-5.1,12.8l1.1,1.9l6.5,1.1l1-0.2l15.6-13.6l0,0c6.3,0.4,12.5,0.8,18.8,1.2
		c0.8-0.9,1.6-1.8,2.3-2.7c-4.5-8.6-8.9-17.2-13.4-25.7l-0.6-0.3l-23-2.9l-1.2,0.9l-1,11.1L56.7,243.2z"/>
	<polygon class="st3" points="57.5,177.5 59.6,204.7 60.6,205.7 92.8,210.9 93.6,210.6 101.9,205.7 102.1,204.3 80.9,172.3 
		79.7,171.8 58.4,176.4 	"/>
	<path class="st2" d="M454.1,399l-2.2-20.9l-0.8-0.8l-24.9-3.2l-0.6,0.2c-4.4,0.7-8.7,1.5-13.1,2.2c-2.6,1.4-5.1,2.8-7.7,4.2
		c0.2,0.6,0.4,1.1,0.6,1.7c6.5,2.2,13,4.4,19.5,6.6c0.5,0.2,1,0.5,1.6,0.7c3.3,4.6,6.5,9.2,9.8,13.8c0.3,0.1,0.6,0.3,0.9,0.4
		C442.8,402.2,448.4,400.6,454.1,399z"/>
	<polygon class="st1" points="65.9,131.5 59.7,128.4 58.3,128.8 56.4,142.2 56.3,143.1 57.5,156.3 57,165.5 58.2,167 75.1,162.8 
		75.8,161.9 77,157.1 77,156.3 66.2,132.2 	"/>
	<polygon class="st1" points="393.9,177.9 387,177.1 385.8,178 388.7,191.3 388.9,192.1 394.8,204.1 397.5,212.8 399.2,213.8 
		413.5,203.9 413.8,202.8 413.2,198 413,197.2 394.5,178.4 	"/>
	<polygon class="st2" points="75.1,99.2 63.4,113.4 63.3,114.7 70.4,126.6 81,136.1 81.9,136.4 109.7,132.4 110.6,131.2 
		108.6,113.9 108.3,113.2 91.3,96.3 90.3,96 75.7,98.8 	"/>
	<polygon class="st2" points="116.7,111.5 115.6,113.8 115.8,115 122,121.4 123.8,135.1 124.8,136 135.1,137.2 146.7,136 
		147.5,135.6 155.2,124.2 157.3,114.9 156.8,113.8 145.5,107.3 144.9,107.2 117.5,110.9 	"/>
	<polygon class="st1" points="66,91.4 86.5,81.7 87.2,80.7 89.8,55.3 88.5,53.9 54.8,55.9 53.7,57 50.8,79 53.1,110.8 55.3,111.3 	
		"/>
	<polygon class="st3" points="127.1,66.4 128.7,68.2 129.6,68.5 147.1,65.6 165.1,71.2 166.2,70.8 178.8,52.7 178.1,51.4 
		150.7,49.5 130.7,53.3 130.1,54 127,65.6 	"/>
	<path class="st3" d="M388.3,124.5l-1.8,1.2l-0.4,0.7l0.8,16.1l-7,15.7l0.2,0.9l15,13.3c1.1-0.2,2.2-0.4,3.3-0.6
		c3.1-6,6.2-12,9.3-18c0.5-7.3,0.9-14.6,1.4-21.9c-0.3-0.5-0.6-1-0.8-1.6C401.5,128.3,394.9,126.4,388.3,124.5z"/>
	<path class="st1" d="M222.1,107.6l-0.4,2.4l0.3,0.8l13.6,11.5c2.7,6.6,5.5,13.2,8.2,19.9c0.7,0.4,1.4,0.7,2,1.1
		c7.3,0.4,14.6,0.7,21.9,1.1c0.5-0.7,0.9-1.4,1.4-2c-5-11.5-9.8-23.3-14.4-35.3c-0.3-0.7-0.5-1.4-0.8-2c-3.2-2.8-6.5-5.6-9.7-8.4
		c-4.8-1.5-9.6-2.9-14.4-4.4c-0.8,0.4-1.6,0.8-2.3,1.2C225.7,98.2,223.9,102.9,222.1,107.6z"/>
	<path class="st2" d="M368.9,252.3l-2.1-1.3l-0.9,0l-15.7,8.3c-7.2,0.1-14.3,0.1-21.5,0.2c-0.6,0.5-1.2,1-1.8,1.5
		c-3.1,6.6-6.1,13.2-9.2,19.9c0.5,0.7,0.9,1.4,1.4,2.1c12.6-0.3,25.3-0.4,38.1-0.2c0.7,0,1.5,0,2.2,0c3.8-1.9,7.6-3.9,11.4-5.8
		c3.1-3.9,6.3-7.8,9.4-11.7c-0.1-0.9-0.2-1.8-0.3-2.6C376.3,259.2,372.6,255.7,368.9,252.3z"/>
	<polygon class="st1" points="240.4,74.6 241.2,74.8 276.5,71.2 277.1,71 294.4,59.2 294.8,58.6 297,52.6 295.9,51.1 252.9,48.8 
		213.3,48.5 212.3,50.2 220.9,62.3 	"/>
	<polygon class="st2" points="291.2,78.5 301.2,85.9 302.2,86.1 327.9,81.1 329.7,80.1 335.3,70.4 335.7,68.3 315.8,52.9 
		314.6,52.8 309.9,55.1 309,56.6 305.3,61.8 291,76.9 	"/>
	<polygon class="st3" points="297.2,171.1 296.7,162.7 296.4,162.1 282.7,150.9 281.4,150.4 273.9,151.7 272.6,152.4 273.3,169.4 
		273.8,170.1 277,171.5 278.1,171.3 282.4,171 296.4,171.9 	"/>
	<polygon class="st2" points="263,98 276.2,98 276.8,97.9 288.6,90.7 288.9,89.1 284.5,83.5 283.9,83.1 273.9,79.9 273.4,79.8 
		249.4,82.1 248.5,82.6 246,85.7 246.3,87.3 262.4,97.8 	"/>
	<polygon class="st1" points="105.1,91.6 112.8,100.2 115.7,101 139.3,95.1 142.9,96.3 153.2,102.1 154,102.3 157.4,101.3 
		158.2,99.9 158,85.4 157.4,84.1 143.9,76.5 141.7,76.1 124.5,79.5 112.9,76.3 102.8,78.8 101.7,80.4 	"/>
	<polygon class="st2" points="102.4,53.4 101.6,54 94.4,66.4 95.7,68 116.9,67.2 117.9,66.3 120.6,54 119.4,52.7 	"/>
	<polygon class="st1" points="375.3,306.4 375.7,307.6 373.1,324.9 370.7,325.5 351,308.5 350.7,306.9 357.6,293.1 359.6,292.7 	"/>
	<polygon class="st1" points="381.2,230.1 379.5,229.5 359.7,232.1 360.5,235.1 393.1,259.9 395.2,260.4 408.1,252.4 407.4,249.9 	
		"/>
	<polygon class="st2" points="112.2,256.3 111.5,255.8 99.2,255.3 98.5,256.9 107.6,272.7 108.6,273.1 119,270.3 119.6,268.9 	"/>
	<polygon class="st2" points="366.5,356.9 365.6,357.5 359.8,371.4 361.3,372.9 383.4,369.3 384.3,368.3 385.5,355.1 384.1,353.8 	
		"/>
	<path class="st2" d="M286.8,225.3c-0.5,0-1,0-1.5,0.1c-3.2-0.4-6.4-0.7-9.5-1.1c-0.2,0.3-0.3,0.6-0.5,1c0,4.1,0,8.3,0,12.4
		c0.1,0.1,0.2,0.3,0.3,0.4c3.2,1.5,6.4,3.1,9.7,4.6c3.2-0.2,6.3-0.5,9.5-0.7c0.3-0.4,0.6-0.7,0.9-1.1c0.6-3.6,1.3-7.2,1.9-10.8
		c0-0.4,0-0.7,0-1.1C294.1,227.8,290.4,226.5,286.8,225.3z"/>
	<path class="st2" d="M271.8,386.6c-0.6-0.1-1.2-0.2-1.9-0.4c-4-1.4-7.9-2.8-11.9-4.1c-0.3,0.3-0.5,0.7-0.8,1c-0.8,5-1.6,10-2.4,15
		c0.1,0.2,0.2,0.4,0.3,0.6c3.8,2.8,7.5,5.6,11.3,8.4c4,0.6,8.1,1.3,12.1,1.9c0.5-0.4,0.9-0.7,1.4-1.1c1.5-4.2,3-8.3,4.6-12.5
		c0.1-0.4,0.2-0.9,0.3-1.3C280.5,391.7,276.2,389.1,271.8,386.6z"/>
	<polygon class="st1" points="452.6,417.8 445.5,412.2 444.7,412 437.6,413.5 436.9,414.1 430,427.3 415.2,442.8 414.9,443.3 
		413,453.1 413.8,454.3 428.3,457.7 428.6,457.7 452.1,455.5 452.9,454.9 456.6,447.7 456.7,447.1 453,418.5 	"/>
	<path class="st1" d="M118.4,253.4l9,1.1l0.8-0.3l5.2-4.9l0.3-0.8c0.9-3.1,1.7-6.1,2.6-9.2c0.3-0.5,0.6-0.9,0.9-1.4
		c2.9-0.4,5.8-0.8,8.7-1.2c0.3-0.3,0.6-0.7,0.8-1c0.1-0.4,0.2-0.9,0.3-1.3c-3.3-7.2-6.6-14.4-9.9-21.7c0-0.2,0-0.4,0-0.6l-3.4-9.3
		l-1.3-0.6l-14.2,4.6l-0.3,0.2l-18.9,14.1l-0.4,0.9l0.6,8.1l0.2,0.6C105.9,238.2,112.1,245.8,118.4,253.4z"/>
	<polygon class="st2" points="164.6,116 168.3,123.7 168.9,124.3 175.4,126 176.3,125.8 187.7,117.6 206.8,110.8 207.2,110.5 
		213,103 212.9,101.7 202.1,92.6 201.8,92.5 181.1,84.4 180.1,84.5 173.9,89.1 173.6,89.6 164.6,115.3 	"/>
	<path class="st2" d="M168.3,376.6l-9.2-0.6l-0.9,0.3l-5.4,5.2l-0.3,0.8c-1.3,6.6-2.6,13.2-3.9,19.9c0.1,5.4,0.1,10.8,0.2,16.2
		l0,0.6l3.5,9.2l1.3,0.6l14.6-5.4l0.3-0.2L188,408l0.4-0.9l-0.6-8.1l-0.2-0.6C181.1,391.1,174.7,383.9,168.3,376.6z"/>
	<path class="st3" d="M423.9,279.4l-11.8-3.3l-1.2,0.2l-8.4,5.3l-0.7,1c-3.5,8.2-7,16.5-10.5,24.7c-1.1,7.3-2.2,14.7-3.3,22
		c0.1,0.3,0.1,0.6,0.2,0.9c0.6,3.3,1.1,6.6,1.7,9.8c0.3,0.5,0.6,1.1,0.8,1.6c0.6,0.3,1.3,0.6,1.9,0.9c6.1-0.8,12.2-1.6,18.3-2.4
		l0.4-0.1l29.4-14.3l0.8-1.1l1.4-10.7l-0.1-0.8C436.5,301.9,430.2,290.7,423.9,279.4z"/>
	<polygon class="st2" points="380.8,421 379.9,420.6 376.3,420.8 375.4,421.4 359.3,449.6 360,451.2 376.3,456.5 397.3,456.6 
		398.4,455.6 399.7,441.3 399.4,440.5 	"/>
	<path class="st2" d="M132.2,192.8l1.3,0l4.7-2.2l0.9-1.2l7-44.7l-1.6-1.7l-24.4,1.6l-27.9,10.9l-0.9,1.9c2.1,5.5,4.2,11,6.2,16.5
		c0.3,0.3,0.6,0.6,0.9,0.8c5,8.8,10,17.5,15,26.3c0.7,0.2,1.4,0.3,2,0.5c0.7-0.1,1.4-0.2,2.1-0.2
		C122.4,198.5,127.3,195.7,132.2,192.8z"/>
	<path class="st2" d="M302.2,138l1,0l3.7-1.7l0.7-0.9l5.4-34.9l-1.3-1.3l-19.1,1.3l-21.8,8.5l-0.7,1.4c1.6,4.3,3.2,8.6,4.9,12.9
		c0.2,0.2,0.5,0.4,0.7,0.7c3.9,6.9,7.8,13.7,11.7,20.6c0.5,0.1,1.1,0.2,1.6,0.4c0.5-0.1,1.1-0.1,1.6-0.2
		C294.5,142.4,298.4,140.2,302.2,138z"/>
	<path class="st1" d="M249,207.3l-0.8-0.5l-3.6-0.5l-1,0.4c-7.1,4.6-14.2,9.3-21.4,13.9c-0.4,0.5-0.7,0.9-1.1,1.4
		c2.6,9.4,5.2,18.8,7.8,28.2c0.4,0.7,0.8,1.3,1.3,2c4.3,5.8,8.6,11.7,12.8,17.5c0.2,0.1,0.4,0.1,0.6,0.2c0.3,0,0.6,0.1,0.8,0.1
		c4.8-8,9.6-16.1,14.4-24.1c0.4-0.3,0.7-0.6,1.1-0.9c1.3-4.6,2.7-9.3,4-13.9l-0.1-0.9L249,207.3z"/>
	<polygon class="st3" points="367.8,411.9 362.6,404.5 350,397.1 348.6,397.8 343.7,414.4 329,444.2 329,445.2 330.6,450.4 
		331.7,451.2 348.3,450.3 349.1,449.7 367.8,413.2 	"/>
	<polygon class="st1" points="447.2,361 449.2,352.3 446.4,337.9 445,337.3 429.3,344.7 397.3,353.6 396.5,354.1 393.7,358.9 
		393.8,360.1 405.5,371.9 406.5,372.2 446.3,362 	"/>
	<polygon class="st2" points="410,431.7 417.1,423.8 423.4,415 423.6,414.5 424.9,402.6 424.2,401.5 399.9,391.7 398.6,392.2 
		390,409.3 390,410.2 393.3,418 405.9,432 406.8,432.3 409.4,432 	"/>
	<path class="st1" d="M388.9,377.3l-7.3,2.7l-7.6-3.1l-0.9,0.1c-5.4,0.9-10.8,1.9-16.3,2.8c-0.9,0.4-1.8,0.7-2.7,1.1
		c-0.6,0.5-1.1,0.9-1.7,1.4c-0.1,2.9-0.2,5.8-0.2,8.7c0.6,0.4,1.1,0.8,1.7,1.3c6.5,3,13.1,6,19.6,9l3.7,6.4l1,0.5l3.1-0.4l0.8-0.6
		l11.1-25.7l-0.3-1.2C391.5,379.2,390.2,378.3,388.9,377.3z"/>
	<path class="st1" d="M130.2,314.8c0.9-3.1,1.7-6.3,2.6-9.4c-1.6-3.1-3.2-6.2-4.7-9.3l-0.3-1.1l-9.2-9.8l-0.7-0.4l-12.4-2.2
		l-1.5,0.8l-6.5,16.4l-7.4,5.8l-0.5,1.3l1,3.8l0.9,0.9l34.2,9.3l1.5-0.5C128.3,318.5,129.3,316.7,130.2,314.8z"/>
	<path class="st1" d="M294.4,285.2c2.4,0.1,4.9,0.3,7.3,0.4c2.1-1.6,4.2-3.2,6.3-4.7l0.8-0.4l6.1-8l0.2-0.6l0-9.2l-0.8-0.9l-13-2.2
		l-5.2-4.4l-1-0.1l-2.7,1.3l-0.5,0.8l-2.5,25.7l0.6,1C291.4,284.4,292.9,284.8,294.4,285.2z"/>
	<polygon class="st2" points="389.8,295.2 390.5,294.1 390.4,276.6 389.9,275.9 387.2,274.1 385.5,274.3 368.4,289.1 368.3,290.8 
		377,295.7 380.8,300.1 382.6,300.1 	"/>
	<polygon class="st2" points="420.1,72.2 421.8,73.8 428,104.7 428.8,105.4 432.9,108.5 433.8,108.4 446.3,100.4 447.9,98.9 
		452.1,72.4 448.9,59.3 448.1,58.6 433,55.2 406.5,54.3 397.8,54.3 396.7,55.4 396.8,58.6 397.3,59.4 	"/>
	<polygon class="st1" points="350,66.7 350.6,67 378,70.2 379,69.8 385.8,62.5 385.4,60.7 380.8,54.1 379,53.1 342.6,53.9 
		341.7,54.6 340.3,57.9 340.7,59.1 	"/>
	<polygon class="st3" points="103,326.8 90.2,319.3 89.2,319.5 81.3,334.5 71.6,345.2 65.5,349.1 64.9,349.8 64.2,353.1 64.5,354 
		73.2,364.3 73.8,364.5 93.4,362.1 94.3,361.2 103.4,327.8 	"/>
	<polygon class="st1" points="81.3,406.3 95,406 96.2,405.2 104.9,384 104.7,382.9 96.1,372.4 94.9,372 84.4,375.4 83.3,377.3 
		79.8,405 	"/>
	<polygon class="st3" points="399.3,119.6 400.7,119.3 415.4,106.4 415.9,104.8 409.1,81.3 408.1,80.3 397.6,76.6 396.9,76.5 
		368.3,80.2 366.4,82.4 370.4,109.6 373.5,113.1 	"/>
	<polygon class="st1" points="415.5,127.8 413.8,151.3 414.8,153.1 444,159.8 445.5,158.5 449.2,145.7 448.8,142.4 440.6,117.5 
		438.8,116.5 416.2,126.7 	"/>
	<polygon class="st2" points="83.5,295.7 100.9,279.7 101.4,277.7 84.6,252.9 82.7,252.8 71.2,259.5 69.3,262.2 58.2,286.1 
		58.9,287.9 82.3,296 	"/>
	<polygon class="st2" points="444.1,219 442.6,203.5 442.7,194.9 445.3,172 444.1,170.2 415.6,163.6 414.2,164 405.4,174.7 
		405.2,176.7 418.9,191.3 419.7,194.2 422.7,216.5 425.1,217.6 442.2,220.3 	"/>
	<path class="st3" d="M167.8,363.5l-1.6-15.4l0.1-8.6l2.4-23l-1.2-1.8c-7.7-4-15.4-8-23-12c-0.9-0.1-1.7-0.3-2.6-0.4
		c-2,4.1-4,8.3-6,12.4c0,0.6,0,1.3-0.1,1.9c0.3,0.7,0.6,1.5,0.8,2.2c1.9,5.7,3.9,11.5,5.8,17.2l0.8,2.8l3.2,22.3l2.4,1.1l17.1,2.6
		L167.8,363.5z"/>
	<path class="st2" d="M269.4,244.7l-3.9,13.5l-3,7.1l-9.8,18.5l0.4,1.9c5.1,6,10.1,12,15.2,17.9c0.7,0.4,1.4,0.8,2,1.2
		c3.1-2.8,6.2-5.6,9.3-8.3c0.2-0.5,0.5-1.1,0.7-1.6c0-0.7,0-1.4,0-2.1c0.3-5.5,0.7-11,1-16.4l0.3-2.6l4.9-19.8l-1.7-1.7l-13.5-8
		L269.4,244.7z"/>
	<polygon class="st2" points="427.8,246.4 426.4,249.9 435.7,286.4 437.8,288.8 445,292.7 448.5,288.6 450.7,236.3 447.5,235.2 	"/>
	<polygon class="st2" points="434.6,229.9 412.5,220.4 410.4,221.7 404.2,231.1 403.8,233.4 412.4,245.5 414.8,246.5 434.9,232.1 	
		"/>
	<polygon class="st2" points="50.6,342.1 50,352.3 50.8,352.9 55.5,354 56.4,353.9 60,348.7 60.1,347.6 51.5,341.6 	"/>
	<path class="st3" d="M379.8,326.5c-3.2,3.9-6.4,7.8-9.6,11.7c-0.2,0.9-0.4,1.8-0.6,2.7c0.3,1.9,0.5,3.8,0.8,5.7l1.3,1l10.7-1.5
		l1.5-1.2l-2.6-17.8L379.8,326.5z"/>
	<path class="st1" d="M337.9,397.1l-2.4,14.8L319.1,443l-4.4,2.2h-7.3l-3.4-1.1l-14.3-25l2.5-13.4c1.7-1.9,3.4-3.8,5.1-5.7
		c1.1-0.2,2.2-0.4,3.3-0.5c8-0.8,16.1-1.6,24.1-2.5c3-1.6,6.1-3.1,9.1-4.7L337.9,397.1z"/>
	<polygon class="st2" points="419.3,256.5 420.8,258.3 422.6,267 421.5,268.2 408.3,270.6 406.4,269.5 416,258 	"/>
	<polygon class="st2" points="396.4,225.5 394,226.5 384.8,225.5 383.9,224 386,210 387.7,208.5 396,221.8 	"/>
	<polygon class="st2" points="262.9,162.1 264.5,160.2 266.8,151.5 265.8,150.4 252.9,148.4 251,149.5 259.7,160.7 	"/>
	<polygon class="st3" points="359.3,154.7 357.4,157.3 355.5,169.1 357,170.6 374.8,172.4 377.3,170.8 363.8,156.4 	"/>
	<polygon class="st2" points="347,293.7 346.5,296.5 340.9,304.9 339.3,304.9 329.3,295.1 329,292.6 343.8,292 	"/>
	<path class="st2" d="M222,76.5l-9.7-11.4l-6.1-12.4l-3.2-3.2h-12.5l-6.9,2v1.1l1.1,4.2l-0.4,1l-6.9,7.8l-2.1,6.1l0.3,0.7
		c4.5,2.4,9.1,4.9,13.6,7.3c0.3,0,0.7,0,1,0c3.2-0.1,6.4-0.2,9.6-0.2c0.5,0.3,1,0.5,1.5,0.8l5.2,2.3l8.8,6.9h1l5.6-5.4l0.8-0.9
		L222,76.5z"/>
	<path class="st2" d="M377.1,135.1l-13-15.2l-8.2-16.6l-4.3-4.3H335l-9.2,2.7v1.5l1.5,5.6l-0.5,1.3l-9.2,10.4l-2.8,8.2l0.3,1
		c6.1,3.3,12.1,6.5,18.2,9.8c0.5,0,0.9,0,1.4,0c4.3-0.1,8.5-0.2,12.8-0.3c0.7,0.4,1.3,0.7,2,1.1l7,3.1l11.8,9.2h1.4l7.5-7.2l1.1-1.3
		L377.1,135.1z"/>
	<path class="st2" d="M352.8,92.4c-3.7-1.1-7.4-2.2-11.1-3.3c-0.5-0.4-0.9-0.8-1.4-1.1c-0.8-1.6-1.6-3.2-2.4-4.9l5.3-11.4l1.7-0.5
		l10.2,1.7l1.2,1l4,10.2v1.5l-6.6,6.9H352.8z"/>
	<path class="st2" d="M162,304.3c0.5,0.1,1,0.2,1.5,0.3c3.1-1,6.2-2,9.3-3l0.6-0.9l0.6-5l-0.7-1c-2.8-3.2-5.6-6.4-8.4-9.6
		c-0.3-0.1-0.6-0.2-0.9-0.3c-1.4,0.5-2.8,1-4.3,1.6c-1.2,1.4-2.4,2.8-3.5,4.3c-0.9,1.3-1.9,2.5-2.8,3.8c0,0.2,0,0.3,0,0.5
		c0,0.2,0,0.3,0,0.5C156.3,298.4,159.2,301.4,162,304.3z"/>
	<g>
		<g>
			<polygon class="st0" points="189.8,126.7 198.3,123.8 226.1,126.8 228.1,129 239.3,164.7 238.6,194.1 237,197.3 218.3,209.9 
				211.8,212.2 209.5,211.9 169,194.8 153.2,180.3 153.6,177.1 160.2,151.1 162.6,148.8 			"/>
			<path class="st0" d="M152.7,195.5c0.5,0.1,1,0.2,1.5,0.3c1.4,2.1,2.9,4.1,4.3,6.2c1.3,0.8,2.6,1.6,3.9,2.4
				c9.2,5.7,18.4,11.4,27.6,17.1c4.2,0.5,8.4,0.9,12.6,1.4l3,2.7l17,42.8c9.9,11.9,19.9,23.8,29.8,35.6c2.7,2.2,5.4,4.5,8.2,6.7
				c0.3,0.4,0.5,0.8,0.8,1.1c0.1,0.5,0.2,1,0.2,1.6c-5,3-10,5.9-15,8.9c-3.4,4.5-6.9,9-10.3,13.5c-1,3.2-2.1,6.4-3.1,9.6
				c-0.7-0.2-1.3-0.3-2-0.5c-1.8-1.4-3.5-2.8-5.3-4.1c-12.5-15.1-24.9-30.2-37.4-45.4c-7.6-13.8-15.3-27.6-22.9-41.4
				c-0.5-1.3-1-2.5-1.5-3.8c-2.2-4.8-4.3-9.6-6.5-14.4c-2.3-8.8-4.7-17.5-7-26.3C151.2,204.9,151.9,200.2,152.7,195.5z"/>
			<polygon class="st0" points="280.5,317.4 294.8,298.4 297.9,296.1 307,295.9 311.8,297.6 350.8,321.1 360.5,331.6 361.5,334.9 
				355.8,360.3 353.8,362.9 332.4,382.5 303.9,388.2 300,387.8 263.7,371.9 242.9,355.2 243.3,351.8 258.6,328.3 			"/>
		</g>
		<g>
			<polygon class="st0" points="189.8,126.7 198.3,123.8 226.1,126.8 228.1,129 239.3,164.7 238.6,194.1 237,197.3 218.3,209.9 
				211.8,212.2 209.5,211.9 169,194.8 153.2,180.3 153.6,177.1 160.2,151.1 162.6,148.8 			"/>
			<path class="st0" d="M152.7,195.5c0.5,0.1,1,0.2,1.5,0.3c1.4,2.1,2.9,4.1,4.3,6.2c1.3,0.8,2.6,1.6,3.9,2.4
				c9.2,5.7,18.4,11.4,27.6,17.1c4.2,0.5,8.4,0.9,12.6,1.4l3,2.7l17,42.8c9.9,11.9,19.9,23.8,29.8,35.6c2.7,2.2,5.4,4.5,8.2,6.7
				c0.3,0.4,0.5,0.8,0.8,1.1c0.1,0.5,0.2,1,0.2,1.6c-5,3-10,5.9-15,8.9c-3.4,4.5-6.9,9-10.3,13.5c-1,3.2-2.1,6.4-3.1,9.6
				c-0.7-0.2-1.3-0.3-2-0.5c-1.8-1.4-3.5-2.8-5.3-4.1c-12.5-15.1-24.9-30.2-37.4-45.4c-7.6-13.8-15.3-27.6-22.9-41.4
				c-0.5-1.3-1-2.5-1.5-3.8c-2.2-4.8-4.3-9.6-6.5-14.4c-2.3-8.8-4.7-17.5-7-26.3C151.2,204.9,151.9,200.2,152.7,195.5z"/>
			<polygon class="st0" points="280.5,317.4 294.8,298.4 297.9,296.1 307,295.9 311.8,297.6 350.8,321.1 360.5,331.6 361.5,334.9 
				355.8,360.3 353.8,362.9 332.4,382.5 303.9,388.2 300,387.8 263.7,371.9 242.9,355.2 243.3,351.8 258.6,328.3 			"/>
		</g>
	</g>
	<polygon class="st1" points="178.4,322.4 178.9,320.6 188.9,317.6 190.9,317.6 205.6,340.3 224.3,355.4 225.5,357.7 248.3,376.3 
		248.9,379.1 246,390.4 244.9,392 233.3,400.8 232,401.2 201.1,399.2 199.6,398.4 179.7,370.6 179.5,369.1 178.2,353.4 179.9,339.4 
			"/>
	<path class="st0" d="M376.3,180.7l-2.9-1.2c-8.6,0.5-17.2,1.1-25.8,1.6c0-9.8-0.1-19.7-0.1-29.5c-0.5-0.4-1-0.8-1.5-1.2
		c-8.2-1.5-16.4-3-24.6-4.6c-3.2-0.7-6.3-1.5-9.5-2.2l-1,0.9l-0.4,1.3l-3.4,35.4c-8.9-0.9-17.9-1.7-26.8-2.6c-0.4,0.5-0.8,1-1.2,1.5
		c-1.3,4.3-2.6,8.6-3.9,12.9c-0.8,6.9-1.7,13.9-2.5,20.8c0.3,0.3,0.5,0.7,0.8,1l1.2,0.4l30.2,3l-0.4,18.2v5.5l1.5,7.2l0.7,2.4
		c8.6,0.4,17.2,0.9,25.8,1.3c4.4,0.1,8.7,0.2,13.1,0.2l1.2-3.1l0.5-29.1l13.5,0.3h5.2l6.8-1.5l2.3-0.6l4.5-26.7L376.3,180.7z"/>
</g>
</svg>
