<?xml version="1.0" encoding="utf-8"?>
<!-- Generator: Adobe Illustrator 28.2.0, SVG Export Plug-In . SVG Version: 6.00 Build 0)  -->
<svg version="1.1" id="Layer_1" xmlns="http://www.w3.org/2000/svg" xmlns:xlink="http://www.w3.org/1999/xlink" x="0px" y="0px"
	 viewBox="0 0 512 512" style="enable-background:new 0 0 512 512;" xml:space="preserve">
<style type="text/css">
	.st0{fill:#2159AA;}
	.st1{fill:#FFC30C;}
	.st2{fill:#DBA305;}
	.st3{fill:#FFE7A4;}
</style>
<g>
	<path id="frame_00000041990645852105304150000014004752306432900504_" class="st0" d="M3.1,335.9v166.9l5.2,6.8l246-2.6l250.2-2.7
		l7.5-5.3l-2.6-102l-3.9-273.4l2.1-110.4l-8.1-6.3L437,5.1L64.5,2.5L2.4,7.6L0,10.3L3.1,335.9z M44.6,466l-5.5-7.7l3.7-162.7
		L39.1,49.4l8.4-5.8l137.9-4.2l272.2,4.2l7.3,4.6l-2,69.7v247.5l3.5,99.8l-7,3.5l-218.2-7.3L44.6,466z"/>
	<polygon class="st1" points="66.5,420.4 68.1,419.9 74.2,378.4 74,377.3 58.4,361.2 56.6,361.3 50.1,371.4 49.9,372 49.9,408.1 
		50.3,408.9 	"/>
	<polygon class="st1" points="60.5,339.6 71.9,328.6 80.2,321.3 80.9,320.5 84.6,306.8 83.7,305.3 66.9,298.5 52.5,297.2 
		51.1,298.5 51.1,319.4 51.2,319.9 58.4,339.1 	"/>
	<path class="st1" d="M56,245.2l-3.7,13.3l1.4,1.8l6.7,0.4l1-0.3l14.4-15.2l0,0c6.4-0.3,12.8-0.6,19.2-0.9c0.7-1,1.4-1.9,2.1-2.9
		c-5.5-8-11-16-16.5-24.1l-0.6-0.2l-23.7-0.2l-1.1,1l0.2,11.1L56,245.2z"/>
	<polygon class="st2" points="51.4,168.8 53.8,203.1 54.9,204.4 91.5,210.9 92.4,210.5 101.9,204.3 102.1,202.6 78,162.2 
		76.6,161.6 52.4,167.3 	"/>
	<polygon class="st2" points="103,326.8 90.2,319.3 89.2,319.5 81.3,334.5 71.6,345.2 65.5,349.1 64.9,349.8 64.2,353.1 64.5,354 
		73.2,364.3 73.8,364.5 93.4,362.1 94.3,361.2 103.4,327.8 	"/>
	<polygon class="st2" points="384.3,250.8 370.5,245.5 369.5,245.8 364.1,261.9 356.3,274.1 351,278.9 350.5,279.8 350.4,283.1 
		350.8,283.9 361.1,292.7 361.7,292.8 380.7,287.1 381.3,286.2 384.9,251.7 	"/>
	<polygon class="st1" points="83.5,295.7 100.9,279.7 101.4,277.7 84.6,252.9 82.7,252.8 71.2,259.5 69.3,262.2 58.2,286.1 
		58.9,287.9 82.3,296 	"/>
	<polygon class="st1" points="372.2,334.5 393.6,327.5 405.8,324.9 439.1,321.2 441.2,318.9 441.5,276.6 440.5,274.7 422.5,265.6 
		419.6,266.1 403.2,290 399.5,292 368.9,303.5 368.1,307.3 369.7,332.3 	"/>
	<polygon class="st1" points="140.1,167.4 137.9,170.4 137.5,208.1 138.9,210.9 144.9,216.5 149.4,213.5 164.8,163.4 162,161.6 	"/>
	<polygon class="st1" points="50.6,342.1 50,352.3 50.8,352.9 55.5,354 56.4,353.9 60,348.7 60.1,347.6 51.5,341.6 	"/>
	<path class="st0" d="M163.8,336.1v2.7l6.6,3.6l2.9,1.2l119.8,2.4l52.8-1.6l5.3-1.5l4.7-29.1l-5.8-15.9l-5.3-0.8l-77.9-2.2l-30.8-2
		c-15.4,0.5-30.9,1-46.3,1.6c-1.8,0.5-3.5,0.9-5.3,1.4c-1.6,1.1-3.2,2.1-4.8,3.2c-4,6.3-8.1,12.7-12.1,19L163.8,336.1z"/>
	<path class="st0" d="M359.8,232.4v-2.7l-6.8-3.6l-3-1.2l-122.2-2.4l-53.8,1.6l-5.4,1.5l-4.8,29.1l5.9,15.9l5.4,0.8l79.5,2.2l31.4,2
		c15.7-0.5,31.5-1,47.2-1.6c1.8-0.5,3.6-0.9,5.4-1.4c1.6-1.1,3.3-2.1,4.9-3.2c4.1-6.3,8.2-12.7,12.3-19L359.8,232.4z"/>
	<path class="st0" d="M168.2,191v2.7l6.6,3.6l2.9,1.2c36.3-0.4,72.7-0.7,109-1.1c21,0.6,42,1.3,63.1,1.9l5.3-1.5l4.7-29.1l-5.7-15.9
		l-5.3-0.8l-77.7-2.2l-30.7-2c-15.4,0.5-30.8,1-46.1,1.6c-1.8,0.5-3.5,0.9-5.3,1.4c-1.6,1.1-3.2,2.1-4.8,3.2c-4,6.3-8,12.7-12,19
		L168.2,191z"/>
	<path class="st2" d="M252.2,400.3c-1-13.2-2.1-26.5-3.1-39.7c-1-0.3-2-0.6-3-0.9c-3.2,0.6-6.4,1.3-9.6,1.9c-1.3,0.1-2.7,0.1-4,0.2
		c-3.3,1.2-6.6,2.5-9.9,3.7c-1.3,1.2-2.5,2.3-3.8,3.5c10.4,10.8,20.7,21.5,31.1,32.3L252.2,400.3z"/>
	<path class="st2" d="M370.8,346.8c14,7.7,28.1,15.4,42.1,23.2c1-0.8,2-1.6,3-2.5c1.5-3.6,3-7.3,4.5-10.9c0.8-1.4,1.6-2.8,2.4-4.2
		c0.9-4.2,1.8-8.3,2.8-12.5c-0.3-2-0.7-4.1-1-6.1c-17.7,3.3-35.4,6.7-53.2,10L370.8,346.8z"/>
	<path class="st1" d="M454.1,399l-2.2-20.9l-0.8-0.8l-24.9-3.2l-0.6,0.2c-4.4,0.7-8.7,1.5-13.1,2.2c-2.6,1.4-5.1,2.8-7.7,4.2
		c0.2,0.6,0.4,1.1,0.6,1.7c6.5,2.2,13,4.4,19.5,6.6c0.5,0.2,1,0.5,1.6,0.7c3.3,4.6,6.5,9.2,9.8,13.8c0.3,0.1,0.6,0.3,0.9,0.4
		C442.8,402.2,448.4,400.6,454.1,399z"/>
	<path class="st1" d="M443.9,222.4l-28.7-8.4l-1.5,0.7L396,245.7l0,0.9c-1.4,6.1-2.8,12.3-4.2,18.4c0.4,4.1,0.9,8.3,1.3,12.4
		c0.8,0,1.7,0.1,2.5,0.1c6.4-7.4,12.9-14.8,19.3-22.1c0.6-0.6,1.2-1.1,1.8-1.7c7.8-1.8,15.6-3.6,23.5-5.4c0.3-0.3,0.7-0.7,1-1
		C442.1,239,443,230.7,443.9,222.4z"/>
	<polygon class="st1" points="120.9,367.1 123.5,362.8 123.6,361.6 117.1,358.6 116.7,358.4 109.8,357.8 105.2,356.4 104.3,357.1 
		103.4,370.5 103.8,371.1 106,372.5 106.4,372.7 120.5,367.3 	"/>
	<polygon class="st1" points="149,239.3 153.2,241.8 154.4,241.8 157.1,235.5 157.3,235.1 157.7,228.4 159,223.9 158.3,223 
		145.3,222.5 144.7,222.8 143.4,225 143.3,225.4 148.8,238.9 	"/>
	<polygon class="st3" points="265.5,397 272.7,402.5 273.5,402.7 280.5,401.1 281.2,400.6 288.1,387.3 302.7,371.6 303,371.1 
		304.8,361.4 304,360.2 289.5,356.9 289.1,356.8 265.7,359.3 264.9,359.8 261.3,367.1 261.2,367.8 265.1,396.3 	"/>
	<polygon class="st3" points="389.8,159.2 382.2,154.5 367.6,152.9 366.6,154.1 368.9,171.2 367.5,204.4 367.9,205.3 371.5,209.4 
		372.8,209.7 387.6,202.2 388.1,201.3 390.5,160.3 	"/>
	<polygon class="st3" points="194.8,371.8 195.5,371 209.1,367.2 209.3,366.9 210.6,364.9 210.5,364.5 206.5,359.2 205.8,358.5 
		193.9,357.5 188.1,359.4 187.8,359.7 186.8,366.6 187.3,378.5 187.6,382.3 188.1,382.8 189.5,382.6 189.9,382.4 	"/>
	<polygon class="st3" points="81.3,406.3 95,406 96.2,405.2 104.9,384 104.7,382.9 96.1,372.4 94.9,372 84.4,375.4 83.3,377.3 
		79.8,405 	"/>
	<polygon class="st1" points="169.8,359.2 165.8,357.5 123.7,371.1 121,373.9 116.6,383.7 121.4,388.3 181.8,389.4 183,385.2 	"/>
	<polygon class="st1" points="102.1,254.8 102.5,260.6 143.6,302.8 148.7,304.3 162.9,303.7 165.5,295.3 131.1,222.5 125.3,223.6 	
		"/>
	<polygon class="st1" points="373.6,360.9 370.6,357.8 326.8,356.5 323.2,358.5 315.1,366.9 317.5,373.3 371.6,396.3 374.5,392.4 	
		"/>
	<polygon class="st1" points="382.5,365.7 381.7,380.6 382.8,381.6 389.7,383.2 391.1,383 396.4,375.4 396.5,373.8 383.8,365 	"/>
	<polygon class="st1" points="390.3,405.7 387.3,396.3 386.4,396 381.8,396.5 381,397 379.5,402.9 379.8,403.9 389.6,406.4 	"/>
	<polygon class="st1" points="366.6,221 363.6,211.6 362.7,211.3 358.1,211.9 357.3,212.3 355.8,218.2 356.2,219.3 366,221.7 	"/>
	<polygon class="st1" points="303.9,384.8 313.6,386.6 314.3,385.9 316,381.6 315.9,380.7 311.5,376.6 310.4,376.4 303.6,383.9 	"/>
	<polygon class="st1" points="417.9,460.9 418.2,462.1 455,459.9 456.1,458.6 455.5,434 454.1,433.3 432.9,442.9 	"/>
	<polygon class="st3" points="420.4,445.5 419.9,443.9 378.4,437.8 377.3,438 361.2,453.6 361.3,455.4 371.4,461.9 372,462.1 
		408.1,462.1 408.9,461.7 	"/>
	<path class="st1" d="M409.3,432.2l15.9,2.8l0.8-0.2l10.5-6l0.5-1.5c-2.2-8.3-4.4-16.5-6.6-24.8c-0.6-0.2-1.1-0.4-1.7-0.6
		c-3.3,2.6-6.6,5.2-9.8,7.8l-1.3,0.4l-8,10.8l-1.4,10.4L409.3,432.2z"/>
	<polygon class="st1" points="341.6,446 331,435.9 323.9,428.6 323.2,428 309.6,424.9 308.1,425.8 300.9,441.2 299.3,454.2 
		300.5,455.4 321.3,455 321.8,454.9 341.1,447.9 	"/>
	<path class="st3" d="M243.9,450.8l12.8,4.3l1.9-0.9l1.1-5.5l-0.2-0.8L246,434.6l0,0c0.4-5.3,0.8-10.6,1.2-15.8
		c-0.9-0.7-1.8-1.3-2.7-2c-8.6,3.8-17.2,7.5-25.7,11.3l-0.3,0.5l-2.9,19.4l0.9,1l11.1,0.9L243.9,450.8z"/>
	<polygon class="st1" points="177.5,455.9 204.7,454 205.7,453.1 210.9,423.5 210.6,422.7 205.7,415.1 204.3,414.9 172.3,434.4 
		171.8,435.5 176.4,455.1 	"/>
	<polygon class="st1" points="130.3,450.6 127.2,456.3 127.6,457.6 141,459.4 141.9,459.5 155.2,458.3 164.3,458.8 165.8,457.7 
		161.6,442.1 160.7,441.5 156,440.4 155.1,440.4 131,450.3 	"/>
	<polygon class="st1" points="99.2,436.9 113.4,448.6 114.7,448.7 126.6,441.6 136.1,431 136.4,430.1 132.4,402.3 131.2,401.4 
		113.9,403.4 113.2,403.7 96.3,420.7 96,421.7 98.8,436.3 	"/>
	<polygon class="st1" points="155.8,330.2 147.8,313.7 146.7,313.1 133,314.6 119.9,320.2 119.3,320.9 111.3,347.8 112,349.2 
		128.6,354.6 129.3,354.6 151.8,346.2 152.5,345.4 155.9,331 	"/>
	<path class="st1" d="M362.3,435.9c2.3-3.1,4.5-6.1,6.8-9.2c0.1-0.7,0.1-1.5,0.2-2.2c-1.7-7.5-3.4-15-5.1-22.6
		c-0.7-0.6-1.5-1.2-2.2-1.8c-2.8-1.6-5.6-3.1-8.3-4.7c-0.9-0.1-1.8-0.3-2.6-0.4c-8.3,0-16.5,0-24.8,0c-0.5,0.5-0.9,0.9-1.4,1.4
		c-0.5,0.7-0.9,1.4-1.4,2c-1.3,4.6-2.6,9.2-3.9,13.8c0.2,0.8,0.4,1.6,0.6,2.4c2.8,3.2,5.6,6.4,8.4,9.5c0.1,0.2,0.2,0.4,0.4,0.6
		l17.9,15.1l1,0.2C352.6,438.8,357.5,437.4,362.3,435.9z"/>
	<polygon class="st3" points="91.3,445.2 81.8,427.5 80.8,426.9 55.5,424.9 54,426 55.7,455.2 56.8,456.2 78.8,458.5 110.6,456.2 
		111.1,454.3 	"/>
	<path class="st3" d="M181.1,403.4l0-0.9l-1.5-3l-0.9-0.5l-34.4-1.4l-1.4,1.2l0.6,16.3l7.7,18l1.4,0.5c4.3-1.8,8.6-3.6,12.9-5.4
		c0.2-0.2,0.5-0.4,0.7-0.7c6.9-4,13.8-8,20.8-12c0.1-0.5,0.3-0.9,0.4-1.4c0-0.5-0.1-0.9-0.1-1.4
		C185.2,409.6,183.1,406.5,181.1,403.4z"/>
	<polygon class="st1" points="202,379.7 196.1,395.1 196.4,396.9 216,416.3 217.3,416.6 233,411.9 234,410.6 235.1,397.5 
		233.5,395.3 204.2,378.7 	"/>
	<polygon class="st2" points="295.8,428.6 280.1,412.1 278.1,411.6 255.2,426 255.2,427.8 262,438.5 264.7,440.4 287.7,451.4 
		289.4,450.9 296.1,429.8 	"/>
	<path class="st3" d="M317.3,389.4c-7.4,2.7-14.8,5.4-22.2,8.2c-1,1-2,2.1-3,3.1c-1.3,2.7-2.5,5.5-3.8,8.2l0.8,2.4l14.9,6.4l2.9-0.5
		l11.9-25.8L317.3,389.4z"/>
	<path class="st3" d="M416.1,397.2c-5.3-2.3-10.5-4.6-15.8-6.8c-0.8,0.2-1.7,0.4-2.5,0.6c-1.3,1.3-2.7,2.6-4,3.9l0.1,2.3l8.3,13.5
		l1.9,1.3l12.5-12.4L416.1,397.2z"/>
	<path class="st2" d="M393.5,432.4c0.6-0.3,1.2-0.7,1.8-1c2.3-3.4,4.6-6.9,6.9-10.3l-0.1-1.3l-3.6-5.1l-1.6-0.4
		c-5.6-0.7-11.2-1.4-16.8-2.1c-0.4,0.2-0.8,0.3-1.2,0.5c-1,1.6-2,3.3-3,4.9c0,2.3,0,4.5,0.1,6.8c0.1,1.9,0.3,3.9,0.4,5.8
		c0.1,0.2,0.3,0.3,0.4,0.5c0.1,0.2,0.3,0.3,0.4,0.5C382.7,431.5,388.1,432,393.5,432.4z"/>
	<polygon class="st1" points="87.1,144.2 72.5,119.6 71.5,117.3 66.1,94.2 64.2,92.9 53.5,90.4 52.3,92.1 50.3,122.7 59.3,152.8 
		63.1,153.8 86.2,146.3 	"/>
	<path class="st3" d="M103.4,138.2l1-0.5l14.9-25l-0.6-1.2l-18.6-5.7l-1,0.1l-13,7.9l-0.4,1c3.7,8.4,9.2,21.3,9.4,22.2l0.1,0
		l0.8,0.8L103.4,138.2z"/>
	<path class="st2" d="M133.2,155.6c15-3,30.1-6.1,45.1-9.1l1.4-1.8l2.4-15l-0.1-0.5l-2.2-6.9l-1.6-1.2l-46.6-6.4l-1.7,1.8
		c-3.2,6.9-6.4,13.8-9.6,20.7c-0.1,0.5-0.1,1-0.2,1.5c0.2,0.5,0.3,1,0.5,1.5c3.2,4.7,6.3,9.4,9.5,14c0.3,0.4,0.6,0.8,0.9,1.2
		C131.8,155.4,132.5,155.5,133.2,155.6z"/>
	<polygon class="st1" points="93.1,51.1 92.7,49.9 50.8,52.1 49.6,53.4 50.3,78 51.9,78.7 76,69.1 	"/>
	<polygon class="st3" points="91.6,66.5 92.1,68.1 133.6,74.2 134.7,74 150.8,58.4 150.7,56.6 140.6,50.1 140,49.9 103.9,49.9 
		103.1,50.3 	"/>
	<polygon class="st1" points="91.8,77.8 77.7,82.9 77.2,83.5 71.9,92.4 72.2,93.7 81.8,101.5 83,101.8 95.6,97.9 96.4,97 97.4,85.9 
		93.3,78 	"/>
	<polygon class="st1" points="109.9,284.8 95.3,295.4 95,296.2 91.7,309.3 92.5,310.9 105.9,318.5 107.4,318.5 120.6,309.9 
		121.3,308.6 118.9,293.8 111.7,284.6 	"/>
	<polygon class="st1" points="381.4,121.2 383.8,138.4 384.3,139.1 393.9,147.9 395.6,148 408.2,139.9 408.9,138.7 407.7,123.6 
		406.8,122.4 393.1,117.7 382,119.6 	"/>
	<polygon class="st1" points="172.4,60.5 183.4,71.9 190.7,80.2 191.5,80.9 205.2,84.6 206.7,83.7 213.5,66.9 214.8,52.5 
		213.5,51.1 192.6,51.1 192.1,51.2 172.9,58.4 	"/>
	<path class="st3" d="M268.1,54.8l-12.8-5.1l-1.9,1.1l-1.1,6.5l0.2,1L266,74l0,0c-0.4,6.3-0.8,12.5-1.2,18.8
		c0.9,0.8,1.8,1.6,2.7,2.3c8.6-4.5,17.2-8.9,25.7-13.4l0.3-0.6l2.9-23l-0.9-1.2l-11.1-1L268.1,54.8z"/>
	<polygon class="st1" points="334.5,52.5 307.3,54.6 306.3,55.6 301.1,87.8 301.4,88.6 306.3,96.9 307.7,97.1 339.7,75.9 
		340.2,74.7 335.6,53.4 	"/>
	<polygon class="st1" points="381.7,58.3 384.8,52.1 384.4,50.7 371,48.8 370.1,48.7 356.8,49.9 347.7,49.4 346.2,50.6 350.4,67.5 
		351.3,68.2 356,69.4 356.9,69.4 381,58.6 	"/>
	<polygon class="st1" points="412.8,75.1 398.6,63.4 397.3,63.3 385.4,70.4 375.9,81 375.6,81.9 379.6,109.7 380.8,110.6 
		398.1,108.6 398.8,108.3 415.7,91.3 416,90.3 413.2,75.7 	"/>
	<path class="st1" d="M150.7,72c-2.2,2.9-4.4,5.9-6.5,8.8c-0.1,0.7-0.1,1.4-0.2,2.2c1.6,7.3,3.3,14.5,4.9,21.8
		c0.7,0.6,1.4,1.2,2.2,1.8c2.7,1.5,5.4,3,8,4.5c0.9,0.1,1.7,0.3,2.6,0.4c8,0,16,0,23.9,0c0.5-0.5,0.9-0.9,1.4-1.4
		c0.5-0.7,0.9-1.3,1.4-2c1.2-4.4,2.5-8.9,3.7-13.3c-0.2-0.8-0.4-1.6-0.6-2.4c-2.7-3.1-5.4-6.1-8.1-9.2c-0.1-0.2-0.2-0.4-0.4-0.6
		L165.6,68l-1-0.2C160,69.2,155.3,70.6,150.7,72z"/>
	<polygon class="st3" points="420.6,66 430.3,86.5 431.3,87.2 456.7,89.8 458.1,88.5 456.1,54.8 455,53.7 433,50.8 401.2,53.1 
		400.7,55.3 	"/>
	<polygon class="st2" points="440.5,122.9 439,124.1 438.8,124.8 441.2,139 436.6,153.7 436.9,154.5 451.6,164.7 452.6,164.1 
		454.2,142 451.1,125.8 450.6,125.2 441.1,122.7 	"/>
	<polygon class="st3" points="418.8,98.7 411.5,106.8 410.8,109.7 415.8,134.2 414.7,138 409.9,148.7 409.7,149.5 410.6,153 
		411.8,153.8 424,153.7 425.1,153.1 431.6,139 431.9,136.8 429,118.9 431.7,106.8 429.6,96.4 428.3,95.2 	"/>
	<polygon class="st1" points="256.6,119.6 255.6,130.2 256,131.1 261.9,137.1 262.9,137.5 280.4,135.9 305.1,140.6 305.8,140.5 
		316.7,136.2 317.4,134.7 311.5,118.1 311.3,117.8 294.2,96.1 293.1,95.6 283.5,96.6 282.9,96.9 257,118.8 	"/>
	<polygon class="st1" points="397.1,186.2 403,193.6 403.8,194.1 411.9,196.3 412.8,196.3 424.4,190 445.2,185.8 445.6,185.5 
		450.8,179.4 450.3,178.2 435.7,169 435.4,168.8 409.4,159.4 408.3,159.4 402.1,162.9 401.8,163.3 396.9,185.6 	"/>
	<path class="st3" d="M329.1,112.3l0,1l1.8,3.5l1,0.6l37.6,2.6l1.5-1.4l-1.1-18.7l-8.9-20.9l-1.6-0.6c-4.7,1.9-9.3,3.9-14,5.8
		c-0.2,0.3-0.5,0.5-0.7,0.8c-7.5,4.4-14.9,8.8-22.4,13.2c-0.1,0.5-0.3,1.1-0.4,1.6c0.1,0.5,0.1,1.1,0.2,1.6
		C324.4,105.1,326.7,108.7,329.1,112.3z"/>
	<path class="st3" d="M200.1,137.2c3.4,0.9,6.9,1.9,10.3,2.8c3.4-1.7,6.8-3.5,10.1-5.2l1.2-0.3l10.7-10l0.4-0.8l2.4-13.6l-0.9-1.6
		l-17.9-7.1l-6.3-8.1l-1.4-0.5l-4.2,1.1l-1,1l-10.1,37.4l0.6,1.6C196.1,135,198.1,136.1,200.1,137.2z"/>
	<polygon class="st1" points="102.1,148.6 90.2,156.7 89.9,157.7 99.8,171 105.1,184 106,190.9 106.4,191.8 108.9,193.7 
		109.8,193.8 122.6,190.5 123,190.1 129.1,171.8 128.7,170.7 103.1,148.7 	"/>
	<polygon class="st1" points="349.5,129.4 348.3,138.7 348.6,139.2 359.3,140.2 367.9,143.2 371.6,145.7 372.2,145.9 374.2,145.5 
		374.7,145.1 378.5,137.5 378.5,137.1 372.3,126.4 371.6,126.1 349.9,129 	"/>
	<polygon class="st1" points="103.3,81.3 103.7,95 104.5,96.2 125.6,104.9 126.7,104.7 137.2,96.1 137.6,94.9 134.3,84.4 
		132.4,83.3 104.7,79.8 	"/>
	<polygon class="st1" points="444.5,334.1 434.9,336.8 434.1,337.8 432.9,359.9 433.3,360.9 442,369.6 443,369.8 449.6,364.7 
		450,362.6 445.9,335.1 	"/>
	<polygon class="st1" points="95.5,225 103.9,230.9 105.2,230.8 124.6,216 125.2,214.9 127.1,201.7 126.6,200.8 118.1,199 
		116.1,200.2 95.5,223.2 	"/>
	<polygon class="st2" points="215.7,82.3 231.6,99.6 233.7,100.1 258.5,83.4 258.6,81.4 251.9,70 249.2,68 225.3,57 223.5,57.6 
		215.4,81 	"/>
	<polygon class="st1" points="169.9,50.6 159.7,50 159.1,50.8 158,55.5 158.1,56.4 163.3,60 164.4,60.1 170.4,51.5 	"/>
	<polygon class="st1" points="247.3,121.8 235.4,129.6 235.3,131 237.9,137.2 238.9,138.1 247.7,137.9 249,137 248.6,122.4 	"/>
	<polygon class="st1" points="421.2,204.2 442.1,212.8 444.6,211.9 453.3,204.9 454.2,203.2 448.1,193.3 445.8,192.4 421.4,202.4 	
		"/>
	<path class="st1" d="M245.6,102.9c-0.1,0.4-0.1,0.8-0.2,1.2c0.8,2.5,1.6,4.9,2.4,7.4l0.7,0.5l3.9,0.5l0.8-0.5
		c2.5-2.2,5.1-4.5,7.6-6.7c0.1-0.2,0.1-0.5,0.2-0.7c-0.4-1.1-0.8-2.3-1.2-3.4c-1.1-0.9-2.3-1.9-3.4-2.8c-1-0.7-2-1.5-3-2.2
		c-0.1,0-0.3,0-0.4,0c-0.1,0-0.3,0-0.4,0C250.3,98.4,248,100.7,245.6,102.9z"/>
	<path class="st1" d="M386.2,211.5c0.7-0.6,1.4-1.1,2.1-1.7c4.3-1.3,8.6-2.6,12.9-4l0.9,0.6l0.7,6.4l-1,2c-4,6.9-8.1,13.8-12.1,20.8
		c-0.4,0.4-0.9,0.8-1.3,1.2c-2,0.5-3.9,1-5.9,1.6c-1.6-0.9-3.2-1.9-4.8-2.8c-1.3-0.9-2.5-1.9-3.8-2.8c0-0.2,0-0.5,0-0.7s0-0.5,0-0.7
		C378,224.7,382.1,218.1,386.2,211.5z"/>
	<path class="st1" d="M328.6,124.5c-0.3,0.2-0.6,0.5-1,0.7c-1.1,2.4-2.2,4.7-3.3,7.1l0.2,0.8l2.5,3.1l1,0.2
		c3.4,0.1,6.8,0.2,10.1,0.3c0.2-0.1,0.4-0.3,0.7-0.4c0.5-1.1,0.9-2.2,1.4-3.3c-0.2-1.5-0.4-2.9-0.6-4.4c-0.2-1.2-0.5-2.5-0.7-3.7
		c-0.1-0.1-0.2-0.2-0.3-0.3s-0.2-0.2-0.3-0.3C335.1,124.4,331.8,124.4,328.6,124.5z"/>
</g>
</svg>
