<?xml version="1.0" encoding="utf-8"?>
<!-- Generator: Adobe Illustrator 28.2.0, SVG Export Plug-In . SVG Version: 6.00 Build 0)  -->
<svg version="1.1" id="LOGO_COLOR_DARK-HORIZONTAL" xmlns="http://www.w3.org/2000/svg" xmlns:xlink="http://www.w3.org/1999/xlink"
	 x="0px" y="0px" viewBox="0 0 2731 855.1" style="enable-background:new 0 0 2731 855.1;" xml:space="preserve">
<style type="text/css">
	.st0{fill:#CE2327;}
	.st1{fill:#FFC30C;}
</style>
<g id="logo_long">
	<g>
		<path d="M1174.5,355.2c0,34.1-27.8,61.6-114.1,61.6S946,385.7,946,343.9v-3.6h49.8v2.5c0,21.2,15.7,36.8,64.6,36.8
			c53.1,0,64.4-11.3,64.4-24.5c0-49.8-177.4,7.4-177.4-79.8c0-31.9,26.4-58.3,112.8-58.3s113,31.1,113,70.1v2.2h-49.8v-2.2
			c0-17.3-15.7-33-63.3-33c-51.7,0-63,11.3-63,23.4C997.2,321.9,1174.5,266,1174.5,355.2L1174.5,355.2z M1080.5,202.3H1040
			l-52.8-49.8h46.8l26.4,27l26.1-27h46.8L1080.5,202.3L1080.5,202.3z"/>
		<path d="M1195.4,466V273.5h43.4l-6.6,38h4.7c8.5-25.6,31.1-41.5,70.4-41.5c47.8,0,78.1,30.2,78.1,73.4c0,43.2-30.2,73.4-78.1,73.4
			c-39.3,0-61.9-16-70.4-41.2h-4.7c3.6,16,6.6,31.9,6.6,50.3V466L1195.4,466L1195.4,466z M1342.2,343.3c0-21.7-17.6-39-51.4-39
			s-51.4,17.3-51.4,39c0,21.7,17.3,39.3,51.4,39.3S1342.2,365.1,1342.2,343.3L1342.2,343.3z"/>
		<path d="M1404.7,374.4c0-23.9,17.9-41.8,64.4-41.8c35.5,0,53.9,8,70.7,16.8v-10.2c0-20.9-15.7-36.3-48.9-36.3
			c-30.5,0-43.4,11.5-47,23.1h-43.2c3.6-30.2,30.2-56.1,90.8-56.1s90.8,29.2,90.8,71v29.7c0,7.4,3.3,10.5,9.9,10.5
			c2.5,0,4.9-0.3,7.7-1.1v33.8c-6.3,1.9-12.1,3-19.2,3c-22.8,0-34.1-11.5-34.1-27.2v-1.1h-4.7v0.8c0,12.7-22,27.5-72.6,27.5
			C1422.6,416.8,1404.7,398.9,1404.7,374.4L1404.7,374.4z M1539.7,376.1v-7.7c-14.8-5.8-30.8-10.7-54.5-10.7
			c-30.2,0-36.6,6.6-36.6,14.8s6.3,14.8,36.6,14.8C1509.2,387.3,1525.9,382.4,1539.7,376.1L1539.7,376.1z"/>
		<path d="M1616.5,413.2V273.5h43.4l-6.6,42.1h4.7c8-28.6,30.2-45.6,66.8-45.6c47.3,0,76.2,28.9,76.2,77.6v65.7h-43.2v-55.8
			c0-32.7-18.2-50.9-48.9-50.9s-48.9,18.2-48.9,50.9v55.8L1616.5,413.2L1616.5,413.2z"/>
		<path d="M2010.4,356h-149.1c5.5,17.6,23.4,29.4,54.5,29.4s44.3-10.5,50.6-17.6h41.8c-7.1,20.1-32.4,49-93.2,49s-95.4-33-95.4-73.4
			s33-73.4,96-73.4c63,0,95.7,33,95.7,74C2011.2,348,2010.9,351.9,2010.4,356L2010.4,356z M1932.3,254.5h-33.8l-47.8-47h41.5
			l23.4,23.9l23.1-23.9h41.5L1932.3,254.5L1932.3,254.5z M1861,331.5h108.6c-5.2-17.9-22.8-30-54.2-30S1866.2,313.6,1861,331.5
			L1861,331.5z"/>
		<path d="M2118.3,377.4h49.2v35.8h-148.8v-35.8h56.1V271.3c0-12.1-4.4-16.5-18.1-16.5c-7.1,0-12.1,1.4-18.1,4.4v-35.7
			c10.2-5,21.4-6.3,33.6-6.3c34.6,0,46.2,11.3,46.2,38.2L2118.3,377.4L2118.3,377.4z"/>
		<path d="M2177.2,364.5v-2.2h44v1.7c0,11.8,10.2,22,45.9,22c37.9,0,45.6-7.7,45.6-16c0-31.6-134.2,7.4-134.2-55.8
			c0-23.4,20.6-44.3,88.6-44.3c62.7,0,86.9,24.5,88.3,52.8h-44c-0.8-11.8-11-22-44.3-22c-36.9,0-44.6,8-44.6,16
			c0,30,134.2-9.1,134.2,55.3c0,24.8-20.1,44.8-89.7,44.8S2177.2,393.7,2177.2,364.5z"/>
		<path d="M2547.5,413.2h-56.9l-70.4-69v69h-43.4V220.7h43.4v116.6l68.8-63.8h55.8l-75.6,66.8L2547.5,413.2L2547.5,413.2z"/>
		<path d="M2730.1,356h-149.1c5.5,17.6,23.4,29.4,54.5,29.4s44.3-10.5,50.6-17.6h41.8c-7.1,20.1-32.4,49-93.2,49s-95.4-33-95.4-73.4
			s33-73.4,96-73.4s95.7,33,95.7,74C2731,348,2730.7,351.9,2730.1,356L2730.1,356z M2580.8,331.5h108.6c-5.2-17.9-22.8-30-54.2-30
			S2586,313.6,2580.8,331.5L2580.8,331.5z M2684.8,207.5l-37.7,47h-38.5l26.1-47H2684.8z"/>
		<path d="M946,629.8v-3.6h49.8v2.5c0,21.2,15.7,36.8,64.6,36.8c53.1,0,64.4-11.3,64.4-24.5c0-49.8-177.4,7.4-177.4-79.8
			c0-31.9,26.4-58.3,112.8-58.3s113,31.1,113,70.1v2.2h-49.8v-2.2c0-17.3-15.7-33-63.3-33c-51.7,0-63,11.3-63,23.4
			c0,44.3,177.4-11.5,177.4,77.6c0,34.1-27.8,61.6-114.1,61.6S946,671.5,946,629.8L946,629.8z"/>
		<path d="M1280.4,663.3h49.2V699h-148.8v-35.8h56.1V557.1c0-12.1-4.4-16.5-18.2-16.5c-7.2,0-12.1,1.4-18.2,4.4v-35.8
			c10.2-5,21.4-6.3,33.6-6.3c34.7,0,46.2,11.3,46.2,38.2L1280.4,663.3L1280.4,663.3z"/>
		<path d="M1333.5,626.7v-67.4h43.4v57.5c0,31.9,17.6,49.5,46.8,49.5s47-17.6,47-49.5v-57.5h43.2V699h-43.2l6.3-41.8h-4.4
			c-8,28.9-30,45.4-65.2,45.4C1361.8,702.6,1333.5,674.3,1333.5,626.7L1333.5,626.7z"/>
		<path d="M1538.2,699V559.3h43.4l-6.6,42.1h4.7c8-28.6,30.2-45.7,66.8-45.7c47.3,0,76.2,28.9,76.2,77.6v65.7h-43.2v-55.8
			c0-32.7-18.2-50.9-48.9-50.9s-48.9,18.2-48.9,50.9v55.8L1538.2,699L1538.2,699z"/>
		<path d="M1739.2,629.2c0-40.4,33-73.4,94.9-73.4c55.6,0,90.2,26.7,94.6,63h-43.4c-3.3-14.8-19.5-28.6-51.2-28.6
			c-33.8,0-51.7,17.9-51.7,39s17.9,39.3,51.7,39.3c31.6,0,47.8-14,51.2-28.6h43.4c-4.4,36.3-39.1,62.7-94.6,62.7
			C1772.2,702.6,1739.2,669.6,1739.2,629.2L1739.2,629.2z"/>
		<path d="M2131.9,641.8h-149.1c5.5,17.6,23.4,29.4,54.5,29.4s44.3-10.5,50.6-17.6h41.8c-7.1,20.1-32.4,49-93.2,49
			s-95.4-33-95.4-73.4s33-73.4,96-73.4s95.7,33,95.7,74C2132.7,633.9,2132.4,637.7,2131.9,641.8z M1982.6,617.4h108.6
			c-5.2-17.9-22.8-30-54.2-30S1987.8,599.5,1982.6,617.4L1982.6,617.4z"/>
	</g>
	<g id="symbol_solo">
		<polygon id="spiral" class="st0" points="662.2,263.2 547.9,177.9 438.1,126 428.9,127.1 305.6,172.9 199.4,205 193.7,209.2 
			151.4,302.2 94.2,400.2 97.7,414.6 154.4,440.1 173.1,434.2 270.5,270.7 274.4,267.2 419.7,220.3 427.3,221.1 501.9,259.9 
			581.5,309.1 587,319.5 601.7,385 608.5,463.6 607.2,471.3 545.5,574.4 543,576.4 485.7,597.8 407.9,611.8 399.5,612 352.8,581.7 
			302.7,534.9 300.3,529.9 293.8,474.8 294.1,430.2 296.3,424.7 337.9,370.4 344,367.1 416.7,345.5 426.9,347.4 489.8,377.8 
			500.9,417 502.9,445.5 482.6,491.4 432.1,509.8 404.2,482.9 418.1,451.8 459.4,438.5 464.8,429.4 446.3,386.8 436.5,385.5 
			347.4,415.6 344.6,420.1 326.7,512.1 328.5,516.5 410.8,587.1 415.8,588.4 525.8,562.2 529.3,559.7 584.7,469 585.4,465 
			574.1,388.5 557.9,338.5 553.5,326.6 429.5,260.5 425.2,260 305.2,285.8 297.3,291.8 223.8,396.2 221.8,406.4 217.1,505.6 
			223.9,578.3 227.8,588.6 300.2,638.1 367.4,695 380,699.4 492.6,686.9 596.4,656.1 600.1,653.5 646.7,565.5 700,486.5 
			700.7,482.8 691.1,438.1 683,336 664.8,267.1 		"/>
		<g id="rays">
			<polygon class="st1" points="657.1,211.5 661.2,134.1 654.2,48.5 646.5,43.4 580.4,62.8 490.9,107.9 490.4,118.6 557.9,155.4 
				647.3,216.4 			"/>
			<polygon class="st1" points="217.4,169.8 221.6,173.5 319.3,142.2 395.8,117.8 397.4,107.5 325.8,52.6 281.7,0 272.7,3.1 
				237.8,94.7 			"/>
			<polygon class="st1" points="725.4,470.8 734.3,474 797.3,425.8 852.4,364.7 850.7,355.1 774.3,325.4 709,283.8 700.7,289.5 
				716.8,413.4 			"/>
			<polygon class="st1" points="639.9,652.5 645.5,661.5 723.9,665.4 791,653.6 794.7,644.1 757,586.9 723.3,518.6 712.6,517.5 
				669.7,583.7 			"/>
			<polygon class="st1" points="576.4,794.7 617.3,695.9 609.8,687.6 504.6,716.8 406.6,726.8 403.1,737.8 506.8,823.8 529,855.1 
				539.6,854.6 			"/>
			<polygon class="st1" points="289.7,669.6 212.7,634.7 202.4,641.6 203,723.1 198.1,794.5 205.8,800.2 243.1,789.4 360.6,738.5 
				363.2,727.3 			"/>
			<polygon class="st1" points="167.5,195.4 159.8,186.7 89.6,200 4.5,208.5 0,217.5 22.8,303.5 70.3,380.8 81.2,381 126.8,292.5 
							"/>
			<path class="st1" d="M179.4,470.5l-5.4-5.1c-5.1-0.3-10.1,0.7-14.9,1.7c-4.1,0.8-8,1.6-11.1,1.4l-4,1.1l-21.7,14.1l-1.6,1.5
				l-48.3,59.8l0.8,8.7l60.1,43.2l51.6,21.4l9.1-6.9l-8.3-79.1L179.4,470.5L179.4,470.5z"/>
		</g>
	</g>
</g>
</svg>
