<?xml version="1.0" encoding="utf-8"?>
<!-- Generator: Adobe Illustrator 28.2.0, SVG Export Plug-In . SVG Version: 6.00 Build 0)  -->
<svg version="1.1" id="Layer_1" xmlns="http://www.w3.org/2000/svg" xmlns:xlink="http://www.w3.org/1999/xlink" x="0px" y="0px"
	 viewBox="0 0 383.2 384" style="enable-background:new 0 0 383.2 384;" xml:space="preserve">
<style type="text/css">
	.st0{fill:#FFC30C;}
	.st1{fill:#FFE7A4;}
	.st2{fill:#DBA305;}
</style>
<polygon class="st0" points="75.4,323 64.6,299.5 63.9,297.4 61.1,276.2 59.6,274.8 50.3,271.6 49,273 44.6,300.4 50,328.2 
	53.2,329.5 74.4,324.7 "/>
<path class="st0" d="M230.1,310.5l37.6,3.5l0.9-0.8c-0.9-7.9-2.3-20.8-2.1-21.9c-0.3-0.3-0.6-0.6-0.9-0.8c-4.8-0.9-9.6-1.8-14.4-2.7
	c-0.5,0.1-1,0.1-1.4,0.2c-6.8,7-13.6,14.1-20.3,21.1L230.1,310.5z"/>
<path class="st1" d="M351.6,238.4c-1.1,2.6-2.3,5.1-3.4,7.7c0,0.9,0,1.8,0,2.6c10.6,16.2,21.1,32.3,31.7,48.5l1.3,1h13l1.5-1.7
	v-18.3l-0.5-1.2c-13.9-13.1-27.7-26.2-41.6-39.3C353,238,352.3,238.2,351.6,238.4z"/>
<polygon class="st0" points="371.6,175.9 361.1,198.5 361.9,199.8 386.6,197.8 387.2,197.5 391.9,191.3 392.1,190.7 392.1,161 
	390.8,160.3 382.2,166.6 "/>
<polygon class="st0" points="352.1,289.9 357.5,295.4 357.9,295.5 363.6,296 364.2,295.6 366.5,289.4 366.5,288.8 362,283.8 
	361.4,283.6 355.3,285.6 352,289.2 "/>
<polygon class="st0" points="361.6,207.7 359.6,228.6 360,229.6 368.9,242.5 370.9,243.1 387.9,237.2 389.1,236 391.8,217.8 
	391.2,216.1 376.4,206.9 362.8,206 "/>
<path class="st1" d="M342.3-11.7l-21.1,2.2l-0.8,0.8l-3.3,25.3l0.2,0.6c0.8,4.4,1.5,8.8,2.3,13.3c1.4,2.6,2.8,5.2,4.2,7.8
	c0.6-0.2,1.1-0.4,1.7-0.6c2.2-6.6,4.5-13.2,6.7-19.8c0.2-0.5,0.5-1.1,0.7-1.6c4.7-3.3,9.3-6.6,14-9.9c0.1-0.3,0.3-0.6,0.4-0.9
	C345.7-0.3,344-6,342.3-11.7z"/>
<polygon class="st2" points="4.8,320.1 6.7,318.5 7,317.6 4,299.9 9.7,281.5 9.3,280.5 -9.1,267.7 -10.4,268.4 -12.4,296.1 
	-8.5,316.4 -7.8,317.1 4,320.3 "/>
<polygon class="st2" points="17.1,153.6 24.6,143.4 24.8,142.5 19.8,116.4 18.7,114.5 8.9,108.8 6.7,108.4 -8.9,128.6 -9,129.9 
	-6.6,134.6 -5.2,135.5 0.1,139.3 15.4,153.7 "/>
<polygon class="st2" points="278.3,95.6 272,109.3 272,110.5 284.3,139.6 286,141.6 298.9,145.8 301.5,145.7 314.7,118.3 
	314.5,116.8 310.6,111.9 308.6,111.3 301.6,108.1 280.1,95 "/>
<polygon class="st1" points="28.9,344.6 37.6,335.4 38.4,332.1 32.5,304.3 33.7,300.1 39.5,288 39.7,287.1 38.7,283 37.2,282.1 
	22.6,282.3 21.3,283 13.5,298.9 13.1,301.5 16.6,321.7 13.4,335.4 15.9,347.2 17.5,348.5 "/>
<polygon class="st2" points="361.5,-10.2 355.8,-3 355.6,-2.2 357.1,5 357.7,5.7 371.1,12.7 386.8,27.7 387.3,28 397.2,30 
	398.5,29.2 401.9,14.4 402,14.1 399.7,-9.7 399.2,-10.5 391.8,-14.3 391.2,-14.4 362.2,-10.6 "/>
<path class="st2" d="M375.2,118.3l-7.3,0.6l-0.6,0.4l-3.3,4.8l-0.1,0.7l3.2,11.7l-0.2,17.4l0.1,0.4c-1.2,4.9-2.5,9.7-3.7,14.6
	c0.4,0.5,0.8,1,1.3,1.4c6.1-5,12.2-9.9,18.4-14.9l0.2-0.2l12.7-14.3l0.2-0.8l-1.8-6.4l-0.3-0.4C387.6,128.4,381.4,123.4,375.2,118.3
	z"/>
<path class="st1" d="M221,18.9l-3.3,12l0.2,1.2l5.4,8.5l1,0.7c8.4,3.6,16.7,7.1,25.1,10.7c7.5,1.1,14.9,2.2,22.4,3.3
	c0.3-0.1,0.6-0.1,1-0.2c3.3-0.6,6.7-1.2,10-1.7c0.5-0.3,1.1-0.6,1.6-0.8c0.3-0.7,0.6-1.3,0.9-2c-0.8-6.2-1.6-12.4-2.5-18.6l-0.1-0.5
	L268.1,1.7L267,0.9l-11-1.4l-0.8,0.1C243.8,6.1,232.4,12.5,221,18.9z"/>
<path class="st0" d="M142.3,179l-1,7.9l0.3,0.7l4.5,4l0.7,0.2c6,0.4,12,0.8,17.9,1.2c5.1-0.9,10.2-1.7,15.3-2.6
	c0.2-0.1,0.4-0.2,0.6-0.3c2.2-1,4.3-2.1,6.5-3.1c0.3-0.3,0.7-0.6,1-0.8c0.1-0.5,0.3-0.9,0.4-1.4c-1.2-3.5-2.4-7.1-3.6-10.6l-0.1-0.2
	l-12.9-14.9l-0.8-0.3l-7.4,1.4l-0.5,0.3C156.2,166.6,149.3,172.8,142.3,179z"/>
<polygon class="st0" points="364.7,62.7 364.3,63.6 364.5,67.2 365.1,68.1 393.7,84.4 395.3,83.8 400.8,67.2 400.8,45.9 399.8,44.8 
	385.3,43.5 384.4,43.8 "/>
<polygon class="st0" points="351.9,74.1 344.4,79.4 336.9,92.2 337.5,93.6 354.4,98.5 384.7,113.4 385.7,113.5 391,111.8 
	391.8,110.8 390.8,93.9 390.2,93.1 353.2,74 "/>
<polygon class="st2" points="179.8,58.6 175.9,61.4 171.9,68.2 172.2,69 181.2,71.6 197.2,79.5 197.7,79.5 200.6,78.6 201,78 
	200.5,69.1 200.2,68.7 180.5,58.6 "/>
<polygon class="st0" points="33.3,138.7 41,146.4 57.3,152.5 58.8,151.3 60.1,129.9 69.2,90.1 69,88.9 65.8,82.9 64.4,82.2 
	45.7,87.3 44.9,88.2 32.8,137.2 "/>
<polygon class="st0" points="244.3,67.1 233.4,65.7 216.8,70.9 216.4,72.7 228.4,90.5 245.6,127.6 246.4,128.4 252.7,131.1 
	254.1,130.9 265.9,115.4 265.9,114.2 245.6,68 "/>
<polygon class="st0" points="303.8,-4.7 295,-6.8 280.4,-4 279.8,-2.5 287.3,13.4 296.3,45.9 296.8,46.7 301.7,49.5 302.9,49.4 
	314.9,37.6 315.2,36.6 304.8,-3.8 "/>
<polygon class="st0" points="162.6,82.5 153.6,87 145.3,95.9 146.2,96.6 168.1,96.1 207.8,98.6 209,98.4 215.6,96.4 216.5,95.6 
	213.7,86.1 212.9,85.7 164.2,82.2 "/>
<polygon class="st0" points="375.5,33 367.5,25.8 358.6,19.4 358.1,19.2 346,17.9 344.9,18.6 335,43.3 335.5,44.6 352.9,53.3 
	353.8,53.3 361.6,50 375.9,37.2 376.2,36.3 375.8,33.7 "/>
<polygon class="st2" points="10.7,22.8 12.3,21 43.7,14.7 44.3,14 47.5,9.8 47.4,8.9 39.3,-3.8 37.8,-5.4 10.9,-9.7 -2.4,-6.5 
	-3.1,-5.7 -6.6,9.7 -7.5,36.5 -7.5,45.4 -6.4,46.5 -3.1,46.4 -2.3,45.9 "/>
<polygon class="st0" points="5.1,93.9 5.4,93.3 8.6,65.5 8.3,64.5 0.8,57.6 -0.9,58 -7.7,62.7 -8.6,64.5 -7.9,101.4 -7.2,102.4 
	-3.9,103.7 -2.6,103.4 "/>
<polygon class="st2" points="248.2,180.4 248.9,180.4 279.1,171.6 280,170.7 283.9,160 282.7,158.3 274.9,153.4 272.6,153.2 
	234.7,170.2 234,171.3 234,175.4 234.9,176.5 "/>
<polygon class="st0" points="6.9,344.8 7.1,344.4 6.5,327.5 6,327.1 -2.2,324.8 -3.8,325.5 -9.8,329.8 -10.4,331.1 -4.7,352.3 
	-3.9,352.7 -0.5,352.6 0.7,352.2 "/>
<polygon class="st0" points="353.2,187.7 353.6,186.8 358.4,144.8 358,143.2 348.6,132.5 346.3,133 337.5,140 336.3,142.8 
	336.3,198.8 337.2,200.3 341.4,202.4 343.1,201.9 "/>
<path class="st0" d="M167.6,49.2c-4.9-5.7-9.8-11.4-14.8-17.2c-0.7-0.3-1.4-0.6-2.1-1c-0.7,0.1-1.5,0.2-2.2,0.3
	c-9,4.1-17.9,8.3-26.9,12.4l-1,1.2l-3.6,19l0.7,1.7l13.1,8.4l3.2-0.5L167.4,52L167.6,49.2z"/>
<polygon class="st1" points="58.8,43.9 58.5,42.5 45.4,27.5 43.8,27.1 19.9,34 18.9,34.9 15.1,45.6 15,46.3 18.8,75.3 21,77.3 
	48.7,73.2 52.2,70 "/>
<polygon class="st0" points="301.4,204.7 302.5,205 318.4,201.4 319.4,200.5 323.8,180.5 323.5,179.4 317.3,172.5 316.8,172.2 
	294.4,163.5 292.1,164.3 284.2,185.9 285.1,189.7 "/>
<polygon class="st0" points="67.1,27.4 90.9,29.2 92.8,28.2 99.6,-1.5 98.3,-3 85.3,-6.8 82,-6.4 56.6,2 55.7,3.7 66,26.7 "/>
<polygon class="st0" points="84.7,74.9 102.7,70 103.8,69 109.8,45.4 108.6,43.7 83.2,36.5 81,36.5 72.9,37.2 71.2,38.3 60,69.3 
	61.3,71 83.9,74.9 "/>
<polygon class="st1" points="159.6,-1.6 144,-0.1 135.3,-0.2 112,-2.8 110.2,-1.6 103.4,27.3 103.8,28.8 114.7,37.7 116.8,37.8 
	131.6,24 134.5,23.2 157.1,20.1 158.3,17.6 161,0.3 "/>
<polygon class="st0" points="187.5,15 191,16.3 228.1,6.9 230.5,4.8 234.4,-2.5 230.3,-6.1 177.2,-8.3 176.1,-5.1 "/>
<polygon class="st1" points="93.6,104.7 97.2,106.1 134.3,96.7 136.7,94.6 140.6,87.2 136.5,83.7 83.4,81.5 82.3,84.7 "/>
<polygon class="st2" points="170.1,6.1 160.5,28.6 161.8,30.7 171.4,37 173.7,37.4 185.9,28.6 187,26.2 172.4,5.8 "/>
<polygon class="st2" points="327.2,157.3 317.1,146.4 315.6,146.6 309.7,150.4 308.9,151.6 310.8,160.6 311.9,161.7 326.8,158.7 "/>
<polygon class="st2" points="256.5,64.6 265.9,85.5 268.2,86 278.6,83.3 280.4,82 282.1,67.9 281.1,65.7 257.7,62.8 "/>
<path class="st1" d="M303.2,54.2l6.6-1.6l18.1,0.8l1.5,1.4c3.8,1.5,7.7,3.1,11.5,4.6c0.5,0.6,1,1.1,1.5,1.7c0.1,0.7,0.1,1.4,0.2,2.1
	c-1.5,3.5-3,7-4.4,10.6c-2.3,2.2-4.6,4.4-6.9,6.6c-4.6,5.1-9.1,10.1-13.7,15.2H315c-4.5-0.6-8.9-1.2-13.4-1.7
	c-0.9-0.4-1.7-0.8-2.6-1.1c-3.8-9.2-7.5-18.3-11.3-27.5c0.4-1.2,0.8-2.3,1.2-3.5c1-1,2.1-1.9,3.1-2.9L303.2,54.2z"/>
<polygon class="st0" points="186,43.5 188.8,38.5 204.4,25.5 207.1,26.3 217,50.4 215.8,55.4 190.2,48.5 "/>
<path class="st2" d="M159.6,200.5c1,0.2,2,0.3,3,0.5c0,9.9,0,19.8,0,29.7c-0.6,0.9-1.2,1.8-1.8,2.8c-7.3,1.3-14.5,2.6-21.8,4
	c-0.5-1.2-1-2.4-1.5-3.5c3.4-7.9,6.8-15.8,10.3-23.7C151.7,206.9,155.6,203.7,159.6,200.5z"/>
<path class="st1" d="M15,223.8l-11.6,9.9l-12.6,6.2l-3.3,3.3v12.7l2,7h1.1l4.3-1.1l1,0.4l7.9,7l6.2,2.1l0.7-0.3
	c2.5-4.6,5-9.2,7.5-13.8c0-0.3,0-0.7,0-1c-0.1-3.2-0.2-6.5-0.2-9.7c0.3-0.5,0.5-1,0.8-1.5l2.3-5.3l7-9v-1.2l-5.5-5.7l-1-0.8
	L15,223.8z"/>
<path class="st0" d="M31.2,91.1c-1.1,3.8-2.2,7.5-3.4,11.3c-0.4,0.5-0.8,1-1.2,1.4c-1.6,0.8-3.3,1.6-4.9,2.4l-11.6-5.4l-0.5-1.7
	l1.7-10.4l1-1.3l10.4-4h1.5l7,6.7C31.2,90.1,31.2,91.1,31.2,91.1z"/>
<path class="st0" d="M38.2,168.2v-3l-3.9-6c-4.2-0.2-8.4-0.4-12.6-0.6l-2.7,1.5l-6,3.3h-3l-14.4-12.9l-2.7-1.2l-3.8,1l-1.2,2.7
	l2.7,21.2l0.6,4.2l-2.4,10.8c0.7,8.9,1.4,17.8,2,26.7c-0.1,0.5-0.2,1-0.3,1.5c-0.6,1.6-1.2,3.1-1.9,4.7c0,0.5-0.1,1.1-0.1,1.6
	c1.3,1.2,2.5,2.5,3.8,3.7c0.4,0.2,0.8,0.4,1.2,0.5c0.4,0,0.9,0,1.3,0c3.4-2.1,6.7-4.2,10.1-6.3l9.6-9c3.9-1.5,7.8-3,11.7-4.5
	c0.5-0.5,1-1.1,1.5-1.6C31.2,193.7,34.7,181,38.2,168.2z"/>
<polygon class="st0" points="366.8,308.7 379.9,331 380.7,333.1 385.6,353.9 387.3,355.2 396.9,357.4 397.9,355.9 399.7,328.2 
	391.6,301 388.2,300 367.6,306.9 "/>
<path class="st1" d="M344.5,300.6l-1.3,0.6l-19,31.9l0.7,1.6l23.8,7.2l1.2-0.1l16.6-10l0.5-1.3c-4.7-10.7-11.7-27.1-12-28.3h-0.2
	l-1.1-1L344.5,300.6z"/>
<polygon class="st0" points="361.5,397.3 361.9,398.5 399.2,396.2 400.3,394.9 399.7,370 398.3,369.3 376.7,379 "/>
<polygon class="st1" points="364.1,381.7 363.6,380 321.4,373.8 320.4,374 304,389.9 304.1,391.6 314.4,398.3 315,398.5 
	351.6,398.5 352.5,398 "/>
<polygon class="st0" points="362.7,370.2 375.2,364.9 375.7,364.4 380.4,355.4 380.1,354.1 371.6,346.1 370.5,345.8 359.2,349.8 
	358.5,350.6 357.7,361.9 361.3,370 "/>
<polygon class="st0" points="282,387.8 271,376.2 263.5,367.7 262.7,367 248.8,363.3 247.2,364.2 240.3,381.2 239.1,395.9 
	240.3,397.2 261.5,397.3 262,397.2 281.6,389.9 "/>
<path class="st1" d="M184.9,393.5l13,5.1l2-1.1l1.1-6.6l-0.2-1L187.1,374l0,0c0.4-6.4,0.8-12.7,1.2-19.1c-0.9-0.8-1.8-1.6-2.7-2.4
	c-8.7,4.5-17.4,9.1-26.1,13.6l-0.3,0.6l-2.9,23.4l0.9,1.2l11.2,1.1L184.9,393.5z"/>
<polygon class="st0" points="117.6,395.8 145.2,393.7 146.2,392.7 151.4,360 151.1,359.2 146.2,350.8 144.8,350.6 112.3,372.1 
	111.8,373.3 116.4,394.9 "/>
<polygon class="st0" points="69.7,390 66.5,396.2 67,397.7 80.6,399.6 81.4,399.7 94.9,398.5 104.2,399 105.7,397.7 101.4,380.6 
	100.5,379.9 95.7,378.7 94.8,378.7 70.4,389.6 "/>
<polygon class="st0" points="38.1,372.9 52.5,384.7 53.8,384.8 65.9,377.6 75.5,367 75.8,366.1 71.8,337.8 70.5,336.9 53,338.9 
	52.3,339.2 35.1,356.5 34.8,357.5 37.7,372.3 "/>
<polygon class="st0" points="98.5,297.7 119.7,315.2 121.6,315.3 139.5,304.7 153.8,288.9 154.2,287.5 148.2,245.8 146.4,244.4 
	120.4,247.3 119.4,247.8 94,273.4 93.6,274.9 97.9,296.7 "/>
<path class="st0" d="M305.3,370.4c2.2-3,4.4-6,6.6-9c0.1-0.7,0.1-1.5,0.2-2.2c-1.7-7.4-3.3-14.7-5-22.1c-0.7-0.6-1.5-1.2-2.2-1.8
	c-2.7-1.5-5.4-3.1-8.2-4.6c-0.9-0.1-1.7-0.3-2.6-0.4c-8.1,0-16.2,0-24.3,0c-0.5,0.5-0.9,0.9-1.4,1.4c-0.5,0.7-0.9,1.3-1.4,2
	c-1.3,4.5-2.5,9-3.8,13.5c0.2,0.8,0.4,1.6,0.6,2.4c2.7,3.1,5.5,6.2,8.2,9.3c0.1,0.2,0.2,0.4,0.4,0.6l17.6,14.8l1,0.2
	C295.8,373.2,300.5,371.8,305.3,370.4z"/>
<polygon class="st1" points="30.2,382.2 20.3,361.3 19.3,360.6 -6.5,358 -7.9,359.3 -5.9,393.5 -4.8,394.6 17.6,397.6 49.8,395.3 
	50.4,393 "/>
<polygon class="st1" points="247,225.1 269.3,231 270.5,230.7 289.1,212.7 289.1,210.8 261.6,190.3 260.1,190.4 243.4,205.6 
	224.3,231.6 225.7,233.6 "/>
<path class="st1" d="M121.2,339v-0.9l-1.6-3l-0.9-0.5l-34.9-1.4l-1.4,1.2l0.6,16.5l7.8,18.2l1.4,0.5c4.4-1.8,8.7-3.7,13.1-5.5
	c0.2-0.2,0.5-0.5,0.7-0.7c7-4.1,14-8.1,21.1-12.2c0.1-0.5,0.3-0.9,0.4-1.4c0-0.5-0.1-0.9-0.1-1.4C125.4,345.2,123.3,342.1,121.2,339
	z"/>
<path class="st0" d="M146.1,327.7c-0.9,2.3-1.8,4.7-2.7,7l0.3,1.5l16.5,16.4l1.1,0.2l13.2-4l0.8-1l0.9-11.1l-1.4-1.9
	c-9.1-2.7-18.3-5.5-27.4-8.2C147,327,146.6,327.4,146.1,327.7z"/>
<polygon class="st2" points="238.1,365.6 222,348 219.9,347.5 194.7,364.5 194.6,366.5 201.4,378.1 204.2,380.1 228.4,391.3 
	230.3,390.7 238.4,366.9 "/>
<path class="st1" d="M259.5,324.7c-7.5,2.8-15,5.5-22.5,8.3c-1,1.1-2.1,2.1-3.1,3.2c-1.3,2.8-2.6,5.6-3.8,8.3l0.8,2.4l15.1,6.5
	l2.9-0.5l12.1-26.2L259.5,324.7z"/>
<path class="st1" d="M145.3,312.2c7.7-8.3,15.4-16.5,23.1-24.8c1.9-0.8,3.9-1.5,5.8-2.3c4.3-0.1,8.7-0.3,13-0.4l2.7,2.4l0.2,23.3
	l-2.2,3.5l-40.8,1.4L145.3,312.2z"/>
<path class="st0" d="M220.2,339.2c0.8-0.6,1.6-1.3,2.4-1.9c2.5-4.2,5-8.3,7.5-12.5l-0.5-0.9l-6.6-1.5l-2.4,0.7
	c-8.4,3.2-16.9,6.3-25.3,9.5c-0.5,0.4-1.1,0.8-1.6,1.2c-1.1,1.9-2.1,3.8-3.2,5.7c0.6,1.7,1.2,3.4,1.8,5.2c0.7,1.4,1.4,2.8,2.1,4.2
	c0.3,0,0.5,0,0.8,0.1c0.3,0,0.5,0,0.8,0.1C204,345.7,212.1,342.5,220.2,339.2z"/>
<path class="st0" d="M326.9,241.6c1.1-0.9,2.3-1.9,3.4-2.8c3.7-6.1,7.3-12.1,11-18.2l-0.7-1.4l-9.7-2.2l-3.6,1.1
	c-12.3,4.6-24.6,9.2-36.9,13.9c-0.8,0.6-1.6,1.1-2.3,1.7c-1.5,2.8-3.1,5.6-4.6,8.4c0.9,2.5,1.8,5,2.7,7.5c1,2,2,4.1,3,6.1
	c0.4,0,0.7,0.1,1.1,0.1s0.7,0.1,1.1,0.1C303.3,251.1,315.1,246.4,326.9,241.6z"/>
<path class="st2" d="M336.8,368.4c0.6-0.3,1.2-0.7,1.8-1c2.3-3.5,4.7-7,7-10.5l-0.1-1.3l-3.7-5.2l-1.6-0.4c-5.7-0.7-11.4-1.5-17-2.2
	c-0.4,0.2-0.8,0.3-1.2,0.5c-1,1.7-2,3.3-3,5c0,2.3,0,4.6,0.1,6.9c0.1,2,0.3,3.9,0.4,5.9c0.1,0.2,0.3,0.3,0.4,0.5s0.3,0.3,0.4,0.5
	C325.8,367.4,331.3,367.9,336.8,368.4z"/>
<polygon class="st0" points="336.6,124.5 335.2,120.2 336.1,104.3 338.1,103.2 357.3,110.4 359.4,113.8 341.7,124.8 "/>
<polygon class="st0" points="111.4,117.3 119.6,111.8 153.6,104.5 157.2,108.1 155.2,154.2 149.6,161 114.3,128.6 "/>
<path class="st1" d="M94.8,158.2l13,5.1l2-1.1l1.1-6.6l-0.2-1l-13.8-15.9l0,0c0.4-6.4,0.8-12.7,1.2-19.1c-0.9-0.8-1.8-1.6-2.7-2.4
	c-8.7,4.5-17.4,9.1-26.1,13.6l-0.3,0.6l-2.9,23.4L67,156l11.2,1.1L94.8,158.2z"/>
<polygon class="st0" points="25.3,274.7 26.3,275.5 54.6,250.9 54.7,249.2 39,229.8 37.5,230.1 26.3,251 "/>
<polygon class="st0" points="208.3,119.7 207.3,120.4 222.3,154.7 223.9,155.3 247.1,146.1 247.2,144.6 230.7,127.7 "/>
<polygon class="st1" points="85.2,187.5 76.3,179.4 66.3,172.2 65.7,172 52.3,170.6 51,171.3 40,198.9 40.5,200.4 59.9,210.1 
	60.9,210.1 69.7,206.4 85.6,192.1 86,191.1 85.6,188.2 "/>
<polygon class="st2" points="318.6,326.2 329.2,312 329.5,310.6 322.4,274 320.9,271.4 307.1,263.4 304.1,262.9 282.2,291.2 
	282.1,293 285.3,299.6 287.4,300.8 294.8,306.2 316.3,326.4 "/>
<polygon class="st1" points="202.6,273.8 194.9,273.2 170.7,261.2 170.2,257.5 194.2,232.3 201,231.1 206.5,266.1 "/>
<polygon class="st2" points="201.4,289.8 198,303.7 199.9,321.1 201.5,320.7 221.3,296.5 261.1,255.7 262.1,254.2 266,245.1 
	266,243.5 253.1,237.5 251.9,238.1 202.7,287.7 "/>
<path class="st0" d="M57.4,260.5l8.2,9.4l1.1,0.5l10.1,0.2l1.1-0.5c7.6-5,15.1-10.1,22.7-15.1c5-5.6,10-11.3,15.1-16.9
	c0.1-0.3,0.2-0.6,0.3-0.9c1.3-3.1,2.7-6.2,4-9.3c0.1-0.6,0.1-1.2,0.2-1.8c-0.4-0.6-0.8-1.2-1.1-1.8c-5.6-2.7-11.3-5.4-16.9-8.1
	l-0.5-0.1l-32.9-4.2l-1.3,0.5l-7.2,8.3l-0.3,0.7C59.2,234.4,58.3,247.4,57.4,260.5z"/>
<polygon class="st0" points="101.4,192.9 122.6,212 124.2,211.5 130.4,183.9 130.3,183.1 125,175.8 124.5,175.4 92,165.5 
	90.8,166.6 94.8,178.1 "/>
<polygon class="st1" points="205.2,188.3 204.3,190.5 176.3,206 175.9,206.9 174.2,211.9 174.5,212.7 186.2,222.3 188.1,223.4 
	215,219.3 226.6,212.2 227.1,211.2 225.7,195.5 218.4,169.6 215.7,161.2 214.3,160.5 211.2,161.6 210.6,162.3 "/>
<polygon class="st1" points="189.2,111.1 180.1,110.9 166.4,116.7 166.1,118.2 176.7,132.2 192.2,162.2 193,162.8 198.3,164.6 
	199.5,164.3 208.8,150.2 208.8,149.1 190.3,111.8 "/>
</svg>
