<?xml version="1.0" encoding="utf-8"?>
<!-- Generator: Adobe Illustrator 28.2.0, SVG Export Plug-In . SVG Version: 6.00 Build 0)  -->
<svg version="1.1" id="Layer_1" xmlns="http://www.w3.org/2000/svg" xmlns:xlink="http://www.w3.org/1999/xlink" x="0px" y="0px"
	 viewBox="0 0 890 892" style="enable-background:new 0 0 890 892;" xml:space="preserve">
<style type="text/css">
	.st0{fill:#2159AA;}
	.st1{fill:#FFC30C;}
	.st2{fill:#FFE7A4;}
	.st3{fill:#DBA305;}
</style>
<g id="Layer_1_00000034806372962468178780000014395801702354895529_">
</g>
<g id="Layer_2_00000053544102619309146720000017925772309701997493_">
</g>
<g id="Layer_3">
</g>
<g id="Layer_4">
</g>
<g id="Layer_5">
</g>
<g id="Layer_6">
</g>
<g id="Layer_7">
	<path id="frame_00000168822986121733099230000008832508050937921180_" class="st0" d="M586.9,888.1h291.3L890,879l-4.5-429.2
		l-4.7-436.7L871.6,0l-178,4.5l-477.3,6.9L23.6,7.7l-11,14.1l-3,109.1L4.9,781l9,108.4l4.6,4.2L586.9,888.1z M814,815.7l-13.4,9.6
		l-284-6.5L87,825.3l-10.1-14.7L69.6,570L77,94.9l8-12.7l121.7,3.5h431.9l174.1-6.1l6.1,12.2L806,472.6L814,815.7z"/>
	<polygon class="st1" points="143.7,771.5 125.1,731.1 124,727.4 119.2,691 116.5,688.6 100.5,683.1 98.4,685.5 90.8,732.6 
		100,780.5 105.6,782.7 142,774.5 	"/>
	<path class="st1" d="M788.3,560.2l-1.6-82.8l-1.9-1.8c-16.9,4-44.7,10.2-47.3,9.9c-0.5,0.7-1.1,1.4-1.6,2.1
		c-0.8,10.7-1.5,21.3-2.3,32c0.3,1,0.6,2.1,0.8,3.1c17.1,13,34.1,26.1,51.2,39.1L788.3,560.2z"/>
	<path class="st2" d="M713,531.2c-1.9,4.4-3.9,8.8-5.8,13.3c0,1.5,0,3,0,4.5c18.1,27.8,36.3,55.6,54.4,83.4l2.3,1.7h22.3l2.5-2.8
		v-31.5l-0.8-2.1c-23.8-22.5-47.7-45.1-71.5-67.6C715.3,530.5,714.1,530.9,713,531.2z"/>
	<path class="st0" d="M447.4,540.8c-9.1,4-18.2,8-27.3,12c-2.1,2.3-4.2,4.6-6.3,6.9c-11.2,67.4-22.4,134.8-33.6,202.2l1.1,5.9
		l33.8,31l7.8-0.8l43.8-47.7l1.7-4.3c-4.8-67.3-9.5-134.7-14.3-202C451.8,542.9,449.6,541.8,447.4,540.8z"/>
	<polygon class="st1" points="747.3,423.8 729.3,462.7 730.6,464.8 773.1,461.5 774.1,460.9 782.2,450.1 782.6,449.2 782.6,398.2 
		780.4,396.9 765.6,407.8 	"/>
	<path class="st1" d="M654.9,504.4c3.6-16.6,7.1-33.2,10.7-49.8c-0.4-0.9-0.8-1.8-1.2-2.7c-0.7-1.4-1.4-2.8-2.2-4.1
		c-0.9,0-1.8,0-2.7-0.1c-20,6.7-40,13.4-60.1,20.2c-0.6,0.4-1.2,0.8-1.8,1.2c-1.7,8.7-3.5,17.5-5.2,26.2l0.1,1.3
		c12.4,14.3,24.8,28.6,37.1,42.9c1.4-0.1,2.7-0.2,4.1-0.3c1-0.3,2-0.5,3-0.8C642.8,527,648.9,515.7,654.9,504.4z"/>
	<path class="st2" d="M255.5,520.7c3.5-5.5,7-11,10.5-16.5c0-0.4-0.1-0.8-0.1-1.1c-0.5-1.8-1-3.6-1.6-5.4c-0.3-0.1-0.6-0.1-0.9-0.2
		c-8.2,1.8-16.4,3.5-24.6,5.3c-0.2,0.1-0.4,0.2-0.5,0.3l-4.2,5.9l-0.1,0.5l2.3,26l1.3,0.5l8-6.3L255.5,520.7z"/>
	<path class="st3" d="M204.3,604c1.4-4.2,2.8-8.5,4.1-12.7c-0.1-0.2-0.2-0.5-0.2-0.7c-0.7-1.1-1.3-2.2-2-3.3c-0.2,0-0.4,0-0.6,0
		c-5.1,2.6-10.3,5.1-15.4,7.7c-0.1,0.1-0.2,0.2-0.3,0.3l-1.8,4.6v0.4l6,16.9l1,0.1l4.2-5.5L204.3,604z"/>
	<path class="st1" d="M684.5,327.3c7.2,1.9,14.4,3.8,21.6,5.7c0.4-0.2,0.8-0.3,1.2-0.5c1.8-1.2,3.6-2.4,5.3-3.5c0-0.3-0.1-0.7-0.1-1
		c-4.7-8.3-9.5-16.6-14.2-24.9c-0.2-0.2-0.4-0.3-0.5-0.5l-7.9-2.6h-0.6l-27.5,11.5l-0.1,1.6l9.6,6.5L684.5,327.3z"/>
	<path class="st2" d="M663.8,395.9c7.8,15.1,15.6,30.1,23.4,45.2c0.9,0.4,1.8,0.9,2.7,1.3c4.7,1.2,9.4,2.4,14.2,3.5
		c0.5-0.6,1-1.1,1.5-1.7c6.7-20.7,13.5-41.5,20.2-62.2c0-0.6,0-1.1,0-1.7l-7.8-17.2l-0.9-1l-61.5-28.8l-2.9,2.3l3.7,26.2
		L663.8,395.9z"/>
	<polygon class="st1" points="309.7,384.4 311.5,383.2 290.2,322.5 287.6,321.3 246.6,334 246.1,336.7 272.3,367.8 	"/>
	<polygon class="st1" points="713.9,619.8 723.1,629.1 723.8,629.3 733.5,630.3 734.6,629.5 738.6,619 738.5,617.9 730.8,609.3 
		729.8,609 719.4,612.4 713.5,618.6 	"/>
	<path class="st2" d="M697,101.1l-36.4,3.9l-1.3,1.4l-5.6,43.5l0.4,1.1c1.3,7.6,2.6,15.2,3.9,22.8c2.4,4.5,4.8,9,7.3,13.4
		c1-0.4,1.9-0.7,2.9-1.1c3.8-11.4,7.7-22.7,11.5-34.1c0.4-0.9,0.8-1.8,1.3-2.7c8-5.7,16-11.4,24.1-17c0.2-0.5,0.4-1.1,0.7-1.6
		C702.7,120.8,699.9,110.9,697,101.1z"/>
	<polygon class="st2" points="723.6,778.4 740.5,742.6 742.3,741.4 786.6,736.9 789.1,739.1 785.6,797.9 783.7,799.9 745.2,804.9 
		689.7,801 688.8,797 	"/>
	<polygon class="st3" points="116.6,671.7 119.8,669 120.3,667.5 115.1,636.9 124.9,605.4 124.4,603.6 92.7,581.6 90.4,582.8 
		87,630.5 93.8,665.4 94.9,666.6 115.3,672 	"/>
	<polygon class="st1" points="137.7,385.4 150.7,367.9 151.1,366.2 142.3,321.4 140.5,318.2 123.6,308.3 119.9,307.7 93,342.5 
		92.9,344.6 96.9,352.7 99.5,354.2 108.5,360.8 134.9,385.7 	"/>
	<path class="st3" d="M317.4,294.1c4.7-7.4,9.5-14.8,14.2-22.2c0-1.1,0-2.2,0-3.3c-4.4-5.6-8.9-11.3-13.3-16.9
		c-1.4-0.6-2.7-1.3-4.1-1.9c-1.4-0.1-2.7-0.2-4.1-0.3c-22.1,5.9-44.2,11.8-66.3,17.7c-0.8,1-1.6,1.9-2.5,2.9
		c-2.9,14-5.7,28.1-8.6,42.1c0.4,1.2,0.7,2.4,1.1,3.5c0.9,1,1.8,2,2.7,3c11.5-2.5,23.1-5,34.6-7.5l10.3-4.5l34.8-10.2L317.4,294.1z"
		/>
	<polygon class="st2" points="158,713.8 173.1,698.1 174.4,692.4 164.2,644.6 166.3,637.3 176.3,616.4 176.7,614.9 174.8,608 
		172.4,606.4 147.2,606.7 145,607.9 131.6,635.2 130.9,639.6 136.9,674.5 131.3,698 135.7,718.3 138.4,720.6 	"/>
	<polygon class="st3" points="729.9,103.7 720.2,116.1 719.8,117.6 722.4,129.8 723.4,131 746.4,143.2 773.5,168.9 774.4,169.4 
		791.4,172.8 793.5,171.5 799.5,146.1 799.5,145.5 795.7,104.6 794.7,103.2 782,96.7 780.9,96.5 731.1,103 	"/>
	<polygon class="st1" points="285.3,388 268.3,389.8 266.9,390.6 259.4,401.9 259.1,403.6 267.1,430.6 267.5,471.1 267.8,472.2 
		278,488 280.7,488.6 304.9,474.1 305.4,473.7 334.2,439.8 334.6,437.9 330,423.2 329.4,422.2 286.7,388.4 	"/>
	<path class="st3" d="M753.5,324.8l-12.6,1.1l-1.1,0.6l-5.7,8.2l-0.2,1.2l5.5,20.2l-0.3,30l0.2,0.8c-2.1,8.4-4.3,16.7-6.4,25.1
		c0.7,0.8,1.5,1.6,2.2,2.5c10.5-8.5,21.1-17,31.6-25.6l0.4-0.3L789,364l0.3-1.4l-3.2-11l-0.5-0.7
		C774.9,342.1,764.2,333.4,753.5,324.8z"/>
	<path class="st2" d="M488.4,153.8l-5.8,20.7l0.3,2.1l9.3,14.7l1.7,1.2c14.4,6.1,28.8,12.3,43.2,18.4c12.8,1.9,25.6,3.8,38.5,5.8
		c0.5-0.1,1.1-0.2,1.6-0.4c5.7-1,11.4-2,17.2-3c0.9-0.5,1.9-1,2.8-1.5c0.5-1.1,1-2.2,1.5-3.4c-1.4-10.6-2.8-21.3-4.2-31.9l-0.2-0.8
		l-25-51.3l-1.9-1.4l-18.7-2.5l-1.4,0.3C527.6,131.7,508,142.8,488.4,153.8z"/>
	<polygon class="st1" points="735.4,229.1 734.8,230.6 735.2,236.9 736.1,238.4 785.3,266.4 788.1,265.4 797.5,236.8 797.6,200.2 
		795.8,198.3 770.9,196 769.4,196.5 	"/>
	<path class="st2" d="M311.8,714.4v-1.6l-2.8-5.5l-1.6-0.9l-62.6-2.6l-2.5,2.2l1.1,29.7l14,32.7l2.6,0.9c7.8-3.3,15.7-6.6,23.5-9.8
		c0.4-0.4,0.8-0.8,1.2-1.2c12.6-7.3,25.2-14.6,37.8-21.9c0.3-0.9,0.5-1.7,0.8-2.5c-0.1-0.8-0.2-1.7-0.2-2.5
		C319.3,725.6,315.5,720,311.8,714.4z"/>
	<polygon class="st1" points="713.4,248.7 700.6,257.7 687.6,279.8 688.8,282.3 717.8,290.7 769.8,316.3 771.5,316.4 780.7,313.5 
		782,311.7 780.4,282.8 779.4,281.3 715.6,248.6 	"/>
	<polygon class="st1" points="165.6,359.9 178.9,373.1 206.9,383.4 209.5,381.5 211.7,344.6 227.4,276.1 227.1,274.1 221.5,263.8 
		219.1,262.6 186.9,271.4 185.6,272.9 164.8,357.2 	"/>
	<polygon class="st3" points="780.5,654.1 769.3,647.8 749.1,646.1 747.8,647.9 753,672.5 755.1,720.3 755.6,721.6 761.2,727.3 
		762.9,727.7 782.5,716.1 783.1,714.8 781.5,655.8 	"/>
	<polygon class="st1" points="630.8,113.2 615.6,109.6 590.5,114.5 589.4,117 602.3,144.3 617.8,200.2 618.8,201.6 627,206.5 
		629.2,206.3 649.8,185.9 650.3,184.1 632.4,114.8 	"/>
	<polygon class="st1" points="504.2,211.1 498.2,213.5 491.7,220 492.2,220.8 505.3,224.4 528.5,234.2 529.2,234.3 533.5,233.7 
		534.1,233.2 534.1,224 533.6,223.6 505.3,211.1 	"/>
	<polygon class="st1" points="754.1,178.1 740.3,165.6 724.9,154.6 724,154.3 703.4,152.1 701.5,153.2 684.4,195.7 685.3,197.9 
		715.1,212.9 716.6,212.9 730.2,207.2 754.7,185.2 755.2,183.7 754.6,179.1 	"/>
	<polygon class="st3" points="126.8,160.5 129.5,157.4 183.5,146.6 184.6,145.3 190,138.1 189.8,136.6 175.9,114.7 173.3,111.9 
		127.1,104.6 104.3,110.1 103.1,111.5 97,137.9 95.5,184.1 95.5,199.3 97.4,201.2 103,201 104.4,200.2 	"/>
	<polygon class="st1" points="117.2,282.7 117.6,281.7 123.2,233.9 122.6,232.2 109.8,220.3 106.7,220.9 95.1,229.1 93.5,232.2 
		94.8,295.6 96,297.3 101.7,299.6 103.9,299 	"/>
	<polygon class="st1" points="736.4,725.2 736.7,723.4 726.7,646.5 725.1,644.1 700.3,630.4 695.8,632.6 680.8,649.9 679.5,655.4 
		706.4,754.3 708.9,756.4 718.8,757.8 722,756 	"/>
	<polygon class="st1" points="693.1,610.6 713.9,596.4 714.4,594.7 697.2,571.5 687.9,548.9 686.4,536.8 685.7,535.3 681.2,531.9 
		679.6,531.7 657.4,537.5 656.7,538.3 646.1,570.1 646.8,572 691.4,610.5 	"/>
	<polygon class="st1" points="231.6,614.7 216.1,634.2 215.8,636.8 235.3,673.7 237,674.7 261.7,675 263.7,673.6 271.3,655.2 
		269.9,651.3 235.2,614.1 	"/>
	<path class="st1" d="M396.6,205.8c-8.5-9.8-16.9-19.7-25.4-29.5c-1.2-0.5-2.4-1.1-3.5-1.6c-1.3,0.2-2.5,0.4-3.8,0.5
		c-15.4,7.1-30.9,14.2-46.3,21.3l-1.7,2.1l-6.3,32.6l1.3,3l22.6,14.4l5.5-0.8l57.5-37L396.6,205.8z"/>
	<polygon class="st2" points="209.4,196.7 208.9,194.3 186.4,168.6 183.7,167.8 142.6,179.7 140.8,181.3 134.4,199.6 134.2,200.8 
		140.7,250.8 144.5,254.1 192.1,247.2 198.2,241.7 	"/>
	<polygon class="st1" points="223.7,168.4 264.7,171.5 267.9,169.7 279.5,118.7 277.3,116.1 255.1,109.6 249.3,110.3 205.7,124.7 
		204.1,127.7 221.8,167.2 	"/>
	<polygon class="st1" points="254,250 285,241.6 286.9,239.9 297.1,199.3 295.1,196.4 251.4,184.1 247.7,184.1 233.7,185.3 
		230.7,187.2 211.5,240.5 213.8,243.4 252.5,250.1 	"/>
	<polygon class="st2" points="382.9,118.6 355.9,121.2 340.9,120.9 300.9,116.5 297.8,118.6 286.2,168.2 286.9,170.7 305.6,186.1 
		309.2,186.4 334.7,162.6 339.6,161.2 378.6,155.8 380.5,151.6 385.2,121.8 	"/>
	<polygon class="st1" points="430.7,147 436.8,149.3 500.6,133.2 504.8,129.6 511.5,117 504.4,110.8 413.1,107 411.2,112.6 	"/>
	<polygon class="st3" points="400.8,131.8 384.3,170.4 386.5,174.1 403,184.9 406.9,185.6 428.1,170.5 429.8,166.3 404.7,131.2 	"/>
	<polygon class="st3" points="549.4,232.4 565.6,268.3 569.5,269.1 587.5,264.6 590.5,262.3 593.5,238.1 591.7,234.3 551.5,229.3 	
		"/>
	<path class="st2" d="M559.9,688.8c-13.5,4.9-26.9,9.9-40.4,14.8c-1.8,1.9-3.7,3.8-5.5,5.7c-2.3,5-4.6,10-6.9,15l1.5,4.3l27.1,11.6
		l5.2-0.9l21.7-47L559.9,688.8z"/>
	<path class="st3" d="M322.2,685.9c-9,1.8-17.9,3.6-26.9,5.4c-1.7-0.3-3.5-0.6-5.2-1c-3.3-1.6-6.5-3.2-9.8-4.9l-1.1-2.5l9.1-13.7
		l3-1.2l30.8,15.3L322.2,685.9z"/>
	<path class="st2" d="M629.6,214.4l11.4-2.8l31.1,1.4l2.5,2.4c6.6,2.7,13.2,5.3,19.8,8c0.8,1,1.7,1.9,2.5,2.9
		c0.1,1.2,0.2,2.4,0.4,3.6c-2.5,6.1-5.1,12.1-7.6,18.2c-3.9,3.8-7.9,7.6-11.8,11.3c-7.9,8.7-15.7,17.4-23.6,26.1h-4.4
		c-7.7-1-15.4-2-23-3c-1.5-0.7-3-1.3-4.4-2c-6.5-15.8-12.9-31.5-19.4-47.3c0.7-2,1.4-4,2.1-6c1.8-1.7,3.6-3.3,5.4-5L629.6,214.4z"/>
	<polygon class="st1" points="428.2,196.1 433,187.4 459.8,165 464.4,166.5 481.5,208 479.3,216.5 435.3,204.7 	"/>
	<polygon class="st1" points="220.9,523 211,526.7 172.2,521.5 168.8,515.2 177.9,456 185.2,449.7 219.4,507 	"/>
	<path class="st2" d="M134.2,506.1l-19.9,17l-21.7,10.7l-5.6,5.6v21.8l3.5,12h1.9l7.4-1.9l1.7,0.6l13.6,12.1l10.7,3.6l1.3-0.5
		c4.3-7.9,8.5-15.8,12.8-23.7c0-0.6,0-1.2,0-1.8c-0.1-5.6-0.3-11.2-0.4-16.8c0.5-0.9,0.9-1.7,1.4-2.6l4-9.1l12-15.4v-1.8l-9.4-9.8
		l-1.6-1.5L134.2,506.1z"/>
	<path class="st2" d="M254.6,473.6c0.7-12.4,1.5-24.9,2.2-37.3c-2.1-6.6-4.3-13.2-6.4-19.7l-2.8-8.5L225.5,397l-13.9-2.6
		c-6.9-1.4-13.7-2.7-20.6-4.1c-1.3,0.6-2.7,1.2-4,1.8c-0.5,1.1-1.1,2.2-1.6,3.3c0.4,6.5,0.7,13.1,1.1,19.6c-1.7,2.6-3.4,5.2-5.1,7.8
		c-0.2,0.7-0.4,1.3-0.5,2c5.1,8.2,10.3,16.4,15.4,24.6c0.6,0.3,1.2,0.6,1.8,0.9c5.7,2.7,11.5,5.4,17.2,8.1c0.6,0.9,1.3,1.8,1.9,2.7
		l7.2,8.7l9.5,20l1.8,0.9l14.7-4.6c0.9-1.7,1.9-3.3,2.8-5C253.7,478.7,254.2,476.2,254.6,473.6z"/>
	<path class="st1" d="M162,277.9c-1.9,6.5-3.9,12.9-5.8,19.4c-0.7,0.8-1.3,1.6-2,2.5c-2.8,1.4-5.7,2.8-8.5,4.1l-19.9-9.2l-0.9-2.9
		l2.9-17.9l1.7-2.2l17.9-6.9h2.6l12,11.6L162,277.9L162,277.9z"/>
	<path class="st1" d="M720.5,476.2c-0.7-1.3-1.4-2.7-2.1-4c-7.9-5.5-15.7-11.1-23.6-16.6h-3.1l-12.8,7.2l-1.2,3.4
		c-2.6,12.2-5.1,24.4-7.7,36.6c0.3,0.9,0.7,1.8,1,2.7c3.7,2.4,7.4,4.9,11.2,7.3c5.4,0.3,10.8,0.5,16.3,0.8c4.6,0,9.3,0,13.9-0.1
		c0.4-0.3,0.8-0.6,1.2-0.9s0.8-0.6,1.2-0.9C716.7,500,718.6,488.1,720.5,476.2z"/>
	<path class="st1" d="M174,410.6v-5.1l-6.7-10.3c-7.2-0.3-14.4-0.7-21.6-1l-4.6,2.6l-10.3,5.7h-5.1L101,380.4l-4.6-2.1l-6.7,1.5
		l-2.1,4.6l4.6,36.5l1,7.2l-4.1,18.5c1.2,15.3,2.3,30.6,3.5,45.8c-0.1,0.8-0.3,1.7-0.4,2.5c-1.1,2.7-2.1,5.3-3.2,8
		c-0.1,0.9-0.1,1.8-0.2,2.7c2.2,2.1,4.4,4.2,6.5,6.4c0.7,0.3,1.3,0.6,2,0.9c0.7,0,1.5,0,2.2,0c5.8-3.6,11.6-7.2,17.4-10.8l16.5-15.4
		c6.7-2.6,13.4-5.2,20.1-7.7c0.8-0.9,1.7-1.8,2.5-2.7C162.1,454.4,168,432.5,174,410.6z"/>
	<polygon class="st0" points="360.9,432.7 354.4,425.3 326.6,372.2 321.7,363.2 320.1,346.1 324.1,333.8 347.9,261.9 353.6,255.3 
		423,218.6 434.5,218.6 452.5,221.8 535,248.8 542.4,253.7 545.6,261.1 563.6,339.5 565.3,347.7 559.5,359.1 523.6,442.5 
		517.9,448.2 503.1,449.9 371.6,436.8 	"/>
	<polygon class="st0" points="397.7,483.2 395.1,491.7 402.8,512.2 423.2,528.4 429.5,529.8 460.8,525.9 464.7,523.6 481.2,486.1 
		479.5,482.1 475,478.3 441.2,468.4 428.7,467.7 	"/>
	<polygon class="st0" points="363.9,467.3 342.6,469 334.9,472.4 243.7,556 221.5,585.8 219.8,591.8 216.4,601.2 179.7,734.2 
		178,779.4 180.6,785.4 188.3,788.8 265.9,799.9 342.6,798.2 351.1,795.6 356.3,788.8 357.1,775.1 355.4,570.5 365.6,494.6 
		369.1,474.1 	"/>
	<g>
		<path class="st0" d="M675.6,708.1c-9.8-35.6-19.6-71.3-29.4-106.9l-3.4-9.4l-1.7-6l-7.5-10.1c-9.4,18.3-18.7,36.7-28.1,55
			c-0.7,1.5-1.3,3-2,4.5c-0.5,1.5-0.9,3-1.4,4.5c-2.8,25.9-5.7,51.8-8.5,77.7c1.5,23.5,3,47.1,4.5,70.6c21.5,0.7,44.6-0.4,69-4.1
			c3.5-0.5,6.9-1.1,10.2-1.7c2.6-3.4,5.1-6.8,7.7-10.2C681.8,750.7,678.7,729.4,675.6,708.1z"/>
		<path class="st0" d="M568.1,718.3c0,0,6-89.5,20.5-108.3c10.4-13.4,26.4-40.3,34.7-54.6c-30.6-24.7-61.3-49.4-91.9-74.2
			c-3.8-1.4-7.6-2.8-11.4-4.3c-5.1,0.3-10.2,0.6-15.3,0.9c-0.9,5.6-1.7,11.2-2.6,16.8c0.3,16.4,0.6,32.8,0.9,49.2
			c2,67.5,4,134.9,6.1,202.4c0.4,6.1,0.8,12.1,1.1,18.2c1.5,3.8,3,7.6,4.5,11.4c3,2.3,6.1,4.5,9.1,6.8c18.1,2.3,36.1,4.6,54.2,6.9
			L568.1,718.3z"/>
	</g>
	<path class="st1" d="M541.1,462.6c10.5,0.1,21.1,0.1,31.6,0.2c26.9-10.9,53.9-21.7,80.8-32.6c0.6-0.9,1.2-1.7,1.7-2.6
		c-0.1-1.4-0.2-2.8-0.4-4.3c-7.5-15.8-14.9-31.5-22.4-47.3c-0.7-0.5-1.5-0.9-2.2-1.4c-8.5-1.2-17.1-2.4-25.6-3.6c-1,0-2-0.1-3-0.1
		c-10.7,6-21.5,12.1-32.2,18.1c-1.1,1.1-2.2,2.2-3.2,3.3c-0.9,1.4-1.7,2.9-2.6,4.3c-8.1,19.8-16.1,39.6-24.2,59.5
		c-0.1,1.2-0.3,2.5-0.4,3.7C539.7,460.8,540.4,461.7,541.1,462.6z"/>
	<path class="st1" d="M595.5,277.4c-9.1,7.3-18.2,14.5-27.3,21.8l-1.4,4.1l16.3,54.1l2.3,1.3l36.3-2.1l3.4-2.2l17.3-28.8l-0.6-5.8
		c-13.7-13.9-27.5-27.8-41.2-41.7C598.8,277.8,597.2,277.6,595.5,277.4z"/>
	<path class="st1" d="M210.1,572.6c3.9-8.6,7.7-17.3,11.6-25.9l-1.9-2.1l-43.3-8.9l-2,0.8l-16.8,20l-0.3,2.5l10,18.6l4.1,1.5
		c12-1.5,24-3,36.1-4.6C208.4,573.9,209.3,573.3,210.1,572.6z"/>
	<path class="st1" d="M251.9,355.1c-0.8-0.6-1.7-1.2-2.5-1.8c-6.5-1-13-1.9-19.5-2.9l-1.9,1l-5.6,8.4l0.3,2.5
		c2.2,8.3,4.4,16.6,6.6,24.8c0.5,0.4,1,0.9,1.5,1.3c3,0.3,6.1,0.7,9.1,1c3.4-1.5,6.8-3,10.2-4.5c2.8-1.4,5.7-2.9,8.5-4.3
		c0.1-0.3,0.3-0.6,0.5-0.9c0.1-0.3,0.3-0.6,0.5-0.9C256.9,370.8,254.4,362.9,251.9,355.1z"/>
</g>
<g id="Layer_8">
</g>
</svg>
