<?xml version="1.0" encoding="utf-8"?>
<!-- Generator: Adobe Illustrator 28.2.0, SVG Export Plug-In . SVG Version: 6.00 Build 0)  -->
<svg version="1.1" id="Layer_1" xmlns="http://www.w3.org/2000/svg" xmlns:xlink="http://www.w3.org/1999/xlink" x="0px" y="0px"
	 viewBox="0 0 892 892" style="enable-background:new 0 0 892 892;" xml:space="preserve">
<style type="text/css">
	.st0{fill:#2159AA;}
	.st1{fill:#FFC30C;}
	.st2{fill:#FFE7A4;}
	.st3{fill:#DBA305;}
</style>
<g id="Layer_1_00000038408915744026956930000004114020437984282243_">
</g>
<g id="Layer_2_00000145036080147217096960000017375265040652965787_">
</g>
<g id="Layer_3">
</g>
<g id="Layer_4">
</g>
<g id="Layer_5">
</g>
<g id="Layer_6">
</g>
<g id="Layer_7">
</g>
<g id="Layer_8">
	<path id="frame_00000084503055784677313210000001263293682352947129_" class="st0" d="M582,888.1h291.3l11.8-9.1l-4.5-429.2
		l-4.7-436.7L866.7,0l-178,4.5l-477.3,6.9L18.7,7.7l-11,14.1l-3,109.1L0,781l9,108.4l4.6,4.2L582,888.1z M809.1,815.7l-13.4,9.6
		l-284-6.5l-429.6,6.5L72,810.6L64.7,570l7.4-475.1l8-12.7l121.7,3.5h431.9l174.1-6.1l6.1,12.2l-12.8,380.8L809.1,815.7z"/>
	<polygon class="st1" points="233.1,676.7 214.5,636.3 213.4,632.6 208.6,596.2 205.9,593.8 189.9,588.3 187.8,590.7 180.1,637.8 
		189.4,685.7 195,687.9 231.4,679.7 	"/>
	<path class="st1" d="M783.4,560.2l-1.6-82.8l-1.9-1.8c-16.9,4-44.7,10.2-47.3,9.9c-0.5,0.7-1.1,1.4-1.6,2.1
		c-0.8,10.7-1.5,21.3-2.3,32c0.3,1,0.6,2.1,0.8,3.1c17.1,13,34.1,26.1,51.2,39.1L783.4,560.2z"/>
	<path class="st2" d="M708.1,531.2c-1.9,4.4-3.9,8.8-5.8,13.3c0,1.5,0,3,0,4.5c18.1,27.8,36.3,55.6,54.4,83.4l2.3,1.7h22.3l2.5-2.8
		v-31.5l-0.8-2.1c-23.8-22.5-47.7-45.1-71.5-67.6C710.4,530.5,709.2,530.9,708.1,531.2z"/>
	<polygon class="st1" points="742.4,423.8 724.4,462.7 725.7,464.8 768.2,461.5 769.2,460.9 777.3,450.1 777.7,449.2 777.7,398.2 
		775.5,396.9 760.7,407.8 	"/>
	<polygon class="st1" points="709,619.8 718.2,629.1 718.9,629.3 728.6,630.3 729.7,629.5 733.7,619 733.6,617.9 725.9,609.3 
		724.9,609 714.5,612.4 708.6,618.6 	"/>
	<path class="st2" d="M692.1,101.1l-36.4,3.9l-1.3,1.4l-5.6,43.5l0.4,1.1c1.3,7.6,2.6,15.2,3.9,22.8c2.4,4.5,4.8,9,7.3,13.4
		c1-0.4,1.9-0.7,2.9-1.1c3.8-11.4,7.7-22.7,11.5-34.1c0.4-0.9,0.8-1.8,1.3-2.7c8-5.7,16-11.4,24.1-17c0.2-0.5,0.4-1.1,0.7-1.6
		C697.8,120.8,695,110.9,692.1,101.1z"/>
	<polygon class="st3" points="111.7,671.7 114.9,669 115.4,667.5 110.2,636.9 120,605.4 119.5,603.6 87.8,581.6 85.5,582.8 
		82.1,630.5 88.9,665.4 90,666.6 110.4,672 	"/>
	<polygon class="st3" points="132.8,385.4 145.8,367.9 146.2,366.2 137.4,321.4 135.6,318.2 118.7,308.3 115,307.7 88.1,342.5 
		88,344.6 92,352.7 94.6,354.2 103.6,360.8 130,385.7 	"/>
	<polygon class="st2" points="153.1,713.8 168.2,698.1 169.5,692.4 159.3,644.6 161.4,637.3 171.4,616.4 171.8,614.9 169.9,608 
		167.5,606.4 142.3,606.7 140.1,607.9 126.7,635.2 126,639.6 132,674.5 126.4,698 130.8,718.3 133.5,720.6 	"/>
	<polygon class="st3" points="725,103.7 715.3,116.1 714.9,117.6 717.5,129.8 718.5,131 741.5,143.2 768.6,168.9 769.5,169.4 
		786.5,172.8 788.6,171.5 794.6,146.1 794.6,145.5 790.8,104.6 789.8,103.2 777.1,96.7 776,96.5 726.2,103 	"/>
	<path class="st3" d="M748.6,324.8l-12.6,1.1l-1.1,0.6l-5.7,8.2l-0.2,1.2l5.5,20.2l-0.3,30l0.2,0.8c-2.1,8.4-4.3,16.7-6.4,25.1
		c0.7,0.8,1.5,1.6,2.2,2.5c10.5-8.5,21.1-17,31.6-25.6l0.4-0.3l21.9-24.6l0.3-1.4l-3.2-11l-0.5-0.7
		C770,342.1,759.3,333.4,748.6,324.8z"/>
	<path class="st2" d="M483.5,153.8l-5.8,20.7l0.3,2.1l9.3,14.7l1.7,1.2c14.4,6.1,28.8,12.3,43.2,18.4c12.8,1.9,25.6,3.8,38.5,5.8
		c0.5-0.1,1.1-0.2,1.6-0.4c5.7-1,11.4-2,17.2-3c0.9-0.5,1.9-1,2.8-1.5c0.5-1.1,1-2.2,1.5-3.4c-1.4-10.6-2.8-21.3-4.2-31.9l-0.2-0.8
		l-25-51.3l-1.9-1.4l-18.7-2.5l-1.4,0.3C522.7,131.7,503.1,142.8,483.5,153.8z"/>
	<polygon class="st1" points="730.5,229.1 729.9,230.6 730.3,236.9 731.2,238.4 780.4,266.4 783.2,265.4 792.6,236.8 792.7,200.2 
		790.9,198.3 766,196 764.5,196.5 	"/>
	<polygon class="st1" points="708.5,248.7 695.7,257.7 682.7,279.8 683.9,282.3 712.9,290.7 764.9,316.3 766.6,316.4 775.8,313.5 
		777.1,311.7 775.5,282.8 774.5,281.3 710.7,248.6 	"/>
	<polygon class="st1" points="160.7,359.9 174,373.1 202,383.4 204.6,381.5 206.8,344.6 222.5,276.1 222.2,274.1 216.6,263.8 
		214.2,262.6 182,271.4 180.7,272.9 159.9,357.2 	"/>
	<polygon class="st1" points="625.9,113.2 610.7,109.6 585.6,114.5 584.5,117 597.4,144.3 612.9,200.2 613.9,201.6 622.1,206.5 
		624.3,206.3 644.9,185.9 645.4,184.1 627.5,114.8 	"/>
	<polygon class="st1" points="383,263.2 367.6,270.9 353.2,286.3 354.9,287.5 392.4,286.5 460.7,290.8 462.8,290.5 474.1,287 
		475.6,285.7 471,269.3 469.6,268.7 385.8,262.6 	"/>
	<polygon class="st1" points="749.2,178.1 735.4,165.6 720,154.6 719.1,154.3 698.5,152.1 696.6,153.2 679.5,195.7 680.4,197.9 
		710.2,212.9 711.7,212.9 725.3,207.2 749.8,185.2 750.3,183.7 749.7,179.1 	"/>
	<polygon class="st3" points="121.9,160.5 124.6,157.4 178.6,146.6 179.7,145.3 185.1,138.1 184.9,136.6 171,114.7 168.4,111.9 
		122.2,104.6 99.4,110.1 98.2,111.5 92.1,137.9 90.6,184.1 90.6,199.3 92.5,201.2 98.1,201 99.5,200.2 	"/>
	<polygon class="st1" points="112.3,282.7 112.7,281.7 118.3,233.9 117.7,232.2 104.9,220.3 101.8,220.9 90.2,229.1 88.6,232.2 
		89.9,295.6 91.1,297.3 96.8,299.6 99,299 	"/>
	<polygon class="st1" points="115.3,714.2 115.6,713.5 114.6,684.5 113.7,683.7 99.7,679.8 96.8,680.9 86.6,688.4 85.5,690.6 
		95.3,727 96.7,727.7 102.6,727.7 104.6,726.8 	"/>
	<polygon class="st1" points="710.8,444.1 711.4,442.5 719.7,370.2 719,367.6 702.8,349.1 698.9,350 683.8,362.1 681.6,366.8 
		681.8,463.1 683.3,465.7 690.6,469.3 693.3,468.5 	"/>
	<path class="st1" d="M391.7,205.8c-8.5-9.8-16.9-19.7-25.4-29.5c-1.2-0.5-2.4-1.1-3.5-1.6c-1.3,0.2-2.5,0.4-3.8,0.5
		c-15.4,7.1-30.9,14.2-46.3,21.3l-1.7,2.1l-6.3,32.6l1.3,3l22.6,14.4l5.5-0.8l57.5-37L391.7,205.8z"/>
	<polygon class="st2" points="204.5,196.7 204,194.3 181.5,168.6 178.8,167.8 137.7,179.7 135.9,181.3 129.5,199.6 129.3,200.8 
		135.8,250.8 139.6,254.1 187.2,247.2 193.3,241.7 	"/>
	<polygon class="st1" points="218.8,168.4 259.8,171.5 263,169.7 274.6,118.7 272.4,116.1 250.2,109.6 244.4,110.3 200.8,124.7 
		199.2,127.7 216.9,167.2 	"/>
	<polygon class="st1" points="249.1,250 280.1,241.6 282,239.9 292.2,199.3 290.2,196.4 246.5,184.1 242.8,184.1 228.8,185.3 
		225.8,187.2 206.6,240.5 208.9,243.4 247.6,250.1 	"/>
	<polygon class="st2" points="378,118.6 351,121.2 336,120.9 296,116.5 292.9,118.6 281.3,168.2 282,170.7 300.7,186.1 304.3,186.4 
		329.8,162.6 334.7,161.2 373.7,155.8 375.6,151.6 380.3,121.8 	"/>
	<polygon class="st1" points="425.8,147 431.9,149.3 495.7,133.2 499.9,129.6 506.6,117 499.5,110.8 408.2,107 406.3,112.6 	"/>
	<polygon class="st2" points="264.4,301.4 270.5,303.7 334.4,287.5 338.5,283.9 345.2,271.3 338.1,265.1 246.8,261.4 244.9,266.9 	
		"/>
	<polygon class="st3" points="395.9,131.8 379.4,170.4 381.6,174.1 398.1,184.9 402,185.6 423.2,170.5 424.9,166.3 399.8,131.2 	"/>
	<polygon class="st3" points="544.5,232.4 560.7,268.3 564.6,269.1 582.6,264.6 585.6,262.3 588.6,238.1 586.8,234.3 546.6,229.3 	
		"/>
	<path class="st2" d="M624.7,214.4l11.4-2.8l31.1,1.4l2.5,2.4c6.6,2.7,13.2,5.3,19.8,8c0.8,1,1.7,1.9,2.5,2.9
		c0.1,1.2,0.2,2.4,0.4,3.6c-2.5,6.1-5.1,12.1-7.6,18.2c-3.9,3.8-7.9,7.6-11.8,11.3c-7.9,8.7-15.7,17.4-23.6,26.1H645
		c-7.7-1-15.4-2-23-3c-1.5-0.7-3-1.3-4.4-2c-6.5-15.8-12.9-31.5-19.4-47.3c0.7-2,1.4-4,2.1-6c1.8-1.7,3.6-3.3,5.4-5L624.7,214.4z"/>
	<polygon class="st1" points="423.3,196.1 428.1,187.4 454.9,165 459.5,166.5 476.6,208 474.4,216.5 430.4,204.7 	"/>
	<path class="st3" d="M377.8,466.1c1.7,0.3,3.4,0.5,5.1,0.8c0,17,0,34,0,51c-1,1.6-2.1,3.2-3.1,4.8c-12.5,2.3-25,4.6-37.5,6.8
		c-0.9-2-1.7-4.1-2.6-6.1c5.9-13.6,11.8-27.2,17.6-40.8C364.2,477.1,371,471.6,377.8,466.1z"/>
	<path class="st2" d="M129.3,506.1l-19.9,17l-21.7,10.7l-5.6,5.6v21.8l3.5,12h1.9l7.4-1.9l1.7,0.6l13.6,12.1l10.7,3.6l1.3-0.5
		c4.3-7.9,8.5-15.8,12.8-23.7c0-0.6,0-1.2,0-1.8c-0.1-5.6-0.3-11.2-0.4-16.8c0.5-0.9,0.9-1.7,1.4-2.6l4-9.1l12-15.4v-1.8l-9.4-9.8
		l-1.6-1.5L129.3,506.1z"/>
	<path class="st1" d="M157.1,277.9c-1.9,6.5-3.9,12.9-5.8,19.4c-0.7,0.8-1.3,1.6-2,2.5c-2.8,1.4-5.7,2.8-8.5,4.1l-19.9-9.2l-0.9-2.9
		l2.9-17.9l1.7-2.2l17.9-6.9h2.6l12,11.6L157.1,277.9L157.1,277.9z"/>
	<path class="st1" d="M169.1,410.6v-5.1l-6.7-10.3c-7.2-0.3-14.4-0.7-21.6-1l-4.6,2.6l-10.3,5.7h-5.1l-24.7-22.1l-4.6-2.1l-6.7,1.5
		l-2.1,4.6l4.6,36.5l1,7.2l-4.1,18.5c1.2,15.3,2.3,30.6,3.5,45.8c-0.1,0.8-0.3,1.7-0.4,2.5c-1.1,2.7-2.1,5.3-3.2,8
		c-0.1,0.9-0.1,1.8-0.2,2.7c2.2,2.1,4.4,4.2,6.5,6.4c0.7,0.3,1.3,0.6,2,0.9c0.7,0,1.5,0,2.2,0c5.8-3.6,11.6-7.2,17.4-10.8l16.5-15.4
		c6.7-2.6,13.4-5.2,20.1-7.7c0.8-0.9,1.7-1.8,2.5-2.7C157.2,454.4,163.1,432.5,169.1,410.6z"/>
	<g>
		<path class="st0" d="M229.2,296.9h1.8l6.6,8.4l51.9,56.3l44.2,50l32.4,30.1l1.8,2l0.5,3.2l-0.1,5.4l-4.3,4.9l-70.6,76.9
			l-47.7,51.7l-13.1,10.9h-4.3l-4.9-6l-5.2-103.8l6.9-140.9C226.4,329.6,227.8,313.3,229.2,296.9z"/>
		<g>
			<path class="st0" d="M465,518.6l4.9-2.5h7l103.7-5.2l86.3-4.4L664,405.8l-1.6-95.6l-3.6-5.1l-6.7-1.8l-10.3,1.8l-101.4-7
				l-137.7,3l-6.8,4l-2.5,8v8.4l2.5,127.2c-1.6,46.3-3.2,92.7-4.9,139c1.5,2.1,3,4.2,4.5,6.2l6.4,1.7l8.1-0.1L465,518.6z"/>
			<path class="st0" d="M485.5,531c-2.3,0.2-4.6,0.4-6.8,0.6c-1.6,1-3.2,1.9-4.8,2.9c-10.4,20.2-20.9,40.3-31.3,60.5
				c31.1-0.4,62.1-0.8,93.2-1.2l116.2-2.7l6.7-2.4l2.8-3.9c1.5-19.7,3-39.4,4.5-59.1C605.9,527.4,545.7,529.2,485.5,531z"/>
		</g>
	</g>
	<polygon class="st1" points="734.2,652.1 756.6,690.5 758.1,694.1 766.5,729.9 769.4,732 785.9,735.9 787.7,733.2 790.7,685.6 
		776.8,638.9 771,637.2 735.6,648.9 	"/>
	<path class="st2" d="M695.9,638.1l-2.3,1.1l-32.7,54.9l1.3,2.7l40.8,12.4l2.1-0.3l28.6-17.3l0.8-2.3c-8-18.5-20.2-46.6-20.7-48.6
		h-0.3l-1.8-1.7L695.9,638.1z"/>
	<polygon class="st1" points="725.1,804.4 725.7,806.5 789.9,802.6 791.8,800.4 790.7,757.5 788.3,756.3 751.3,773 	"/>
	<polygon class="st2" points="729.5,777.6 728.6,774.7 656.2,764 654.3,764.4 626.2,791.7 626.4,794.7 644,806.2 645,806.5 
		708,806.5 709.5,805.7 	"/>
	<polygon class="st1" points="727.1,757.8 748.7,748.8 749.4,747.9 757.6,732.4 757.1,730.1 742.4,716.4 740.5,715.9 721.2,722.7 
		719.9,724.2 718.4,743.7 724.8,757.5 	"/>
	<polygon class="st1" points="588.4,788.1 569.4,768.1 556.6,753.5 555.2,752.4 531.3,745.9 528.6,747.5 516.7,776.8 514.5,802 
		516.7,804.3 553.2,804.4 554,804.3 587.6,791.7 	"/>
	<path class="st2" d="M421.4,797.9l22.4,8.8l3.4-2l1.9-11.4l-0.3-1.7l-23.7-27.3v-0.1c0.7-10.9,1.4-21.9,2.1-32.8
		c-1.5-1.4-3.1-2.7-4.6-4.1c-15,7.8-30,15.6-44.9,23.4l-0.5,1l-5,40.2l1.6,2l19.3,1.8L421.4,797.9z"/>
	<polygon class="st1" points="305.6,801.9 353.1,798.3 354.8,796.5 363.8,740.4 363.3,738.9 354.8,724.5 352.4,724.1 296.5,761.2 
		295.6,763.3 303.6,800.4 	"/>
	<polygon class="st1" points="223.3,791.8 217.9,802.6 218.6,805.2 242,808.4 243.5,808.6 266.6,806.5 282.6,807.3 285.2,805.2 
		277.8,775.7 276.3,774.6 268,772.5 266.5,772.5 224.5,791.2 	"/>
	<polygon class="st1" points="169,762.5 193.7,782.9 196,783 216.7,770.6 233.3,752.3 233.8,750.7 226.9,702.2 224.7,700.5 
		194.5,704 193.4,704.5 163.9,734.3 163.3,736 168.3,761.4 	"/>
	<polygon class="st1" points="272.7,633.1 309.3,663.2 312.6,663.5 343.3,645.2 367.9,618 368.6,615.7 358.3,543.9 355.1,541.5 
		310.5,546.6 308.8,547.4 265.1,591.4 264.4,594 271.7,631.5 	"/>
	<path class="st1" d="M628.4,758.1c3.8-5.1,7.6-10.3,11.4-15.4c0.1-1.3,0.2-2.5,0.3-3.8c-2.9-12.7-5.7-25.3-8.6-38
		c-1.3-1-2.5-2.1-3.8-3.1c-4.7-2.6-9.4-5.3-14-7.9c-1.5-0.2-3-0.5-4.5-0.7c-13.9,0-27.9,0-41.8,0c-0.8,0.8-1.6,1.6-2.4,2.4
		c-0.8,1.1-1.6,2.3-2.4,3.4c-2.2,7.8-4.3,15.5-6.5,23.3c0.3,1.4,0.7,2.7,1,4.1c4.7,5.4,9.5,10.7,14.2,16.1c0.2,0.3,0.4,0.7,0.6,1
		l30.2,25.5l1.7,0.4C612.1,763,620.2,760.6,628.4,758.1z"/>
	<polygon class="st2" points="155.3,778.4 138.4,742.6 136.6,741.4 92.3,736.9 89.8,739.1 93.3,797.9 95.2,799.9 133.7,804.9 
		189.2,801 190.1,797 	"/>
	<path class="st2" d="M311.8,704.1v-1.5l-2.7-5.2l-1.5-0.9l-60-2.5l-2.4,2.1l1.1,28.4l13.4,31.3l2.5,0.9c7.5-3.1,15-6.3,22.5-9.4
		c0.4-0.4,0.8-0.8,1.2-1.2c12.1-7,24.2-14,36.2-21c0.2-0.8,0.5-1.6,0.7-2.4c-0.1-0.8-0.1-1.6-0.2-2.4
		C319,714.9,315.4,709.5,311.8,704.1z"/>
	<path class="st1" d="M354.7,684.8c-1.5,4-3.1,8.1-4.6,12.1l0.4,2.5l28.4,28.2l1.9,0.4l22.7-6.8l1.4-1.8l1.6-19l-2.3-3.2
		c-15.7-4.7-31.4-9.4-47.1-14.2C356.2,683.6,355.5,684.2,354.7,684.8z"/>
	<polygon class="st3" points="512.9,750 485.1,719.7 481.6,718.8 438.2,748 438.1,751.4 449.8,771.4 454.5,774.8 496.1,794.1 
		499.4,793 513.4,752.1 	"/>
	<polygon class="st1" points="592.8,805.2 610.6,806.3 611.7,804.9 613.7,796.7 613.4,795.1 604.4,788.8 602.4,788.7 592,803.7 	"/>
	<path class="st2" d="M549.6,679.6c-12.9,4.7-25.8,9.5-38.7,14.2c-1.8,1.8-3.5,3.6-5.3,5.4c-2.2,4.8-4.4,9.6-6.6,14.3l1.4,4.2
		l26,11.2l5-0.8l20.8-45L549.6,679.6z"/>
	<path class="st2" d="M353.2,658.2c13.3-14.2,26.5-28.4,39.8-42.7c3.3-1.3,6.7-2.6,10-3.9c7.4-0.2,14.9-0.5,22.3-0.7l4.7,4.1l0.3,40
		l-3.8,6.1l-70.2,2.4L353.2,658.2z"/>
	<path class="st1" d="M482.1,704.6c1.3-1.1,2.7-2.2,4-3.3c4.3-7.2,8.6-14.3,12.9-21.5l-0.8-1.6l-11.4-2.6l-4.2,1.3
		c-14.5,5.5-29,10.9-43.5,16.4c-0.9,0.7-1.8,1.3-2.8,2c-1.8,3.3-3.6,6.6-5.5,9.9c1.1,3,2.1,5.9,3.2,8.9c1.2,2.4,2.4,4.8,3.6,7.2
		c0.4,0,0.9,0.1,1.3,0.1c0.4,0,0.9,0.1,1.3,0.1C454.2,715.8,468.1,710.2,482.1,704.6z"/>
	<path class="st3" d="M682.6,754.7c1-0.6,2.1-1.1,3.1-1.7c4-6,8-12,12-18l-0.2-2.3l-6.3-8.9l-2.8-0.7c-9.8-1.2-19.5-2.5-29.3-3.7
		c-0.7,0.3-1.4,0.6-2.1,0.9c-1.7,2.8-3.5,5.7-5.2,8.5c0,4,0.1,7.9,0.1,11.9c0.2,3.4,0.5,6.8,0.7,10.1c0.3,0.3,0.5,0.5,0.8,0.8
		c0.3,0.3,0.5,0.5,0.8,0.8C663.7,753.1,673.2,753.9,682.6,754.7z"/>
	<polygon class="st1" points="682.3,335.4 679.9,327.9 681.4,300.6 684.8,298.7 717.8,311.2 721.5,317 691.1,335.9 	"/>
	<polygon class="st1" points="295.1,323 309.1,313.5 367.6,301 373.8,307.2 370.3,386.5 360.6,398 300,342.5 	"/>
</g>
</svg>
