<?xml version="1.0" encoding="utf-8"?>
<!-- Generator: Adobe Illustrator 28.2.0, SVG Export Plug-In . SVG Version: 6.00 Build 0)  -->
<svg version="1.1" id="Layer_1" xmlns="http://www.w3.org/2000/svg" xmlns:xlink="http://www.w3.org/1999/xlink" x="0px" y="0px"
	 viewBox="0 0 892 892" style="enable-background:new 0 0 892 892;" xml:space="preserve">
<style type="text/css">
	.st0{fill:#2159AA;}
	.st1{fill:#FFC30C;}
	.st2{fill:#FFE7A4;}
	.st3{fill:#DBA305;}
</style>
<g id="Layer_1_00000147185901278487285710000005114674732973531059_">
</g>
<g id="Layer_2_00000017493146743559376700000009859794022073600663_">
</g>
<g id="Layer_3">
</g>
<g id="Layer_4">
</g>
<g id="Layer_5">
	<path id="frame_00000051371327914851479710000005276882405369555591_" class="st0" d="M588.9,888.1h291.3L892,879l-4.5-429.2
		l-4.7-436.7L873.6,0l-178,4.5l-477.3,6.9L25.6,7.7l-11,14.1l-3,109.1L6.9,781l9,108.4l4.6,4.2L588.9,888.1z M816,815.7l-13.4,9.6
		l-284-6.5L89,825.3l-10.1-14.7L71.6,570L79,94.9l8-12.7l121.7,3.5h431.9l174.1-6.1l6.1,12.2L808,472.6L816,815.7z"/>
	<polygon class="st1" points="741.1,652.1 763.5,690.5 765,694.1 773.4,729.9 776.3,732 792.8,735.9 794.6,733.2 797.6,685.6 
		783.7,638.9 777.9,637.2 742.5,648.9 	"/>
	<path class="st2" d="M702.8,638.1l-2.3,1.1l-32.7,54.9l1.3,2.7l40.8,12.4l2.1-0.3l28.6-17.3l0.8-2.3c-8-18.5-20.2-46.6-20.7-48.6
		h-0.3l-1.8-1.7L702.8,638.1z"/>
	<path class="st1" d="M790.3,560.2l-1.6-82.8l-1.9-1.8c-16.9,4-44.7,10.2-47.3,9.9c-0.5,0.7-1.1,1.4-1.6,2.1
		c-0.8,10.7-1.5,21.3-2.3,32c0.3,1,0.6,2.1,0.8,3.1c17.1,13,34.1,26.1,51.2,39.1L790.3,560.2z"/>
	<path class="st2" d="M731.6,542.4c-1.5,3.5-3,6.9-4.6,10.4c0,1.2,0,2.4,0,3.5c14.2,21.7,28.3,43.4,42.5,65.1l1.8,1.4h17.4l2-2.2
		V596l-0.6-1.6c-18.6-17.6-37.2-35.2-55.8-52.8C733.3,541.9,732.5,542.1,731.6,542.4z"/>
	<polygon class="st1" points="752.6,424.6 734.5,463.5 735.9,465.6 778.4,462.3 779.3,461.7 787.5,451 787.8,450 787.8,399 
		785.6,397.8 770.9,408.6 	"/>
	<path class="st1" d="M177.6,574.1c0.5-7.7,0.9-15.4,1.4-23.1c-0.2-0.4-0.5-0.8-0.7-1.1c-1.6-1.6-3.1-3.1-4.7-4.7
		c-0.3,0.1-0.7,0.2-1,0.3c-7.5,6.5-14.9,13.1-22.4,19.6c-0.1,0.2-0.2,0.4-0.4,0.7l-1,8.6l0.1,0.6l17.3,25.6l1.7-0.2l4.7-11.1
		L177.6,574.1z"/>
	<path class="st3" d="M260.8,281.8c2.9-4.5,5.8-9.1,8.7-13.6c0-0.3,0-0.6-0.1-0.9c-0.4-1.5-0.9-3-1.3-4.4c-0.2,0-0.5-0.1-0.7-0.1
		c-6.8,1.5-13.5,2.9-20.3,4.4c-0.1,0.1-0.3,0.2-0.4,0.3l-3.5,4.9l-0.1,0.4l1.9,21.5l1.1,0.4l6.6-5.2L260.8,281.8z"/>
	<path class="st1" d="M694,324.8c5.2,1.4,10.4,2.8,15.6,4.1c0.3-0.1,0.6-0.2,0.9-0.3c1.3-0.9,2.6-1.7,3.9-2.6c0-0.2-0.1-0.5-0.1-0.7
		c-3.4-6-6.9-12-10.3-18c-0.1-0.1-0.3-0.2-0.4-0.3l-5.7-1.9h-0.4l-19.9,8.3l-0.1,1.2l6.9,4.7L694,324.8z"/>
	<path class="st2" d="M669.8,395c7.8,15.1,15.6,30.1,23.4,45.2c0.9,0.4,1.8,0.9,2.7,1.3c4.7,1.2,9.4,2.4,14.2,3.5
		c0.5-0.6,1-1.1,1.5-1.7c6.7-20.7,13.5-41.5,20.2-62.2c0-0.6,0-1.1,0-1.7l-7.8-17.2l-0.9-1l-61.5-28.8l-2.9,2.3l3.7,26.2L669.8,395z
		"/>
	<path class="st3" d="M651.8,607.5c-5.2-0.8-10.4-1.6-15.6-2.4c-1.5,1.6-2.9,3.1-4.4,4.7l-4.1,2.7c-3.9,2.6-56.2,36.8-60.2,39.5
		c-0.3,0.6-0.7,1.1-1,1.7l3.9,12.1l2.7,2.2l81.3,11.2l3-3.2c5.6-12,11.1-24.1,16.7-36.1c0.1-0.8,0.2-1.7,0.4-2.5
		c-0.3-0.8-0.6-1.7-0.9-2.5c-5.5-8.2-11-16.3-16.5-24.5c-0.5-0.7-1.1-1.5-1.6-2.2C654.2,607.8,653,607.6,651.8,607.5z"/>
	<polygon class="st1" points="732,804.4 732.6,806.5 796.8,802.6 798.7,800.4 797.6,757.5 795.2,756.3 758.2,773 	"/>
	<polygon class="st2" points="736.4,777.6 735.5,774.7 663.1,764 661.2,764.4 633.1,791.7 633.3,794.7 650.9,806.2 651.9,806.5 
		714.9,806.5 716.4,805.7 	"/>
	<polygon class="st1" points="734,757.8 755.6,748.8 756.3,747.9 764.5,732.4 764,730.1 749.3,716.4 747.4,715.9 728.1,722.7 
		726.8,724.2 725.3,743.7 731.7,757.5 	"/>
	<polygon class="st1" points="231.1,681.9 226.9,651.5 226,650.3 209,634.9 206,634.8 183.8,648.9 182.5,651 184.8,677.8 
		186.3,679.9 210.4,688.1 230,684.7 	"/>
	<polygon class="st1" points="595.3,788.1 576.3,768.1 563.5,753.5 562.1,752.4 538.2,745.9 535.5,747.5 523.6,776.8 521.4,802 
		523.6,804.3 560.1,804.4 560.9,804.3 594.5,791.7 	"/>
	<path class="st2" d="M428.3,797.9l22.4,8.8l3.4-2l1.9-11.4l-0.3-1.7L432,764.3v-0.1c0.7-10.9,1.4-21.9,2.1-32.8
		c-1.5-1.4-3.1-2.7-4.6-4.1c-15,7.8-30,15.6-44.9,23.4l-0.5,1l-5,40.2l1.6,2l19.3,1.8L428.3,797.9z"/>
	<polygon class="st1" points="312.5,801.9 360,798.3 361.7,796.5 370.7,740.4 370.2,738.9 361.7,724.5 359.3,724.1 303.4,761.2 
		302.5,763.3 310.5,800.4 	"/>
	<path class="st2" d="M699,101.1l-36.4,3.9l-1.3,1.4l-5.6,43.5l0.4,1.1c1.3,7.6,2.6,15.2,3.9,22.8c2.4,4.5,4.8,9,7.3,13.4
		c1-0.4,1.9-0.7,2.9-1.1c3.8-11.4,7.7-22.7,11.5-34.1c0.4-0.9,0.8-1.8,1.3-2.7c8-5.7,16-11.4,24.1-17c0.2-0.5,0.4-1.1,0.7-1.6
		C704.7,120.8,701.9,110.9,699,101.1z"/>
	<polygon class="st1" points="230.2,791.8 224.8,802.6 225.5,805.2 248.9,808.4 250.4,808.6 273.5,806.5 289.5,807.3 292.1,805.2 
		284.7,775.7 283.2,774.6 274.9,772.5 273.4,772.5 231.4,791.2 	"/>
	<polygon class="st1" points="175.9,762.5 200.6,782.9 202.9,783 223.6,770.6 240.2,752.3 240.7,750.7 233.8,702.2 231.6,700.5 
		201.4,704 200.3,704.5 170.8,734.3 170.2,736 175.2,761.4 	"/>
	<path class="st1" d="M635.3,758.1c3.8-5.1,7.6-10.3,11.4-15.4c0.1-1.3,0.2-2.5,0.3-3.8c-2.9-12.7-5.7-25.3-8.6-38
		c-1.3-1-2.5-2.1-3.8-3.1c-4.7-2.6-9.4-5.3-14-7.9c-1.5-0.2-3-0.5-4.5-0.7c-13.9,0-27.9,0-41.8,0c-0.8,0.8-1.6,1.6-2.4,2.4
		c-0.8,1.1-1.6,2.3-2.4,3.4c-2.2,7.8-4.3,15.5-6.5,23.3c0.3,1.4,0.7,2.7,1,4.1c4.7,5.4,9.5,10.7,14.2,16.1c0.2,0.3,0.4,0.7,0.6,1
		L609,765l1.7,0.4C619,763,627.1,760.6,635.3,758.1z"/>
	<polygon class="st2" points="162.2,778.4 145.3,742.6 143.5,741.4 99.2,736.9 96.7,739.1 100.2,797.9 102.1,799.9 140.6,804.9 
		196.1,801 197,797 	"/>
	<polygon class="st3" points="118.6,671.7 121.8,669 122.3,667.5 117.1,636.9 126.9,605.4 126.4,603.6 94.7,581.6 92.4,582.8 
		89,630.5 95.8,665.4 96.9,666.6 117.3,672 	"/>
	<polygon class="st1" points="139.7,385.4 152.7,367.9 153.1,366.2 144.3,321.4 142.5,318.2 125.6,308.3 121.9,307.7 95,342.5 
		94.9,344.6 98.9,352.7 101.5,354.2 110.5,360.8 136.9,385.7 	"/>
	<polygon class="st3" points="223.8,589.4 224,564.2 223.7,563 210.2,540.4 207.1,539.8 196.3,548 195.5,549.1 189.2,568.3 
		189.1,569.3 193.1,615.3 193.9,616.8 199.9,621.8 203,621.3 223.4,590.7 	"/>
	<polygon class="st2" points="157.3,715.5 172.3,702 173.7,697.1 163.4,655.9 165.6,649.5 175.6,631.5 175.9,630.2 174.1,624.2 
		171.7,622.9 146.4,623.1 144.2,624.2 130.8,647.7 130.2,651.6 136.1,681.6 130.6,701.9 134.9,719.5 137.7,721.4 	"/>
	<polygon class="st3" points="731.9,103.7 722.2,116.1 721.8,117.6 724.4,129.8 725.4,131 748.4,143.2 775.5,168.9 776.4,169.4 
		793.4,172.8 795.5,171.5 801.5,146.1 801.5,145.5 797.7,104.6 796.7,103.2 784,96.7 782.9,96.5 733.1,103 	"/>
	<polygon class="st3" points="755.5,324.8 742.9,325.8 741.9,326.4 736.1,334.7 735.9,335.9 741.4,356 741.1,386 741.3,386.8 
		748.6,398.6 750.6,399.1 768.7,388.7 769.1,388.4 790.9,363.8 791.2,362.4 788.1,351.5 787.6,350.8 756.6,325.1 	"/>
	<path class="st2" d="M490.4,153.8l-5.8,20.7l0.3,2.1l9.3,14.7l1.7,1.2c14.4,6.1,28.8,12.3,43.2,18.4c12.8,1.9,25.6,3.8,38.5,5.8
		c0.5-0.1,1.1-0.2,1.6-0.4c5.7-1,11.4-2,17.2-3c0.9-0.5,1.9-1,2.8-1.5c0.5-1.1,1-2.2,1.5-3.4c-1.4-10.6-2.8-21.3-4.2-31.9l-0.2-0.8
		l-25-51.3l-1.9-1.4l-18.7-2.5l-1.4,0.3C529.6,131.7,510,142.8,490.4,153.8z"/>
	<polygon class="st1" points="737.4,229.1 736.8,230.6 737.2,236.9 738.1,238.4 787.3,266.4 790.1,265.4 799.5,236.8 799.6,200.2 
		797.8,198.3 772.9,196 771.4,196.5 	"/>
	<path class="st2" d="M318.7,704.1v-1.5l-2.7-5.2l-1.5-0.9l-60-2.5l-2.4,2.1l1.1,28.4l13.4,31.3l2.5,0.9c7.5-3.1,15-6.3,22.5-9.4
		c0.4-0.4,0.8-0.8,1.2-1.2c12.1-7,24.2-14,36.2-21c0.2-0.8,0.5-1.6,0.7-2.4c-0.1-0.8-0.1-1.6-0.2-2.4
		C325.9,714.9,322.3,709.5,318.7,704.1z"/>
	<polygon class="st1" points="715.4,248.7 702.6,257.7 689.6,279.8 690.8,282.3 719.8,290.7 771.8,316.3 773.5,316.4 782.7,313.5 
		784,311.7 782.4,282.8 781.4,281.3 717.6,248.6 	"/>
	<polygon class="st1" points="167.6,359.9 180.9,373.1 208.9,383.4 211.5,381.5 213.7,344.6 229.4,276.1 229.1,274.1 223.5,263.8 
		221.1,262.6 188.9,271.4 187.6,272.9 166.8,357.2 	"/>
	<polygon class="st1" points="632.8,113.2 617.6,109.6 592.5,114.5 591.4,117 604.3,144.3 619.8,200.2 620.8,201.6 629,206.5 
		631.2,206.3 651.8,185.9 652.3,184.1 634.4,114.8 	"/>
	<polygon class="st1" points="756.1,178.1 742.3,165.6 726.9,154.6 726,154.3 705.4,152.1 703.5,153.2 686.4,195.7 687.3,197.9 
		717.1,212.9 718.6,212.9 732.2,207.2 756.7,185.2 757.2,183.7 756.6,179.1 	"/>
	<polygon class="st3" points="128.8,160.5 131.5,157.4 185.5,146.6 186.6,145.3 192,138.1 191.8,136.6 177.9,114.7 175.3,111.9 
		129.1,104.6 106.3,110.1 105.1,111.5 99,137.9 97.5,184.1 97.5,199.3 99.4,201.2 105,201 106.4,200.2 	"/>
	<polygon class="st1" points="119.2,282.7 119.6,281.7 125.2,233.9 124.6,232.2 111.8,220.3 108.7,220.9 97.1,229.1 95.5,232.2 
		96.8,295.6 98,297.3 103.7,299.6 105.9,299 	"/>
	<polygon class="st1" points="702.5,614.6 723.3,600.5 723.7,598.8 706.6,575.6 697.2,553 695.8,540.9 695,539.4 690.6,536 
		689,535.7 666.8,541.6 666.1,542.3 655.5,574.2 656.2,576.1 700.7,614.5 	"/>
	<polygon class="st1" points="365.5,674.6 357,696.9 357.4,699.4 385.8,727.6 387.7,728 410.3,721.1 411.8,719.3 413.4,700.3 
		411.1,697.1 368.7,673.1 	"/>
	<polygon class="st1" points="241.9,608.6 227.1,627.2 226.7,629.8 245.4,665.2 247.1,666.1 270.8,666.3 272.7,665.1 279.9,647.4 
		278.6,643.6 245.4,608 	"/>
	<polygon class="st1" points="380,205.2 367,185.2 364.7,184.1 325.2,190.5 323.8,191.8 316,214.2 316.6,216.4 331.1,228.9 
		335.1,228.9 379.4,208.7 	"/>
	<polygon class="st2" points="211.4,196.7 210.9,194.3 188.4,168.6 185.7,167.8 144.6,179.7 142.8,181.3 136.4,199.6 136.2,200.8 
		142.7,250.8 146.5,254.1 194.1,247.2 200.2,241.7 	"/>
	<polygon class="st1" points="225.7,168.4 266.7,171.5 269.9,169.7 281.5,118.7 279.3,116.1 257.1,109.6 251.3,110.3 207.7,124.7 
		206.1,127.7 223.8,167.2 	"/>
	<polygon class="st3" points="519.8,750 492,719.7 488.5,718.8 445.1,748 445,751.4 456.7,771.4 461.4,774.8 503,794.1 506.3,793 
		520.3,752.1 	"/>
	<polygon class="st1" points="256,250 287,241.6 288.9,239.9 299.1,199.3 297.1,196.4 253.4,184.1 249.7,184.1 235.7,185.3 
		232.7,187.2 213.5,240.5 215.8,243.4 254.5,250.1 	"/>
	<polygon class="st2" points="384.9,118.6 357.9,121.2 342.9,120.9 302.9,116.5 299.8,118.6 288.2,168.2 288.9,170.7 307.6,186.1 
		311.2,186.4 336.7,162.6 341.6,161.2 380.6,155.8 382.5,151.6 387.2,121.8 	"/>
	<polygon class="st1" points="432.7,147 438.8,149.3 502.6,133.2 506.8,129.6 513.5,117 506.4,110.8 415.1,107 413.2,112.6 	"/>
	<polygon class="st3" points="402.8,131.8 386.3,170.4 388.5,174.1 405,184.9 408.9,185.6 430.1,170.5 431.8,166.3 406.7,131.2 	"/>
	<polygon class="st1" points="599.7,805.2 617.5,806.3 618.6,804.9 620.6,796.7 620.3,795.1 611.3,788.8 609.3,788.7 598.9,803.7 	
		"/>
	<path class="st2" d="M556.5,679.6c-12.9,4.7-25.8,9.5-38.7,14.2c-1.8,1.8-3.5,3.6-5.3,5.4c-2.2,4.8-4.4,9.6-6.6,14.3l1.4,4.2
		l26,11.2l5-0.8l20.8-45L556.5,679.6z"/>
	<path class="st1" d="M491.9,625.7c-5.6,0-11.3-0.1-16.9-0.1c-0.9,0.5-1.8,0.9-2.7,1.4c-1.4,1.6-2.9,3.1-4.3,4.7v1.9l8.8,8.2
		l2.1,0.4l13.7-14.7L491.9,625.7z"/>
	<path class="st3" d="M328.8,676.8c-8.6,1.7-17.2,3.4-25.8,5.1c-1.7-0.3-3.3-0.6-5-0.9c-3.1-1.6-6.2-3.1-9.4-4.7l-1-2.4l8.7-13.1
		l2.9-1.1l29.5,14.7L328.8,676.8z"/>
	<path class="st2" d="M631.6,214.4l11.4-2.8l31.1,1.4l2.5,2.4c6.6,2.7,13.2,5.3,19.8,8c0.8,1,1.7,1.9,2.5,2.9
		c0.1,1.2,0.2,2.4,0.4,3.6c-2.5,6.1-5.1,12.1-7.6,18.2c-3.9,3.8-7.9,7.6-11.8,11.3c-7.9,8.7-15.7,17.4-23.6,26.1h-4.4
		c-7.7-1-15.4-2-23-3c-1.5-0.7-3-1.3-4.4-2c-6.5-15.8-12.9-31.5-19.4-47.3c0.7-2,1.4-4,2.1-6c1.8-1.7,3.6-3.3,5.4-5L631.6,214.4z"/>
	<polygon class="st1" points="430.2,196.1 435,187.4 461.8,165 466.4,166.5 483.5,208 481.3,216.5 437.3,204.7 	"/>
	<polygon class="st1" points="222.9,523 213,526.7 174.2,521.5 170.8,515.2 179.9,456 187.2,449.7 221.4,507 	"/>
	<path class="st2" d="M136.2,506.1l-19.9,17l-21.7,10.7l-5.6,5.6v21.8l3.5,12h1.9l7.4-1.9l1.7,0.6l13.6,12.1l10.7,3.6l1.3-0.5
		c4.3-7.9,8.5-15.8,12.8-23.7c0-0.6,0-1.2,0-1.8c-0.1-5.6-0.3-11.2-0.4-16.8c0.5-0.9,0.9-1.7,1.4-2.6l4-9.1l12-15.4v-1.8l-9.4-9.8
		l-1.6-1.5L136.2,506.1z"/>
	<path class="st1" d="M164,277.9c-1.9,6.5-3.9,12.9-5.8,19.4c-0.7,0.8-1.3,1.6-2,2.5c-2.8,1.4-5.7,2.8-8.5,4.1l-19.9-9.2l-0.9-2.9
		l2.9-17.9l1.7-2.2l17.9-6.9h2.6l12,11.6L164,277.9L164,277.9z"/>
	<path class="st1" d="M489,704.6c1.3-1.1,2.7-2.2,4-3.3c4.3-7.2,8.6-14.3,12.9-21.5l-0.8-1.6l-11.4-2.6l-4.2,1.3
		c-14.5,5.5-29,10.9-43.5,16.4c-0.9,0.7-1.8,1.3-2.8,2c-1.8,3.3-3.6,6.6-5.5,9.9c1.1,3,2.1,5.9,3.2,8.9c1.2,2.4,2.4,4.8,3.6,7.2
		c0.4,0,0.9,0.1,1.3,0.1c0.4,0,0.9,0.1,1.3,0.1C461.1,715.8,475,710.2,489,704.6z"/>
	<path class="st1" d="M724.1,481.2c-0.7-1.3-1.4-2.7-2.1-4c-7.9-5.5-15.7-11.1-23.6-16.6h-3.1l-12.8,7.2l-1.2,3.4
		c-2.6,12.2-5.1,24.4-7.7,36.6c0.3,0.9,0.7,1.8,1,2.7c3.7,2.4,7.4,4.9,11.2,7.3c5.4,0.3,10.8,0.5,16.3,0.8c4.6,0,9.3,0,13.9-0.1
		c0.4-0.3,0.8-0.6,1.2-0.9c0.4-0.3,0.8-0.6,1.2-0.9C720.3,504.9,722.2,493,724.1,481.2z"/>
	<path class="st3" d="M689.5,754.7c1-0.6,2.1-1.1,3.1-1.7c4-6,8-12,12-18l-0.2-2.3l-6.3-8.9l-2.8-0.7c-9.8-1.2-19.5-2.5-29.3-3.7
		c-0.7,0.3-1.4,0.6-2.1,0.9c-1.7,2.8-3.5,5.7-5.2,8.5c0,4,0.1,7.9,0.1,11.9c0.2,3.4,0.5,6.8,0.7,10.1c0.3,0.3,0.5,0.5,0.8,0.8
		c0.3,0.3,0.5,0.5,0.8,0.8C670.6,753.1,680.1,753.9,689.5,754.7z"/>
	<path class="st1" d="M176,410.6v-5.1l-6.7-10.3c-7.2-0.3-14.4-0.7-21.6-1l-4.6,2.6l-10.3,5.7h-5.1L103,380.4l-4.6-2.1l-6.7,1.5
		l-2.1,4.6l4.6,36.5l1,7.2l-4.1,18.5c1.2,15.3,2.3,30.6,3.5,45.8c-0.1,0.8-0.3,1.7-0.4,2.5c-1.1,2.7-2.1,5.3-3.2,8
		c-0.1,0.9-0.1,1.8-0.2,2.7c2.2,2.1,4.4,4.2,6.5,6.4c0.7,0.3,1.3,0.6,2,0.9c0.7,0,1.5,0,2.2,0c5.8-3.6,11.6-7.2,17.4-10.8l16.5-15.4
		c6.7-2.6,13.4-5.2,20.1-7.7c0.8-0.9,1.7-1.8,2.5-2.7C164.1,454.4,170,432.5,176,410.6z"/>
	<g>
		<polygon class="st0" points="582.7,602.3 584.6,597.8 583.6,592.7 565.3,583.1 560.5,583.1 555.1,586.4 540.7,613.4 524.1,633.3 
			517.8,638.4 516.9,640.4 517.5,642.7 519.8,643 550.3,626.7 		"/>
		<polygon class="st0" points="555.5,469.8 555.5,465.2 551.9,459.1 550.3,457.1 484.9,453.1 456.1,455.8 453.2,458.4 450.7,507.9 
			453.8,535 456.7,536.3 499.2,540.1 516,543.5 537.2,548.3 539.8,547.6 540.8,546.5 553.4,500.7 		"/>
		<polygon class="st0" points="650.8,477.7 650.8,472.6 642.7,460.1 640.1,458.7 614.2,458.7 588,457.8 585.4,458.7 583.6,462.7 
			576.6,523.4 568.2,556.3 568.2,560 570.3,562.3 591.7,572.1 605.4,577.6 607.9,577.6 610.9,575.6 637.6,534.1 		"/>
		<polygon class="st0" points="589.9,286.3 589.9,287.9 582.6,296.1 558.1,303.3 556.5,303.3 555,302.2 545.6,285.5 532.1,259 
			516.9,242.3 516.9,240.8 518.3,239.4 535.5,245.2 566.2,261.8 		"/>
		<polygon class="st0" points="607.7,310.9 606.3,310 603.1,310 593.1,313.5 568.5,325 568,326.6 569,332 579.3,377.2 584.9,427.1 
			586.3,429.2 587.8,430.2 630.7,432 650.9,429.8 652.3,428.4 652.3,424.3 639.7,385.4 638.2,379 		"/>
		<polygon class="st0" points="559.9,422.7 559.1,425.8 557.4,428.1 551.9,430.2 508.5,431 474.1,428.2 457.8,428.4 456.1,427.4 
			454.7,424.1 453.2,421.6 451.2,417.3 450.4,382.6 451.9,348.6 453.8,346.6 470.6,344.8 514.5,342.5 530,339.7 533.4,338.8 
			539.7,340.3 557.6,392.1 		"/>
		<polygon class="st0" points="532.7,583.4 536,575.5 536,573.2 534.4,570.4 496.2,561.8 449.4,561.8 446.6,565.1 448,642.1 
			449.1,655 451.7,655.5 472.4,650.8 518.8,612.6 		"/>
		<path class="st0" d="M528.3,299.8l3.1,7.4v2.2l-1.5,2.6c-7.6-0.2-15.1-0.3-22.7-0.5c-19.2,2.9-38.4,5.8-57.7,8.6l-2.6-3.1
			l1.3-72.9l1.1-12.1l2.4-0.5l19.6,4.5l43.8,36.1L528.3,299.8z"/>
		<polygon class="st0" points="284.2,282.6 282.2,287.2 283.2,292.6 302.4,302.7 307.4,302.7 313.1,299.2 328.2,270.9 345.6,250.1 
			352.2,244.7 353.1,242.6 352.5,240.2 350.1,239.9 318.2,257 		"/>
		<polygon class="st0" points="315.5,410.2 315.5,415 319.2,421.2 320.8,423.3 387.9,427.4 417.4,424.6 420.4,421.9 423,371.2 
			419.8,343.5 416.8,342.2 373.2,338.3 356,334.7 334.3,329.8 331.7,330.5 330.6,331.6 317.7,378.6 		"/>
		<polygon class="st0" points="225.6,404.2 225.6,409.2 233.4,421.3 235.9,422.6 261,422.6 286.4,423.5 288.9,422.6 290.7,418.8 
			297.4,360 305.6,328.1 305.6,324.5 303.5,322.3 282.8,312.9 269.6,307.5 267.1,307.5 264.2,309.5 238.4,349.7 		"/>
		<polygon class="st0" points="289.5,592.5 289.5,591.1 295.9,583.9 317.5,577.5 318.8,577.5 320.2,578.5 328.4,593.2 340.3,616.5 
			353.7,631.2 353.7,632.5 352.5,633.7 337.3,628.6 310.3,614 		"/>
		<path class="st0" d="M267.2,563.2l1.3,0.9h2.9l9.1-3.2l22.5-10.5l0.4-1.5l-0.9-5l-9.5-41.3l-5.1-45.7l-1.3-1.8l-1.4-1l-39.2-1.6
			c-5.2,0.6-10.3,1.1-15.5,1.7c-0.6,0.7-1.1,1.4-1.7,2.2c-0.2,0.9-0.4,1.7-0.6,2.6c6.7,16.7,13.3,33.5,20,50.2
			C254.6,527.2,260.9,545.2,267.2,563.2z"/>
		<path class="st0" d="M311.9,456.3l0.8-3.1l1.7-2.3l5.6-2.2l43.7-0.8c15.3,2.1,30.5,4.1,45.8,6.2c1.3,1,2.7,2.1,4,3.1
			c0.8,1,1.7,2.1,2.5,3.1c-0.6,11.4-1.3,22.8-1.9,34.3c2.2,12.1,4.4,24.3,6.6,36.4l-1.9,2l-17,1.9l-44.3,2.3l-15.6,2.8l-3.4,0.9
			l-6.4-1.6l-18-52.3L311.9,456.3z"/>
		<polygon class="st0" points="342.4,299.2 339.4,306.5 339.4,308.6 340.9,311.2 376.2,319.2 419.4,319.2 422,316.2 420.7,245 
			419.6,233.1 417.3,232.6 398.1,237 355.3,272.3 		"/>
		<path class="st0" d="M339.6,580.4l-3.3-7.8v-2.3l1.6-2.8c8,0.2,16,0.3,24,0.5c20.3-3,40.7-6.1,61-9.1l2.8,3.3l-1.4,77.1l-1.2,12.8
			l-2.6,0.6l-20.7-4.7l-46.4-38.2L339.6,580.4z"/>
	</g>
</g>
<g id="Layer_6">
</g>
<g id="Layer_7">
</g>
<g id="Layer_8">
</g>
</svg>
