<?xml version="1.0" encoding="utf-8"?>
<!-- Generator: Adobe Illustrator 28.2.0, SVG Export Plug-In . SVG Version: 6.00 Build 0)  -->
<svg version="1.1" id="Layer_1" xmlns="http://www.w3.org/2000/svg" xmlns:xlink="http://www.w3.org/1999/xlink" x="0px" y="0px"
	 viewBox="0 0 892 892" style="enable-background:new 0 0 892 892;" xml:space="preserve">
<style type="text/css">
	.st0{fill:#2159AA;}
	.st1{fill:#FFC30C;}
	.st2{fill:#FFE7A4;}
	.st3{fill:#DBA305;}
</style>
<g id="Layer_1_00000112604490320875149890000002408379459140816262_">
</g>
<g id="Layer_2_00000142860052948127918570000006425597391325118380_">
</g>
<g id="Layer_3">
</g>
<g id="Layer_4">
</g>
<g id="Layer_5">
</g>
<g id="Layer_6">
	<path id="frame_00000029739192738573250000000004126329251963864995_" class="st0" d="M588.9,888.1h291.3L892,879l-4.5-429.2
		l-4.7-436.7L873.6,0l-178,4.5l-477.3,6.9L25.6,7.7l-11,14.1l-3,109.1L6.9,781l9,108.4l4.6,4.2L588.9,888.1z M816,815.7l-13.4,9.6
		l-284-6.5L89,825.3l-10.1-14.7L71.6,570L79,94.9l8-12.7l121.7,3.5h431.9l174.1-6.1l6.1,12.2L808,472.6L816,815.7z"/>
	<polygon class="st1" points="741.1,652.1 763.5,690.5 765,694.1 773.4,729.9 776.3,732 792.8,735.9 794.6,733.2 797.6,685.6 
		783.7,638.9 777.9,637.2 742.5,648.9 	"/>
	<path class="st2" d="M702.8,638.1l-2.3,1.1l-32.7,54.9l1.3,2.7l40.8,12.4l2.1-0.3l28.6-17.3l0.8-2.3c-8-18.5-20.2-46.6-20.7-48.6
		h-0.3l-1.8-1.7L702.8,638.1z"/>
	<path class="st1" d="M753,631.7c-1.9-8.5-3.9-17.1-5.8-25.6c-13.9-19.7-27.7-39.5-41.6-59.2c-0.8-0.3-1.6-0.6-2.4-0.9
		c-1.1,0.4-2.3,0.7-3.4,1.1c-11.4,9-22.7,18-34.1,27c-0.2,0.7-0.5,1.4-0.7,2c0.6,7.1,1.3,14.3,1.9,21.4c0.2,0.8,0.3,1.6,0.5,2.5
		c6.9,7.5,13.8,15.1,20.7,22.6c1.1,0.7,2.2,1.3,3.3,2c1.3,0.4,2.7,0.8,4,1.3c17.6,2.8,35.1,5.6,52.7,8.4c1-0.1,2.1-0.2,3.1-0.4
		C751.8,633.2,752.4,632.5,753,631.7z"/>
	<path class="st1" d="M790.3,560.2l-1.6-82.8l-1.9-1.8c-16.9,4-44.7,10.2-47.3,9.9c-0.5,0.7-1.1,1.4-1.6,2.1
		c-0.8,10.7-1.5,21.3-2.3,32c0.3,1,0.6,2.1,0.8,3.1c17.1,13,34.1,26.1,51.2,39.1L790.3,560.2z"/>
	<path class="st2" d="M731.6,542.4c-1.5,3.5-3,6.9-4.6,10.4c0,1.2,0,2.4,0,3.5c14.2,21.7,28.3,43.4,42.5,65.1l1.8,1.4h17.4l2-2.2
		V596l-0.6-1.6c-18.6-17.6-37.2-35.2-55.8-52.8C733.3,541.9,732.5,542.1,731.6,542.4z"/>
	<path class="st1" d="M735.1,426.4c-0.2,12.4-0.4,24.7-0.6,37.1l1.4,2.2l42.4-3.3l1-0.6l8.2-10.8l0.3-0.9v-51l-2.2-1.2l-14.7,10.9
		c-11,4.6-22,9.1-33.1,13.7C736.9,423.7,736,425.1,735.1,426.4z"/>
	<path class="st1" d="M177.6,574.1c0.5-7.7,0.9-15.4,1.4-23.1c-0.2-0.4-0.5-0.8-0.7-1.1c-1.6-1.6-3.1-3.1-4.7-4.7
		c-0.3,0.1-0.7,0.2-1,0.3c-7.5,6.5-14.9,13.1-22.4,19.6c-0.1,0.2-0.2,0.4-0.4,0.7l-1,8.6l0.1,0.6l17.3,25.6l1.7-0.2l4.7-11.1
		L177.6,574.1z"/>
	<path class="st1" d="M667.9,406.9c-2.2-15-4.3-30-6.5-45c-0.5-0.3-1.1-0.5-1.6-0.8c-3.1-0.1-6.2-0.2-9.2-0.3
		c-0.5,0.8-1,1.6-1.4,2.3c-9.4,25.2-18.8,50.5-28.3,75.7c-0.1,0.6-0.2,1.2-0.3,1.9l1.6,17.5l0.4,0.8l37.1,16.5l2.6-3.4l3.3-28.7
		L667.9,406.9z"/>
	<path class="st2" d="M680.9,402.3c4.7,13.6,9.4,27.2,14.1,40.8c0.7,0.3,1.3,0.7,2,1c3.6,0.7,7.2,1.3,10.9,2
		c0.4-0.6,0.9-1.2,1.3-1.8c7.3-20.4,14.7-40.9,22-61.3c0-0.5,0.1-1.1,0.1-1.6l-4.5-15.7l-0.6-0.8l-45.8-21.5l-2.5,2.5l0.4,24.7
		L680.9,402.3z"/>
	<path class="st3" d="M651.8,607.5c-5.2-0.8-10.4-1.6-15.6-2.4c-1.5,1.6-2.9,3.1-4.4,4.7l-4.1,2.7c-3.9,2.6-56.2,36.8-60.2,39.5
		c-0.3,0.6-0.7,1.1-1,1.7l3.9,12.1l2.7,2.2l81.3,11.2l3-3.2c5.6-12,11.1-24.1,16.7-36.1c0.1-0.8,0.2-1.7,0.4-2.5
		c-0.3-0.8-0.6-1.7-0.9-2.5c-5.5-8.2-11-16.3-16.5-24.5c-0.5-0.7-1.1-1.5-1.6-2.2C654.2,607.8,653,607.6,651.8,607.5z"/>
	<polygon class="st1" points="732,804.4 732.6,806.5 796.8,802.6 798.7,800.4 797.6,757.5 795.2,756.3 758.2,773 	"/>
	<polygon class="st2" points="736.4,777.6 735.5,774.7 663.1,764 661.2,764.4 633.1,791.7 633.3,794.7 650.9,806.2 651.9,806.5 
		714.9,806.5 716.4,805.7 	"/>
	<path class="st1" d="M717.1,754.3l27.8,4.8l1.3-0.4l18.3-10.5l0.9-2.6c-3.9-14.4-7.7-28.8-11.6-43.2c-1-0.4-1.9-0.7-2.9-1.1
		c-5.7,4.5-11.5,9.1-17.2,13.6l-2.3,0.7l-14,18.8l-2.5,18.1L717.1,754.3z"/>
	<polygon class="st1" points="231.1,681.9 226.9,651.5 226,650.3 209,634.9 206,634.8 183.8,648.9 182.5,651 184.8,677.8 
		186.3,679.9 210.4,688.1 230,684.7 	"/>
	<polygon class="st1" points="595.3,788.1 576.3,768.1 563.5,753.5 562.1,752.4 538.2,745.9 535.5,747.5 523.6,776.8 521.4,802 
		523.6,804.3 560.1,804.4 560.9,804.3 594.5,791.7 	"/>
	<path class="st2" d="M428.3,797.9l22.4,8.8l3.4-2l1.9-11.4l-0.3-1.7L432,764.3v-0.1c0.7-10.9,1.4-21.9,2.1-32.8
		c-1.5-1.4-3.1-2.7-4.6-4.1c-15,7.8-30,15.6-44.9,23.4l-0.5,1l-5,40.2l1.6,2l19.3,1.8L428.3,797.9z"/>
	<polygon class="st1" points="312.5,801.9 360,798.3 361.7,796.5 370.7,740.4 370.2,738.9 361.7,724.5 359.3,724.1 303.4,761.2 
		302.5,763.3 310.5,800.4 	"/>
	<path class="st2" d="M699,101.1l-36.4,3.9l-1.3,1.4l-5.6,43.5l0.4,1.1c1.3,7.6,2.6,15.2,3.9,22.8c2.4,4.5,4.8,9,7.3,13.4
		c1-0.4,1.9-0.7,2.9-1.1c3.8-11.4,7.7-22.7,11.5-34.1c0.4-0.9,0.8-1.8,1.3-2.7c8-5.7,16-11.4,24.1-17c0.2-0.5,0.4-1.1,0.7-1.6
		C704.7,120.8,701.9,110.9,699,101.1z"/>
	<polygon class="st1" points="230.2,791.8 224.8,802.6 225.5,805.2 248.9,808.4 250.4,808.6 273.5,806.5 289.5,807.3 292.1,805.2 
		284.7,775.7 283.2,774.6 274.9,772.5 273.4,772.5 231.4,791.2 	"/>
	<polygon class="st1" points="175.9,762.5 200.6,782.9 202.9,783 223.6,770.6 240.2,752.3 240.7,750.7 233.8,702.2 231.6,700.5 
		201.4,704 200.3,704.5 170.8,734.3 170.2,736 175.2,761.4 	"/>
	<path class="st1" d="M635,760.8c3.9-5.3,7.9-10.7,11.8-16c0.1-1.3,0.2-2.6,0.4-3.9c-3-13.1-5.9-26.2-8.9-39.4
		c-1.3-1.1-2.6-2.1-3.9-3.2c-4.8-2.7-9.7-5.4-14.5-8.2c-1.5-0.2-3.1-0.5-4.6-0.7c-14.4,0-28.9,0-43.3,0c-0.8,0.8-1.7,1.7-2.5,2.5
		c-0.8,1.2-1.7,2.4-2.5,3.5c-2.2,8-4.5,16.1-6.7,24.1c0.4,1.4,0.7,2.8,1.1,4.3c4.9,5.5,9.8,11.1,14.7,16.6c0.2,0.4,0.4,0.7,0.6,1.1
		l31.3,26.4l1.7,0.4C618.1,765.9,626.6,763.3,635,760.8z"/>
	<polygon class="st2" points="162.2,778.4 145.3,742.6 143.5,741.4 99.2,736.9 96.7,739.1 100.2,797.9 102.1,799.9 140.6,804.9 
		196.1,801 197,797 	"/>
	<polygon class="st3" points="118.6,671.7 121.8,669 122.3,667.5 117.1,636.9 126.9,605.4 126.4,603.6 94.7,581.6 92.4,582.8 
		89,630.5 95.8,665.4 96.9,666.6 117.3,672 	"/>
	<polygon class="st1" points="139.7,385.4 152.7,367.9 153.1,366.2 144.3,321.4 142.5,318.2 125.6,308.3 121.9,307.7 95,342.5 
		94.9,344.6 98.9,352.7 101.5,354.2 110.5,360.8 136.9,385.7 	"/>
	<polygon class="st3" points="223.8,589.4 224,564.2 223.7,563 210.2,540.4 207.1,539.8 196.3,548 195.5,549.1 189.2,568.3 
		189.1,569.3 193.1,615.3 193.9,616.8 199.9,621.8 203,621.3 223.4,590.7 	"/>
	<polygon class="st2" points="157.3,715.5 172.3,702 173.7,697.1 163.4,655.9 165.6,649.5 175.6,631.5 175.9,630.2 174.1,624.2 
		171.7,622.9 146.4,623.1 144.2,624.2 130.8,647.7 130.2,651.6 136.1,681.6 130.6,701.9 134.9,719.5 137.7,721.4 	"/>
	<polygon class="st3" points="731.9,103.7 722.2,116.1 721.8,117.6 724.4,129.8 725.4,131 748.4,143.2 775.5,168.9 776.4,169.4 
		793.4,172.8 795.5,171.5 801.5,146.1 801.5,145.5 797.7,104.6 796.7,103.2 784,96.7 782.9,96.5 733.1,103 	"/>
	<polygon class="st3" points="755.5,324.8 742.9,325.8 741.9,326.4 736.1,334.7 735.9,335.9 741.4,356 741.1,386 741.3,386.8 
		748.6,398.6 750.6,399.1 768.7,388.7 769.1,388.4 790.9,363.8 791.2,362.4 788.1,351.5 787.6,350.8 756.6,325.1 	"/>
	<path class="st2" d="M484.5,143.3l-5.8,20.7l0.3,2.1l9.3,14.7l1.7,1.2c14.4,6.1,28.8,12.3,43.2,18.4c12.8,1.9,25.6,3.8,38.5,5.8
		c0.5-0.1,1.1-0.2,1.6-0.4c5.7-1,11.4-2,17.2-3c0.9-0.5,1.9-1,2.8-1.5c0.5-1.1,1-2.2,1.5-3.4c-1.4-10.6-2.8-21.3-4.2-31.9l-0.2-0.8
		l-25.1-51.4l-1.9-1.4l-18.7-2.5l-1.4,0.3C523.7,121.3,504.1,132.3,484.5,143.3z"/>
	<polygon class="st1" points="737.4,220.8 736.8,222.3 737.2,228.7 738.1,230.2 787.3,258.2 790.1,257.2 799.5,228.6 799.6,192 
		797.8,190.1 772.9,187.8 771.4,188.3 	"/>
	<path class="st2" d="M318.7,704.1v-1.5l-2.7-5.2l-1.5-0.9l-60-2.5l-2.4,2.1l1.1,28.4l13.4,31.3l2.5,0.9c7.5-3.1,15-6.3,22.5-9.4
		c0.4-0.4,0.8-0.8,1.2-1.2c12.1-7,24.2-14,36.2-21c0.2-0.8,0.5-1.6,0.7-2.4c-0.1-0.8-0.1-1.6-0.2-2.4
		C325.9,714.9,322.3,709.5,318.7,704.1z"/>
	<path class="st2" d="M243.4,566.2l-1.2,1.6l-2,7.9l0.4,2.2l41.1,50.2l3.3-0.4l20.6-31.9c-0.6-16.6-1.2-33.3-1.8-49.9
		c-0.6-1.1-1.2-2.1-1.8-3.2c-2.3-0.7-4.6-1.5-6.9-2.2c-0.6,0.1-1.2,0.2-1.7,0.3c-13.9-1.9-27.8-3.8-41.7-5.8
		c-0.8,0.7-1.6,1.4-2.4,2.1c-0.5,0.9-1.1,1.9-1.6,2.8C246.4,548.7,244.9,557.5,243.4,566.2z"/>
	<polygon class="st1" points="239,502.5 252.3,515.7 280.4,526 282.9,524.1 285.1,487.2 300.8,418.7 300.5,416.7 294.9,406.4 
		292.6,405.2 260.3,414 259,415.5 238.2,499.8 	"/>
	<polygon class="st1" points="632.8,113.2 617.6,109.6 592.5,114.5 591.4,117 604.3,144.3 619.8,200.2 620.8,201.6 629,206.5 
		631.2,206.3 651.8,185.9 652.3,184.1 634.4,114.8 	"/>
	<polygon class="st1" points="756.1,178.1 742.3,165.6 726.9,154.6 726,154.3 705.4,152.1 703.5,153.2 686.4,195.7 687.3,197.9 
		717.1,212.9 718.6,212.9 732.2,207.2 756.7,185.2 757.2,183.7 756.6,179.1 	"/>
	<polygon class="st3" points="128.8,160.5 131.5,157.4 185.5,146.6 186.6,145.3 192,138.1 191.8,136.6 177.9,114.7 175.3,111.9 
		129.1,104.6 106.3,110.1 105.1,111.5 99,137.9 97.5,184.1 97.5,199.3 99.4,201.2 105,201 106.4,200.2 	"/>
	<polygon class="st1" points="119.2,282.7 119.6,281.7 125.2,233.9 124.6,232.2 111.8,220.3 108.7,220.9 97.1,229.1 95.5,232.2 
		96.8,295.6 98,297.3 103.7,299.6 105.9,299 	"/>
	<path class="st1" d="M635.9,249.6l1.1,0.5l48.2,0.8l1.5-1.2l8.5-20.8l-1.4-4.4l-10.9-15.9l-3.5-1.9c-4.8-3-9.7-6.1-14.5-9.1
		c-1.5,0.2-3.1,0.4-4.6,0.5c-7.4,5.7-14.9,11.4-22.3,17.2c-6.8,1.1-13.6,2.2-20.4,3.3c-0.4,0.7-0.9,1.4-1.3,2l-0.8,8.8l1.1,3.1
		L635.9,249.6z"/>
	<polygon class="st1" points="359.3,674.6 350.8,696.9 351.2,699.4 379.6,727.6 381.5,728 404.1,721.1 405.6,719.3 407.2,700.3 
		404.9,697.1 362.5,673.1 	"/>
	<polygon class="st1" points="241.9,608.6 227.1,627.2 226.7,629.8 245.4,665.2 247.1,666.1 270.8,666.3 272.7,665.1 279.9,647.4 
		278.6,643.6 245.4,608 	"/>
	<path class="st1" d="M442,237.3c-0.3-14.2-0.6-28.5-0.9-42.7l-3.8-4.1l-85.5-17.7l-3.9,1.6L314.6,214l-0.5,5l19.8,36.7l8.1,3
		c31.5-5.5,62.9-11,94.4-16.6C438.2,240.5,440.1,238.9,442,237.3z"/>
	<polygon class="st2" points="211.4,196.7 210.9,194.3 188.4,168.6 185.7,167.8 144.6,179.7 142.8,181.3 136.4,199.6 136.2,200.8 
		142.7,250.8 146.5,254.1 194.1,247.2 200.2,241.7 	"/>
	<polygon class="st1" points="225.7,168.4 266.7,171.5 269.9,169.7 281.5,118.7 279.3,116.1 257.1,109.6 251.3,110.3 207.7,124.7 
		206.1,127.7 223.8,167.2 	"/>
	<polygon class="st3" points="519.8,750 492,719.7 488.5,718.8 445.1,748 445,751.4 456.7,771.4 461.4,774.8 503,794.1 506.3,793 
		520.3,752.1 	"/>
	<polygon class="st1" points="256,250 287,241.6 288.9,239.9 299.1,199.3 297.1,196.4 253.4,184.1 249.7,184.1 235.7,185.3 
		232.7,187.2 213.5,240.5 215.8,243.4 254.5,250.1 	"/>
	<polygon class="st2" points="392.2,108 365.3,110.8 350.3,110.6 310.2,105.7 307.2,108 295.6,162.6 296.2,165.3 314.9,182.2 
		318.5,182.5 344,156.4 349,154.9 387.9,149 389.9,144.3 394.6,111.5 	"/>
	<polygon class="st1" points="462,229.5 466.8,233.8 532.2,241.4 537.4,239.5 548.1,230.1 543.7,221.8 459.7,185.8 456,190.3 	"/>
	<path class="st1" d="M796.7,286.3l-1.9-5.4l-50.3-28.7l-5.2-0.1l-13.4,4.5l-0.3,8.7c20,23.7,40.1,47.3,60.1,71c1.1,0,2.2,0,3.3,0
		c0.5-0.6,1-1.3,1.5-1.9c0.8-5.7,1.5-11.4,2.3-17.2C794.1,306.9,795.4,296.6,796.7,286.3z"/>
	<polygon class="st3" points="302.8,237.8 295.2,255.6 296.2,257.3 303.8,262.3 305.6,262.6 315.3,255.6 316.2,253.7 304.6,237.6 	
		"/>
	<polygon class="st3" points="468.4,105 480.9,124.3 483.3,124.4 493.2,120.2 494.7,118.6 494.3,104.4 492.9,102.3 469.4,103 	"/>
	<polygon class="st1" points="599.7,805.2 617.5,806.3 618.6,804.9 620.6,796.7 620.3,795.1 611.3,788.8 609.3,788.7 598.9,803.7 	
		"/>
	<polygon class="st1" points="336.7,668.8 354.5,669.8 355.6,668.4 357.6,660.3 357.3,658.6 348.3,652.4 346.4,652.3 336,667.3 	"/>
	<polygon class="st3" points="705.3,523.1 713.8,538.7 715.6,538.9 723.5,536.2 724.8,535.1 725.3,524.1 724.3,522.5 706.1,521.6 	
		"/>
	<polygon class="st1" points="117.4,688.7 101.9,705 101.8,707.6 104.9,718.4 106.1,719.9 117.2,717.8 118.9,716.1 118.9,689.5 	"/>
	<polygon class="st1" points="192.4,416.7 201.7,401.5 201,399.9 194.8,394.3 193.2,393.8 183.4,398.8 182.4,400.4 190.7,416.7 	"/>
	<path class="st2" d="M556.5,679.6c-12.9,4.7-25.8,9.5-38.7,14.2c-1.8,1.8-3.5,3.6-5.3,5.4c-2.2,4.8-4.4,9.6-6.6,14.3l1.4,4.2
		l26,11.2l5-0.8l20.8-45L556.5,679.6z"/>
	<path class="st2" d="M225.6,473.5c4-13.1,8.1-26.3,12.1-39.4c-0.4-2.5-0.7-5-1.1-7.5c-2.5-4.6-4.9-9.3-7.4-13.9l-4.2-1.4
		l-24.6,13.9l-2.4,4.5l23.2,43.8L225.6,473.5z"/>
	<path class="st3" d="M282.8,676c3.9-12.5,7.8-25.1,11.7-37.6c1.5-0.9,2.9-1.9,4.4-2.8c3.8,0.5,7.6,1.1,11.5,1.6l3.3,4.5l8.6,39.2
		l-0.7,5.6l-36-4.9L282.8,676z"/>
	<path class="st1" d="M732,298.1c-1.1,10.6-2.2,21.3-3.4,31.9c-1,1.8-1.9,3.6-2.9,5.5c-2.9,3.1-5.9,6.2-8.8,9.2l-3.1,0.3
		c-4.9-1.9-9.8-3.8-14.8-5.7c-0.2-0.7-0.4-1.4-0.5-2.1c10.2-13.3,20.4-26.6,30.7-39.9L732,298.1z"/>
	<polygon class="st1" points="222.9,523 213,526.7 174.2,521.5 170.8,515.2 179.9,456 187.2,449.7 221.4,507 	"/>
	<path class="st2" d="M136.2,506.1l-19.9,17l-21.7,10.7l-5.6,5.6v21.8l3.5,12h1.9l7.4-1.9l1.7,0.6l13.6,12.1l10.7,3.6l1.3-0.5
		c4.3-7.9,8.5-15.8,12.8-23.7c0-0.6,0-1.2,0-1.8c-0.1-5.6-0.3-11.2-0.4-16.8c0.5-0.9,0.9-1.7,1.4-2.6l4-9.1l12-15.4v-1.8l-9.4-9.8
		l-1.6-1.5L136.2,506.1z"/>
	<path class="st1" d="M204.6,276.6c-3.5,8.2-7,16.4-10.6,24.5c-1.2,1-2.4,2.1-3.7,3.1c-5.2,1.7-10.3,3.5-15.5,5.2l-36.1-11.6
		l-1.7-3.7l5.3-22.6l3.1-2.7L178,260h4.8l21.8,14.6L204.6,276.6L204.6,276.6z"/>
	<path class="st1" d="M617.4,566c-1.3,2.3-2.5,4.6-3.8,6.9c-2.7,11.5-5.5,23.1-8.2,34.6l1.6,1.3l15.1-5.7l4.8-4.7
		c16-17.4,32-34.8,48-52.1c6.3-2.8,12.5-5.7,18.8-8.5c0.1-0.7,0.3-1.4,0.4-2.1c0-0.9,0-1.9,0-2.8c-7.9-5.2-15.9-10.9-23.9-17.1
		c-1.2-0.9-2.4-1.8-3.5-2.8c-0.6,0.3-1.1,0.6-1.7,0.9c-0.6,0.3-1.1,0.6-1.7,0.9C647.9,531.8,632.6,548.9,617.4,566z"/>
	<path class="st1" d="M724.1,473.9c-0.8-1.3-1.6-2.7-2.4-4c-9.1-5.5-18.2-11.1-27.3-16.6h-3.6l-14.8,7.2l-1.4,3.4
		c-3,12.2-6,24.4-8.9,36.7c0.4,0.9,0.8,1.8,1.2,2.7c4.3,2.4,8.6,4.9,12.9,7.3c6.3,0.3,12.5,0.5,18.8,0.8c5.4,0,10.7,0,16.1-0.1
		c0.5-0.3,0.9-0.6,1.4-0.9c0.5-0.3,0.9-0.6,1.4-0.9C719.7,497.6,721.9,485.7,724.1,473.9z"/>
	<path class="st1" d="M462.6,129.7c-0.8-1.6-1.6-3.1-2.4-4.7c-9.1-6.4-18.2-12.9-27.4-19.3h-3.6l-14.8,8.4l-1.4,4
		c-3,14.2-6,28.4-8.9,42.6c0.4,1,0.8,2.1,1.2,3.1c4.3,2.8,8.7,5.6,13,8.5c6.3,0.3,12.6,0.6,18.9,0.9c5.4,0,10.8-0.1,16.2-0.1
		c0.5-0.3,0.9-0.7,1.4-1s0.9-0.7,1.4-1C458.2,157.2,460.4,143.5,462.6,129.7z"/>
	<path class="st3" d="M689.5,754.7c1-0.6,2.1-1.1,3.1-1.7c4-6,8-12,12-18l-0.2-2.3l-6.3-8.9l-2.8-0.7c-9.8-1.2-19.5-2.5-29.3-3.7
		c-0.7,0.3-1.4,0.6-2.1,0.9c-1.7,2.8-3.5,5.7-5.2,8.5c0,4,0.1,7.9,0.1,11.9c0.2,3.4,0.5,6.8,0.7,10.1c0.3,0.3,0.5,0.5,0.8,0.8
		c0.3,0.3,0.5,0.5,0.8,0.8C670.6,753.1,680.1,753.9,689.5,754.7z"/>
	<path class="st1" d="M176,410.6v-5.1l-6.7-10.3c-7.2-0.3-14.4-0.7-21.6-1l-4.6,2.6l-10.3,5.7h-5.1L103,380.4l-4.6-2.1l-6.7,1.5
		l-2.1,4.6l4.6,36.5l1,7.2l-4.1,18.5c1.2,15.3,2.3,30.6,3.5,45.8c-0.1,0.8-0.3,1.7-0.4,2.5c-1.1,2.7-2.1,5.3-3.2,8
		c-0.1,0.9-0.1,1.8-0.2,2.7c2.2,2.1,4.4,4.2,6.5,6.4c0.7,0.3,1.3,0.6,2,0.9c0.7,0,1.5,0,2.2,0c5.8-3.6,11.6-7.2,17.4-10.8l16.5-15.4
		c6.7-2.6,13.4-5.2,20.1-7.7c0.8-0.9,1.7-1.8,2.5-2.7C164.1,454.4,170,432.5,176,410.6z"/>
	<g>
		<path class="st0" d="M416.5,660.9l-1.9-1.8l-1.8-3l-6.1-107.7v-5.2l-0.5-9.7l9.7-54.3l0.7-2.1l0.7-3.3
			c9.7-20.9,19.4-41.8,29.2-62.6c0.1-0.6,0.1-1.3,0.2-1.9c-0.1-0.6-0.2-1.2-0.4-1.8c-3.7-3.2-7.3-6.4-11-9.6
			c-8.2-14.4-16.4-28.8-24.6-43.2c-2.5-1.9-4.9-3.9-7.4-5.8c-1.1,0.2-2.2,0.4-3.3,0.5c-0.9,0.8-1.8,1.7-2.6,2.5
			c-1.9,2.3-3.8,4.6-5.6,6.9c-4.3,4.1-8.5,8.3-12.8,12.4c-2.5,2.4-4.9,4.7-7.4,7.1c-14.5,9.9-29,19.9-43.5,29.8
			c-3.7,14.9-7.3,29.9-11,44.8l1.1,6.1l-5.2,49.4l-11.3,9.5l0.3,3.7l4.9,2.8l18.6,18.6l-1.8,36.4l7.7,42.1l-0.7,21.3l3.4,1.4
			l23.2-4.6l5.3,3.5l14.4,22.1l36.4,22.5l5.6-0.6l3.9-4l4.9-11L416.5,660.9z"/>
		<path class="st0" d="M391.8,335c1.6-8.8,3.1-17.6,4.7-26.5l-11.7-32.1l-0.8,0.2l-61.8-2.7l-52,18.6l-25.9-9h-5.8l-32.4,34.4
			l-20.1,13v6.1l26.1,55.1l7,5.3h4.8l10-10.4l10.4,10.4l4.4,1.8l18.8-4.6l4.4-1.1l24.8-15l5.7-0.3c7.7,3.6,15.3,7.2,23,10.9
			c13.3-8.9,26.6-17.7,39.9-26.6c7.3-7.3,14.6-14.6,21.9-21.9C388.7,338.7,390.3,336.9,391.8,335z"/>
		<path class="st0" d="M717.5,288.7c-4.3-10.1-8.7-20.1-13-30.2l-3.8,0.4l-12.7,5.2l-52.3,4.1l-27.8-9.5l-2.7,1.3l-1.6,3.3l-1.1,3.5
			l-4.2,1.5l-87.8-4.1v-6.7l-13.5-4.9h-6.5l-14,4.4l-25.2,2.2l-52.4,13.6l13.9,30.6l7.4,25.9l30.3,55.8l2.1,2.6l4,2.2l99.5,12.4
			l5.7-1.1l2.6-4.2l66.9-32.6c16.6-11.8,33.2-23.6,49.8-35.3l2.2-4c11.2-10.1,22.3-20.1,33.5-30.2c0.3-0.9,0.6-2.1,0.7-3.5
			C717.6,290.3,717.6,289.4,717.5,288.7z"/>
		<path class="st0" d="M601.9,465.7V460l20.3-59l-57.4,19.8l-4.3,0.3l-90.4-9.8l-4.3,0.5l-1.9,2.3c-9.7,21.3-19.4,42.7-29.1,64
			c-3.2,18.7-6.4,37.3-9.6,56c0.1,1.4,0.2,2.8,0.4,4.3c2.6,36.3,5.3,72.5,7.9,108.8v2.7l1.3,2.9l5.7,8.1l0.5,1.9l3.9-3.4l10.9-5.3
			l4.3-1.7l6.3-11.1l3.9-3.9l32.4-6.5l32.7-2.5l1.6-1.1l2.4-4l7.4-7.2l6.5,0.5l3.6,3.4h2.7l39.7-55.5l3.2-2.5l0.8-17.2l22.7-45.4
			l1.8-7.4l-1.8-4.6L601.9,465.7z"/>
	</g>
	<path class="st1" d="M815.3,609.7c-0.8-1.6-1.6-3.1-2.4-4.7c-9.1-6.4-18.2-12.9-27.4-19.3h-3.6l-14.8,8.4l-1.4,4
		c-3,14.2-6,28.4-8.9,42.6c0.4,1,0.8,2.1,1.2,3.1c4.3,2.8,8.7,5.6,13,8.5c6.3,0.3,12.6,0.6,18.9,0.9c5.4,0,10.8-0.1,16.2-0.1
		c0.5-0.3,0.9-0.7,1.4-1c0.5-0.3,0.9-0.7,1.4-1C810.9,637.3,813.1,623.5,815.3,609.7z"/>
</g>
<g id="Layer_7">
</g>
<g id="Layer_8">
</g>
</svg>
