<svg width="477" height="97" viewBox="0 0 477 97" fill="none" xmlns="http://www.w3.org/2000/svg">
<path fill-rule="evenodd" clip-rule="evenodd" d="M84.7 32.0998H27.2C19.8 32.0998 17.3 36.2998 17.3 40.1998L17.4 94.2998L17.3 94.6998H2L2.1 40.5998C2.1 28.2998 9.8 17.2998 25.4 17.2998L84.7 17.3998V32.0998Z" fill="black"/>
<path fill-rule="evenodd" clip-rule="evenodd" d="M22.6001 94.7996H84.9001V37.5996H31.4001C23.9001 37.5996 22.7001 41.0996 22.7001 44.9996L22.6001 94.7996Z" fill="#ED1C24"/>
<path fill-rule="evenodd" clip-rule="evenodd" d="M454.6 57.9996V72.0996L430.3 71.9996C409.7 71.9996 398.9 59.5996 398.9 44.1996C398.9 26.8996 412.4 17.0996 430 17.0996L476.6 17.1996V72.0996H461.6V31.9996H432.6C421.4 31.9996 413.8 36.3996 413.8 44.3996C413.8 52.3996 420.8 57.8996 432.8 57.8996L454.6 57.9996Z" fill="black"/>
<path fill-rule="evenodd" clip-rule="evenodd" d="M342.8 32.2H273C269.4 32.2 263.4 32.2 263.4 36.8C263 42.2 267.2 42.7 273 42.7H298.9C313.9 42.7 326.8 53.6 326.5 67.4C326 87 315 94.7 299.3 94.7H236.2L128.8 94.8C113.3 94.8 105.5 83.8 105.5 71.5L105.6 2.1H123L123.1 17.3H152.7V32.3H122.8L122.7 71.8C122.7 75.7 123.3 77.6 130.7 77.6L236.1 77.7H297.2C303.9 77.7 308.5 74.6 308.5 67.5C308.5 59.5 303.1 58.3 297.2 58.3L268.8 58.2C252.5 58.2 247.1 46.1 247.2 36.8C247.4 25 254.5 17.2 268.8 17.2H342.9V2H359.8V17.3H390V32.3H359.8V51.3C359.8 56 358.4 58 366.7 58H389.7V72.1H361.7C346.8 72.1 342.7 68.6 342.8 53.7V32.2Z" fill="black"/>
<path fill-rule="evenodd" clip-rule="evenodd" d="M236.3 32.0003L211.1 50.8003H190.5L214.7 32.0003H193.5C185.5 32.0003 173 34.0003 173 45.3003C173 51.2003 177.9 58.0003 194.7 58.0003H236.3V72.1003H194.8C177 72.1003 157.9 65.7003 157.9 45.3003C157.9 24.9003 176 16.9003 193.4 17.1003C203.4 17.2003 235.8 17.2003 236.3 17.2003V32.0003Z" fill="black"/>
<path d="M81.8002 68.4004H57.7002V92.5004H81.8002V68.4004Z" fill="white"/>
</svg>
