<svg width="279" height="372" viewBox="0 0 279 372" fill="none" xmlns="http://www.w3.org/2000/svg">
<path d="M43.6149 206.401L43.6008 206.378L15.1131 94.3849L1.03853 8.20727L11.5627 0.922126L245.448 95.8087L248.894 98.8569L278.388 155.532C278.407 156.4 278.425 157.276 278.443 158.152L278.444 158.177C278.462 159.052 278.48 159.926 278.498 160.794C268.177 188.341 257.861 215.882 247.547 243.421C232.273 284.201 217.002 324.974 201.718 365.747C200.439 367.011 199.176 368.29 197.921 369.562C197.396 370.094 196.872 370.624 196.349 371.152C178.516 367.283 160.646 363.413 142.775 359.544C141.094 358.825 139.404 358.105 137.715 357.386C136.061 356.682 134.407 355.978 132.762 355.273L88.2299 280.907L43.6149 206.401Z" stroke="black"/>
</svg>
